M48
; DRILL file {KiCad 8.0.3-8.0.3-0~ubuntu23.10.1} date 2024-07-29T17:45:37+0500
; FORMAT={-:-/ absolute / metric / decimal}
; #@! TF.CreationDate,2024-07-29T17:45:37+05:00
; #@! TF.GenerationSoftware,Kicad,Pcbnew,8.0.3-8.0.3-0~ubuntu23.10.1
; #@! TF.FileFunction,Plated,1,2,PTH
FMAT,2
METRIC
; #@! TA.AperFunction,Plated,PTH,ViaDrill
T1C0.400
; #@! TA.AperFunction,Plated,PTH,ComponentDrill
T2C0.800
; #@! TA.AperFunction,Plated,PTH,ComponentDrill
T3C1.000
; #@! TA.AperFunction,Plated,PTH,ComponentDrill
T4C1.300
; #@! TA.AperFunction,Plated,PTH,ComponentDrill
T5C1.500
%
G90
G05
T1
X49.733Y-95.961
X50.267Y-92.202
X51.638Y-95.961
X52.248Y-82.702
X53.518Y-82.702
X54.788Y-82.702
X56.007Y-82.677
X59.842Y-95.555
X62.763Y-95.555
X74.32Y-123.393
X76.225Y-130.048
X77.749Y-126.619
X81.229Y-130.048
X82.829Y-126.568
X86.208Y-130.048
T2
X100.228Y-165.405
X105.228Y-165.405
T3
X46.867Y-160.493
X51.032Y-167.259
X56.515Y-135.255
X56.515Y-137.795
X56.515Y-147.955
X56.515Y-155.575
X56.867Y-162.443
X61.032Y-167.259
X63.913Y-113.349
X63.913Y-119.349
X73.711Y-135.433
X73.711Y-137.973
X73.711Y-148.133
X73.711Y-155.753
X78.765Y-98.171
X81.305Y-98.171
X83.845Y-98.171
X86.385Y-98.171
X90.83Y-135.534
X90.83Y-138.074
X90.83Y-148.234
X90.83Y-155.854
X91.186Y-98.171
X93.726Y-98.171
X96.266Y-98.171
X97.513Y-107.349
X97.513Y-125.349
X98.806Y-98.171
T4
X45.517Y-121.721
X45.517Y-144.221
X45.593Y-149.9
X45.593Y-154.9
X66.171Y-164.846
X66.548Y-133.71
X66.548Y-156.21
X71.171Y-164.846
X77.601Y-164.846
X82.601Y-164.846
X83.541Y-133.888
X83.541Y-156.388
X88.951Y-164.846
X93.951Y-164.846
X100.736Y-133.964
X100.736Y-156.464
T5
X42.799Y-105.937
X42.799Y-115.843
X55.753Y-105.937
X55.753Y-115.843
M30
