%TF.GenerationSoftware,KiCad,Pcbnew,8.0.3-8.0.3-0~ubuntu23.10.1*%
%TF.CreationDate,2024-07-30T14:16:20+05:00*%
%TF.ProjectId,IOTV,494f5456-2e6b-4696-9361-645f70636258,3*%
%TF.SameCoordinates,Original*%
%TF.FileFunction,Legend,Top*%
%TF.FilePolarity,Positive*%
%FSLAX46Y46*%
G04 Gerber Fmt 4.6, Leading zero omitted, Abs format (unit mm)*
G04 Created by KiCad (PCBNEW 8.0.3-8.0.3-0~ubuntu23.10.1) date 2024-07-30 14:16:20*
%MOMM*%
%LPD*%
G01*
G04 APERTURE LIST*
%ADD10C,0.150000*%
%ADD11C,0.400000*%
%ADD12C,0.100000*%
%TA.AperFunction,Profile*%
%ADD13C,0.150000*%
%TD*%
G04 APERTURE END LIST*
D10*
X174986588Y-56638438D02*
X174891350Y-56590819D01*
X174891350Y-56590819D02*
X174748493Y-56590819D01*
X174748493Y-56590819D02*
X174605636Y-56638438D01*
X174605636Y-56638438D02*
X174510398Y-56733676D01*
X174510398Y-56733676D02*
X174462779Y-56828914D01*
X174462779Y-56828914D02*
X174415160Y-57019390D01*
X174415160Y-57019390D02*
X174415160Y-57162247D01*
X174415160Y-57162247D02*
X174462779Y-57352723D01*
X174462779Y-57352723D02*
X174510398Y-57447961D01*
X174510398Y-57447961D02*
X174605636Y-57543200D01*
X174605636Y-57543200D02*
X174748493Y-57590819D01*
X174748493Y-57590819D02*
X174843731Y-57590819D01*
X174843731Y-57590819D02*
X174986588Y-57543200D01*
X174986588Y-57543200D02*
X175034207Y-57495580D01*
X175034207Y-57495580D02*
X175034207Y-57162247D01*
X175034207Y-57162247D02*
X174843731Y-57162247D01*
X175462779Y-57590819D02*
X175462779Y-56590819D01*
X175462779Y-56590819D02*
X176034207Y-57590819D01*
X176034207Y-57590819D02*
X176034207Y-56590819D01*
X176510398Y-57590819D02*
X176510398Y-56590819D01*
X176510398Y-56590819D02*
X176748493Y-56590819D01*
X176748493Y-56590819D02*
X176891350Y-56638438D01*
X176891350Y-56638438D02*
X176986588Y-56733676D01*
X176986588Y-56733676D02*
X177034207Y-56828914D01*
X177034207Y-56828914D02*
X177081826Y-57019390D01*
X177081826Y-57019390D02*
X177081826Y-57162247D01*
X177081826Y-57162247D02*
X177034207Y-57352723D01*
X177034207Y-57352723D02*
X176986588Y-57447961D01*
X176986588Y-57447961D02*
X176891350Y-57543200D01*
X176891350Y-57543200D02*
X176748493Y-57590819D01*
X176748493Y-57590819D02*
X176510398Y-57590819D01*
X151530438Y-66181411D02*
X151482819Y-66276649D01*
X151482819Y-66276649D02*
X151482819Y-66419506D01*
X151482819Y-66419506D02*
X151530438Y-66562363D01*
X151530438Y-66562363D02*
X151625676Y-66657601D01*
X151625676Y-66657601D02*
X151720914Y-66705220D01*
X151720914Y-66705220D02*
X151911390Y-66752839D01*
X151911390Y-66752839D02*
X152054247Y-66752839D01*
X152054247Y-66752839D02*
X152244723Y-66705220D01*
X152244723Y-66705220D02*
X152339961Y-66657601D01*
X152339961Y-66657601D02*
X152435200Y-66562363D01*
X152435200Y-66562363D02*
X152482819Y-66419506D01*
X152482819Y-66419506D02*
X152482819Y-66324268D01*
X152482819Y-66324268D02*
X152435200Y-66181411D01*
X152435200Y-66181411D02*
X152387580Y-66133792D01*
X152387580Y-66133792D02*
X152054247Y-66133792D01*
X152054247Y-66133792D02*
X152054247Y-66324268D01*
X152482819Y-65705220D02*
X151482819Y-65705220D01*
X151482819Y-65705220D02*
X152482819Y-65133792D01*
X152482819Y-65133792D02*
X151482819Y-65133792D01*
X152482819Y-64657601D02*
X151482819Y-64657601D01*
X151482819Y-64657601D02*
X151482819Y-64419506D01*
X151482819Y-64419506D02*
X151530438Y-64276649D01*
X151530438Y-64276649D02*
X151625676Y-64181411D01*
X151625676Y-64181411D02*
X151720914Y-64133792D01*
X151720914Y-64133792D02*
X151911390Y-64086173D01*
X151911390Y-64086173D02*
X152054247Y-64086173D01*
X152054247Y-64086173D02*
X152244723Y-64133792D01*
X152244723Y-64133792D02*
X152339961Y-64181411D01*
X152339961Y-64181411D02*
X152435200Y-64276649D01*
X152435200Y-64276649D02*
X152482819Y-64419506D01*
X152482819Y-64419506D02*
X152482819Y-64657601D01*
X159721866Y-66959220D02*
X159721866Y-66197316D01*
X160102819Y-66578268D02*
X159340914Y-66578268D01*
X159102819Y-65816363D02*
X159102819Y-65197316D01*
X159102819Y-65197316D02*
X159483771Y-65530649D01*
X159483771Y-65530649D02*
X159483771Y-65387792D01*
X159483771Y-65387792D02*
X159531390Y-65292554D01*
X159531390Y-65292554D02*
X159579009Y-65244935D01*
X159579009Y-65244935D02*
X159674247Y-65197316D01*
X159674247Y-65197316D02*
X159912342Y-65197316D01*
X159912342Y-65197316D02*
X160007580Y-65244935D01*
X160007580Y-65244935D02*
X160055200Y-65292554D01*
X160055200Y-65292554D02*
X160102819Y-65387792D01*
X160102819Y-65387792D02*
X160102819Y-65673506D01*
X160102819Y-65673506D02*
X160055200Y-65768744D01*
X160055200Y-65768744D02*
X160007580Y-65816363D01*
X160007580Y-64768744D02*
X160055200Y-64721125D01*
X160055200Y-64721125D02*
X160102819Y-64768744D01*
X160102819Y-64768744D02*
X160055200Y-64816363D01*
X160055200Y-64816363D02*
X160007580Y-64768744D01*
X160007580Y-64768744D02*
X160102819Y-64768744D01*
X159102819Y-64387792D02*
X159102819Y-63768745D01*
X159102819Y-63768745D02*
X159483771Y-64102078D01*
X159483771Y-64102078D02*
X159483771Y-63959221D01*
X159483771Y-63959221D02*
X159531390Y-63863983D01*
X159531390Y-63863983D02*
X159579009Y-63816364D01*
X159579009Y-63816364D02*
X159674247Y-63768745D01*
X159674247Y-63768745D02*
X159912342Y-63768745D01*
X159912342Y-63768745D02*
X160007580Y-63816364D01*
X160007580Y-63816364D02*
X160055200Y-63863983D01*
X160055200Y-63863983D02*
X160102819Y-63959221D01*
X160102819Y-63959221D02*
X160102819Y-64244935D01*
X160102819Y-64244935D02*
X160055200Y-64340173D01*
X160055200Y-64340173D02*
X160007580Y-64387792D01*
X163794779Y-57590819D02*
X163794779Y-56590819D01*
X164461445Y-56590819D02*
X164651921Y-56590819D01*
X164651921Y-56590819D02*
X164747159Y-56638438D01*
X164747159Y-56638438D02*
X164842397Y-56733676D01*
X164842397Y-56733676D02*
X164890016Y-56924152D01*
X164890016Y-56924152D02*
X164890016Y-57257485D01*
X164890016Y-57257485D02*
X164842397Y-57447961D01*
X164842397Y-57447961D02*
X164747159Y-57543200D01*
X164747159Y-57543200D02*
X164651921Y-57590819D01*
X164651921Y-57590819D02*
X164461445Y-57590819D01*
X164461445Y-57590819D02*
X164366207Y-57543200D01*
X164366207Y-57543200D02*
X164270969Y-57447961D01*
X164270969Y-57447961D02*
X164223350Y-57257485D01*
X164223350Y-57257485D02*
X164223350Y-56924152D01*
X164223350Y-56924152D02*
X164270969Y-56733676D01*
X164270969Y-56733676D02*
X164366207Y-56638438D01*
X164366207Y-56638438D02*
X164461445Y-56590819D01*
X165842397Y-57590819D02*
X165270969Y-57590819D01*
X165556683Y-57590819D02*
X165556683Y-56590819D01*
X165556683Y-56590819D02*
X165461445Y-56733676D01*
X165461445Y-56733676D02*
X165366207Y-56828914D01*
X165366207Y-56828914D02*
X165270969Y-56876533D01*
X166699540Y-56924152D02*
X166699540Y-57590819D01*
X166461445Y-56543200D02*
X166223350Y-57257485D01*
X166223350Y-57257485D02*
X166842397Y-57257485D01*
X163794779Y-53780819D02*
X163794779Y-52780819D01*
X164461445Y-52780819D02*
X164651921Y-52780819D01*
X164651921Y-52780819D02*
X164747159Y-52828438D01*
X164747159Y-52828438D02*
X164842397Y-52923676D01*
X164842397Y-52923676D02*
X164890016Y-53114152D01*
X164890016Y-53114152D02*
X164890016Y-53447485D01*
X164890016Y-53447485D02*
X164842397Y-53637961D01*
X164842397Y-53637961D02*
X164747159Y-53733200D01*
X164747159Y-53733200D02*
X164651921Y-53780819D01*
X164651921Y-53780819D02*
X164461445Y-53780819D01*
X164461445Y-53780819D02*
X164366207Y-53733200D01*
X164366207Y-53733200D02*
X164270969Y-53637961D01*
X164270969Y-53637961D02*
X164223350Y-53447485D01*
X164223350Y-53447485D02*
X164223350Y-53114152D01*
X164223350Y-53114152D02*
X164270969Y-52923676D01*
X164270969Y-52923676D02*
X164366207Y-52828438D01*
X164366207Y-52828438D02*
X164461445Y-52780819D01*
X165842397Y-53780819D02*
X165270969Y-53780819D01*
X165556683Y-53780819D02*
X165556683Y-52780819D01*
X165556683Y-52780819D02*
X165461445Y-52923676D01*
X165461445Y-52923676D02*
X165366207Y-53018914D01*
X165366207Y-53018914D02*
X165270969Y-53066533D01*
X166223350Y-52876057D02*
X166270969Y-52828438D01*
X166270969Y-52828438D02*
X166366207Y-52780819D01*
X166366207Y-52780819D02*
X166604302Y-52780819D01*
X166604302Y-52780819D02*
X166699540Y-52828438D01*
X166699540Y-52828438D02*
X166747159Y-52876057D01*
X166747159Y-52876057D02*
X166794778Y-52971295D01*
X166794778Y-52971295D02*
X166794778Y-53066533D01*
X166794778Y-53066533D02*
X166747159Y-53209390D01*
X166747159Y-53209390D02*
X166175731Y-53780819D01*
X166175731Y-53780819D02*
X166794778Y-53780819D01*
X142561009Y-57227887D02*
X142608628Y-57085030D01*
X142608628Y-57085030D02*
X142656247Y-57037411D01*
X142656247Y-57037411D02*
X142751485Y-56989792D01*
X142751485Y-56989792D02*
X142894342Y-56989792D01*
X142894342Y-56989792D02*
X142989580Y-57037411D01*
X142989580Y-57037411D02*
X143037200Y-57085030D01*
X143037200Y-57085030D02*
X143084819Y-57180268D01*
X143084819Y-57180268D02*
X143084819Y-57561220D01*
X143084819Y-57561220D02*
X142084819Y-57561220D01*
X142084819Y-57561220D02*
X142084819Y-57227887D01*
X142084819Y-57227887D02*
X142132438Y-57132649D01*
X142132438Y-57132649D02*
X142180057Y-57085030D01*
X142180057Y-57085030D02*
X142275295Y-57037411D01*
X142275295Y-57037411D02*
X142370533Y-57037411D01*
X142370533Y-57037411D02*
X142465771Y-57085030D01*
X142465771Y-57085030D02*
X142513390Y-57132649D01*
X142513390Y-57132649D02*
X142561009Y-57227887D01*
X142561009Y-57227887D02*
X142561009Y-57561220D01*
X142084819Y-56370744D02*
X142084819Y-56180268D01*
X142084819Y-56180268D02*
X142132438Y-56085030D01*
X142132438Y-56085030D02*
X142227676Y-55989792D01*
X142227676Y-55989792D02*
X142418152Y-55942173D01*
X142418152Y-55942173D02*
X142751485Y-55942173D01*
X142751485Y-55942173D02*
X142941961Y-55989792D01*
X142941961Y-55989792D02*
X143037200Y-56085030D01*
X143037200Y-56085030D02*
X143084819Y-56180268D01*
X143084819Y-56180268D02*
X143084819Y-56370744D01*
X143084819Y-56370744D02*
X143037200Y-56465982D01*
X143037200Y-56465982D02*
X142941961Y-56561220D01*
X142941961Y-56561220D02*
X142751485Y-56608839D01*
X142751485Y-56608839D02*
X142418152Y-56608839D01*
X142418152Y-56608839D02*
X142227676Y-56561220D01*
X142227676Y-56561220D02*
X142132438Y-56465982D01*
X142132438Y-56465982D02*
X142084819Y-56370744D01*
X142084819Y-55323125D02*
X142084819Y-55132649D01*
X142084819Y-55132649D02*
X142132438Y-55037411D01*
X142132438Y-55037411D02*
X142227676Y-54942173D01*
X142227676Y-54942173D02*
X142418152Y-54894554D01*
X142418152Y-54894554D02*
X142751485Y-54894554D01*
X142751485Y-54894554D02*
X142941961Y-54942173D01*
X142941961Y-54942173D02*
X143037200Y-55037411D01*
X143037200Y-55037411D02*
X143084819Y-55132649D01*
X143084819Y-55132649D02*
X143084819Y-55323125D01*
X143084819Y-55323125D02*
X143037200Y-55418363D01*
X143037200Y-55418363D02*
X142941961Y-55513601D01*
X142941961Y-55513601D02*
X142751485Y-55561220D01*
X142751485Y-55561220D02*
X142418152Y-55561220D01*
X142418152Y-55561220D02*
X142227676Y-55513601D01*
X142227676Y-55513601D02*
X142132438Y-55418363D01*
X142132438Y-55418363D02*
X142084819Y-55323125D01*
X142084819Y-54608839D02*
X142084819Y-54037411D01*
X143084819Y-54323125D02*
X142084819Y-54323125D01*
X154022819Y-66594077D02*
X154022819Y-66022649D01*
X155022819Y-66308363D02*
X154022819Y-66308363D01*
X154022819Y-65784553D02*
X155022819Y-65117887D01*
X154022819Y-65117887D02*
X155022819Y-65784553D01*
X171485200Y-66752839D02*
X171532819Y-66609982D01*
X171532819Y-66609982D02*
X171532819Y-66371887D01*
X171532819Y-66371887D02*
X171485200Y-66276649D01*
X171485200Y-66276649D02*
X171437580Y-66229030D01*
X171437580Y-66229030D02*
X171342342Y-66181411D01*
X171342342Y-66181411D02*
X171247104Y-66181411D01*
X171247104Y-66181411D02*
X171151866Y-66229030D01*
X171151866Y-66229030D02*
X171104247Y-66276649D01*
X171104247Y-66276649D02*
X171056628Y-66371887D01*
X171056628Y-66371887D02*
X171009009Y-66562363D01*
X171009009Y-66562363D02*
X170961390Y-66657601D01*
X170961390Y-66657601D02*
X170913771Y-66705220D01*
X170913771Y-66705220D02*
X170818533Y-66752839D01*
X170818533Y-66752839D02*
X170723295Y-66752839D01*
X170723295Y-66752839D02*
X170628057Y-66705220D01*
X170628057Y-66705220D02*
X170580438Y-66657601D01*
X170580438Y-66657601D02*
X170532819Y-66562363D01*
X170532819Y-66562363D02*
X170532819Y-66324268D01*
X170532819Y-66324268D02*
X170580438Y-66181411D01*
X171532819Y-65752839D02*
X170532819Y-65752839D01*
X170532819Y-65752839D02*
X170532819Y-65514744D01*
X170532819Y-65514744D02*
X170580438Y-65371887D01*
X170580438Y-65371887D02*
X170675676Y-65276649D01*
X170675676Y-65276649D02*
X170770914Y-65229030D01*
X170770914Y-65229030D02*
X170961390Y-65181411D01*
X170961390Y-65181411D02*
X171104247Y-65181411D01*
X171104247Y-65181411D02*
X171294723Y-65229030D01*
X171294723Y-65229030D02*
X171389961Y-65276649D01*
X171389961Y-65276649D02*
X171485200Y-65371887D01*
X171485200Y-65371887D02*
X171532819Y-65514744D01*
X171532819Y-65514744D02*
X171532819Y-65752839D01*
X171247104Y-64800458D02*
X171247104Y-64324268D01*
X171532819Y-64895696D02*
X170532819Y-64562363D01*
X170532819Y-64562363D02*
X171532819Y-64229030D01*
X174025200Y-66752839D02*
X174072819Y-66609982D01*
X174072819Y-66609982D02*
X174072819Y-66371887D01*
X174072819Y-66371887D02*
X174025200Y-66276649D01*
X174025200Y-66276649D02*
X173977580Y-66229030D01*
X173977580Y-66229030D02*
X173882342Y-66181411D01*
X173882342Y-66181411D02*
X173787104Y-66181411D01*
X173787104Y-66181411D02*
X173691866Y-66229030D01*
X173691866Y-66229030D02*
X173644247Y-66276649D01*
X173644247Y-66276649D02*
X173596628Y-66371887D01*
X173596628Y-66371887D02*
X173549009Y-66562363D01*
X173549009Y-66562363D02*
X173501390Y-66657601D01*
X173501390Y-66657601D02*
X173453771Y-66705220D01*
X173453771Y-66705220D02*
X173358533Y-66752839D01*
X173358533Y-66752839D02*
X173263295Y-66752839D01*
X173263295Y-66752839D02*
X173168057Y-66705220D01*
X173168057Y-66705220D02*
X173120438Y-66657601D01*
X173120438Y-66657601D02*
X173072819Y-66562363D01*
X173072819Y-66562363D02*
X173072819Y-66324268D01*
X173072819Y-66324268D02*
X173120438Y-66181411D01*
X173977580Y-65181411D02*
X174025200Y-65229030D01*
X174025200Y-65229030D02*
X174072819Y-65371887D01*
X174072819Y-65371887D02*
X174072819Y-65467125D01*
X174072819Y-65467125D02*
X174025200Y-65609982D01*
X174025200Y-65609982D02*
X173929961Y-65705220D01*
X173929961Y-65705220D02*
X173834723Y-65752839D01*
X173834723Y-65752839D02*
X173644247Y-65800458D01*
X173644247Y-65800458D02*
X173501390Y-65800458D01*
X173501390Y-65800458D02*
X173310914Y-65752839D01*
X173310914Y-65752839D02*
X173215676Y-65705220D01*
X173215676Y-65705220D02*
X173120438Y-65609982D01*
X173120438Y-65609982D02*
X173072819Y-65467125D01*
X173072819Y-65467125D02*
X173072819Y-65371887D01*
X173072819Y-65371887D02*
X173120438Y-65229030D01*
X173120438Y-65229030D02*
X173168057Y-65181411D01*
X174072819Y-64276649D02*
X174072819Y-64752839D01*
X174072819Y-64752839D02*
X173072819Y-64752839D01*
X174986588Y-60448438D02*
X174891350Y-60400819D01*
X174891350Y-60400819D02*
X174748493Y-60400819D01*
X174748493Y-60400819D02*
X174605636Y-60448438D01*
X174605636Y-60448438D02*
X174510398Y-60543676D01*
X174510398Y-60543676D02*
X174462779Y-60638914D01*
X174462779Y-60638914D02*
X174415160Y-60829390D01*
X174415160Y-60829390D02*
X174415160Y-60972247D01*
X174415160Y-60972247D02*
X174462779Y-61162723D01*
X174462779Y-61162723D02*
X174510398Y-61257961D01*
X174510398Y-61257961D02*
X174605636Y-61353200D01*
X174605636Y-61353200D02*
X174748493Y-61400819D01*
X174748493Y-61400819D02*
X174843731Y-61400819D01*
X174843731Y-61400819D02*
X174986588Y-61353200D01*
X174986588Y-61353200D02*
X175034207Y-61305580D01*
X175034207Y-61305580D02*
X175034207Y-60972247D01*
X175034207Y-60972247D02*
X174843731Y-60972247D01*
X175462779Y-61400819D02*
X175462779Y-60400819D01*
X175462779Y-60400819D02*
X176034207Y-61400819D01*
X176034207Y-61400819D02*
X176034207Y-60400819D01*
X176510398Y-61400819D02*
X176510398Y-60400819D01*
X176510398Y-60400819D02*
X176748493Y-60400819D01*
X176748493Y-60400819D02*
X176891350Y-60448438D01*
X176891350Y-60448438D02*
X176986588Y-60543676D01*
X176986588Y-60543676D02*
X177034207Y-60638914D01*
X177034207Y-60638914D02*
X177081826Y-60829390D01*
X177081826Y-60829390D02*
X177081826Y-60972247D01*
X177081826Y-60972247D02*
X177034207Y-61162723D01*
X177034207Y-61162723D02*
X176986588Y-61257961D01*
X176986588Y-61257961D02*
X176891350Y-61353200D01*
X176891350Y-61353200D02*
X176748493Y-61400819D01*
X176748493Y-61400819D02*
X176510398Y-61400819D01*
X157562819Y-65879792D02*
X157086628Y-66213125D01*
X157562819Y-66451220D02*
X156562819Y-66451220D01*
X156562819Y-66451220D02*
X156562819Y-66070268D01*
X156562819Y-66070268D02*
X156610438Y-65975030D01*
X156610438Y-65975030D02*
X156658057Y-65927411D01*
X156658057Y-65927411D02*
X156753295Y-65879792D01*
X156753295Y-65879792D02*
X156896152Y-65879792D01*
X156896152Y-65879792D02*
X156991390Y-65927411D01*
X156991390Y-65927411D02*
X157039009Y-65975030D01*
X157039009Y-65975030D02*
X157086628Y-66070268D01*
X157086628Y-66070268D02*
X157086628Y-66451220D01*
X156562819Y-65546458D02*
X157562819Y-64879792D01*
X156562819Y-64879792D02*
X157562819Y-65546458D01*
X168611866Y-66959220D02*
X168611866Y-66197316D01*
X168992819Y-66578268D02*
X168230914Y-66578268D01*
X167992819Y-65816363D02*
X167992819Y-65197316D01*
X167992819Y-65197316D02*
X168373771Y-65530649D01*
X168373771Y-65530649D02*
X168373771Y-65387792D01*
X168373771Y-65387792D02*
X168421390Y-65292554D01*
X168421390Y-65292554D02*
X168469009Y-65244935D01*
X168469009Y-65244935D02*
X168564247Y-65197316D01*
X168564247Y-65197316D02*
X168802342Y-65197316D01*
X168802342Y-65197316D02*
X168897580Y-65244935D01*
X168897580Y-65244935D02*
X168945200Y-65292554D01*
X168945200Y-65292554D02*
X168992819Y-65387792D01*
X168992819Y-65387792D02*
X168992819Y-65673506D01*
X168992819Y-65673506D02*
X168945200Y-65768744D01*
X168945200Y-65768744D02*
X168897580Y-65816363D01*
X168897580Y-64768744D02*
X168945200Y-64721125D01*
X168945200Y-64721125D02*
X168992819Y-64768744D01*
X168992819Y-64768744D02*
X168945200Y-64816363D01*
X168945200Y-64816363D02*
X168897580Y-64768744D01*
X168897580Y-64768744D02*
X168992819Y-64768744D01*
X167992819Y-64387792D02*
X167992819Y-63768745D01*
X167992819Y-63768745D02*
X168373771Y-64102078D01*
X168373771Y-64102078D02*
X168373771Y-63959221D01*
X168373771Y-63959221D02*
X168421390Y-63863983D01*
X168421390Y-63863983D02*
X168469009Y-63816364D01*
X168469009Y-63816364D02*
X168564247Y-63768745D01*
X168564247Y-63768745D02*
X168802342Y-63768745D01*
X168802342Y-63768745D02*
X168897580Y-63816364D01*
X168897580Y-63816364D02*
X168945200Y-63863983D01*
X168945200Y-63863983D02*
X168992819Y-63959221D01*
X168992819Y-63959221D02*
X168992819Y-64244935D01*
X168992819Y-64244935D02*
X168945200Y-64340173D01*
X168945200Y-64340173D02*
X168897580Y-64387792D01*
X142815009Y-65435220D02*
X142815009Y-65101887D01*
X143338819Y-64959030D02*
X143338819Y-65435220D01*
X143338819Y-65435220D02*
X142338819Y-65435220D01*
X142338819Y-65435220D02*
X142338819Y-64959030D01*
X143338819Y-64530458D02*
X142338819Y-64530458D01*
X142338819Y-64530458D02*
X143338819Y-63959030D01*
X143338819Y-63959030D02*
X142338819Y-63959030D01*
X174986588Y-52828438D02*
X174891350Y-52780819D01*
X174891350Y-52780819D02*
X174748493Y-52780819D01*
X174748493Y-52780819D02*
X174605636Y-52828438D01*
X174605636Y-52828438D02*
X174510398Y-52923676D01*
X174510398Y-52923676D02*
X174462779Y-53018914D01*
X174462779Y-53018914D02*
X174415160Y-53209390D01*
X174415160Y-53209390D02*
X174415160Y-53352247D01*
X174415160Y-53352247D02*
X174462779Y-53542723D01*
X174462779Y-53542723D02*
X174510398Y-53637961D01*
X174510398Y-53637961D02*
X174605636Y-53733200D01*
X174605636Y-53733200D02*
X174748493Y-53780819D01*
X174748493Y-53780819D02*
X174843731Y-53780819D01*
X174843731Y-53780819D02*
X174986588Y-53733200D01*
X174986588Y-53733200D02*
X175034207Y-53685580D01*
X175034207Y-53685580D02*
X175034207Y-53352247D01*
X175034207Y-53352247D02*
X174843731Y-53352247D01*
X175462779Y-53780819D02*
X175462779Y-52780819D01*
X175462779Y-52780819D02*
X176034207Y-53780819D01*
X176034207Y-53780819D02*
X176034207Y-52780819D01*
X176510398Y-53780819D02*
X176510398Y-52780819D01*
X176510398Y-52780819D02*
X176748493Y-52780819D01*
X176748493Y-52780819D02*
X176891350Y-52828438D01*
X176891350Y-52828438D02*
X176986588Y-52923676D01*
X176986588Y-52923676D02*
X177034207Y-53018914D01*
X177034207Y-53018914D02*
X177081826Y-53209390D01*
X177081826Y-53209390D02*
X177081826Y-53352247D01*
X177081826Y-53352247D02*
X177034207Y-53542723D01*
X177034207Y-53542723D02*
X176986588Y-53637961D01*
X176986588Y-53637961D02*
X176891350Y-53733200D01*
X176891350Y-53733200D02*
X176748493Y-53780819D01*
X176748493Y-53780819D02*
X176510398Y-53780819D01*
X176231866Y-66705220D02*
X176231866Y-65943316D01*
X176612819Y-66324268D02*
X175850914Y-66324268D01*
X175612819Y-64990935D02*
X175612819Y-65467125D01*
X175612819Y-65467125D02*
X176089009Y-65514744D01*
X176089009Y-65514744D02*
X176041390Y-65467125D01*
X176041390Y-65467125D02*
X175993771Y-65371887D01*
X175993771Y-65371887D02*
X175993771Y-65133792D01*
X175993771Y-65133792D02*
X176041390Y-65038554D01*
X176041390Y-65038554D02*
X176089009Y-64990935D01*
X176089009Y-64990935D02*
X176184247Y-64943316D01*
X176184247Y-64943316D02*
X176422342Y-64943316D01*
X176422342Y-64943316D02*
X176517580Y-64990935D01*
X176517580Y-64990935D02*
X176565200Y-65038554D01*
X176565200Y-65038554D02*
X176612819Y-65133792D01*
X176612819Y-65133792D02*
X176612819Y-65371887D01*
X176612819Y-65371887D02*
X176565200Y-65467125D01*
X176565200Y-65467125D02*
X176517580Y-65514744D01*
X175612819Y-64657601D02*
X176612819Y-64324268D01*
X176612819Y-64324268D02*
X175612819Y-63990935D01*
X163794779Y-61654819D02*
X163794779Y-60654819D01*
X164461445Y-60654819D02*
X164651921Y-60654819D01*
X164651921Y-60654819D02*
X164747159Y-60702438D01*
X164747159Y-60702438D02*
X164842397Y-60797676D01*
X164842397Y-60797676D02*
X164890016Y-60988152D01*
X164890016Y-60988152D02*
X164890016Y-61321485D01*
X164890016Y-61321485D02*
X164842397Y-61511961D01*
X164842397Y-61511961D02*
X164747159Y-61607200D01*
X164747159Y-61607200D02*
X164651921Y-61654819D01*
X164651921Y-61654819D02*
X164461445Y-61654819D01*
X164461445Y-61654819D02*
X164366207Y-61607200D01*
X164366207Y-61607200D02*
X164270969Y-61511961D01*
X164270969Y-61511961D02*
X164223350Y-61321485D01*
X164223350Y-61321485D02*
X164223350Y-60988152D01*
X164223350Y-60988152D02*
X164270969Y-60797676D01*
X164270969Y-60797676D02*
X164366207Y-60702438D01*
X164366207Y-60702438D02*
X164461445Y-60654819D01*
X165270969Y-60750057D02*
X165318588Y-60702438D01*
X165318588Y-60702438D02*
X165413826Y-60654819D01*
X165413826Y-60654819D02*
X165651921Y-60654819D01*
X165651921Y-60654819D02*
X165747159Y-60702438D01*
X165747159Y-60702438D02*
X165794778Y-60750057D01*
X165794778Y-60750057D02*
X165842397Y-60845295D01*
X165842397Y-60845295D02*
X165842397Y-60940533D01*
X165842397Y-60940533D02*
X165794778Y-61083390D01*
X165794778Y-61083390D02*
X165223350Y-61654819D01*
X165223350Y-61654819D02*
X165842397Y-61654819D01*
X166175731Y-60654819D02*
X166842397Y-60654819D01*
X166842397Y-60654819D02*
X166413826Y-61654819D01*
X162261866Y-66959220D02*
X162261866Y-66197316D01*
X162642819Y-66578268D02*
X161880914Y-66578268D01*
X161642819Y-65244935D02*
X161642819Y-65721125D01*
X161642819Y-65721125D02*
X162119009Y-65768744D01*
X162119009Y-65768744D02*
X162071390Y-65721125D01*
X162071390Y-65721125D02*
X162023771Y-65625887D01*
X162023771Y-65625887D02*
X162023771Y-65387792D01*
X162023771Y-65387792D02*
X162071390Y-65292554D01*
X162071390Y-65292554D02*
X162119009Y-65244935D01*
X162119009Y-65244935D02*
X162214247Y-65197316D01*
X162214247Y-65197316D02*
X162452342Y-65197316D01*
X162452342Y-65197316D02*
X162547580Y-65244935D01*
X162547580Y-65244935D02*
X162595200Y-65292554D01*
X162595200Y-65292554D02*
X162642819Y-65387792D01*
X162642819Y-65387792D02*
X162642819Y-65625887D01*
X162642819Y-65625887D02*
X162595200Y-65721125D01*
X162595200Y-65721125D02*
X162547580Y-65768744D01*
X161642819Y-64911601D02*
X162642819Y-64578268D01*
X162642819Y-64578268D02*
X161642819Y-64244935D01*
X165500438Y-66181411D02*
X165452819Y-66276649D01*
X165452819Y-66276649D02*
X165452819Y-66419506D01*
X165452819Y-66419506D02*
X165500438Y-66562363D01*
X165500438Y-66562363D02*
X165595676Y-66657601D01*
X165595676Y-66657601D02*
X165690914Y-66705220D01*
X165690914Y-66705220D02*
X165881390Y-66752839D01*
X165881390Y-66752839D02*
X166024247Y-66752839D01*
X166024247Y-66752839D02*
X166214723Y-66705220D01*
X166214723Y-66705220D02*
X166309961Y-66657601D01*
X166309961Y-66657601D02*
X166405200Y-66562363D01*
X166405200Y-66562363D02*
X166452819Y-66419506D01*
X166452819Y-66419506D02*
X166452819Y-66324268D01*
X166452819Y-66324268D02*
X166405200Y-66181411D01*
X166405200Y-66181411D02*
X166357580Y-66133792D01*
X166357580Y-66133792D02*
X166024247Y-66133792D01*
X166024247Y-66133792D02*
X166024247Y-66324268D01*
X166452819Y-65705220D02*
X165452819Y-65705220D01*
X165452819Y-65705220D02*
X166452819Y-65133792D01*
X166452819Y-65133792D02*
X165452819Y-65133792D01*
X166452819Y-64657601D02*
X165452819Y-64657601D01*
X165452819Y-64657601D02*
X165452819Y-64419506D01*
X165452819Y-64419506D02*
X165500438Y-64276649D01*
X165500438Y-64276649D02*
X165595676Y-64181411D01*
X165595676Y-64181411D02*
X165690914Y-64133792D01*
X165690914Y-64133792D02*
X165881390Y-64086173D01*
X165881390Y-64086173D02*
X166024247Y-64086173D01*
X166024247Y-64086173D02*
X166214723Y-64133792D01*
X166214723Y-64133792D02*
X166309961Y-64181411D01*
X166309961Y-64181411D02*
X166405200Y-64276649D01*
X166405200Y-64276649D02*
X166452819Y-64419506D01*
X166452819Y-64419506D02*
X166452819Y-64657601D01*
X150858014Y-89574919D02*
X150858014Y-88574919D01*
X150858014Y-88574919D02*
X151238966Y-88574919D01*
X151238966Y-88574919D02*
X151334204Y-88622538D01*
X151334204Y-88622538D02*
X151381823Y-88670157D01*
X151381823Y-88670157D02*
X151429442Y-88765395D01*
X151429442Y-88765395D02*
X151429442Y-88908252D01*
X151429442Y-88908252D02*
X151381823Y-89003490D01*
X151381823Y-89003490D02*
X151334204Y-89051109D01*
X151334204Y-89051109D02*
X151238966Y-89098728D01*
X151238966Y-89098728D02*
X150858014Y-89098728D01*
X151810395Y-89527300D02*
X151953252Y-89574919D01*
X151953252Y-89574919D02*
X152191347Y-89574919D01*
X152191347Y-89574919D02*
X152286585Y-89527300D01*
X152286585Y-89527300D02*
X152334204Y-89479680D01*
X152334204Y-89479680D02*
X152381823Y-89384442D01*
X152381823Y-89384442D02*
X152381823Y-89289204D01*
X152381823Y-89289204D02*
X152334204Y-89193966D01*
X152334204Y-89193966D02*
X152286585Y-89146347D01*
X152286585Y-89146347D02*
X152191347Y-89098728D01*
X152191347Y-89098728D02*
X152000871Y-89051109D01*
X152000871Y-89051109D02*
X151905633Y-89003490D01*
X151905633Y-89003490D02*
X151858014Y-88955871D01*
X151858014Y-88955871D02*
X151810395Y-88860633D01*
X151810395Y-88860633D02*
X151810395Y-88765395D01*
X151810395Y-88765395D02*
X151858014Y-88670157D01*
X151858014Y-88670157D02*
X151905633Y-88622538D01*
X151905633Y-88622538D02*
X152000871Y-88574919D01*
X152000871Y-88574919D02*
X152238966Y-88574919D01*
X152238966Y-88574919D02*
X152381823Y-88622538D01*
X153334204Y-89574919D02*
X152762776Y-89574919D01*
X153048490Y-89574919D02*
X153048490Y-88574919D01*
X153048490Y-88574919D02*
X152953252Y-88717776D01*
X152953252Y-88717776D02*
X152858014Y-88813014D01*
X152858014Y-88813014D02*
X152762776Y-88860633D01*
X157877209Y-112460333D02*
X157877209Y-112793666D01*
X158401019Y-112793666D02*
X157401019Y-112793666D01*
X157401019Y-112793666D02*
X157401019Y-112317476D01*
X157401019Y-112031761D02*
X157401019Y-111412714D01*
X157401019Y-111412714D02*
X157781971Y-111746047D01*
X157781971Y-111746047D02*
X157781971Y-111603190D01*
X157781971Y-111603190D02*
X157829590Y-111507952D01*
X157829590Y-111507952D02*
X157877209Y-111460333D01*
X157877209Y-111460333D02*
X157972447Y-111412714D01*
X157972447Y-111412714D02*
X158210542Y-111412714D01*
X158210542Y-111412714D02*
X158305780Y-111460333D01*
X158305780Y-111460333D02*
X158353400Y-111507952D01*
X158353400Y-111507952D02*
X158401019Y-111603190D01*
X158401019Y-111603190D02*
X158401019Y-111888904D01*
X158401019Y-111888904D02*
X158353400Y-111984142D01*
X158353400Y-111984142D02*
X158305780Y-112031761D01*
X150883505Y-56549419D02*
X150883505Y-55549419D01*
X150883505Y-55549419D02*
X151121600Y-55549419D01*
X151121600Y-55549419D02*
X151264457Y-55597038D01*
X151264457Y-55597038D02*
X151359695Y-55692276D01*
X151359695Y-55692276D02*
X151407314Y-55787514D01*
X151407314Y-55787514D02*
X151454933Y-55977990D01*
X151454933Y-55977990D02*
X151454933Y-56120847D01*
X151454933Y-56120847D02*
X151407314Y-56311323D01*
X151407314Y-56311323D02*
X151359695Y-56406561D01*
X151359695Y-56406561D02*
X151264457Y-56501800D01*
X151264457Y-56501800D02*
X151121600Y-56549419D01*
X151121600Y-56549419D02*
X150883505Y-56549419D01*
X152407314Y-56549419D02*
X151835886Y-56549419D01*
X152121600Y-56549419D02*
X152121600Y-55549419D01*
X152121600Y-55549419D02*
X152026362Y-55692276D01*
X152026362Y-55692276D02*
X151931124Y-55787514D01*
X151931124Y-55787514D02*
X151835886Y-55835133D01*
X161208533Y-56498619D02*
X160875200Y-56022428D01*
X160637105Y-56498619D02*
X160637105Y-55498619D01*
X160637105Y-55498619D02*
X161018057Y-55498619D01*
X161018057Y-55498619D02*
X161113295Y-55546238D01*
X161113295Y-55546238D02*
X161160914Y-55593857D01*
X161160914Y-55593857D02*
X161208533Y-55689095D01*
X161208533Y-55689095D02*
X161208533Y-55831952D01*
X161208533Y-55831952D02*
X161160914Y-55927190D01*
X161160914Y-55927190D02*
X161113295Y-55974809D01*
X161113295Y-55974809D02*
X161018057Y-56022428D01*
X161018057Y-56022428D02*
X160637105Y-56022428D01*
X161541867Y-55498619D02*
X162160914Y-55498619D01*
X162160914Y-55498619D02*
X161827581Y-55879571D01*
X161827581Y-55879571D02*
X161970438Y-55879571D01*
X161970438Y-55879571D02*
X162065676Y-55927190D01*
X162065676Y-55927190D02*
X162113295Y-55974809D01*
X162113295Y-55974809D02*
X162160914Y-56070047D01*
X162160914Y-56070047D02*
X162160914Y-56308142D01*
X162160914Y-56308142D02*
X162113295Y-56403380D01*
X162113295Y-56403380D02*
X162065676Y-56451000D01*
X162065676Y-56451000D02*
X161970438Y-56498619D01*
X161970438Y-56498619D02*
X161684724Y-56498619D01*
X161684724Y-56498619D02*
X161589486Y-56451000D01*
X161589486Y-56451000D02*
X161541867Y-56403380D01*
X172348784Y-140934580D02*
X172301165Y-140982200D01*
X172301165Y-140982200D02*
X172158308Y-141029819D01*
X172158308Y-141029819D02*
X172063070Y-141029819D01*
X172063070Y-141029819D02*
X171920213Y-140982200D01*
X171920213Y-140982200D02*
X171824975Y-140886961D01*
X171824975Y-140886961D02*
X171777356Y-140791723D01*
X171777356Y-140791723D02*
X171729737Y-140601247D01*
X171729737Y-140601247D02*
X171729737Y-140458390D01*
X171729737Y-140458390D02*
X171777356Y-140267914D01*
X171777356Y-140267914D02*
X171824975Y-140172676D01*
X171824975Y-140172676D02*
X171920213Y-140077438D01*
X171920213Y-140077438D02*
X172063070Y-140029819D01*
X172063070Y-140029819D02*
X172158308Y-140029819D01*
X172158308Y-140029819D02*
X172301165Y-140077438D01*
X172301165Y-140077438D02*
X172348784Y-140125057D01*
X172920213Y-140458390D02*
X172824975Y-140410771D01*
X172824975Y-140410771D02*
X172777356Y-140363152D01*
X172777356Y-140363152D02*
X172729737Y-140267914D01*
X172729737Y-140267914D02*
X172729737Y-140220295D01*
X172729737Y-140220295D02*
X172777356Y-140125057D01*
X172777356Y-140125057D02*
X172824975Y-140077438D01*
X172824975Y-140077438D02*
X172920213Y-140029819D01*
X172920213Y-140029819D02*
X173110689Y-140029819D01*
X173110689Y-140029819D02*
X173205927Y-140077438D01*
X173205927Y-140077438D02*
X173253546Y-140125057D01*
X173253546Y-140125057D02*
X173301165Y-140220295D01*
X173301165Y-140220295D02*
X173301165Y-140267914D01*
X173301165Y-140267914D02*
X173253546Y-140363152D01*
X173253546Y-140363152D02*
X173205927Y-140410771D01*
X173205927Y-140410771D02*
X173110689Y-140458390D01*
X173110689Y-140458390D02*
X172920213Y-140458390D01*
X172920213Y-140458390D02*
X172824975Y-140506009D01*
X172824975Y-140506009D02*
X172777356Y-140553628D01*
X172777356Y-140553628D02*
X172729737Y-140648866D01*
X172729737Y-140648866D02*
X172729737Y-140839342D01*
X172729737Y-140839342D02*
X172777356Y-140934580D01*
X172777356Y-140934580D02*
X172824975Y-140982200D01*
X172824975Y-140982200D02*
X172920213Y-141029819D01*
X172920213Y-141029819D02*
X173110689Y-141029819D01*
X173110689Y-141029819D02*
X173205927Y-140982200D01*
X173205927Y-140982200D02*
X173253546Y-140934580D01*
X173253546Y-140934580D02*
X173301165Y-140839342D01*
X173301165Y-140839342D02*
X173301165Y-140648866D01*
X173301165Y-140648866D02*
X173253546Y-140553628D01*
X173253546Y-140553628D02*
X173205927Y-140506009D01*
X173205927Y-140506009D02*
X173110689Y-140458390D01*
X150854005Y-58860819D02*
X150854005Y-57860819D01*
X150854005Y-57860819D02*
X151092100Y-57860819D01*
X151092100Y-57860819D02*
X151234957Y-57908438D01*
X151234957Y-57908438D02*
X151330195Y-58003676D01*
X151330195Y-58003676D02*
X151377814Y-58098914D01*
X151377814Y-58098914D02*
X151425433Y-58289390D01*
X151425433Y-58289390D02*
X151425433Y-58432247D01*
X151425433Y-58432247D02*
X151377814Y-58622723D01*
X151377814Y-58622723D02*
X151330195Y-58717961D01*
X151330195Y-58717961D02*
X151234957Y-58813200D01*
X151234957Y-58813200D02*
X151092100Y-58860819D01*
X151092100Y-58860819D02*
X150854005Y-58860819D01*
X151806386Y-57956057D02*
X151854005Y-57908438D01*
X151854005Y-57908438D02*
X151949243Y-57860819D01*
X151949243Y-57860819D02*
X152187338Y-57860819D01*
X152187338Y-57860819D02*
X152282576Y-57908438D01*
X152282576Y-57908438D02*
X152330195Y-57956057D01*
X152330195Y-57956057D02*
X152377814Y-58051295D01*
X152377814Y-58051295D02*
X152377814Y-58146533D01*
X152377814Y-58146533D02*
X152330195Y-58289390D01*
X152330195Y-58289390D02*
X151758767Y-58860819D01*
X151758767Y-58860819D02*
X152377814Y-58860819D01*
X127587904Y-81959009D02*
X127254571Y-81959009D01*
X127254571Y-82482819D02*
X127254571Y-81482819D01*
X127254571Y-81482819D02*
X127730761Y-81482819D01*
X128587904Y-82482819D02*
X128111714Y-82482819D01*
X128111714Y-82482819D02*
X128111714Y-81482819D01*
X129445047Y-82482819D02*
X128873619Y-82482819D01*
X129159333Y-82482819D02*
X129159333Y-81482819D01*
X129159333Y-81482819D02*
X129064095Y-81625676D01*
X129064095Y-81625676D02*
X128968857Y-81720914D01*
X128968857Y-81720914D02*
X128873619Y-81768533D01*
X161185533Y-54131019D02*
X160852200Y-53654828D01*
X160614105Y-54131019D02*
X160614105Y-53131019D01*
X160614105Y-53131019D02*
X160995057Y-53131019D01*
X160995057Y-53131019D02*
X161090295Y-53178638D01*
X161090295Y-53178638D02*
X161137914Y-53226257D01*
X161137914Y-53226257D02*
X161185533Y-53321495D01*
X161185533Y-53321495D02*
X161185533Y-53464352D01*
X161185533Y-53464352D02*
X161137914Y-53559590D01*
X161137914Y-53559590D02*
X161090295Y-53607209D01*
X161090295Y-53607209D02*
X160995057Y-53654828D01*
X160995057Y-53654828D02*
X160614105Y-53654828D01*
X162042676Y-53131019D02*
X161852200Y-53131019D01*
X161852200Y-53131019D02*
X161756962Y-53178638D01*
X161756962Y-53178638D02*
X161709343Y-53226257D01*
X161709343Y-53226257D02*
X161614105Y-53369114D01*
X161614105Y-53369114D02*
X161566486Y-53559590D01*
X161566486Y-53559590D02*
X161566486Y-53940542D01*
X161566486Y-53940542D02*
X161614105Y-54035780D01*
X161614105Y-54035780D02*
X161661724Y-54083400D01*
X161661724Y-54083400D02*
X161756962Y-54131019D01*
X161756962Y-54131019D02*
X161947438Y-54131019D01*
X161947438Y-54131019D02*
X162042676Y-54083400D01*
X162042676Y-54083400D02*
X162090295Y-54035780D01*
X162090295Y-54035780D02*
X162137914Y-53940542D01*
X162137914Y-53940542D02*
X162137914Y-53702447D01*
X162137914Y-53702447D02*
X162090295Y-53607209D01*
X162090295Y-53607209D02*
X162042676Y-53559590D01*
X162042676Y-53559590D02*
X161947438Y-53511971D01*
X161947438Y-53511971D02*
X161756962Y-53511971D01*
X161756962Y-53511971D02*
X161661724Y-53559590D01*
X161661724Y-53559590D02*
X161614105Y-53607209D01*
X161614105Y-53607209D02*
X161566486Y-53702447D01*
X125828819Y-61453904D02*
X126638342Y-61453904D01*
X126638342Y-61453904D02*
X126733580Y-61406285D01*
X126733580Y-61406285D02*
X126781200Y-61358666D01*
X126781200Y-61358666D02*
X126828819Y-61263428D01*
X126828819Y-61263428D02*
X126828819Y-61072952D01*
X126828819Y-61072952D02*
X126781200Y-60977714D01*
X126781200Y-60977714D02*
X126733580Y-60930095D01*
X126733580Y-60930095D02*
X126638342Y-60882476D01*
X126638342Y-60882476D02*
X125828819Y-60882476D01*
X126828819Y-59882476D02*
X126828819Y-60453904D01*
X126828819Y-60168190D02*
X125828819Y-60168190D01*
X125828819Y-60168190D02*
X125971676Y-60263428D01*
X125971676Y-60263428D02*
X126066914Y-60358666D01*
X126066914Y-60358666D02*
X126114533Y-60453904D01*
X118161504Y-65448905D02*
X118161504Y-64972715D01*
X118447219Y-65544143D02*
X117447219Y-65210810D01*
X117447219Y-65210810D02*
X118447219Y-64877477D01*
X117780552Y-64544143D02*
X118447219Y-64544143D01*
X117875790Y-64544143D02*
X117828171Y-64496524D01*
X117828171Y-64496524D02*
X117780552Y-64401286D01*
X117780552Y-64401286D02*
X117780552Y-64258429D01*
X117780552Y-64258429D02*
X117828171Y-64163191D01*
X117828171Y-64163191D02*
X117923409Y-64115572D01*
X117923409Y-64115572D02*
X118447219Y-64115572D01*
X117780552Y-63782238D02*
X117780552Y-63401286D01*
X117447219Y-63639381D02*
X118304361Y-63639381D01*
X118304361Y-63639381D02*
X118399600Y-63591762D01*
X118399600Y-63591762D02*
X118447219Y-63496524D01*
X118447219Y-63496524D02*
X118447219Y-63401286D01*
X118399600Y-62687000D02*
X118447219Y-62782238D01*
X118447219Y-62782238D02*
X118447219Y-62972714D01*
X118447219Y-62972714D02*
X118399600Y-63067952D01*
X118399600Y-63067952D02*
X118304361Y-63115571D01*
X118304361Y-63115571D02*
X117923409Y-63115571D01*
X117923409Y-63115571D02*
X117828171Y-63067952D01*
X117828171Y-63067952D02*
X117780552Y-62972714D01*
X117780552Y-62972714D02*
X117780552Y-62782238D01*
X117780552Y-62782238D02*
X117828171Y-62687000D01*
X117828171Y-62687000D02*
X117923409Y-62639381D01*
X117923409Y-62639381D02*
X118018647Y-62639381D01*
X118018647Y-62639381D02*
X118113885Y-63115571D01*
X117780552Y-62210809D02*
X118447219Y-62210809D01*
X117875790Y-62210809D02*
X117828171Y-62163190D01*
X117828171Y-62163190D02*
X117780552Y-62067952D01*
X117780552Y-62067952D02*
X117780552Y-61925095D01*
X117780552Y-61925095D02*
X117828171Y-61829857D01*
X117828171Y-61829857D02*
X117923409Y-61782238D01*
X117923409Y-61782238D02*
X118447219Y-61782238D01*
X117780552Y-61306047D02*
X118447219Y-61306047D01*
X117875790Y-61306047D02*
X117828171Y-61258428D01*
X117828171Y-61258428D02*
X117780552Y-61163190D01*
X117780552Y-61163190D02*
X117780552Y-61020333D01*
X117780552Y-61020333D02*
X117828171Y-60925095D01*
X117828171Y-60925095D02*
X117923409Y-60877476D01*
X117923409Y-60877476D02*
X118447219Y-60877476D01*
X118447219Y-59972714D02*
X117923409Y-59972714D01*
X117923409Y-59972714D02*
X117828171Y-60020333D01*
X117828171Y-60020333D02*
X117780552Y-60115571D01*
X117780552Y-60115571D02*
X117780552Y-60306047D01*
X117780552Y-60306047D02*
X117828171Y-60401285D01*
X118399600Y-59972714D02*
X118447219Y-60067952D01*
X118447219Y-60067952D02*
X118447219Y-60306047D01*
X118447219Y-60306047D02*
X118399600Y-60401285D01*
X118399600Y-60401285D02*
X118304361Y-60448904D01*
X118304361Y-60448904D02*
X118209123Y-60448904D01*
X118209123Y-60448904D02*
X118113885Y-60401285D01*
X118113885Y-60401285D02*
X118066266Y-60306047D01*
X118066266Y-60306047D02*
X118066266Y-60067952D01*
X118066266Y-60067952D02*
X118018647Y-59972714D01*
X118161504Y-58782237D02*
X118161504Y-58306047D01*
X118447219Y-58877475D02*
X117447219Y-58544142D01*
X117447219Y-58544142D02*
X118447219Y-58210809D01*
X118447219Y-57877475D02*
X117780552Y-57877475D01*
X117971028Y-57877475D02*
X117875790Y-57829856D01*
X117875790Y-57829856D02*
X117828171Y-57782237D01*
X117828171Y-57782237D02*
X117780552Y-57686999D01*
X117780552Y-57686999D02*
X117780552Y-57591761D01*
X118399600Y-56877475D02*
X118447219Y-56972713D01*
X118447219Y-56972713D02*
X118447219Y-57163189D01*
X118447219Y-57163189D02*
X118399600Y-57258427D01*
X118399600Y-57258427D02*
X118304361Y-57306046D01*
X118304361Y-57306046D02*
X117923409Y-57306046D01*
X117923409Y-57306046D02*
X117828171Y-57258427D01*
X117828171Y-57258427D02*
X117780552Y-57163189D01*
X117780552Y-57163189D02*
X117780552Y-56972713D01*
X117780552Y-56972713D02*
X117828171Y-56877475D01*
X117828171Y-56877475D02*
X117923409Y-56829856D01*
X117923409Y-56829856D02*
X118018647Y-56829856D01*
X118018647Y-56829856D02*
X118113885Y-57306046D01*
X118447219Y-55972713D02*
X117923409Y-55972713D01*
X117923409Y-55972713D02*
X117828171Y-56020332D01*
X117828171Y-56020332D02*
X117780552Y-56115570D01*
X117780552Y-56115570D02*
X117780552Y-56306046D01*
X117780552Y-56306046D02*
X117828171Y-56401284D01*
X118399600Y-55972713D02*
X118447219Y-56067951D01*
X118447219Y-56067951D02*
X118447219Y-56306046D01*
X118447219Y-56306046D02*
X118399600Y-56401284D01*
X118399600Y-56401284D02*
X118304361Y-56448903D01*
X118304361Y-56448903D02*
X118209123Y-56448903D01*
X118209123Y-56448903D02*
X118113885Y-56401284D01*
X118113885Y-56401284D02*
X118066266Y-56306046D01*
X118066266Y-56306046D02*
X118066266Y-56067951D01*
X118066266Y-56067951D02*
X118018647Y-55972713D01*
X153853666Y-131470019D02*
X153853666Y-132184304D01*
X153853666Y-132184304D02*
X153806047Y-132327161D01*
X153806047Y-132327161D02*
X153710809Y-132422400D01*
X153710809Y-132422400D02*
X153567952Y-132470019D01*
X153567952Y-132470019D02*
X153472714Y-132470019D01*
X154234619Y-131470019D02*
X154853666Y-131470019D01*
X154853666Y-131470019D02*
X154520333Y-131850971D01*
X154520333Y-131850971D02*
X154663190Y-131850971D01*
X154663190Y-131850971D02*
X154758428Y-131898590D01*
X154758428Y-131898590D02*
X154806047Y-131946209D01*
X154806047Y-131946209D02*
X154853666Y-132041447D01*
X154853666Y-132041447D02*
X154853666Y-132279542D01*
X154853666Y-132279542D02*
X154806047Y-132374780D01*
X154806047Y-132374780D02*
X154758428Y-132422400D01*
X154758428Y-132422400D02*
X154663190Y-132470019D01*
X154663190Y-132470019D02*
X154377476Y-132470019D01*
X154377476Y-132470019D02*
X154282238Y-132422400D01*
X154282238Y-132422400D02*
X154234619Y-132374780D01*
X142525266Y-131825619D02*
X142525266Y-132539904D01*
X142525266Y-132539904D02*
X142477647Y-132682761D01*
X142477647Y-132682761D02*
X142382409Y-132778000D01*
X142382409Y-132778000D02*
X142239552Y-132825619D01*
X142239552Y-132825619D02*
X142144314Y-132825619D01*
X142953838Y-131920857D02*
X143001457Y-131873238D01*
X143001457Y-131873238D02*
X143096695Y-131825619D01*
X143096695Y-131825619D02*
X143334790Y-131825619D01*
X143334790Y-131825619D02*
X143430028Y-131873238D01*
X143430028Y-131873238D02*
X143477647Y-131920857D01*
X143477647Y-131920857D02*
X143525266Y-132016095D01*
X143525266Y-132016095D02*
X143525266Y-132111333D01*
X143525266Y-132111333D02*
X143477647Y-132254190D01*
X143477647Y-132254190D02*
X142906219Y-132825619D01*
X142906219Y-132825619D02*
X143525266Y-132825619D01*
X119472409Y-109807333D02*
X119472409Y-110140666D01*
X119996219Y-110140666D02*
X118996219Y-110140666D01*
X118996219Y-110140666D02*
X118996219Y-109664476D01*
X119996219Y-108759714D02*
X119996219Y-109331142D01*
X119996219Y-109045428D02*
X118996219Y-109045428D01*
X118996219Y-109045428D02*
X119139076Y-109140666D01*
X119139076Y-109140666D02*
X119234314Y-109235904D01*
X119234314Y-109235904D02*
X119281933Y-109331142D01*
X137760409Y-112917533D02*
X137760409Y-113250866D01*
X138284219Y-113250866D02*
X137284219Y-113250866D01*
X137284219Y-113250866D02*
X137284219Y-112774676D01*
X137379457Y-112441342D02*
X137331838Y-112393723D01*
X137331838Y-112393723D02*
X137284219Y-112298485D01*
X137284219Y-112298485D02*
X137284219Y-112060390D01*
X137284219Y-112060390D02*
X137331838Y-111965152D01*
X137331838Y-111965152D02*
X137379457Y-111917533D01*
X137379457Y-111917533D02*
X137474695Y-111869914D01*
X137474695Y-111869914D02*
X137569933Y-111869914D01*
X137569933Y-111869914D02*
X137712790Y-111917533D01*
X137712790Y-111917533D02*
X138284219Y-112488961D01*
X138284219Y-112488961D02*
X138284219Y-111869914D01*
X149587878Y-113628146D02*
X148586453Y-113628146D01*
X149587878Y-113055903D02*
X149015636Y-113485085D01*
X148586453Y-113055903D02*
X149158696Y-113628146D01*
X148681827Y-112674408D02*
X148634140Y-112626721D01*
X148634140Y-112626721D02*
X148586453Y-112531347D01*
X148586453Y-112531347D02*
X148586453Y-112292913D01*
X148586453Y-112292913D02*
X148634140Y-112197539D01*
X148634140Y-112197539D02*
X148681827Y-112149852D01*
X148681827Y-112149852D02*
X148777201Y-112102165D01*
X148777201Y-112102165D02*
X148872575Y-112102165D01*
X148872575Y-112102165D02*
X149015636Y-112149852D01*
X149015636Y-112149852D02*
X149587878Y-112722095D01*
X149587878Y-112722095D02*
X149587878Y-112102165D01*
X165588466Y-131470019D02*
X165588466Y-132184304D01*
X165588466Y-132184304D02*
X165540847Y-132327161D01*
X165540847Y-132327161D02*
X165445609Y-132422400D01*
X165445609Y-132422400D02*
X165302752Y-132470019D01*
X165302752Y-132470019D02*
X165207514Y-132470019D01*
X166493228Y-131803352D02*
X166493228Y-132470019D01*
X166255133Y-131422400D02*
X166017038Y-132136685D01*
X166017038Y-132136685D02*
X166636085Y-132136685D01*
X125070790Y-132978019D02*
X124737457Y-132501828D01*
X124499362Y-132978019D02*
X124499362Y-131978019D01*
X124499362Y-131978019D02*
X124880314Y-131978019D01*
X124880314Y-131978019D02*
X124975552Y-132025638D01*
X124975552Y-132025638D02*
X125023171Y-132073257D01*
X125023171Y-132073257D02*
X125070790Y-132168495D01*
X125070790Y-132168495D02*
X125070790Y-132311352D01*
X125070790Y-132311352D02*
X125023171Y-132406590D01*
X125023171Y-132406590D02*
X124975552Y-132454209D01*
X124975552Y-132454209D02*
X124880314Y-132501828D01*
X124880314Y-132501828D02*
X124499362Y-132501828D01*
X125356505Y-131978019D02*
X125689838Y-132978019D01*
X125689838Y-132978019D02*
X126023171Y-131978019D01*
X126737457Y-132930400D02*
X126642219Y-132978019D01*
X126642219Y-132978019D02*
X126451743Y-132978019D01*
X126451743Y-132978019D02*
X126356505Y-132930400D01*
X126356505Y-132930400D02*
X126308886Y-132835161D01*
X126308886Y-132835161D02*
X126308886Y-132454209D01*
X126308886Y-132454209D02*
X126356505Y-132358971D01*
X126356505Y-132358971D02*
X126451743Y-132311352D01*
X126451743Y-132311352D02*
X126642219Y-132311352D01*
X126642219Y-132311352D02*
X126737457Y-132358971D01*
X126737457Y-132358971D02*
X126785076Y-132454209D01*
X126785076Y-132454209D02*
X126785076Y-132549447D01*
X126785076Y-132549447D02*
X126308886Y-132644685D01*
X127737457Y-132978019D02*
X127166029Y-132978019D01*
X127451743Y-132978019D02*
X127451743Y-131978019D01*
X127451743Y-131978019D02*
X127356505Y-132120876D01*
X127356505Y-132120876D02*
X127261267Y-132216114D01*
X127261267Y-132216114D02*
X127166029Y-132263733D01*
X132239678Y-114212346D02*
X131238253Y-114212346D01*
X132239678Y-113640103D02*
X131667436Y-114069285D01*
X131238253Y-113640103D02*
X131810496Y-114212346D01*
X132239678Y-112686365D02*
X132239678Y-113258608D01*
X132239678Y-112972486D02*
X131238253Y-112972486D01*
X131238253Y-112972486D02*
X131381314Y-113067860D01*
X131381314Y-113067860D02*
X131476688Y-113163234D01*
X131476688Y-113163234D02*
X131524375Y-113258608D01*
X174683009Y-121999333D02*
X174683009Y-122332666D01*
X175206819Y-122332666D02*
X174206819Y-122332666D01*
X174206819Y-122332666D02*
X174206819Y-121856476D01*
X174540152Y-121046952D02*
X175206819Y-121046952D01*
X174159200Y-121285047D02*
X174873485Y-121523142D01*
X174873485Y-121523142D02*
X174873485Y-120904095D01*
X129864933Y-138623180D02*
X129817314Y-138670800D01*
X129817314Y-138670800D02*
X129674457Y-138718419D01*
X129674457Y-138718419D02*
X129579219Y-138718419D01*
X129579219Y-138718419D02*
X129436362Y-138670800D01*
X129436362Y-138670800D02*
X129341124Y-138575561D01*
X129341124Y-138575561D02*
X129293505Y-138480323D01*
X129293505Y-138480323D02*
X129245886Y-138289847D01*
X129245886Y-138289847D02*
X129245886Y-138146990D01*
X129245886Y-138146990D02*
X129293505Y-137956514D01*
X129293505Y-137956514D02*
X129341124Y-137861276D01*
X129341124Y-137861276D02*
X129436362Y-137766038D01*
X129436362Y-137766038D02*
X129579219Y-137718419D01*
X129579219Y-137718419D02*
X129674457Y-137718419D01*
X129674457Y-137718419D02*
X129817314Y-137766038D01*
X129817314Y-137766038D02*
X129864933Y-137813657D01*
X130198267Y-137718419D02*
X130864933Y-137718419D01*
X130864933Y-137718419D02*
X130436362Y-138718419D01*
X125357619Y-123763333D02*
X126071904Y-123763333D01*
X126071904Y-123763333D02*
X126214761Y-123810952D01*
X126214761Y-123810952D02*
X126310000Y-123906190D01*
X126310000Y-123906190D02*
X126357619Y-124049047D01*
X126357619Y-124049047D02*
X126357619Y-124144285D01*
X126357619Y-122763333D02*
X126357619Y-123334761D01*
X126357619Y-123049047D02*
X125357619Y-123049047D01*
X125357619Y-123049047D02*
X125500476Y-123144285D01*
X125500476Y-123144285D02*
X125595714Y-123239523D01*
X125595714Y-123239523D02*
X125643333Y-123334761D01*
X169149428Y-72084819D02*
X169149428Y-72799104D01*
X169149428Y-72799104D02*
X169101809Y-72941961D01*
X169101809Y-72941961D02*
X169006571Y-73037200D01*
X169006571Y-73037200D02*
X168863714Y-73084819D01*
X168863714Y-73084819D02*
X168768476Y-73084819D01*
X169387524Y-73180057D02*
X170149428Y-73180057D01*
X170387524Y-73084819D02*
X170387524Y-72084819D01*
X170816095Y-72180057D02*
X170863714Y-72132438D01*
X170863714Y-72132438D02*
X170958952Y-72084819D01*
X170958952Y-72084819D02*
X171197047Y-72084819D01*
X171197047Y-72084819D02*
X171292285Y-72132438D01*
X171292285Y-72132438D02*
X171339904Y-72180057D01*
X171339904Y-72180057D02*
X171387523Y-72275295D01*
X171387523Y-72275295D02*
X171387523Y-72370533D01*
X171387523Y-72370533D02*
X171339904Y-72513390D01*
X171339904Y-72513390D02*
X170768476Y-73084819D01*
X170768476Y-73084819D02*
X171387523Y-73084819D01*
X172387523Y-72989580D02*
X172339904Y-73037200D01*
X172339904Y-73037200D02*
X172197047Y-73084819D01*
X172197047Y-73084819D02*
X172101809Y-73084819D01*
X172101809Y-73084819D02*
X171958952Y-73037200D01*
X171958952Y-73037200D02*
X171863714Y-72941961D01*
X171863714Y-72941961D02*
X171816095Y-72846723D01*
X171816095Y-72846723D02*
X171768476Y-72656247D01*
X171768476Y-72656247D02*
X171768476Y-72513390D01*
X171768476Y-72513390D02*
X171816095Y-72322914D01*
X171816095Y-72322914D02*
X171863714Y-72227676D01*
X171863714Y-72227676D02*
X171958952Y-72132438D01*
X171958952Y-72132438D02*
X172101809Y-72084819D01*
X172101809Y-72084819D02*
X172197047Y-72084819D01*
X172197047Y-72084819D02*
X172339904Y-72132438D01*
X172339904Y-72132438D02*
X172387523Y-72180057D01*
X173339904Y-73084819D02*
X172768476Y-73084819D01*
X173054190Y-73084819D02*
X173054190Y-72084819D01*
X173054190Y-72084819D02*
X172958952Y-72227676D01*
X172958952Y-72227676D02*
X172863714Y-72322914D01*
X172863714Y-72322914D02*
X172768476Y-72370533D01*
X150835105Y-54080219D02*
X150835105Y-53080219D01*
X150835105Y-53080219D02*
X151073200Y-53080219D01*
X151073200Y-53080219D02*
X151216057Y-53127838D01*
X151216057Y-53127838D02*
X151311295Y-53223076D01*
X151311295Y-53223076D02*
X151358914Y-53318314D01*
X151358914Y-53318314D02*
X151406533Y-53508790D01*
X151406533Y-53508790D02*
X151406533Y-53651647D01*
X151406533Y-53651647D02*
X151358914Y-53842123D01*
X151358914Y-53842123D02*
X151311295Y-53937361D01*
X151311295Y-53937361D02*
X151216057Y-54032600D01*
X151216057Y-54032600D02*
X151073200Y-54080219D01*
X151073200Y-54080219D02*
X150835105Y-54080219D01*
X152263676Y-53413552D02*
X152263676Y-54080219D01*
X152025581Y-53032600D02*
X151787486Y-53746885D01*
X151787486Y-53746885D02*
X152406533Y-53746885D01*
X150767105Y-61248419D02*
X150767105Y-60248419D01*
X150767105Y-60248419D02*
X151005200Y-60248419D01*
X151005200Y-60248419D02*
X151148057Y-60296038D01*
X151148057Y-60296038D02*
X151243295Y-60391276D01*
X151243295Y-60391276D02*
X151290914Y-60486514D01*
X151290914Y-60486514D02*
X151338533Y-60676990D01*
X151338533Y-60676990D02*
X151338533Y-60819847D01*
X151338533Y-60819847D02*
X151290914Y-61010323D01*
X151290914Y-61010323D02*
X151243295Y-61105561D01*
X151243295Y-61105561D02*
X151148057Y-61200800D01*
X151148057Y-61200800D02*
X151005200Y-61248419D01*
X151005200Y-61248419D02*
X150767105Y-61248419D01*
X151671867Y-60248419D02*
X152290914Y-60248419D01*
X152290914Y-60248419D02*
X151957581Y-60629371D01*
X151957581Y-60629371D02*
X152100438Y-60629371D01*
X152100438Y-60629371D02*
X152195676Y-60676990D01*
X152195676Y-60676990D02*
X152243295Y-60724609D01*
X152243295Y-60724609D02*
X152290914Y-60819847D01*
X152290914Y-60819847D02*
X152290914Y-61057942D01*
X152290914Y-61057942D02*
X152243295Y-61153180D01*
X152243295Y-61153180D02*
X152195676Y-61200800D01*
X152195676Y-61200800D02*
X152100438Y-61248419D01*
X152100438Y-61248419D02*
X151814724Y-61248419D01*
X151814724Y-61248419D02*
X151719486Y-61200800D01*
X151719486Y-61200800D02*
X151671867Y-61153180D01*
X154560380Y-72084819D02*
X154560380Y-72799104D01*
X154560380Y-72799104D02*
X154512761Y-72941961D01*
X154512761Y-72941961D02*
X154417523Y-73037200D01*
X154417523Y-73037200D02*
X154274666Y-73084819D01*
X154274666Y-73084819D02*
X154179428Y-73084819D01*
X154798476Y-73180057D02*
X155560380Y-73180057D01*
X155798476Y-72084819D02*
X155798476Y-72894342D01*
X155798476Y-72894342D02*
X155846095Y-72989580D01*
X155846095Y-72989580D02*
X155893714Y-73037200D01*
X155893714Y-73037200D02*
X155988952Y-73084819D01*
X155988952Y-73084819D02*
X156179428Y-73084819D01*
X156179428Y-73084819D02*
X156274666Y-73037200D01*
X156274666Y-73037200D02*
X156322285Y-72989580D01*
X156322285Y-72989580D02*
X156369904Y-72894342D01*
X156369904Y-72894342D02*
X156369904Y-72084819D01*
X156798476Y-72799104D02*
X157274666Y-72799104D01*
X156703238Y-73084819D02*
X157036571Y-72084819D01*
X157036571Y-72084819D02*
X157369904Y-73084819D01*
X158274666Y-73084819D02*
X157941333Y-72608628D01*
X157703238Y-73084819D02*
X157703238Y-72084819D01*
X157703238Y-72084819D02*
X158084190Y-72084819D01*
X158084190Y-72084819D02*
X158179428Y-72132438D01*
X158179428Y-72132438D02*
X158227047Y-72180057D01*
X158227047Y-72180057D02*
X158274666Y-72275295D01*
X158274666Y-72275295D02*
X158274666Y-72418152D01*
X158274666Y-72418152D02*
X158227047Y-72513390D01*
X158227047Y-72513390D02*
X158179428Y-72561009D01*
X158179428Y-72561009D02*
X158084190Y-72608628D01*
X158084190Y-72608628D02*
X157703238Y-72608628D01*
X158560381Y-72084819D02*
X159131809Y-72084819D01*
X158846095Y-73084819D02*
X158846095Y-72084819D01*
X159988952Y-73084819D02*
X159417524Y-73084819D01*
X159703238Y-73084819D02*
X159703238Y-72084819D01*
X159703238Y-72084819D02*
X159608000Y-72227676D01*
X159608000Y-72227676D02*
X159512762Y-72322914D01*
X159512762Y-72322914D02*
X159417524Y-72370533D01*
X161193733Y-61172219D02*
X160860400Y-60696028D01*
X160622305Y-61172219D02*
X160622305Y-60172219D01*
X160622305Y-60172219D02*
X161003257Y-60172219D01*
X161003257Y-60172219D02*
X161098495Y-60219838D01*
X161098495Y-60219838D02*
X161146114Y-60267457D01*
X161146114Y-60267457D02*
X161193733Y-60362695D01*
X161193733Y-60362695D02*
X161193733Y-60505552D01*
X161193733Y-60505552D02*
X161146114Y-60600790D01*
X161146114Y-60600790D02*
X161098495Y-60648409D01*
X161098495Y-60648409D02*
X161003257Y-60696028D01*
X161003257Y-60696028D02*
X160622305Y-60696028D01*
X162098495Y-60172219D02*
X161622305Y-60172219D01*
X161622305Y-60172219D02*
X161574686Y-60648409D01*
X161574686Y-60648409D02*
X161622305Y-60600790D01*
X161622305Y-60600790D02*
X161717543Y-60553171D01*
X161717543Y-60553171D02*
X161955638Y-60553171D01*
X161955638Y-60553171D02*
X162050876Y-60600790D01*
X162050876Y-60600790D02*
X162098495Y-60648409D01*
X162098495Y-60648409D02*
X162146114Y-60743647D01*
X162146114Y-60743647D02*
X162146114Y-60981742D01*
X162146114Y-60981742D02*
X162098495Y-61076980D01*
X162098495Y-61076980D02*
X162050876Y-61124600D01*
X162050876Y-61124600D02*
X161955638Y-61172219D01*
X161955638Y-61172219D02*
X161717543Y-61172219D01*
X161717543Y-61172219D02*
X161622305Y-61124600D01*
X161622305Y-61124600D02*
X161574686Y-61076980D01*
X161153633Y-58835419D02*
X160820300Y-58359228D01*
X160582205Y-58835419D02*
X160582205Y-57835419D01*
X160582205Y-57835419D02*
X160963157Y-57835419D01*
X160963157Y-57835419D02*
X161058395Y-57883038D01*
X161058395Y-57883038D02*
X161106014Y-57930657D01*
X161106014Y-57930657D02*
X161153633Y-58025895D01*
X161153633Y-58025895D02*
X161153633Y-58168752D01*
X161153633Y-58168752D02*
X161106014Y-58263990D01*
X161106014Y-58263990D02*
X161058395Y-58311609D01*
X161058395Y-58311609D02*
X160963157Y-58359228D01*
X160963157Y-58359228D02*
X160582205Y-58359228D01*
X162010776Y-58168752D02*
X162010776Y-58835419D01*
X161772681Y-57787800D02*
X161534586Y-58502085D01*
X161534586Y-58502085D02*
X162153633Y-58502085D01*
X166224878Y-114644146D02*
X165223453Y-114644146D01*
X166224878Y-114071903D02*
X165652636Y-114501085D01*
X165223453Y-114071903D02*
X165795696Y-114644146D01*
X165223453Y-113738095D02*
X165223453Y-113118165D01*
X165223453Y-113118165D02*
X165604949Y-113451973D01*
X165604949Y-113451973D02*
X165604949Y-113308913D01*
X165604949Y-113308913D02*
X165652636Y-113213539D01*
X165652636Y-113213539D02*
X165700322Y-113165852D01*
X165700322Y-113165852D02*
X165795696Y-113118165D01*
X165795696Y-113118165D02*
X166034131Y-113118165D01*
X166034131Y-113118165D02*
X166129505Y-113165852D01*
X166129505Y-113165852D02*
X166177192Y-113213539D01*
X166177192Y-113213539D02*
X166224878Y-113308913D01*
X166224878Y-113308913D02*
X166224878Y-113595034D01*
X166224878Y-113595034D02*
X166177192Y-113690408D01*
X166177192Y-113690408D02*
X166129505Y-113738095D01*
%TO.C,J6*%
X173175000Y-58466000D02*
X173175000Y-55806000D01*
X170575000Y-58466000D02*
X173175000Y-58466000D01*
X170575000Y-58466000D02*
X170575000Y-55806000D01*
X170575000Y-55806000D02*
X173175000Y-55806000D01*
X169305000Y-58466000D02*
X167975000Y-58466000D01*
X167975000Y-58466000D02*
X167975000Y-57136000D01*
%TO.C,PS1*%
X175418000Y-76124000D02*
X175418000Y-101744000D01*
X134298000Y-101744000D02*
X175418000Y-101744000D01*
X134298000Y-76124000D02*
X175418000Y-76124000D01*
X134298000Y-76124000D02*
X134298000Y-101744000D01*
X134058000Y-78884000D02*
X134058000Y-75884000D01*
X134058000Y-75884000D02*
X137058000Y-75884000D01*
%TO.C,J5*%
X173175000Y-54656000D02*
X173175000Y-51996000D01*
X170575000Y-54656000D02*
X173175000Y-54656000D01*
X170575000Y-54656000D02*
X170575000Y-51996000D01*
X170575000Y-51996000D02*
X173175000Y-51996000D01*
X169305000Y-54656000D02*
X167975000Y-54656000D01*
X167975000Y-54656000D02*
X167975000Y-53326000D01*
%TO.C,SW2*%
X149698000Y-57395400D02*
X149698000Y-54895400D01*
X149248000Y-57845400D02*
X149698000Y-57395400D01*
X149248000Y-54445400D02*
X149698000Y-54895400D01*
X145948000Y-58895400D02*
X147948000Y-58895400D01*
X145948000Y-53395400D02*
X147948000Y-53395400D01*
X144648000Y-57845400D02*
X144198000Y-57395400D01*
X144648000Y-54445400D02*
X144198000Y-54895400D01*
X144198000Y-57395400D02*
X144198000Y-54895400D01*
%TO.C,F3*%
X162500600Y-127527800D02*
X162500600Y-104807800D01*
X162500600Y-127527800D02*
X159340600Y-127527800D01*
X162500600Y-104807800D02*
X159340600Y-104807800D01*
X155840600Y-127527800D02*
X152680600Y-127527800D01*
X155840600Y-104807800D02*
X152680600Y-104807800D01*
X152680600Y-127527800D02*
X152680600Y-104807800D01*
%TO.C,D1*%
X153787000Y-57120000D02*
X153387000Y-57120000D01*
X153387000Y-56920000D01*
X153787000Y-56920000D01*
X153787000Y-57120000D01*
G36*
X153787000Y-57120000D02*
G01*
X153387000Y-57120000D01*
X153387000Y-56920000D01*
X153787000Y-56920000D01*
X153787000Y-57120000D01*
G37*
X153787000Y-55320000D02*
X153387000Y-55320000D01*
X153387000Y-55120000D01*
X153787000Y-55120000D01*
X153787000Y-55320000D01*
G36*
X153787000Y-55320000D02*
G01*
X153387000Y-55320000D01*
X153387000Y-55120000D01*
X153787000Y-55120000D01*
X153787000Y-55320000D01*
G37*
X155687000Y-56920000D02*
X155687000Y-55320000D01*
X155687000Y-55320000D02*
X152687000Y-55320000D01*
X152687000Y-56920000D02*
X155687000Y-56920000D01*
X152687000Y-55320000D02*
X152687000Y-56920000D01*
%TO.C,R3*%
X157320836Y-56928400D02*
X158774964Y-56928400D01*
X157320836Y-55108400D02*
X158774964Y-55108400D01*
%TO.C,C8*%
X180898400Y-136434800D02*
G75*
G02*
X172658400Y-136434800I-4120000J0D01*
G01*
X172658400Y-136434800D02*
G75*
G02*
X180898400Y-136434800I4120000J0D01*
G01*
X180859400Y-135901800D02*
X180859400Y-136967800D01*
X180819400Y-135666800D02*
X180819400Y-137202800D01*
X180779400Y-135486800D02*
X180779400Y-137382800D01*
X180739400Y-135336800D02*
X180739400Y-137532800D01*
X180699400Y-135205800D02*
X180699400Y-137663800D01*
X180659400Y-135088800D02*
X180659400Y-137780800D01*
X180619400Y-134981800D02*
X180619400Y-137887800D01*
X180579400Y-134882800D02*
X180579400Y-137986800D01*
X180539400Y-134789800D02*
X180539400Y-138079800D01*
X180499400Y-134703800D02*
X180499400Y-138165800D01*
X180459400Y-134621800D02*
X180459400Y-138247800D01*
X180419400Y-134544800D02*
X180419400Y-138324800D01*
X180379400Y-134470800D02*
X180379400Y-138398800D01*
X180339400Y-134400800D02*
X180339400Y-138468800D01*
X180299400Y-137474800D02*
X180299400Y-138536800D01*
X180299400Y-134332800D02*
X180299400Y-135394800D01*
X180259400Y-137474800D02*
X180259400Y-138600800D01*
X180259400Y-134268800D02*
X180259400Y-135394800D01*
X180219400Y-137474800D02*
X180219400Y-138662800D01*
X180219400Y-134206800D02*
X180219400Y-135394800D01*
X180179400Y-137474800D02*
X180179400Y-138721800D01*
X180179400Y-134147800D02*
X180179400Y-135394800D01*
X180139400Y-137474800D02*
X180139400Y-138779800D01*
X180139400Y-134089800D02*
X180139400Y-135394800D01*
X180099400Y-137474800D02*
X180099400Y-138834800D01*
X180099400Y-134034800D02*
X180099400Y-135394800D01*
X180059400Y-137474800D02*
X180059400Y-138888800D01*
X180059400Y-133980800D02*
X180059400Y-135394800D01*
X180019400Y-137474800D02*
X180019400Y-138939800D01*
X180019400Y-133929800D02*
X180019400Y-135394800D01*
X179979400Y-137474800D02*
X179979400Y-138990800D01*
X179979400Y-133878800D02*
X179979400Y-135394800D01*
X179939400Y-137474800D02*
X179939400Y-139038800D01*
X179939400Y-133830800D02*
X179939400Y-135394800D01*
X179899400Y-137474800D02*
X179899400Y-139085800D01*
X179899400Y-133783800D02*
X179899400Y-135394800D01*
X179859400Y-137474800D02*
X179859400Y-139131800D01*
X179859400Y-133737800D02*
X179859400Y-135394800D01*
X179819400Y-137474800D02*
X179819400Y-139175800D01*
X179819400Y-133693800D02*
X179819400Y-135394800D01*
X179779400Y-137474800D02*
X179779400Y-139218800D01*
X179779400Y-133650800D02*
X179779400Y-135394800D01*
X179739400Y-137474800D02*
X179739400Y-139260800D01*
X179739400Y-133608800D02*
X179739400Y-135394800D01*
X179699400Y-137474800D02*
X179699400Y-139301800D01*
X179699400Y-133567800D02*
X179699400Y-135394800D01*
X179659400Y-137474800D02*
X179659400Y-139341800D01*
X179659400Y-133527800D02*
X179659400Y-135394800D01*
X179619400Y-137474800D02*
X179619400Y-139379800D01*
X179619400Y-133489800D02*
X179619400Y-135394800D01*
X179579400Y-137474800D02*
X179579400Y-139417800D01*
X179579400Y-133451800D02*
X179579400Y-135394800D01*
X179539400Y-137474800D02*
X179539400Y-139453800D01*
X179539400Y-133415800D02*
X179539400Y-135394800D01*
X179499400Y-137474800D02*
X179499400Y-139489800D01*
X179499400Y-133379800D02*
X179499400Y-135394800D01*
X179459400Y-137474800D02*
X179459400Y-139524800D01*
X179459400Y-133344800D02*
X179459400Y-135394800D01*
X179419400Y-137474800D02*
X179419400Y-139558800D01*
X179419400Y-133310800D02*
X179419400Y-135394800D01*
X179379400Y-137474800D02*
X179379400Y-139590800D01*
X179379400Y-133278800D02*
X179379400Y-135394800D01*
X179339400Y-137474800D02*
X179339400Y-139623800D01*
X179339400Y-133245800D02*
X179339400Y-135394800D01*
X179299400Y-137474800D02*
X179299400Y-139654800D01*
X179299400Y-133214800D02*
X179299400Y-135394800D01*
X179259400Y-137474800D02*
X179259400Y-139684800D01*
X179259400Y-133184800D02*
X179259400Y-135394800D01*
X179219400Y-137474800D02*
X179219400Y-139714800D01*
X179219400Y-133154800D02*
X179219400Y-135394800D01*
X179179400Y-137474800D02*
X179179400Y-139743800D01*
X179179400Y-133125800D02*
X179179400Y-135394800D01*
X179139400Y-137474800D02*
X179139400Y-139772800D01*
X179139400Y-133096800D02*
X179139400Y-135394800D01*
X179099400Y-137474800D02*
X179099400Y-139799800D01*
X179099400Y-133069800D02*
X179099400Y-135394800D01*
X179059400Y-137474800D02*
X179059400Y-139826800D01*
X179059400Y-133042800D02*
X179059400Y-135394800D01*
X179019400Y-137474800D02*
X179019400Y-139852800D01*
X179019400Y-133016800D02*
X179019400Y-135394800D01*
X178979400Y-137474800D02*
X178979400Y-139878800D01*
X178979400Y-132990800D02*
X178979400Y-135394800D01*
X178939400Y-137474800D02*
X178939400Y-139903800D01*
X178939400Y-132965800D02*
X178939400Y-135394800D01*
X178899400Y-137474800D02*
X178899400Y-139927800D01*
X178899400Y-132941800D02*
X178899400Y-135394800D01*
X178859400Y-137474800D02*
X178859400Y-139951800D01*
X178859400Y-132917800D02*
X178859400Y-135394800D01*
X178819400Y-137474800D02*
X178819400Y-139974800D01*
X178819400Y-132894800D02*
X178819400Y-135394800D01*
X178779400Y-137474800D02*
X178779400Y-139996800D01*
X178779400Y-132872800D02*
X178779400Y-135394800D01*
X178739400Y-137474800D02*
X178739400Y-140018800D01*
X178739400Y-132850800D02*
X178739400Y-135394800D01*
X178699400Y-137474800D02*
X178699400Y-140040800D01*
X178699400Y-132828800D02*
X178699400Y-135394800D01*
X178659400Y-137474800D02*
X178659400Y-140061800D01*
X178659400Y-132807800D02*
X178659400Y-135394800D01*
X178619400Y-137474800D02*
X178619400Y-140081800D01*
X178619400Y-132787800D02*
X178619400Y-135394800D01*
X178579400Y-137474800D02*
X178579400Y-140100800D01*
X178579400Y-132768800D02*
X178579400Y-135394800D01*
X178539400Y-137474800D02*
X178539400Y-140120800D01*
X178539400Y-132748800D02*
X178539400Y-135394800D01*
X178499400Y-137474800D02*
X178499400Y-140138800D01*
X178499400Y-132730800D02*
X178499400Y-135394800D01*
X178459400Y-137474800D02*
X178459400Y-140156800D01*
X178459400Y-132712800D02*
X178459400Y-135394800D01*
X178419400Y-137474800D02*
X178419400Y-140174800D01*
X178419400Y-132694800D02*
X178419400Y-135394800D01*
X178379400Y-137474800D02*
X178379400Y-140191800D01*
X178379400Y-132677800D02*
X178379400Y-135394800D01*
X178339400Y-137474800D02*
X178339400Y-140208800D01*
X178339400Y-132660800D02*
X178339400Y-135394800D01*
X178299400Y-137474800D02*
X178299400Y-140224800D01*
X178299400Y-132644800D02*
X178299400Y-135394800D01*
X178259400Y-137474800D02*
X178259400Y-140239800D01*
X178259400Y-132629800D02*
X178259400Y-135394800D01*
X178219400Y-132613800D02*
X178219400Y-140255800D01*
X178179400Y-132599800D02*
X178179400Y-140269800D01*
X178139400Y-132584800D02*
X178139400Y-140284800D01*
X178099400Y-132571800D02*
X178099400Y-140297800D01*
X178059400Y-132557800D02*
X178059400Y-140311800D01*
X178019400Y-132545800D02*
X178019400Y-140323800D01*
X177979400Y-132532800D02*
X177979400Y-140336800D01*
X177939400Y-132520800D02*
X177939400Y-140348800D01*
X177899400Y-132509800D02*
X177899400Y-140359800D01*
X177859400Y-132498800D02*
X177859400Y-140370800D01*
X177819400Y-132487800D02*
X177819400Y-140381800D01*
X177779400Y-132477800D02*
X177779400Y-140391800D01*
X177739400Y-132467800D02*
X177739400Y-140401800D01*
X177699400Y-132458800D02*
X177699400Y-140410800D01*
X177659400Y-132449800D02*
X177659400Y-140419800D01*
X177619400Y-132440800D02*
X177619400Y-140428800D01*
X177579400Y-132432800D02*
X177579400Y-140436800D01*
X177539400Y-132424800D02*
X177539400Y-140444800D01*
X177499400Y-132417800D02*
X177499400Y-140451800D01*
X177458400Y-132410800D02*
X177458400Y-140458800D01*
X177418400Y-132404800D02*
X177418400Y-140464800D01*
X177378400Y-132397800D02*
X177378400Y-140471800D01*
X177338400Y-132392800D02*
X177338400Y-140476800D01*
X177298400Y-132386800D02*
X177298400Y-140482800D01*
X177258400Y-132382800D02*
X177258400Y-140486800D01*
X177218400Y-132377800D02*
X177218400Y-140491800D01*
X177178400Y-132373800D02*
X177178400Y-140495800D01*
X177138400Y-132369800D02*
X177138400Y-140499800D01*
X177098400Y-132366800D02*
X177098400Y-140502800D01*
X177058400Y-132363800D02*
X177058400Y-140505800D01*
X177018400Y-132360800D02*
X177018400Y-140508800D01*
X176978400Y-132358800D02*
X176978400Y-140510800D01*
X176938400Y-132357800D02*
X176938400Y-140511800D01*
X176898400Y-132355800D02*
X176898400Y-140513800D01*
X176858400Y-132354800D02*
X176858400Y-140514800D01*
X176818400Y-132354800D02*
X176818400Y-140514800D01*
X176778400Y-132354800D02*
X176778400Y-140514800D01*
X172768702Y-133719800D02*
X172768702Y-134519800D01*
X172368702Y-134119800D02*
X173168702Y-134119800D01*
%TO.C,D2*%
X153757500Y-59380600D02*
X153357500Y-59380600D01*
X153357500Y-59180600D01*
X153757500Y-59180600D01*
X153757500Y-59380600D01*
G36*
X153757500Y-59380600D02*
G01*
X153357500Y-59380600D01*
X153357500Y-59180600D01*
X153757500Y-59180600D01*
X153757500Y-59380600D01*
G37*
X153757500Y-57580600D02*
X153357500Y-57580600D01*
X153357500Y-57380600D01*
X153757500Y-57380600D01*
X153757500Y-57580600D01*
G36*
X153757500Y-57580600D02*
G01*
X153357500Y-57580600D01*
X153357500Y-57380600D01*
X153757500Y-57380600D01*
X153757500Y-57580600D01*
G37*
X155657500Y-59180600D02*
X155657500Y-57580600D01*
X155657500Y-57580600D02*
X152657500Y-57580600D01*
X152657500Y-59180600D02*
X155657500Y-59180600D01*
X152657500Y-57580600D02*
X152657500Y-59180600D01*
D11*
%TO.C,FL1*%
X124569000Y-76662250D02*
G75*
G02*
X124369000Y-76662250I-100000J0D01*
G01*
X124369000Y-76662250D02*
G75*
G02*
X124569000Y-76662250I100000J0D01*
G01*
X122537000Y-76662250D02*
G75*
G02*
X122337000Y-76662250I-100000J0D01*
G01*
X122337000Y-76662250D02*
G75*
G02*
X122537000Y-76662250I100000J0D01*
G01*
D10*
X125231000Y-86441250D02*
G75*
G02*
X125231000Y-84917250I0J762000D01*
G01*
X125231000Y-84917250D02*
G75*
G02*
X125231000Y-83393250I0J762000D01*
G01*
X125231000Y-83393250D02*
G75*
G02*
X125231000Y-81869250I0J762000D01*
G01*
X125231000Y-81869250D02*
G75*
G02*
X125231000Y-80345250I0J762000D01*
G01*
X125231000Y-80345250D02*
G75*
G02*
X125231000Y-78821250I0J762000D01*
G01*
X125231000Y-78821250D02*
G75*
G02*
X125231000Y-77297250I0J762000D01*
G01*
X121675000Y-84917250D02*
G75*
G02*
X121675000Y-86441250I0J-762000D01*
G01*
X121675000Y-83393250D02*
G75*
G02*
X121675000Y-84917250I0J-762000D01*
G01*
X121675000Y-81869250D02*
G75*
G02*
X121675000Y-83393250I0J-762000D01*
G01*
X121675000Y-80345250D02*
G75*
G02*
X121675000Y-81869250I0J-762000D01*
G01*
X121675000Y-78821250D02*
G75*
G02*
X121675000Y-80345250I0J-762000D01*
G01*
X121675000Y-77297250D02*
G75*
G02*
X121675000Y-78821250I0J-762000D01*
G01*
X131955000Y-74700250D02*
X131955000Y-89368250D01*
X125294500Y-86441250D02*
X128025000Y-86441250D01*
X125231000Y-77297250D02*
X128025000Y-77297250D01*
X123707000Y-77551250D02*
X123707000Y-86441250D01*
X123199000Y-86441250D02*
X123199000Y-77551250D01*
X121675000Y-77297250D02*
X118627000Y-77297250D01*
X121611500Y-86441250D02*
X118627000Y-86441250D01*
X114697000Y-89355750D02*
X131949000Y-89355750D01*
X114697000Y-74700250D02*
X131924000Y-74700250D01*
X114697000Y-74700250D02*
X114697000Y-89235250D01*
%TO.C,R6*%
X157331436Y-54591600D02*
X158785564Y-54591600D01*
X157331436Y-52771600D02*
X158785564Y-52771600D01*
%TO.C,U1*%
X140492400Y-69687000D02*
X140492400Y-68937000D01*
X140492400Y-68937000D02*
X140492400Y-67187000D01*
X140492400Y-52437000D02*
X140492400Y-54187000D01*
X140492400Y-51687000D02*
X140492400Y-52437000D01*
X139742400Y-69687000D02*
X140492400Y-69687000D01*
X139742400Y-51687000D02*
X140492400Y-51687000D01*
X120932400Y-51687000D02*
X120932400Y-69687000D01*
X114992400Y-69687000D02*
X121742400Y-69687000D01*
X114992400Y-69687000D02*
X114992400Y-51687000D01*
X114992400Y-51687000D02*
X121742400Y-51687000D01*
%TO.C,J3*%
X158330800Y-135876000D02*
G75*
G02*
X154970800Y-135876000I-1680000J0D01*
G01*
X154970800Y-135876000D02*
G75*
G02*
X158330800Y-135876000I1680000J0D01*
G01*
X153186227Y-135192958D02*
G75*
G02*
X153185800Y-136560000I-1535427J-683042D01*
G01*
X152334118Y-137410756D02*
G75*
G02*
X151650800Y-137556000I-683318J1534756D01*
G01*
X151679605Y-137556253D02*
G75*
G02*
X150966800Y-137411000I-28806J1680254D01*
G01*
X150967758Y-134340573D02*
G75*
G02*
X152334800Y-134341000I683041J-1535420D01*
G01*
X150115373Y-136559042D02*
G75*
G02*
X150115800Y-135192000I1535420J683041D01*
G01*
X159210800Y-130615000D02*
X159210800Y-140536000D01*
X157925800Y-134807000D02*
X157878800Y-134853000D01*
X157720800Y-134601000D02*
X157685800Y-134637000D01*
X155616800Y-137115000D02*
X155581800Y-137150000D01*
X155423800Y-136899000D02*
X155376800Y-136945000D01*
X149090800Y-140536000D02*
X159210800Y-140536000D01*
X149090800Y-139976000D02*
X159210800Y-139976000D01*
X149090800Y-138476000D02*
X159210800Y-138476000D01*
X149090800Y-133575000D02*
X159210800Y-133575000D01*
X149090800Y-130615000D02*
X159210800Y-130615000D01*
X149090800Y-130615000D02*
X149090800Y-140536000D01*
X148850800Y-140776000D02*
X149350800Y-140776000D01*
X148850800Y-140036000D02*
X148850800Y-140776000D01*
%TO.C,J2*%
X146900800Y-135876000D02*
G75*
G02*
X143540800Y-135876000I-1680000J0D01*
G01*
X143540800Y-135876000D02*
G75*
G02*
X146900800Y-135876000I1680000J0D01*
G01*
X141756227Y-135192958D02*
G75*
G02*
X141755800Y-136560000I-1535427J-683042D01*
G01*
X140904118Y-137410756D02*
G75*
G02*
X140220800Y-137556000I-683318J1534756D01*
G01*
X140249605Y-137556253D02*
G75*
G02*
X139536800Y-137411000I-28806J1680254D01*
G01*
X139537758Y-134340573D02*
G75*
G02*
X140904800Y-134341000I683041J-1535420D01*
G01*
X138685373Y-136559042D02*
G75*
G02*
X138685800Y-135192000I1535420J683041D01*
G01*
X147780800Y-130615000D02*
X147780800Y-140536000D01*
X146495800Y-134807000D02*
X146448800Y-134853000D01*
X146290800Y-134601000D02*
X146255800Y-134637000D01*
X144186800Y-137115000D02*
X144151800Y-137150000D01*
X143993800Y-136899000D02*
X143946800Y-136945000D01*
X137660800Y-140536000D02*
X147780800Y-140536000D01*
X137660800Y-139976000D02*
X147780800Y-139976000D01*
X137660800Y-138476000D02*
X147780800Y-138476000D01*
X137660800Y-133575000D02*
X147780800Y-133575000D01*
X137660800Y-130615000D02*
X147780800Y-130615000D01*
X137660800Y-130615000D02*
X137660800Y-140536000D01*
X137420800Y-140776000D02*
X137920800Y-140776000D01*
X137420800Y-140036000D02*
X137420800Y-140776000D01*
%TO.C,F1*%
X124476800Y-115361200D02*
X124476800Y-92641200D01*
X124476800Y-115361200D02*
X121316800Y-115361200D01*
X124476800Y-92641200D02*
X121316800Y-92641200D01*
X117816800Y-115361200D02*
X114656800Y-115361200D01*
X117816800Y-92641200D02*
X114656800Y-92641200D01*
X114656800Y-115361200D02*
X114656800Y-92641200D01*
%TO.C,SW1*%
X149698000Y-66082200D02*
X149698000Y-63582200D01*
X149248000Y-66532200D02*
X149698000Y-66082200D01*
X149248000Y-63132200D02*
X149698000Y-63582200D01*
X145948000Y-67582200D02*
X147948000Y-67582200D01*
X145948000Y-62082200D02*
X147948000Y-62082200D01*
X144648000Y-66532200D02*
X144198000Y-66082200D01*
X144648000Y-63132200D02*
X144198000Y-63582200D01*
X144198000Y-66082200D02*
X144198000Y-63582200D01*
%TO.C,F2*%
X145508000Y-127350000D02*
X145508000Y-104630000D01*
X145508000Y-127350000D02*
X142348000Y-127350000D01*
X145508000Y-104630000D02*
X142348000Y-104630000D01*
X138848000Y-127350000D02*
X135688000Y-127350000D01*
X138848000Y-104630000D02*
X135688000Y-104630000D01*
X135688000Y-127350000D02*
X135688000Y-104630000D01*
%TO.C,K2*%
X147990800Y-129576800D02*
G75*
G02*
X147790800Y-129576800I-100000J0D01*
G01*
X147790800Y-129576800D02*
G75*
G02*
X147990800Y-129576800I100000J0D01*
G01*
X151910800Y-128872800D02*
X151910800Y-104372800D01*
X151910800Y-104372800D02*
X146410800Y-104372800D01*
X146410800Y-128872800D02*
X151910800Y-128872800D01*
X146410800Y-104372800D02*
X146410800Y-128872800D01*
%TO.C,J4*%
X169680800Y-135876000D02*
G75*
G02*
X166320800Y-135876000I-1680000J0D01*
G01*
X166320800Y-135876000D02*
G75*
G02*
X169680800Y-135876000I1680000J0D01*
G01*
X164536227Y-135192958D02*
G75*
G02*
X164535800Y-136560000I-1535427J-683042D01*
G01*
X163684118Y-137410756D02*
G75*
G02*
X163000800Y-137556000I-683318J1534756D01*
G01*
X163029605Y-137556253D02*
G75*
G02*
X162316800Y-137411000I-28806J1680254D01*
G01*
X162317758Y-134340573D02*
G75*
G02*
X163684800Y-134341000I683041J-1535420D01*
G01*
X161465373Y-136559042D02*
G75*
G02*
X161465800Y-135192000I1535420J683041D01*
G01*
X170560800Y-130615000D02*
X170560800Y-140536000D01*
X169275800Y-134807000D02*
X169228800Y-134853000D01*
X169070800Y-134601000D02*
X169035800Y-134637000D01*
X166966800Y-137115000D02*
X166931800Y-137150000D01*
X166773800Y-136899000D02*
X166726800Y-136945000D01*
X160440800Y-140536000D02*
X170560800Y-140536000D01*
X160440800Y-139976000D02*
X170560800Y-139976000D01*
X160440800Y-138476000D02*
X170560800Y-138476000D01*
X160440800Y-133575000D02*
X170560800Y-133575000D01*
X160440800Y-130615000D02*
X170560800Y-130615000D01*
X160440800Y-130615000D02*
X160440800Y-140536000D01*
X160200800Y-140776000D02*
X160700800Y-140776000D01*
X160200800Y-140036000D02*
X160200800Y-140776000D01*
%TO.C,RVe1*%
X136666800Y-130097800D02*
X136666800Y-134897800D01*
X115166800Y-134897800D02*
X136666800Y-134897800D01*
X115166800Y-130097800D02*
X136666800Y-130097800D01*
X115166800Y-130097800D02*
X115166800Y-134897800D01*
%TO.C,K1*%
X130795000Y-129399000D02*
G75*
G02*
X130595000Y-129399000I-100000J0D01*
G01*
X130595000Y-129399000D02*
G75*
G02*
X130795000Y-129399000I100000J0D01*
G01*
X134715000Y-128695000D02*
X134715000Y-104195000D01*
X134715000Y-104195000D02*
X129215000Y-104195000D01*
X129215000Y-128695000D02*
X134715000Y-128695000D01*
X129215000Y-104195000D02*
X129215000Y-128695000D01*
%TO.C,F4*%
X179696400Y-127604000D02*
X179696400Y-104884000D01*
X179696400Y-127604000D02*
X176536400Y-127604000D01*
X179696400Y-104884000D02*
X176536400Y-104884000D01*
X173036400Y-127604000D02*
X169876400Y-127604000D01*
X173036400Y-104884000D02*
X169876400Y-104884000D01*
X169876400Y-127604000D02*
X169876400Y-104884000D01*
%TO.C,C7*%
X136702400Y-135669000D02*
X136702400Y-140909000D01*
X123462400Y-140909000D02*
X136702400Y-140909000D01*
X123462400Y-135669000D02*
X136702400Y-135669000D01*
X123462400Y-135669000D02*
X123462400Y-140909000D01*
%TO.C,J1*%
X121322800Y-125930000D02*
G75*
G02*
X117962800Y-125930000I-1680000J0D01*
G01*
X117962800Y-125930000D02*
G75*
G02*
X121322800Y-125930000I1680000J0D01*
G01*
X121178227Y-120246958D02*
G75*
G02*
X121177800Y-121614000I-1535420J-683041D01*
G01*
X120325842Y-122465427D02*
G75*
G02*
X118958800Y-122465000I-683042J1535427D01*
G01*
X118959758Y-119394573D02*
G75*
G02*
X120326800Y-119395000I683041J-1535420D01*
G01*
X118108044Y-121613318D02*
G75*
G02*
X117962800Y-120930000I1534756J683318D01*
G01*
X117962547Y-120958805D02*
G75*
G02*
X118107800Y-120246000I1680254J28806D01*
G01*
X124903800Y-128490000D02*
X114982800Y-128490000D01*
X124903800Y-118370000D02*
X124903800Y-128490000D01*
X124903800Y-118370000D02*
X114982800Y-118370000D01*
X121943800Y-118370000D02*
X121943800Y-128490000D01*
X120917800Y-127000000D02*
X120881800Y-126965000D01*
X120711800Y-127205000D02*
X120665800Y-127158000D01*
X118619800Y-124703000D02*
X118573800Y-124656000D01*
X118403800Y-124896000D02*
X118368800Y-124861000D01*
X117042800Y-118370000D02*
X117042800Y-128490000D01*
X115542800Y-118370000D02*
X115542800Y-128490000D01*
X115482800Y-118130000D02*
X114742800Y-118130000D01*
X114982800Y-118370000D02*
X114982800Y-128490000D01*
X114742800Y-118130000D02*
X114742800Y-118630000D01*
%TO.C,J_I2C1*%
X177493000Y-70658000D02*
X177493000Y-67998000D01*
X167273000Y-70658000D02*
X177493000Y-70658000D01*
X167273000Y-70658000D02*
X167273000Y-67998000D01*
X167273000Y-67998000D02*
X177493000Y-67998000D01*
X166003000Y-70658000D02*
X164673000Y-70658000D01*
X164673000Y-70658000D02*
X164673000Y-69328000D01*
%TO.C,D4*%
X153738600Y-54701600D02*
X153338600Y-54701600D01*
X153338600Y-54501600D01*
X153738600Y-54501600D01*
X153738600Y-54701600D01*
G36*
X153738600Y-54701600D02*
G01*
X153338600Y-54701600D01*
X153338600Y-54501600D01*
X153738600Y-54501600D01*
X153738600Y-54701600D01*
G37*
X153738600Y-52901600D02*
X153338600Y-52901600D01*
X153338600Y-52701600D01*
X153738600Y-52701600D01*
X153738600Y-52901600D01*
G36*
X153738600Y-52901600D02*
G01*
X153338600Y-52901600D01*
X153338600Y-52701600D01*
X153738600Y-52701600D01*
X153738600Y-52901600D01*
G37*
X155638600Y-54501600D02*
X155638600Y-52901600D01*
X155638600Y-52901600D02*
X152638600Y-52901600D01*
X152638600Y-54501600D02*
X155638600Y-54501600D01*
X152638600Y-52901600D02*
X152638600Y-54501600D01*
D12*
%TO.C,D3*%
X153746900Y-61768200D02*
X153346900Y-61768200D01*
X153346900Y-61568200D01*
X153746900Y-61568200D01*
X153746900Y-61768200D01*
G36*
X153746900Y-61768200D02*
G01*
X153346900Y-61768200D01*
X153346900Y-61568200D01*
X153746900Y-61568200D01*
X153746900Y-61768200D01*
G37*
X153746900Y-59968200D02*
X153346900Y-59968200D01*
X153346900Y-59768200D01*
X153746900Y-59768200D01*
X153746900Y-59968200D01*
G36*
X153746900Y-59968200D02*
G01*
X153346900Y-59968200D01*
X153346900Y-59768200D01*
X153746900Y-59768200D01*
X153746900Y-59968200D01*
G37*
D10*
X155646900Y-61568200D02*
X155646900Y-59968200D01*
X155646900Y-59968200D02*
X152646900Y-59968200D01*
X152646900Y-61568200D02*
X155646900Y-61568200D01*
X152646900Y-59968200D02*
X152646900Y-61568200D01*
%TO.C,J_UART1*%
X163518000Y-70658000D02*
X163518000Y-67998000D01*
X153298000Y-70658000D02*
X163518000Y-70658000D01*
X153298000Y-70658000D02*
X153298000Y-67998000D01*
X153298000Y-67998000D02*
X163518000Y-67998000D01*
X152028000Y-70658000D02*
X150698000Y-70658000D01*
X150698000Y-70658000D02*
X150698000Y-69328000D01*
%TO.C,R5*%
X157306036Y-61602000D02*
X158760164Y-61602000D01*
X157306036Y-59782000D02*
X158760164Y-59782000D01*
%TO.C,J7*%
X173170000Y-62276000D02*
X173170000Y-59616000D01*
X170570000Y-62276000D02*
X173170000Y-62276000D01*
X170570000Y-62276000D02*
X170570000Y-59616000D01*
X170570000Y-59616000D02*
X173170000Y-59616000D01*
X169300000Y-62276000D02*
X167970000Y-62276000D01*
X167970000Y-62276000D02*
X167970000Y-60946000D01*
%TO.C,R4*%
X157306036Y-59290600D02*
X158760164Y-59290600D01*
X157306036Y-57470600D02*
X158760164Y-57470600D01*
%TO.C,K3*%
X165110400Y-129678400D02*
G75*
G02*
X164910400Y-129678400I-100000J0D01*
G01*
X164910400Y-129678400D02*
G75*
G02*
X165110400Y-129678400I100000J0D01*
G01*
X169030400Y-128974400D02*
X169030400Y-104474400D01*
X169030400Y-104474400D02*
X163530400Y-104474400D01*
X163530400Y-128974400D02*
X169030400Y-128974400D01*
X163530400Y-104474400D02*
X163530400Y-128974400D01*
%TD*%
D13*
X112150000Y-46750000D02*
X184150000Y-46750000D01*
X184150000Y-143750000D01*
X112150000Y-143750000D01*
X112150000Y-46750000D01*
M02*
