%TF.GenerationSoftware,KiCad,Pcbnew,8.0.3-8.0.3-0~ubuntu23.10.1*%
%TF.CreationDate,2024-07-30T14:16:20+05:00*%
%TF.ProjectId,IOTV,494f5456-2e6b-4696-9361-645f70636258,3*%
%TF.SameCoordinates,Original*%
%TF.FileFunction,Paste,Top*%
%TF.FilePolarity,Positive*%
%FSLAX46Y46*%
G04 Gerber Fmt 4.6, Leading zero omitted, Abs format (unit mm)*
G04 Created by KiCad (PCBNEW 8.0.3-8.0.3-0~ubuntu23.10.1) date 2024-07-30 14:16:20*
%MOMM*%
%LPD*%
G01*
G04 APERTURE LIST*
G04 Aperture macros list*
%AMRoundRect*
0 Rectangle with rounded corners*
0 $1 Rounding radius*
0 $2 $3 $4 $5 $6 $7 $8 $9 X,Y pos of 4 corners*
0 Add a 4 corners polygon primitive as box body*
4,1,4,$2,$3,$4,$5,$6,$7,$8,$9,$2,$3,0*
0 Add four circle primitives for the rounded corners*
1,1,$1+$1,$2,$3*
1,1,$1+$1,$4,$5*
1,1,$1+$1,$6,$7*
1,1,$1+$1,$8,$9*
0 Add four rect primitives between the rounded corners*
20,1,$1+$1,$2,$3,$4,$5,0*
20,1,$1+$1,$4,$5,$6,$7,0*
20,1,$1+$1,$6,$7,$8,$9,0*
20,1,$1+$1,$8,$9,$2,$3,0*%
G04 Aperture macros list end*
%ADD10R,1.000000X1.700000*%
%ADD11RoundRect,0.218750X-0.218750X-0.256250X0.218750X-0.256250X0.218750X0.256250X-0.218750X0.256250X0*%
%ADD12RoundRect,0.250000X-0.312500X-0.625000X0.312500X-0.625000X0.312500X0.625000X-0.312500X0.625000X0*%
%ADD13R,0.900000X0.900000*%
%ADD14R,0.900000X1.500000*%
%ADD15R,1.500000X0.900000*%
%TA.AperFunction,Profile*%
%ADD16C,0.150000*%
%TD*%
G04 APERTURE END LIST*
D10*
%TO.C,SW2*%
X148848000Y-52995400D03*
X148848000Y-59295400D03*
X145048000Y-52995400D03*
X145048000Y-59295400D03*
%TD*%
D11*
%TO.C,D1*%
X154974500Y-56120000D03*
X153399500Y-56120000D03*
%TD*%
D12*
%TO.C,R3*%
X159510400Y-56018400D03*
X156585400Y-56018400D03*
%TD*%
D11*
%TO.C,D2*%
X154945000Y-58380600D03*
X153370000Y-58380600D03*
%TD*%
D12*
%TO.C,R6*%
X159521000Y-53681600D03*
X156596000Y-53681600D03*
%TD*%
D13*
%TO.C,U1*%
X131602400Y-60787000D03*
X130202400Y-60787000D03*
X128802400Y-60787000D03*
X131602400Y-62187000D03*
X131602400Y-62187000D03*
X130202400Y-62187000D03*
X128802400Y-62187000D03*
X131602400Y-63587000D03*
X131602400Y-63587000D03*
X130202400Y-63587000D03*
X128802400Y-63587000D03*
X128802400Y-63587000D03*
D14*
X122482400Y-51937000D03*
X123752400Y-51937000D03*
X125022400Y-51937000D03*
X126292400Y-51937000D03*
X127562400Y-51937000D03*
X128832400Y-51937000D03*
X130102400Y-51937000D03*
X131372400Y-51937000D03*
X132642400Y-51937000D03*
X133912400Y-51937000D03*
X135182400Y-51937000D03*
X136452400Y-51937000D03*
X137722400Y-51937000D03*
X138992400Y-51937000D03*
D15*
X140242400Y-54977000D03*
X140242400Y-56247000D03*
X140242400Y-57517000D03*
X140242400Y-58787000D03*
X140242400Y-60057000D03*
X140242400Y-61327000D03*
X140242400Y-62597000D03*
X140242400Y-63867000D03*
X140242400Y-65137000D03*
X140242400Y-66407000D03*
D14*
X138992400Y-69437000D03*
X137722400Y-69437000D03*
X136452400Y-69437000D03*
X135182400Y-69437000D03*
X133912400Y-69437000D03*
X132642400Y-69437000D03*
X131372400Y-69437000D03*
X130102400Y-69437000D03*
X128832400Y-69437000D03*
X127562400Y-69437000D03*
X126292400Y-69437000D03*
X125022400Y-69437000D03*
X123752400Y-69437000D03*
X122482400Y-69437000D03*
%TD*%
D10*
%TO.C,SW1*%
X148848000Y-61682200D03*
X148848000Y-67982200D03*
X145048000Y-61682200D03*
X145048000Y-67982200D03*
%TD*%
D11*
%TO.C,D4*%
X154926100Y-53701600D03*
X153351100Y-53701600D03*
%TD*%
%TO.C,D3*%
X154934400Y-60768200D03*
X153359400Y-60768200D03*
%TD*%
D12*
%TO.C,R5*%
X159495600Y-60692000D03*
X156570600Y-60692000D03*
%TD*%
%TO.C,R4*%
X159495600Y-58380600D03*
X156570600Y-58380600D03*
%TD*%
D16*
X112150000Y-46750000D02*
X184150000Y-46750000D01*
X184150000Y-143750000D01*
X112150000Y-143750000D01*
X112150000Y-46750000D01*
M02*
