%TF.GenerationSoftware,KiCad,Pcbnew,8.0.3-8.0.3-0~ubuntu23.10.1*%
%TF.CreationDate,2024-07-29T17:43:26+05:00*%
%TF.ProjectId,IOTV,494f5456-2e6b-4696-9361-645f70636258,3*%
%TF.SameCoordinates,Original*%
%TF.FileFunction,Legend,Top*%
%TF.FilePolarity,Positive*%
%FSLAX46Y46*%
G04 Gerber Fmt 4.6, Leading zero omitted, Abs format (unit mm)*
G04 Created by KiCad (PCBNEW 8.0.3-8.0.3-0~ubuntu23.10.1) date 2024-07-29 17:43:26*
%MOMM*%
%LPD*%
G01*
G04 APERTURE LIST*
%ADD10C,0.150000*%
%ADD11C,0.120000*%
%ADD12C,0.100000*%
%ADD13C,0.400000*%
%ADD14C,0.127000*%
%ADD15C,0.200000*%
%TA.AperFunction,Profile*%
%ADD16C,0.100000*%
%TD*%
G04 APERTURE END LIST*
D10*
X77441588Y-101153238D02*
X77346350Y-101105619D01*
X77346350Y-101105619D02*
X77203493Y-101105619D01*
X77203493Y-101105619D02*
X77060636Y-101153238D01*
X77060636Y-101153238D02*
X76965398Y-101248476D01*
X76965398Y-101248476D02*
X76917779Y-101343714D01*
X76917779Y-101343714D02*
X76870160Y-101534190D01*
X76870160Y-101534190D02*
X76870160Y-101677047D01*
X76870160Y-101677047D02*
X76917779Y-101867523D01*
X76917779Y-101867523D02*
X76965398Y-101962761D01*
X76965398Y-101962761D02*
X77060636Y-102058000D01*
X77060636Y-102058000D02*
X77203493Y-102105619D01*
X77203493Y-102105619D02*
X77298731Y-102105619D01*
X77298731Y-102105619D02*
X77441588Y-102058000D01*
X77441588Y-102058000D02*
X77489207Y-102010380D01*
X77489207Y-102010380D02*
X77489207Y-101677047D01*
X77489207Y-101677047D02*
X77298731Y-101677047D01*
X77917779Y-102105619D02*
X77917779Y-101105619D01*
X77917779Y-101105619D02*
X78489207Y-102105619D01*
X78489207Y-102105619D02*
X78489207Y-101105619D01*
X78965398Y-102105619D02*
X78965398Y-101105619D01*
X78965398Y-101105619D02*
X79203493Y-101105619D01*
X79203493Y-101105619D02*
X79346350Y-101153238D01*
X79346350Y-101153238D02*
X79441588Y-101248476D01*
X79441588Y-101248476D02*
X79489207Y-101343714D01*
X79489207Y-101343714D02*
X79536826Y-101534190D01*
X79536826Y-101534190D02*
X79536826Y-101677047D01*
X79536826Y-101677047D02*
X79489207Y-101867523D01*
X79489207Y-101867523D02*
X79441588Y-101962761D01*
X79441588Y-101962761D02*
X79346350Y-102058000D01*
X79346350Y-102058000D02*
X79203493Y-102105619D01*
X79203493Y-102105619D02*
X78965398Y-102105619D01*
X80584446Y-101105619D02*
X81155874Y-101105619D01*
X80870160Y-102105619D02*
X80870160Y-101105619D01*
X81393970Y-101105619D02*
X82060636Y-102105619D01*
X82060636Y-101105619D02*
X81393970Y-102105619D01*
X83774922Y-102105619D02*
X83441589Y-101629428D01*
X83203494Y-102105619D02*
X83203494Y-101105619D01*
X83203494Y-101105619D02*
X83584446Y-101105619D01*
X83584446Y-101105619D02*
X83679684Y-101153238D01*
X83679684Y-101153238D02*
X83727303Y-101200857D01*
X83727303Y-101200857D02*
X83774922Y-101296095D01*
X83774922Y-101296095D02*
X83774922Y-101438952D01*
X83774922Y-101438952D02*
X83727303Y-101534190D01*
X83727303Y-101534190D02*
X83679684Y-101581809D01*
X83679684Y-101581809D02*
X83584446Y-101629428D01*
X83584446Y-101629428D02*
X83203494Y-101629428D01*
X84108256Y-101105619D02*
X84774922Y-102105619D01*
X84774922Y-101105619D02*
X84108256Y-102105619D01*
X85822542Y-101105619D02*
X86441589Y-101105619D01*
X86441589Y-101105619D02*
X86108256Y-101486571D01*
X86108256Y-101486571D02*
X86251113Y-101486571D01*
X86251113Y-101486571D02*
X86346351Y-101534190D01*
X86346351Y-101534190D02*
X86393970Y-101581809D01*
X86393970Y-101581809D02*
X86441589Y-101677047D01*
X86441589Y-101677047D02*
X86441589Y-101915142D01*
X86441589Y-101915142D02*
X86393970Y-102010380D01*
X86393970Y-102010380D02*
X86346351Y-102058000D01*
X86346351Y-102058000D02*
X86251113Y-102105619D01*
X86251113Y-102105619D02*
X85965399Y-102105619D01*
X85965399Y-102105619D02*
X85870161Y-102058000D01*
X85870161Y-102058000D02*
X85822542Y-102010380D01*
X86870161Y-102010380D02*
X86917780Y-102058000D01*
X86917780Y-102058000D02*
X86870161Y-102105619D01*
X86870161Y-102105619D02*
X86822542Y-102058000D01*
X86822542Y-102058000D02*
X86870161Y-102010380D01*
X86870161Y-102010380D02*
X86870161Y-102105619D01*
X87251113Y-101105619D02*
X87870160Y-101105619D01*
X87870160Y-101105619D02*
X87536827Y-101486571D01*
X87536827Y-101486571D02*
X87679684Y-101486571D01*
X87679684Y-101486571D02*
X87774922Y-101534190D01*
X87774922Y-101534190D02*
X87822541Y-101581809D01*
X87822541Y-101581809D02*
X87870160Y-101677047D01*
X87870160Y-101677047D02*
X87870160Y-101915142D01*
X87870160Y-101915142D02*
X87822541Y-102010380D01*
X87822541Y-102010380D02*
X87774922Y-102058000D01*
X87774922Y-102058000D02*
X87679684Y-102105619D01*
X87679684Y-102105619D02*
X87393970Y-102105619D01*
X87393970Y-102105619D02*
X87298732Y-102058000D01*
X87298732Y-102058000D02*
X87251113Y-102010380D01*
X88536827Y-102438952D02*
X88536827Y-101010380D01*
X90786179Y-85036866D02*
X91548084Y-85036866D01*
X92786179Y-85417819D02*
X92786179Y-84417819D01*
X92786179Y-84417819D02*
X93167131Y-84417819D01*
X93167131Y-84417819D02*
X93262369Y-84465438D01*
X93262369Y-84465438D02*
X93309988Y-84513057D01*
X93309988Y-84513057D02*
X93357607Y-84608295D01*
X93357607Y-84608295D02*
X93357607Y-84751152D01*
X93357607Y-84751152D02*
X93309988Y-84846390D01*
X93309988Y-84846390D02*
X93262369Y-84894009D01*
X93262369Y-84894009D02*
X93167131Y-84941628D01*
X93167131Y-84941628D02*
X92786179Y-84941628D01*
X94167131Y-85370200D02*
X94071893Y-85417819D01*
X94071893Y-85417819D02*
X93881417Y-85417819D01*
X93881417Y-85417819D02*
X93786179Y-85370200D01*
X93786179Y-85370200D02*
X93738560Y-85274961D01*
X93738560Y-85274961D02*
X93738560Y-84894009D01*
X93738560Y-84894009D02*
X93786179Y-84798771D01*
X93786179Y-84798771D02*
X93881417Y-84751152D01*
X93881417Y-84751152D02*
X94071893Y-84751152D01*
X94071893Y-84751152D02*
X94167131Y-84798771D01*
X94167131Y-84798771D02*
X94214750Y-84894009D01*
X94214750Y-84894009D02*
X94214750Y-84989247D01*
X94214750Y-84989247D02*
X93738560Y-85084485D01*
X95024274Y-85417819D02*
X95024274Y-84751152D01*
X95024274Y-84751152D02*
X94881417Y-84751152D01*
X94881417Y-84751152D02*
X94786179Y-84798771D01*
X94786179Y-84798771D02*
X94738560Y-84894009D01*
X94738560Y-84894009D02*
X94690941Y-85274961D01*
X94690941Y-85274961D02*
X94643322Y-85370200D01*
X94643322Y-85370200D02*
X94548084Y-85417819D01*
X95881417Y-85370200D02*
X95786179Y-85417819D01*
X95786179Y-85417819D02*
X95595703Y-85417819D01*
X95595703Y-85417819D02*
X95500465Y-85370200D01*
X95500465Y-85370200D02*
X95452846Y-85274961D01*
X95452846Y-85274961D02*
X95452846Y-84894009D01*
X95452846Y-84894009D02*
X95500465Y-84798771D01*
X95500465Y-84798771D02*
X95595703Y-84751152D01*
X95595703Y-84751152D02*
X95786179Y-84751152D01*
X95786179Y-84751152D02*
X95881417Y-84798771D01*
X95881417Y-84798771D02*
X95929036Y-84894009D01*
X95929036Y-84894009D02*
X95929036Y-84989247D01*
X95929036Y-84989247D02*
X95452846Y-85084485D01*
X96119513Y-85513057D02*
X96881417Y-85513057D01*
X97643322Y-85417819D02*
X97071894Y-85417819D01*
X97357608Y-85417819D02*
X97357608Y-84417819D01*
X97357608Y-84417819D02*
X97262370Y-84560676D01*
X97262370Y-84560676D02*
X97167132Y-84655914D01*
X97167132Y-84655914D02*
X97071894Y-84703533D01*
X90760779Y-87322866D02*
X91522684Y-87322866D01*
X92760779Y-87703819D02*
X92760779Y-86703819D01*
X92760779Y-86703819D02*
X93141731Y-86703819D01*
X93141731Y-86703819D02*
X93236969Y-86751438D01*
X93236969Y-86751438D02*
X93284588Y-86799057D01*
X93284588Y-86799057D02*
X93332207Y-86894295D01*
X93332207Y-86894295D02*
X93332207Y-87037152D01*
X93332207Y-87037152D02*
X93284588Y-87132390D01*
X93284588Y-87132390D02*
X93236969Y-87180009D01*
X93236969Y-87180009D02*
X93141731Y-87227628D01*
X93141731Y-87227628D02*
X92760779Y-87227628D01*
X94141731Y-87656200D02*
X94046493Y-87703819D01*
X94046493Y-87703819D02*
X93856017Y-87703819D01*
X93856017Y-87703819D02*
X93760779Y-87656200D01*
X93760779Y-87656200D02*
X93713160Y-87560961D01*
X93713160Y-87560961D02*
X93713160Y-87180009D01*
X93713160Y-87180009D02*
X93760779Y-87084771D01*
X93760779Y-87084771D02*
X93856017Y-87037152D01*
X93856017Y-87037152D02*
X94046493Y-87037152D01*
X94046493Y-87037152D02*
X94141731Y-87084771D01*
X94141731Y-87084771D02*
X94189350Y-87180009D01*
X94189350Y-87180009D02*
X94189350Y-87275247D01*
X94189350Y-87275247D02*
X93713160Y-87370485D01*
X94998874Y-87703819D02*
X94998874Y-87037152D01*
X94998874Y-87037152D02*
X94856017Y-87037152D01*
X94856017Y-87037152D02*
X94760779Y-87084771D01*
X94760779Y-87084771D02*
X94713160Y-87180009D01*
X94713160Y-87180009D02*
X94665541Y-87560961D01*
X94665541Y-87560961D02*
X94617922Y-87656200D01*
X94617922Y-87656200D02*
X94522684Y-87703819D01*
X95856017Y-87656200D02*
X95760779Y-87703819D01*
X95760779Y-87703819D02*
X95570303Y-87703819D01*
X95570303Y-87703819D02*
X95475065Y-87656200D01*
X95475065Y-87656200D02*
X95427446Y-87560961D01*
X95427446Y-87560961D02*
X95427446Y-87180009D01*
X95427446Y-87180009D02*
X95475065Y-87084771D01*
X95475065Y-87084771D02*
X95570303Y-87037152D01*
X95570303Y-87037152D02*
X95760779Y-87037152D01*
X95760779Y-87037152D02*
X95856017Y-87084771D01*
X95856017Y-87084771D02*
X95903636Y-87180009D01*
X95903636Y-87180009D02*
X95903636Y-87275247D01*
X95903636Y-87275247D02*
X95427446Y-87370485D01*
X96094113Y-87799057D02*
X96856017Y-87799057D01*
X97046494Y-86799057D02*
X97094113Y-86751438D01*
X97094113Y-86751438D02*
X97189351Y-86703819D01*
X97189351Y-86703819D02*
X97427446Y-86703819D01*
X97427446Y-86703819D02*
X97522684Y-86751438D01*
X97522684Y-86751438D02*
X97570303Y-86799057D01*
X97570303Y-86799057D02*
X97617922Y-86894295D01*
X97617922Y-86894295D02*
X97617922Y-86989533D01*
X97617922Y-86989533D02*
X97570303Y-87132390D01*
X97570303Y-87132390D02*
X96998875Y-87703819D01*
X96998875Y-87703819D02*
X97617922Y-87703819D01*
X90862379Y-82700066D02*
X91624284Y-82700066D01*
X92862379Y-83081019D02*
X92862379Y-82081019D01*
X92862379Y-82081019D02*
X93433807Y-82081019D01*
X93433807Y-82081019D02*
X93433807Y-83081019D01*
X93909998Y-82414352D02*
X93909998Y-83081019D01*
X93909998Y-83081019D02*
X94386188Y-82414352D01*
X94386188Y-82414352D02*
X94386188Y-83081019D01*
X94719522Y-82414352D02*
X95195712Y-82414352D01*
X94957617Y-82414352D02*
X94957617Y-83081019D01*
X95957617Y-83081019D02*
X95957617Y-82557209D01*
X95957617Y-82557209D02*
X95909998Y-82461971D01*
X95909998Y-82461971D02*
X95814760Y-82414352D01*
X95814760Y-82414352D02*
X95624284Y-82414352D01*
X95624284Y-82414352D02*
X95529046Y-82461971D01*
X95957617Y-83033400D02*
X95862379Y-83081019D01*
X95862379Y-83081019D02*
X95624284Y-83081019D01*
X95624284Y-83081019D02*
X95529046Y-83033400D01*
X95529046Y-83033400D02*
X95481427Y-82938161D01*
X95481427Y-82938161D02*
X95481427Y-82842923D01*
X95481427Y-82842923D02*
X95529046Y-82747685D01*
X95529046Y-82747685D02*
X95624284Y-82700066D01*
X95624284Y-82700066D02*
X95862379Y-82700066D01*
X95862379Y-82700066D02*
X95957617Y-82652447D01*
X96433808Y-82747685D02*
X96862379Y-82747685D01*
X96433808Y-82414352D02*
X96433808Y-83081019D01*
X96862379Y-82414352D02*
X96862379Y-83081019D01*
X97338570Y-82414352D02*
X97338570Y-83081019D01*
X97338570Y-83081019D02*
X97814760Y-82414352D01*
X97814760Y-82414352D02*
X97814760Y-83081019D01*
X98671903Y-83033400D02*
X98576665Y-83081019D01*
X98576665Y-83081019D02*
X98386189Y-83081019D01*
X98386189Y-83081019D02*
X98290951Y-83033400D01*
X98290951Y-83033400D02*
X98243332Y-82938161D01*
X98243332Y-82938161D02*
X98243332Y-82557209D01*
X98243332Y-82557209D02*
X98290951Y-82461971D01*
X98290951Y-82461971D02*
X98386189Y-82414352D01*
X98386189Y-82414352D02*
X98576665Y-82414352D01*
X98576665Y-82414352D02*
X98671903Y-82461971D01*
X98671903Y-82461971D02*
X98719522Y-82557209D01*
X98719522Y-82557209D02*
X98719522Y-82652447D01*
X98719522Y-82652447D02*
X98243332Y-82747685D01*
X90786179Y-89710466D02*
X91548084Y-89710466D01*
X92786179Y-90091419D02*
X92786179Y-89091419D01*
X92786179Y-89091419D02*
X93167131Y-89091419D01*
X93167131Y-89091419D02*
X93262369Y-89139038D01*
X93262369Y-89139038D02*
X93309988Y-89186657D01*
X93309988Y-89186657D02*
X93357607Y-89281895D01*
X93357607Y-89281895D02*
X93357607Y-89424752D01*
X93357607Y-89424752D02*
X93309988Y-89519990D01*
X93309988Y-89519990D02*
X93262369Y-89567609D01*
X93262369Y-89567609D02*
X93167131Y-89615228D01*
X93167131Y-89615228D02*
X92786179Y-89615228D01*
X94167131Y-90043800D02*
X94071893Y-90091419D01*
X94071893Y-90091419D02*
X93881417Y-90091419D01*
X93881417Y-90091419D02*
X93786179Y-90043800D01*
X93786179Y-90043800D02*
X93738560Y-89948561D01*
X93738560Y-89948561D02*
X93738560Y-89567609D01*
X93738560Y-89567609D02*
X93786179Y-89472371D01*
X93786179Y-89472371D02*
X93881417Y-89424752D01*
X93881417Y-89424752D02*
X94071893Y-89424752D01*
X94071893Y-89424752D02*
X94167131Y-89472371D01*
X94167131Y-89472371D02*
X94214750Y-89567609D01*
X94214750Y-89567609D02*
X94214750Y-89662847D01*
X94214750Y-89662847D02*
X93738560Y-89758085D01*
X95024274Y-90091419D02*
X95024274Y-89424752D01*
X95024274Y-89424752D02*
X94881417Y-89424752D01*
X94881417Y-89424752D02*
X94786179Y-89472371D01*
X94786179Y-89472371D02*
X94738560Y-89567609D01*
X94738560Y-89567609D02*
X94690941Y-89948561D01*
X94690941Y-89948561D02*
X94643322Y-90043800D01*
X94643322Y-90043800D02*
X94548084Y-90091419D01*
X95881417Y-90043800D02*
X95786179Y-90091419D01*
X95786179Y-90091419D02*
X95595703Y-90091419D01*
X95595703Y-90091419D02*
X95500465Y-90043800D01*
X95500465Y-90043800D02*
X95452846Y-89948561D01*
X95452846Y-89948561D02*
X95452846Y-89567609D01*
X95452846Y-89567609D02*
X95500465Y-89472371D01*
X95500465Y-89472371D02*
X95595703Y-89424752D01*
X95595703Y-89424752D02*
X95786179Y-89424752D01*
X95786179Y-89424752D02*
X95881417Y-89472371D01*
X95881417Y-89472371D02*
X95929036Y-89567609D01*
X95929036Y-89567609D02*
X95929036Y-89662847D01*
X95929036Y-89662847D02*
X95452846Y-89758085D01*
X96119513Y-90186657D02*
X96881417Y-90186657D01*
X97024275Y-89091419D02*
X97643322Y-89091419D01*
X97643322Y-89091419D02*
X97309989Y-89472371D01*
X97309989Y-89472371D02*
X97452846Y-89472371D01*
X97452846Y-89472371D02*
X97548084Y-89519990D01*
X97548084Y-89519990D02*
X97595703Y-89567609D01*
X97595703Y-89567609D02*
X97643322Y-89662847D01*
X97643322Y-89662847D02*
X97643322Y-89900942D01*
X97643322Y-89900942D02*
X97595703Y-89996180D01*
X97595703Y-89996180D02*
X97548084Y-90043800D01*
X97548084Y-90043800D02*
X97452846Y-90091419D01*
X97452846Y-90091419D02*
X97167132Y-90091419D01*
X97167132Y-90091419D02*
X97071894Y-90043800D01*
X97071894Y-90043800D02*
X97024275Y-89996180D01*
X90243188Y-101077038D02*
X90147950Y-101029419D01*
X90147950Y-101029419D02*
X90005093Y-101029419D01*
X90005093Y-101029419D02*
X89862236Y-101077038D01*
X89862236Y-101077038D02*
X89766998Y-101172276D01*
X89766998Y-101172276D02*
X89719379Y-101267514D01*
X89719379Y-101267514D02*
X89671760Y-101457990D01*
X89671760Y-101457990D02*
X89671760Y-101600847D01*
X89671760Y-101600847D02*
X89719379Y-101791323D01*
X89719379Y-101791323D02*
X89766998Y-101886561D01*
X89766998Y-101886561D02*
X89862236Y-101981800D01*
X89862236Y-101981800D02*
X90005093Y-102029419D01*
X90005093Y-102029419D02*
X90100331Y-102029419D01*
X90100331Y-102029419D02*
X90243188Y-101981800D01*
X90243188Y-101981800D02*
X90290807Y-101934180D01*
X90290807Y-101934180D02*
X90290807Y-101600847D01*
X90290807Y-101600847D02*
X90100331Y-101600847D01*
X90719379Y-102029419D02*
X90719379Y-101029419D01*
X90719379Y-101029419D02*
X91290807Y-102029419D01*
X91290807Y-102029419D02*
X91290807Y-101029419D01*
X91766998Y-102029419D02*
X91766998Y-101029419D01*
X91766998Y-101029419D02*
X92005093Y-101029419D01*
X92005093Y-101029419D02*
X92147950Y-101077038D01*
X92147950Y-101077038D02*
X92243188Y-101172276D01*
X92243188Y-101172276D02*
X92290807Y-101267514D01*
X92290807Y-101267514D02*
X92338426Y-101457990D01*
X92338426Y-101457990D02*
X92338426Y-101600847D01*
X92338426Y-101600847D02*
X92290807Y-101791323D01*
X92290807Y-101791323D02*
X92243188Y-101886561D01*
X92243188Y-101886561D02*
X92147950Y-101981800D01*
X92147950Y-101981800D02*
X92005093Y-102029419D01*
X92005093Y-102029419D02*
X91766998Y-102029419D01*
X93433665Y-101029419D02*
X94052712Y-101029419D01*
X94052712Y-101029419D02*
X93719379Y-101410371D01*
X93719379Y-101410371D02*
X93862236Y-101410371D01*
X93862236Y-101410371D02*
X93957474Y-101457990D01*
X93957474Y-101457990D02*
X94005093Y-101505609D01*
X94005093Y-101505609D02*
X94052712Y-101600847D01*
X94052712Y-101600847D02*
X94052712Y-101838942D01*
X94052712Y-101838942D02*
X94005093Y-101934180D01*
X94005093Y-101934180D02*
X93957474Y-101981800D01*
X93957474Y-101981800D02*
X93862236Y-102029419D01*
X93862236Y-102029419D02*
X93576522Y-102029419D01*
X93576522Y-102029419D02*
X93481284Y-101981800D01*
X93481284Y-101981800D02*
X93433665Y-101934180D01*
X94481284Y-101934180D02*
X94528903Y-101981800D01*
X94528903Y-101981800D02*
X94481284Y-102029419D01*
X94481284Y-102029419D02*
X94433665Y-101981800D01*
X94433665Y-101981800D02*
X94481284Y-101934180D01*
X94481284Y-101934180D02*
X94481284Y-102029419D01*
X94862236Y-101029419D02*
X95481283Y-101029419D01*
X95481283Y-101029419D02*
X95147950Y-101410371D01*
X95147950Y-101410371D02*
X95290807Y-101410371D01*
X95290807Y-101410371D02*
X95386045Y-101457990D01*
X95386045Y-101457990D02*
X95433664Y-101505609D01*
X95433664Y-101505609D02*
X95481283Y-101600847D01*
X95481283Y-101600847D02*
X95481283Y-101838942D01*
X95481283Y-101838942D02*
X95433664Y-101934180D01*
X95433664Y-101934180D02*
X95386045Y-101981800D01*
X95386045Y-101981800D02*
X95290807Y-102029419D01*
X95290807Y-102029419D02*
X95005093Y-102029419D01*
X95005093Y-102029419D02*
X94909855Y-101981800D01*
X94909855Y-101981800D02*
X94862236Y-101934180D01*
X96624141Y-101981800D02*
X96766998Y-102029419D01*
X96766998Y-102029419D02*
X97005093Y-102029419D01*
X97005093Y-102029419D02*
X97100331Y-101981800D01*
X97100331Y-101981800D02*
X97147950Y-101934180D01*
X97147950Y-101934180D02*
X97195569Y-101838942D01*
X97195569Y-101838942D02*
X97195569Y-101743704D01*
X97195569Y-101743704D02*
X97147950Y-101648466D01*
X97147950Y-101648466D02*
X97100331Y-101600847D01*
X97100331Y-101600847D02*
X97005093Y-101553228D01*
X97005093Y-101553228D02*
X96814617Y-101505609D01*
X96814617Y-101505609D02*
X96719379Y-101457990D01*
X96719379Y-101457990D02*
X96671760Y-101410371D01*
X96671760Y-101410371D02*
X96624141Y-101315133D01*
X96624141Y-101315133D02*
X96624141Y-101219895D01*
X96624141Y-101219895D02*
X96671760Y-101124657D01*
X96671760Y-101124657D02*
X96719379Y-101077038D01*
X96719379Y-101077038D02*
X96814617Y-101029419D01*
X96814617Y-101029419D02*
X97052712Y-101029419D01*
X97052712Y-101029419D02*
X97195569Y-101077038D01*
X97624141Y-102029419D02*
X97624141Y-101029419D01*
X97624141Y-101029419D02*
X97862236Y-101029419D01*
X97862236Y-101029419D02*
X98005093Y-101077038D01*
X98005093Y-101077038D02*
X98100331Y-101172276D01*
X98100331Y-101172276D02*
X98147950Y-101267514D01*
X98147950Y-101267514D02*
X98195569Y-101457990D01*
X98195569Y-101457990D02*
X98195569Y-101600847D01*
X98195569Y-101600847D02*
X98147950Y-101791323D01*
X98147950Y-101791323D02*
X98100331Y-101886561D01*
X98100331Y-101886561D02*
X98005093Y-101981800D01*
X98005093Y-101981800D02*
X97862236Y-102029419D01*
X97862236Y-102029419D02*
X97624141Y-102029419D01*
X98576522Y-101743704D02*
X99052712Y-101743704D01*
X98481284Y-102029419D02*
X98814617Y-101029419D01*
X98814617Y-101029419D02*
X99147950Y-102029419D01*
X100195570Y-101981800D02*
X100338427Y-102029419D01*
X100338427Y-102029419D02*
X100576522Y-102029419D01*
X100576522Y-102029419D02*
X100671760Y-101981800D01*
X100671760Y-101981800D02*
X100719379Y-101934180D01*
X100719379Y-101934180D02*
X100766998Y-101838942D01*
X100766998Y-101838942D02*
X100766998Y-101743704D01*
X100766998Y-101743704D02*
X100719379Y-101648466D01*
X100719379Y-101648466D02*
X100671760Y-101600847D01*
X100671760Y-101600847D02*
X100576522Y-101553228D01*
X100576522Y-101553228D02*
X100386046Y-101505609D01*
X100386046Y-101505609D02*
X100290808Y-101457990D01*
X100290808Y-101457990D02*
X100243189Y-101410371D01*
X100243189Y-101410371D02*
X100195570Y-101315133D01*
X100195570Y-101315133D02*
X100195570Y-101219895D01*
X100195570Y-101219895D02*
X100243189Y-101124657D01*
X100243189Y-101124657D02*
X100290808Y-101077038D01*
X100290808Y-101077038D02*
X100386046Y-101029419D01*
X100386046Y-101029419D02*
X100624141Y-101029419D01*
X100624141Y-101029419D02*
X100766998Y-101077038D01*
X101766998Y-101934180D02*
X101719379Y-101981800D01*
X101719379Y-101981800D02*
X101576522Y-102029419D01*
X101576522Y-102029419D02*
X101481284Y-102029419D01*
X101481284Y-102029419D02*
X101338427Y-101981800D01*
X101338427Y-101981800D02*
X101243189Y-101886561D01*
X101243189Y-101886561D02*
X101195570Y-101791323D01*
X101195570Y-101791323D02*
X101147951Y-101600847D01*
X101147951Y-101600847D02*
X101147951Y-101457990D01*
X101147951Y-101457990D02*
X101195570Y-101267514D01*
X101195570Y-101267514D02*
X101243189Y-101172276D01*
X101243189Y-101172276D02*
X101338427Y-101077038D01*
X101338427Y-101077038D02*
X101481284Y-101029419D01*
X101481284Y-101029419D02*
X101576522Y-101029419D01*
X101576522Y-101029419D02*
X101719379Y-101077038D01*
X101719379Y-101077038D02*
X101766998Y-101124657D01*
X102671760Y-102029419D02*
X102195570Y-102029419D01*
X102195570Y-102029419D02*
X102195570Y-101029419D01*
X76712914Y-116990019D02*
X76712914Y-115990019D01*
X76712914Y-115990019D02*
X77093866Y-115990019D01*
X77093866Y-115990019D02*
X77189104Y-116037638D01*
X77189104Y-116037638D02*
X77236723Y-116085257D01*
X77236723Y-116085257D02*
X77284342Y-116180495D01*
X77284342Y-116180495D02*
X77284342Y-116323352D01*
X77284342Y-116323352D02*
X77236723Y-116418590D01*
X77236723Y-116418590D02*
X77189104Y-116466209D01*
X77189104Y-116466209D02*
X77093866Y-116513828D01*
X77093866Y-116513828D02*
X76712914Y-116513828D01*
X77665295Y-116942400D02*
X77808152Y-116990019D01*
X77808152Y-116990019D02*
X78046247Y-116990019D01*
X78046247Y-116990019D02*
X78141485Y-116942400D01*
X78141485Y-116942400D02*
X78189104Y-116894780D01*
X78189104Y-116894780D02*
X78236723Y-116799542D01*
X78236723Y-116799542D02*
X78236723Y-116704304D01*
X78236723Y-116704304D02*
X78189104Y-116609066D01*
X78189104Y-116609066D02*
X78141485Y-116561447D01*
X78141485Y-116561447D02*
X78046247Y-116513828D01*
X78046247Y-116513828D02*
X77855771Y-116466209D01*
X77855771Y-116466209D02*
X77760533Y-116418590D01*
X77760533Y-116418590D02*
X77712914Y-116370971D01*
X77712914Y-116370971D02*
X77665295Y-116275733D01*
X77665295Y-116275733D02*
X77665295Y-116180495D01*
X77665295Y-116180495D02*
X77712914Y-116085257D01*
X77712914Y-116085257D02*
X77760533Y-116037638D01*
X77760533Y-116037638D02*
X77855771Y-115990019D01*
X77855771Y-115990019D02*
X78093866Y-115990019D01*
X78093866Y-115990019D02*
X78236723Y-116037638D01*
X79189104Y-116990019D02*
X78617676Y-116990019D01*
X78903390Y-116990019D02*
X78903390Y-115990019D01*
X78903390Y-115990019D02*
X78808152Y-116132876D01*
X78808152Y-116132876D02*
X78712914Y-116228114D01*
X78712914Y-116228114D02*
X78617676Y-116275733D01*
X69555200Y-86448732D02*
X69602819Y-86305875D01*
X69602819Y-86305875D02*
X69602819Y-86067780D01*
X69602819Y-86067780D02*
X69555200Y-85972542D01*
X69555200Y-85972542D02*
X69507580Y-85924923D01*
X69507580Y-85924923D02*
X69412342Y-85877304D01*
X69412342Y-85877304D02*
X69317104Y-85877304D01*
X69317104Y-85877304D02*
X69221866Y-85924923D01*
X69221866Y-85924923D02*
X69174247Y-85972542D01*
X69174247Y-85972542D02*
X69126628Y-86067780D01*
X69126628Y-86067780D02*
X69079009Y-86258256D01*
X69079009Y-86258256D02*
X69031390Y-86353494D01*
X69031390Y-86353494D02*
X68983771Y-86401113D01*
X68983771Y-86401113D02*
X68888533Y-86448732D01*
X68888533Y-86448732D02*
X68793295Y-86448732D01*
X68793295Y-86448732D02*
X68698057Y-86401113D01*
X68698057Y-86401113D02*
X68650438Y-86353494D01*
X68650438Y-86353494D02*
X68602819Y-86258256D01*
X68602819Y-86258256D02*
X68602819Y-86020161D01*
X68602819Y-86020161D02*
X68650438Y-85877304D01*
X68602819Y-85543970D02*
X69602819Y-85305875D01*
X69602819Y-85305875D02*
X68888533Y-85115399D01*
X68888533Y-85115399D02*
X69602819Y-84924923D01*
X69602819Y-84924923D02*
X68602819Y-84686828D01*
X68698057Y-84353494D02*
X68650438Y-84305875D01*
X68650438Y-84305875D02*
X68602819Y-84210637D01*
X68602819Y-84210637D02*
X68602819Y-83972542D01*
X68602819Y-83972542D02*
X68650438Y-83877304D01*
X68650438Y-83877304D02*
X68698057Y-83829685D01*
X68698057Y-83829685D02*
X68793295Y-83782066D01*
X68793295Y-83782066D02*
X68888533Y-83782066D01*
X68888533Y-83782066D02*
X69031390Y-83829685D01*
X69031390Y-83829685D02*
X69602819Y-84401113D01*
X69602819Y-84401113D02*
X69602819Y-83782066D01*
X83827209Y-141430333D02*
X83827209Y-141763666D01*
X84351019Y-141763666D02*
X83351019Y-141763666D01*
X83351019Y-141763666D02*
X83351019Y-141287476D01*
X83351019Y-141001761D02*
X83351019Y-140382714D01*
X83351019Y-140382714D02*
X83731971Y-140716047D01*
X83731971Y-140716047D02*
X83731971Y-140573190D01*
X83731971Y-140573190D02*
X83779590Y-140477952D01*
X83779590Y-140477952D02*
X83827209Y-140430333D01*
X83827209Y-140430333D02*
X83922447Y-140382714D01*
X83922447Y-140382714D02*
X84160542Y-140382714D01*
X84160542Y-140382714D02*
X84255780Y-140430333D01*
X84255780Y-140430333D02*
X84303400Y-140477952D01*
X84303400Y-140477952D02*
X84351019Y-140573190D01*
X84351019Y-140573190D02*
X84351019Y-140858904D01*
X84351019Y-140858904D02*
X84303400Y-140954142D01*
X84303400Y-140954142D02*
X84255780Y-141001761D01*
X76833505Y-85519419D02*
X76833505Y-84519419D01*
X76833505Y-84519419D02*
X77071600Y-84519419D01*
X77071600Y-84519419D02*
X77214457Y-84567038D01*
X77214457Y-84567038D02*
X77309695Y-84662276D01*
X77309695Y-84662276D02*
X77357314Y-84757514D01*
X77357314Y-84757514D02*
X77404933Y-84947990D01*
X77404933Y-84947990D02*
X77404933Y-85090847D01*
X77404933Y-85090847D02*
X77357314Y-85281323D01*
X77357314Y-85281323D02*
X77309695Y-85376561D01*
X77309695Y-85376561D02*
X77214457Y-85471800D01*
X77214457Y-85471800D02*
X77071600Y-85519419D01*
X77071600Y-85519419D02*
X76833505Y-85519419D01*
X78357314Y-85519419D02*
X77785886Y-85519419D01*
X78071600Y-85519419D02*
X78071600Y-84519419D01*
X78071600Y-84519419D02*
X77976362Y-84662276D01*
X77976362Y-84662276D02*
X77881124Y-84757514D01*
X77881124Y-84757514D02*
X77785886Y-84805133D01*
X52119304Y-110014609D02*
X51785971Y-110014609D01*
X51785971Y-110538419D02*
X51785971Y-109538419D01*
X51785971Y-109538419D02*
X52262161Y-109538419D01*
X53119304Y-110538419D02*
X52643114Y-110538419D01*
X52643114Y-110538419D02*
X52643114Y-109538419D01*
X53976447Y-110538419D02*
X53405019Y-110538419D01*
X53690733Y-110538419D02*
X53690733Y-109538419D01*
X53690733Y-109538419D02*
X53595495Y-109681276D01*
X53595495Y-109681276D02*
X53500257Y-109776514D01*
X53500257Y-109776514D02*
X53405019Y-109824133D01*
X87158533Y-85468619D02*
X86825200Y-84992428D01*
X86587105Y-85468619D02*
X86587105Y-84468619D01*
X86587105Y-84468619D02*
X86968057Y-84468619D01*
X86968057Y-84468619D02*
X87063295Y-84516238D01*
X87063295Y-84516238D02*
X87110914Y-84563857D01*
X87110914Y-84563857D02*
X87158533Y-84659095D01*
X87158533Y-84659095D02*
X87158533Y-84801952D01*
X87158533Y-84801952D02*
X87110914Y-84897190D01*
X87110914Y-84897190D02*
X87063295Y-84944809D01*
X87063295Y-84944809D02*
X86968057Y-84992428D01*
X86968057Y-84992428D02*
X86587105Y-84992428D01*
X87491867Y-84468619D02*
X88110914Y-84468619D01*
X88110914Y-84468619D02*
X87777581Y-84849571D01*
X87777581Y-84849571D02*
X87920438Y-84849571D01*
X87920438Y-84849571D02*
X88015676Y-84897190D01*
X88015676Y-84897190D02*
X88063295Y-84944809D01*
X88063295Y-84944809D02*
X88110914Y-85040047D01*
X88110914Y-85040047D02*
X88110914Y-85278142D01*
X88110914Y-85278142D02*
X88063295Y-85373380D01*
X88063295Y-85373380D02*
X88015676Y-85421000D01*
X88015676Y-85421000D02*
X87920438Y-85468619D01*
X87920438Y-85468619D02*
X87634724Y-85468619D01*
X87634724Y-85468619D02*
X87539486Y-85421000D01*
X87539486Y-85421000D02*
X87491867Y-85373380D01*
X98298784Y-169904580D02*
X98251165Y-169952200D01*
X98251165Y-169952200D02*
X98108308Y-169999819D01*
X98108308Y-169999819D02*
X98013070Y-169999819D01*
X98013070Y-169999819D02*
X97870213Y-169952200D01*
X97870213Y-169952200D02*
X97774975Y-169856961D01*
X97774975Y-169856961D02*
X97727356Y-169761723D01*
X97727356Y-169761723D02*
X97679737Y-169571247D01*
X97679737Y-169571247D02*
X97679737Y-169428390D01*
X97679737Y-169428390D02*
X97727356Y-169237914D01*
X97727356Y-169237914D02*
X97774975Y-169142676D01*
X97774975Y-169142676D02*
X97870213Y-169047438D01*
X97870213Y-169047438D02*
X98013070Y-168999819D01*
X98013070Y-168999819D02*
X98108308Y-168999819D01*
X98108308Y-168999819D02*
X98251165Y-169047438D01*
X98251165Y-169047438D02*
X98298784Y-169095057D01*
X98870213Y-169428390D02*
X98774975Y-169380771D01*
X98774975Y-169380771D02*
X98727356Y-169333152D01*
X98727356Y-169333152D02*
X98679737Y-169237914D01*
X98679737Y-169237914D02*
X98679737Y-169190295D01*
X98679737Y-169190295D02*
X98727356Y-169095057D01*
X98727356Y-169095057D02*
X98774975Y-169047438D01*
X98774975Y-169047438D02*
X98870213Y-168999819D01*
X98870213Y-168999819D02*
X99060689Y-168999819D01*
X99060689Y-168999819D02*
X99155927Y-169047438D01*
X99155927Y-169047438D02*
X99203546Y-169095057D01*
X99203546Y-169095057D02*
X99251165Y-169190295D01*
X99251165Y-169190295D02*
X99251165Y-169237914D01*
X99251165Y-169237914D02*
X99203546Y-169333152D01*
X99203546Y-169333152D02*
X99155927Y-169380771D01*
X99155927Y-169380771D02*
X99060689Y-169428390D01*
X99060689Y-169428390D02*
X98870213Y-169428390D01*
X98870213Y-169428390D02*
X98774975Y-169476009D01*
X98774975Y-169476009D02*
X98727356Y-169523628D01*
X98727356Y-169523628D02*
X98679737Y-169618866D01*
X98679737Y-169618866D02*
X98679737Y-169809342D01*
X98679737Y-169809342D02*
X98727356Y-169904580D01*
X98727356Y-169904580D02*
X98774975Y-169952200D01*
X98774975Y-169952200D02*
X98870213Y-169999819D01*
X98870213Y-169999819D02*
X99060689Y-169999819D01*
X99060689Y-169999819D02*
X99155927Y-169952200D01*
X99155927Y-169952200D02*
X99203546Y-169904580D01*
X99203546Y-169904580D02*
X99251165Y-169809342D01*
X99251165Y-169809342D02*
X99251165Y-169618866D01*
X99251165Y-169618866D02*
X99203546Y-169523628D01*
X99203546Y-169523628D02*
X99155927Y-169476009D01*
X99155927Y-169476009D02*
X99060689Y-169428390D01*
X76804005Y-87830819D02*
X76804005Y-86830819D01*
X76804005Y-86830819D02*
X77042100Y-86830819D01*
X77042100Y-86830819D02*
X77184957Y-86878438D01*
X77184957Y-86878438D02*
X77280195Y-86973676D01*
X77280195Y-86973676D02*
X77327814Y-87068914D01*
X77327814Y-87068914D02*
X77375433Y-87259390D01*
X77375433Y-87259390D02*
X77375433Y-87402247D01*
X77375433Y-87402247D02*
X77327814Y-87592723D01*
X77327814Y-87592723D02*
X77280195Y-87687961D01*
X77280195Y-87687961D02*
X77184957Y-87783200D01*
X77184957Y-87783200D02*
X77042100Y-87830819D01*
X77042100Y-87830819D02*
X76804005Y-87830819D01*
X77756386Y-86926057D02*
X77804005Y-86878438D01*
X77804005Y-86878438D02*
X77899243Y-86830819D01*
X77899243Y-86830819D02*
X78137338Y-86830819D01*
X78137338Y-86830819D02*
X78232576Y-86878438D01*
X78232576Y-86878438D02*
X78280195Y-86926057D01*
X78280195Y-86926057D02*
X78327814Y-87021295D01*
X78327814Y-87021295D02*
X78327814Y-87116533D01*
X78327814Y-87116533D02*
X78280195Y-87259390D01*
X78280195Y-87259390D02*
X77708767Y-87830819D01*
X77708767Y-87830819D02*
X78327814Y-87830819D01*
X87135533Y-83101019D02*
X86802200Y-82624828D01*
X86564105Y-83101019D02*
X86564105Y-82101019D01*
X86564105Y-82101019D02*
X86945057Y-82101019D01*
X86945057Y-82101019D02*
X87040295Y-82148638D01*
X87040295Y-82148638D02*
X87087914Y-82196257D01*
X87087914Y-82196257D02*
X87135533Y-82291495D01*
X87135533Y-82291495D02*
X87135533Y-82434352D01*
X87135533Y-82434352D02*
X87087914Y-82529590D01*
X87087914Y-82529590D02*
X87040295Y-82577209D01*
X87040295Y-82577209D02*
X86945057Y-82624828D01*
X86945057Y-82624828D02*
X86564105Y-82624828D01*
X87992676Y-82101019D02*
X87802200Y-82101019D01*
X87802200Y-82101019D02*
X87706962Y-82148638D01*
X87706962Y-82148638D02*
X87659343Y-82196257D01*
X87659343Y-82196257D02*
X87564105Y-82339114D01*
X87564105Y-82339114D02*
X87516486Y-82529590D01*
X87516486Y-82529590D02*
X87516486Y-82910542D01*
X87516486Y-82910542D02*
X87564105Y-83005780D01*
X87564105Y-83005780D02*
X87611724Y-83053400D01*
X87611724Y-83053400D02*
X87706962Y-83101019D01*
X87706962Y-83101019D02*
X87897438Y-83101019D01*
X87897438Y-83101019D02*
X87992676Y-83053400D01*
X87992676Y-83053400D02*
X88040295Y-83005780D01*
X88040295Y-83005780D02*
X88087914Y-82910542D01*
X88087914Y-82910542D02*
X88087914Y-82672447D01*
X88087914Y-82672447D02*
X88040295Y-82577209D01*
X88040295Y-82577209D02*
X87992676Y-82529590D01*
X87992676Y-82529590D02*
X87897438Y-82481971D01*
X87897438Y-82481971D02*
X87706962Y-82481971D01*
X87706962Y-82481971D02*
X87611724Y-82529590D01*
X87611724Y-82529590D02*
X87564105Y-82577209D01*
X87564105Y-82577209D02*
X87516486Y-82672447D01*
X39097219Y-90418904D02*
X39906742Y-90418904D01*
X39906742Y-90418904D02*
X40001980Y-90371285D01*
X40001980Y-90371285D02*
X40049600Y-90323666D01*
X40049600Y-90323666D02*
X40097219Y-90228428D01*
X40097219Y-90228428D02*
X40097219Y-90037952D01*
X40097219Y-90037952D02*
X40049600Y-89942714D01*
X40049600Y-89942714D02*
X40001980Y-89895095D01*
X40001980Y-89895095D02*
X39906742Y-89847476D01*
X39906742Y-89847476D02*
X39097219Y-89847476D01*
X40097219Y-88847476D02*
X40097219Y-89418904D01*
X40097219Y-89133190D02*
X39097219Y-89133190D01*
X39097219Y-89133190D02*
X39240076Y-89228428D01*
X39240076Y-89228428D02*
X39335314Y-89323666D01*
X39335314Y-89323666D02*
X39382933Y-89418904D01*
X44111504Y-94418905D02*
X44111504Y-93942715D01*
X44397219Y-94514143D02*
X43397219Y-94180810D01*
X43397219Y-94180810D02*
X44397219Y-93847477D01*
X43730552Y-93514143D02*
X44397219Y-93514143D01*
X43825790Y-93514143D02*
X43778171Y-93466524D01*
X43778171Y-93466524D02*
X43730552Y-93371286D01*
X43730552Y-93371286D02*
X43730552Y-93228429D01*
X43730552Y-93228429D02*
X43778171Y-93133191D01*
X43778171Y-93133191D02*
X43873409Y-93085572D01*
X43873409Y-93085572D02*
X44397219Y-93085572D01*
X43730552Y-92752238D02*
X43730552Y-92371286D01*
X43397219Y-92609381D02*
X44254361Y-92609381D01*
X44254361Y-92609381D02*
X44349600Y-92561762D01*
X44349600Y-92561762D02*
X44397219Y-92466524D01*
X44397219Y-92466524D02*
X44397219Y-92371286D01*
X44349600Y-91657000D02*
X44397219Y-91752238D01*
X44397219Y-91752238D02*
X44397219Y-91942714D01*
X44397219Y-91942714D02*
X44349600Y-92037952D01*
X44349600Y-92037952D02*
X44254361Y-92085571D01*
X44254361Y-92085571D02*
X43873409Y-92085571D01*
X43873409Y-92085571D02*
X43778171Y-92037952D01*
X43778171Y-92037952D02*
X43730552Y-91942714D01*
X43730552Y-91942714D02*
X43730552Y-91752238D01*
X43730552Y-91752238D02*
X43778171Y-91657000D01*
X43778171Y-91657000D02*
X43873409Y-91609381D01*
X43873409Y-91609381D02*
X43968647Y-91609381D01*
X43968647Y-91609381D02*
X44063885Y-92085571D01*
X43730552Y-91180809D02*
X44397219Y-91180809D01*
X43825790Y-91180809D02*
X43778171Y-91133190D01*
X43778171Y-91133190D02*
X43730552Y-91037952D01*
X43730552Y-91037952D02*
X43730552Y-90895095D01*
X43730552Y-90895095D02*
X43778171Y-90799857D01*
X43778171Y-90799857D02*
X43873409Y-90752238D01*
X43873409Y-90752238D02*
X44397219Y-90752238D01*
X43730552Y-90276047D02*
X44397219Y-90276047D01*
X43825790Y-90276047D02*
X43778171Y-90228428D01*
X43778171Y-90228428D02*
X43730552Y-90133190D01*
X43730552Y-90133190D02*
X43730552Y-89990333D01*
X43730552Y-89990333D02*
X43778171Y-89895095D01*
X43778171Y-89895095D02*
X43873409Y-89847476D01*
X43873409Y-89847476D02*
X44397219Y-89847476D01*
X44397219Y-88942714D02*
X43873409Y-88942714D01*
X43873409Y-88942714D02*
X43778171Y-88990333D01*
X43778171Y-88990333D02*
X43730552Y-89085571D01*
X43730552Y-89085571D02*
X43730552Y-89276047D01*
X43730552Y-89276047D02*
X43778171Y-89371285D01*
X44349600Y-88942714D02*
X44397219Y-89037952D01*
X44397219Y-89037952D02*
X44397219Y-89276047D01*
X44397219Y-89276047D02*
X44349600Y-89371285D01*
X44349600Y-89371285D02*
X44254361Y-89418904D01*
X44254361Y-89418904D02*
X44159123Y-89418904D01*
X44159123Y-89418904D02*
X44063885Y-89371285D01*
X44063885Y-89371285D02*
X44016266Y-89276047D01*
X44016266Y-89276047D02*
X44016266Y-89037952D01*
X44016266Y-89037952D02*
X43968647Y-88942714D01*
X44111504Y-87752237D02*
X44111504Y-87276047D01*
X44397219Y-87847475D02*
X43397219Y-87514142D01*
X43397219Y-87514142D02*
X44397219Y-87180809D01*
X44397219Y-86847475D02*
X43730552Y-86847475D01*
X43921028Y-86847475D02*
X43825790Y-86799856D01*
X43825790Y-86799856D02*
X43778171Y-86752237D01*
X43778171Y-86752237D02*
X43730552Y-86656999D01*
X43730552Y-86656999D02*
X43730552Y-86561761D01*
X44349600Y-85847475D02*
X44397219Y-85942713D01*
X44397219Y-85942713D02*
X44397219Y-86133189D01*
X44397219Y-86133189D02*
X44349600Y-86228427D01*
X44349600Y-86228427D02*
X44254361Y-86276046D01*
X44254361Y-86276046D02*
X43873409Y-86276046D01*
X43873409Y-86276046D02*
X43778171Y-86228427D01*
X43778171Y-86228427D02*
X43730552Y-86133189D01*
X43730552Y-86133189D02*
X43730552Y-85942713D01*
X43730552Y-85942713D02*
X43778171Y-85847475D01*
X43778171Y-85847475D02*
X43873409Y-85799856D01*
X43873409Y-85799856D02*
X43968647Y-85799856D01*
X43968647Y-85799856D02*
X44063885Y-86276046D01*
X44397219Y-84942713D02*
X43873409Y-84942713D01*
X43873409Y-84942713D02*
X43778171Y-84990332D01*
X43778171Y-84990332D02*
X43730552Y-85085570D01*
X43730552Y-85085570D02*
X43730552Y-85276046D01*
X43730552Y-85276046D02*
X43778171Y-85371284D01*
X44349600Y-84942713D02*
X44397219Y-85037951D01*
X44397219Y-85037951D02*
X44397219Y-85276046D01*
X44397219Y-85276046D02*
X44349600Y-85371284D01*
X44349600Y-85371284D02*
X44254361Y-85418903D01*
X44254361Y-85418903D02*
X44159123Y-85418903D01*
X44159123Y-85418903D02*
X44063885Y-85371284D01*
X44063885Y-85371284D02*
X44016266Y-85276046D01*
X44016266Y-85276046D02*
X44016266Y-85037951D01*
X44016266Y-85037951D02*
X43968647Y-84942713D01*
X79803666Y-160440019D02*
X79803666Y-161154304D01*
X79803666Y-161154304D02*
X79756047Y-161297161D01*
X79756047Y-161297161D02*
X79660809Y-161392400D01*
X79660809Y-161392400D02*
X79517952Y-161440019D01*
X79517952Y-161440019D02*
X79422714Y-161440019D01*
X80184619Y-160440019D02*
X80803666Y-160440019D01*
X80803666Y-160440019D02*
X80470333Y-160820971D01*
X80470333Y-160820971D02*
X80613190Y-160820971D01*
X80613190Y-160820971D02*
X80708428Y-160868590D01*
X80708428Y-160868590D02*
X80756047Y-160916209D01*
X80756047Y-160916209D02*
X80803666Y-161011447D01*
X80803666Y-161011447D02*
X80803666Y-161249542D01*
X80803666Y-161249542D02*
X80756047Y-161344780D01*
X80756047Y-161344780D02*
X80708428Y-161392400D01*
X80708428Y-161392400D02*
X80613190Y-161440019D01*
X80613190Y-161440019D02*
X80327476Y-161440019D01*
X80327476Y-161440019D02*
X80232238Y-161392400D01*
X80232238Y-161392400D02*
X80184619Y-161344780D01*
X68475266Y-160795619D02*
X68475266Y-161509904D01*
X68475266Y-161509904D02*
X68427647Y-161652761D01*
X68427647Y-161652761D02*
X68332409Y-161748000D01*
X68332409Y-161748000D02*
X68189552Y-161795619D01*
X68189552Y-161795619D02*
X68094314Y-161795619D01*
X68903838Y-160890857D02*
X68951457Y-160843238D01*
X68951457Y-160843238D02*
X69046695Y-160795619D01*
X69046695Y-160795619D02*
X69284790Y-160795619D01*
X69284790Y-160795619D02*
X69380028Y-160843238D01*
X69380028Y-160843238D02*
X69427647Y-160890857D01*
X69427647Y-160890857D02*
X69475266Y-160986095D01*
X69475266Y-160986095D02*
X69475266Y-161081333D01*
X69475266Y-161081333D02*
X69427647Y-161224190D01*
X69427647Y-161224190D02*
X68856219Y-161795619D01*
X68856219Y-161795619D02*
X69475266Y-161795619D01*
X45422409Y-129695533D02*
X45422409Y-130028866D01*
X45946219Y-130028866D02*
X44946219Y-130028866D01*
X44946219Y-130028866D02*
X44946219Y-129552676D01*
X45946219Y-128647914D02*
X45946219Y-129219342D01*
X45946219Y-128933628D02*
X44946219Y-128933628D01*
X44946219Y-128933628D02*
X45089076Y-129028866D01*
X45089076Y-129028866D02*
X45184314Y-129124104D01*
X45184314Y-129124104D02*
X45231933Y-129219342D01*
X69555200Y-95135532D02*
X69602819Y-94992675D01*
X69602819Y-94992675D02*
X69602819Y-94754580D01*
X69602819Y-94754580D02*
X69555200Y-94659342D01*
X69555200Y-94659342D02*
X69507580Y-94611723D01*
X69507580Y-94611723D02*
X69412342Y-94564104D01*
X69412342Y-94564104D02*
X69317104Y-94564104D01*
X69317104Y-94564104D02*
X69221866Y-94611723D01*
X69221866Y-94611723D02*
X69174247Y-94659342D01*
X69174247Y-94659342D02*
X69126628Y-94754580D01*
X69126628Y-94754580D02*
X69079009Y-94945056D01*
X69079009Y-94945056D02*
X69031390Y-95040294D01*
X69031390Y-95040294D02*
X68983771Y-95087913D01*
X68983771Y-95087913D02*
X68888533Y-95135532D01*
X68888533Y-95135532D02*
X68793295Y-95135532D01*
X68793295Y-95135532D02*
X68698057Y-95087913D01*
X68698057Y-95087913D02*
X68650438Y-95040294D01*
X68650438Y-95040294D02*
X68602819Y-94945056D01*
X68602819Y-94945056D02*
X68602819Y-94706961D01*
X68602819Y-94706961D02*
X68650438Y-94564104D01*
X68602819Y-94230770D02*
X69602819Y-93992675D01*
X69602819Y-93992675D02*
X68888533Y-93802199D01*
X68888533Y-93802199D02*
X69602819Y-93611723D01*
X69602819Y-93611723D02*
X68602819Y-93373628D01*
X69602819Y-92468866D02*
X69602819Y-93040294D01*
X69602819Y-92754580D02*
X68602819Y-92754580D01*
X68602819Y-92754580D02*
X68745676Y-92849818D01*
X68745676Y-92849818D02*
X68840914Y-92945056D01*
X68840914Y-92945056D02*
X68888533Y-93040294D01*
X63710409Y-141887533D02*
X63710409Y-142220866D01*
X64234219Y-142220866D02*
X63234219Y-142220866D01*
X63234219Y-142220866D02*
X63234219Y-141744676D01*
X63329457Y-141411342D02*
X63281838Y-141363723D01*
X63281838Y-141363723D02*
X63234219Y-141268485D01*
X63234219Y-141268485D02*
X63234219Y-141030390D01*
X63234219Y-141030390D02*
X63281838Y-140935152D01*
X63281838Y-140935152D02*
X63329457Y-140887533D01*
X63329457Y-140887533D02*
X63424695Y-140839914D01*
X63424695Y-140839914D02*
X63519933Y-140839914D01*
X63519933Y-140839914D02*
X63662790Y-140887533D01*
X63662790Y-140887533D02*
X64234219Y-141458961D01*
X64234219Y-141458961D02*
X64234219Y-140839914D01*
X75537878Y-142598146D02*
X74536453Y-142598146D01*
X75537878Y-142025903D02*
X74965636Y-142455085D01*
X74536453Y-142025903D02*
X75108696Y-142598146D01*
X74631827Y-141644408D02*
X74584140Y-141596721D01*
X74584140Y-141596721D02*
X74536453Y-141501347D01*
X74536453Y-141501347D02*
X74536453Y-141262913D01*
X74536453Y-141262913D02*
X74584140Y-141167539D01*
X74584140Y-141167539D02*
X74631827Y-141119852D01*
X74631827Y-141119852D02*
X74727201Y-141072165D01*
X74727201Y-141072165D02*
X74822575Y-141072165D01*
X74822575Y-141072165D02*
X74965636Y-141119852D01*
X74965636Y-141119852D02*
X75537878Y-141692095D01*
X75537878Y-141692095D02*
X75537878Y-141072165D01*
X91538466Y-160440019D02*
X91538466Y-161154304D01*
X91538466Y-161154304D02*
X91490847Y-161297161D01*
X91490847Y-161297161D02*
X91395609Y-161392400D01*
X91395609Y-161392400D02*
X91252752Y-161440019D01*
X91252752Y-161440019D02*
X91157514Y-161440019D01*
X92443228Y-160773352D02*
X92443228Y-161440019D01*
X92205133Y-160392400D02*
X91967038Y-161106685D01*
X91967038Y-161106685D02*
X92586085Y-161106685D01*
X51020790Y-161948019D02*
X50687457Y-161471828D01*
X50449362Y-161948019D02*
X50449362Y-160948019D01*
X50449362Y-160948019D02*
X50830314Y-160948019D01*
X50830314Y-160948019D02*
X50925552Y-160995638D01*
X50925552Y-160995638D02*
X50973171Y-161043257D01*
X50973171Y-161043257D02*
X51020790Y-161138495D01*
X51020790Y-161138495D02*
X51020790Y-161281352D01*
X51020790Y-161281352D02*
X50973171Y-161376590D01*
X50973171Y-161376590D02*
X50925552Y-161424209D01*
X50925552Y-161424209D02*
X50830314Y-161471828D01*
X50830314Y-161471828D02*
X50449362Y-161471828D01*
X51306505Y-160948019D02*
X51639838Y-161948019D01*
X51639838Y-161948019D02*
X51973171Y-160948019D01*
X52687457Y-161900400D02*
X52592219Y-161948019D01*
X52592219Y-161948019D02*
X52401743Y-161948019D01*
X52401743Y-161948019D02*
X52306505Y-161900400D01*
X52306505Y-161900400D02*
X52258886Y-161805161D01*
X52258886Y-161805161D02*
X52258886Y-161424209D01*
X52258886Y-161424209D02*
X52306505Y-161328971D01*
X52306505Y-161328971D02*
X52401743Y-161281352D01*
X52401743Y-161281352D02*
X52592219Y-161281352D01*
X52592219Y-161281352D02*
X52687457Y-161328971D01*
X52687457Y-161328971D02*
X52735076Y-161424209D01*
X52735076Y-161424209D02*
X52735076Y-161519447D01*
X52735076Y-161519447D02*
X52258886Y-161614685D01*
X53687457Y-161948019D02*
X53116029Y-161948019D01*
X53401743Y-161948019D02*
X53401743Y-160948019D01*
X53401743Y-160948019D02*
X53306505Y-161090876D01*
X53306505Y-161090876D02*
X53211267Y-161186114D01*
X53211267Y-161186114D02*
X53116029Y-161233733D01*
X58189678Y-143182346D02*
X57188253Y-143182346D01*
X58189678Y-142610103D02*
X57617436Y-143039285D01*
X57188253Y-142610103D02*
X57760496Y-143182346D01*
X58189678Y-141656365D02*
X58189678Y-142228608D01*
X58189678Y-141942486D02*
X57188253Y-141942486D01*
X57188253Y-141942486D02*
X57331314Y-142037860D01*
X57331314Y-142037860D02*
X57426688Y-142133234D01*
X57426688Y-142133234D02*
X57474375Y-142228608D01*
X98457609Y-142700333D02*
X98457609Y-143033666D01*
X98981419Y-143033666D02*
X97981419Y-143033666D01*
X97981419Y-143033666D02*
X97981419Y-142557476D01*
X98314752Y-141747952D02*
X98981419Y-141747952D01*
X97933800Y-141986047D02*
X98648085Y-142224142D01*
X98648085Y-142224142D02*
X98648085Y-141605095D01*
X55814933Y-167593180D02*
X55767314Y-167640800D01*
X55767314Y-167640800D02*
X55624457Y-167688419D01*
X55624457Y-167688419D02*
X55529219Y-167688419D01*
X55529219Y-167688419D02*
X55386362Y-167640800D01*
X55386362Y-167640800D02*
X55291124Y-167545561D01*
X55291124Y-167545561D02*
X55243505Y-167450323D01*
X55243505Y-167450323D02*
X55195886Y-167259847D01*
X55195886Y-167259847D02*
X55195886Y-167116990D01*
X55195886Y-167116990D02*
X55243505Y-166926514D01*
X55243505Y-166926514D02*
X55291124Y-166831276D01*
X55291124Y-166831276D02*
X55386362Y-166736038D01*
X55386362Y-166736038D02*
X55529219Y-166688419D01*
X55529219Y-166688419D02*
X55624457Y-166688419D01*
X55624457Y-166688419D02*
X55767314Y-166736038D01*
X55767314Y-166736038D02*
X55814933Y-166783657D01*
X56148267Y-166688419D02*
X56814933Y-166688419D01*
X56814933Y-166688419D02*
X56386362Y-167688419D01*
X51307619Y-152733333D02*
X52021904Y-152733333D01*
X52021904Y-152733333D02*
X52164761Y-152780952D01*
X52164761Y-152780952D02*
X52260000Y-152876190D01*
X52260000Y-152876190D02*
X52307619Y-153019047D01*
X52307619Y-153019047D02*
X52307619Y-153114285D01*
X52307619Y-151733333D02*
X52307619Y-152304761D01*
X52307619Y-152019047D02*
X51307619Y-152019047D01*
X51307619Y-152019047D02*
X51450476Y-152114285D01*
X51450476Y-152114285D02*
X51545714Y-152209523D01*
X51545714Y-152209523D02*
X51593333Y-152304761D01*
X93042028Y-94781019D02*
X93042028Y-95495304D01*
X93042028Y-95495304D02*
X92994409Y-95638161D01*
X92994409Y-95638161D02*
X92899171Y-95733400D01*
X92899171Y-95733400D02*
X92756314Y-95781019D01*
X92756314Y-95781019D02*
X92661076Y-95781019D01*
X93280124Y-95876257D02*
X94042028Y-95876257D01*
X94280124Y-95781019D02*
X94280124Y-94781019D01*
X94708695Y-94876257D02*
X94756314Y-94828638D01*
X94756314Y-94828638D02*
X94851552Y-94781019D01*
X94851552Y-94781019D02*
X95089647Y-94781019D01*
X95089647Y-94781019D02*
X95184885Y-94828638D01*
X95184885Y-94828638D02*
X95232504Y-94876257D01*
X95232504Y-94876257D02*
X95280123Y-94971495D01*
X95280123Y-94971495D02*
X95280123Y-95066733D01*
X95280123Y-95066733D02*
X95232504Y-95209590D01*
X95232504Y-95209590D02*
X94661076Y-95781019D01*
X94661076Y-95781019D02*
X95280123Y-95781019D01*
X96280123Y-95685780D02*
X96232504Y-95733400D01*
X96232504Y-95733400D02*
X96089647Y-95781019D01*
X96089647Y-95781019D02*
X95994409Y-95781019D01*
X95994409Y-95781019D02*
X95851552Y-95733400D01*
X95851552Y-95733400D02*
X95756314Y-95638161D01*
X95756314Y-95638161D02*
X95708695Y-95542923D01*
X95708695Y-95542923D02*
X95661076Y-95352447D01*
X95661076Y-95352447D02*
X95661076Y-95209590D01*
X95661076Y-95209590D02*
X95708695Y-95019114D01*
X95708695Y-95019114D02*
X95756314Y-94923876D01*
X95756314Y-94923876D02*
X95851552Y-94828638D01*
X95851552Y-94828638D02*
X95994409Y-94781019D01*
X95994409Y-94781019D02*
X96089647Y-94781019D01*
X96089647Y-94781019D02*
X96232504Y-94828638D01*
X96232504Y-94828638D02*
X96280123Y-94876257D01*
X97232504Y-95781019D02*
X96661076Y-95781019D01*
X96946790Y-95781019D02*
X96946790Y-94781019D01*
X96946790Y-94781019D02*
X96851552Y-94923876D01*
X96851552Y-94923876D02*
X96756314Y-95019114D01*
X96756314Y-95019114D02*
X96661076Y-95066733D01*
X76785105Y-83050219D02*
X76785105Y-82050219D01*
X76785105Y-82050219D02*
X77023200Y-82050219D01*
X77023200Y-82050219D02*
X77166057Y-82097838D01*
X77166057Y-82097838D02*
X77261295Y-82193076D01*
X77261295Y-82193076D02*
X77308914Y-82288314D01*
X77308914Y-82288314D02*
X77356533Y-82478790D01*
X77356533Y-82478790D02*
X77356533Y-82621647D01*
X77356533Y-82621647D02*
X77308914Y-82812123D01*
X77308914Y-82812123D02*
X77261295Y-82907361D01*
X77261295Y-82907361D02*
X77166057Y-83002600D01*
X77166057Y-83002600D02*
X77023200Y-83050219D01*
X77023200Y-83050219D02*
X76785105Y-83050219D01*
X78213676Y-82383552D02*
X78213676Y-83050219D01*
X77975581Y-82002600D02*
X77737486Y-82716885D01*
X77737486Y-82716885D02*
X78356533Y-82716885D01*
X76717105Y-90218419D02*
X76717105Y-89218419D01*
X76717105Y-89218419D02*
X76955200Y-89218419D01*
X76955200Y-89218419D02*
X77098057Y-89266038D01*
X77098057Y-89266038D02*
X77193295Y-89361276D01*
X77193295Y-89361276D02*
X77240914Y-89456514D01*
X77240914Y-89456514D02*
X77288533Y-89646990D01*
X77288533Y-89646990D02*
X77288533Y-89789847D01*
X77288533Y-89789847D02*
X77240914Y-89980323D01*
X77240914Y-89980323D02*
X77193295Y-90075561D01*
X77193295Y-90075561D02*
X77098057Y-90170800D01*
X77098057Y-90170800D02*
X76955200Y-90218419D01*
X76955200Y-90218419D02*
X76717105Y-90218419D01*
X77621867Y-89218419D02*
X78240914Y-89218419D01*
X78240914Y-89218419D02*
X77907581Y-89599371D01*
X77907581Y-89599371D02*
X78050438Y-89599371D01*
X78050438Y-89599371D02*
X78145676Y-89646990D01*
X78145676Y-89646990D02*
X78193295Y-89694609D01*
X78193295Y-89694609D02*
X78240914Y-89789847D01*
X78240914Y-89789847D02*
X78240914Y-90027942D01*
X78240914Y-90027942D02*
X78193295Y-90123180D01*
X78193295Y-90123180D02*
X78145676Y-90170800D01*
X78145676Y-90170800D02*
X78050438Y-90218419D01*
X78050438Y-90218419D02*
X77764724Y-90218419D01*
X77764724Y-90218419D02*
X77669486Y-90170800D01*
X77669486Y-90170800D02*
X77621867Y-90123180D01*
X79341980Y-94755619D02*
X79341980Y-95469904D01*
X79341980Y-95469904D02*
X79294361Y-95612761D01*
X79294361Y-95612761D02*
X79199123Y-95708000D01*
X79199123Y-95708000D02*
X79056266Y-95755619D01*
X79056266Y-95755619D02*
X78961028Y-95755619D01*
X79580076Y-95850857D02*
X80341980Y-95850857D01*
X80580076Y-94755619D02*
X80580076Y-95565142D01*
X80580076Y-95565142D02*
X80627695Y-95660380D01*
X80627695Y-95660380D02*
X80675314Y-95708000D01*
X80675314Y-95708000D02*
X80770552Y-95755619D01*
X80770552Y-95755619D02*
X80961028Y-95755619D01*
X80961028Y-95755619D02*
X81056266Y-95708000D01*
X81056266Y-95708000D02*
X81103885Y-95660380D01*
X81103885Y-95660380D02*
X81151504Y-95565142D01*
X81151504Y-95565142D02*
X81151504Y-94755619D01*
X81580076Y-95469904D02*
X82056266Y-95469904D01*
X81484838Y-95755619D02*
X81818171Y-94755619D01*
X81818171Y-94755619D02*
X82151504Y-95755619D01*
X83056266Y-95755619D02*
X82722933Y-95279428D01*
X82484838Y-95755619D02*
X82484838Y-94755619D01*
X82484838Y-94755619D02*
X82865790Y-94755619D01*
X82865790Y-94755619D02*
X82961028Y-94803238D01*
X82961028Y-94803238D02*
X83008647Y-94850857D01*
X83008647Y-94850857D02*
X83056266Y-94946095D01*
X83056266Y-94946095D02*
X83056266Y-95088952D01*
X83056266Y-95088952D02*
X83008647Y-95184190D01*
X83008647Y-95184190D02*
X82961028Y-95231809D01*
X82961028Y-95231809D02*
X82865790Y-95279428D01*
X82865790Y-95279428D02*
X82484838Y-95279428D01*
X83341981Y-94755619D02*
X83913409Y-94755619D01*
X83627695Y-95755619D02*
X83627695Y-94755619D01*
X84770552Y-95755619D02*
X84199124Y-95755619D01*
X84484838Y-95755619D02*
X84484838Y-94755619D01*
X84484838Y-94755619D02*
X84389600Y-94898476D01*
X84389600Y-94898476D02*
X84294362Y-94993714D01*
X84294362Y-94993714D02*
X84199124Y-95041333D01*
X87143733Y-90142219D02*
X86810400Y-89666028D01*
X86572305Y-90142219D02*
X86572305Y-89142219D01*
X86572305Y-89142219D02*
X86953257Y-89142219D01*
X86953257Y-89142219D02*
X87048495Y-89189838D01*
X87048495Y-89189838D02*
X87096114Y-89237457D01*
X87096114Y-89237457D02*
X87143733Y-89332695D01*
X87143733Y-89332695D02*
X87143733Y-89475552D01*
X87143733Y-89475552D02*
X87096114Y-89570790D01*
X87096114Y-89570790D02*
X87048495Y-89618409D01*
X87048495Y-89618409D02*
X86953257Y-89666028D01*
X86953257Y-89666028D02*
X86572305Y-89666028D01*
X88048495Y-89142219D02*
X87572305Y-89142219D01*
X87572305Y-89142219D02*
X87524686Y-89618409D01*
X87524686Y-89618409D02*
X87572305Y-89570790D01*
X87572305Y-89570790D02*
X87667543Y-89523171D01*
X87667543Y-89523171D02*
X87905638Y-89523171D01*
X87905638Y-89523171D02*
X88000876Y-89570790D01*
X88000876Y-89570790D02*
X88048495Y-89618409D01*
X88048495Y-89618409D02*
X88096114Y-89713647D01*
X88096114Y-89713647D02*
X88096114Y-89951742D01*
X88096114Y-89951742D02*
X88048495Y-90046980D01*
X88048495Y-90046980D02*
X88000876Y-90094600D01*
X88000876Y-90094600D02*
X87905638Y-90142219D01*
X87905638Y-90142219D02*
X87667543Y-90142219D01*
X87667543Y-90142219D02*
X87572305Y-90094600D01*
X87572305Y-90094600D02*
X87524686Y-90046980D01*
X87103633Y-87805419D02*
X86770300Y-87329228D01*
X86532205Y-87805419D02*
X86532205Y-86805419D01*
X86532205Y-86805419D02*
X86913157Y-86805419D01*
X86913157Y-86805419D02*
X87008395Y-86853038D01*
X87008395Y-86853038D02*
X87056014Y-86900657D01*
X87056014Y-86900657D02*
X87103633Y-86995895D01*
X87103633Y-86995895D02*
X87103633Y-87138752D01*
X87103633Y-87138752D02*
X87056014Y-87233990D01*
X87056014Y-87233990D02*
X87008395Y-87281609D01*
X87008395Y-87281609D02*
X86913157Y-87329228D01*
X86913157Y-87329228D02*
X86532205Y-87329228D01*
X87960776Y-87138752D02*
X87960776Y-87805419D01*
X87722681Y-86757800D02*
X87484586Y-87472085D01*
X87484586Y-87472085D02*
X88103633Y-87472085D01*
X92174878Y-143614146D02*
X91173453Y-143614146D01*
X92174878Y-143041903D02*
X91602636Y-143471085D01*
X91173453Y-143041903D02*
X91745696Y-143614146D01*
X91173453Y-142708095D02*
X91173453Y-142088165D01*
X91173453Y-142088165D02*
X91554949Y-142421973D01*
X91554949Y-142421973D02*
X91554949Y-142278913D01*
X91554949Y-142278913D02*
X91602636Y-142183539D01*
X91602636Y-142183539D02*
X91650322Y-142135852D01*
X91650322Y-142135852D02*
X91745696Y-142088165D01*
X91745696Y-142088165D02*
X91984131Y-142088165D01*
X91984131Y-142088165D02*
X92079505Y-142135852D01*
X92079505Y-142135852D02*
X92127192Y-142183539D01*
X92127192Y-142183539D02*
X92174878Y-142278913D01*
X92174878Y-142278913D02*
X92174878Y-142565034D01*
X92174878Y-142565034D02*
X92127192Y-142660408D01*
X92127192Y-142660408D02*
X92079505Y-142708095D01*
D11*
%TO.C,PS1*%
X59912900Y-103299100D02*
X62912900Y-103299100D01*
X59912900Y-106299100D02*
X59912900Y-103299100D01*
X60152900Y-103539100D02*
X60152900Y-129159100D01*
X60152900Y-103539100D02*
X101272900Y-103539100D01*
X60152900Y-129159100D02*
X101272900Y-129159100D01*
X101272900Y-103539100D02*
X101272900Y-129159100D01*
%TO.C,SW2*%
X70148000Y-86365400D02*
X70148000Y-83865400D01*
X70598000Y-83415400D02*
X70148000Y-83865400D01*
X70598000Y-86815400D02*
X70148000Y-86365400D01*
X71898000Y-82365400D02*
X73898000Y-82365400D01*
X71898000Y-87865400D02*
X73898000Y-87865400D01*
X75198000Y-83415400D02*
X75648000Y-83865400D01*
X75198000Y-86815400D02*
X75648000Y-86365400D01*
X75648000Y-86365400D02*
X75648000Y-83865400D01*
%TO.C,F3*%
X78630600Y-156497800D02*
X78630600Y-133777800D01*
X81790600Y-133777800D02*
X78630600Y-133777800D01*
X81790600Y-156497800D02*
X78630600Y-156497800D01*
X88450600Y-133777800D02*
X85290600Y-133777800D01*
X88450600Y-156497800D02*
X85290600Y-156497800D01*
X88450600Y-156497800D02*
X88450600Y-133777800D01*
%TO.C,D1*%
X78637000Y-84290000D02*
X78637000Y-85890000D01*
X78637000Y-85890000D02*
X81637000Y-85890000D01*
X81637000Y-84290000D02*
X78637000Y-84290000D01*
X81637000Y-85890000D02*
X81637000Y-84290000D01*
D12*
X79737000Y-84290000D02*
X79337000Y-84290000D01*
X79337000Y-84090000D01*
X79737000Y-84090000D01*
X79737000Y-84290000D01*
G36*
X79737000Y-84290000D02*
G01*
X79337000Y-84290000D01*
X79337000Y-84090000D01*
X79737000Y-84090000D01*
X79737000Y-84290000D01*
G37*
X79737000Y-86090000D02*
X79337000Y-86090000D01*
X79337000Y-85890000D01*
X79737000Y-85890000D01*
X79737000Y-86090000D01*
G36*
X79737000Y-86090000D02*
G01*
X79337000Y-86090000D01*
X79337000Y-85890000D01*
X79737000Y-85890000D01*
X79737000Y-86090000D01*
G37*
D10*
%TO.C,FL1*%
X40647000Y-103594050D02*
X40647000Y-118129050D01*
X40647000Y-103594050D02*
X57874000Y-103594050D01*
X40647000Y-118249550D02*
X57899000Y-118249550D01*
X47561500Y-115335050D02*
X44577000Y-115335050D01*
X47625000Y-106191050D02*
X44577000Y-106191050D01*
X49149000Y-115335050D02*
X49149000Y-106445050D01*
X49657000Y-106445050D02*
X49657000Y-115335050D01*
X51181000Y-106191050D02*
X53975000Y-106191050D01*
X51244500Y-115335050D02*
X53975000Y-115335050D01*
X57905000Y-103594050D02*
X57905000Y-118262050D01*
X47625000Y-106191050D02*
G75*
G02*
X47625000Y-107715050I0J-762000D01*
G01*
X47625000Y-107715050D02*
G75*
G02*
X47625000Y-109239050I0J-762000D01*
G01*
X47625000Y-109239050D02*
G75*
G02*
X47625000Y-110763050I0J-762000D01*
G01*
X47625000Y-110763050D02*
G75*
G02*
X47625000Y-112287050I0J-762000D01*
G01*
X47625000Y-112287050D02*
G75*
G02*
X47625000Y-113811050I0J-762000D01*
G01*
X47625000Y-113811050D02*
G75*
G02*
X47625000Y-115335050I0J-762000D01*
G01*
X51181000Y-107715050D02*
G75*
G02*
X51181000Y-106191050I0J762000D01*
G01*
X51181000Y-109239050D02*
G75*
G02*
X51181000Y-107715050I0J762000D01*
G01*
X51181000Y-110763050D02*
G75*
G02*
X51181000Y-109239050I0J762000D01*
G01*
X51181000Y-112287050D02*
G75*
G02*
X51181000Y-110763050I0J762000D01*
G01*
X51181000Y-113811050D02*
G75*
G02*
X51181000Y-112287050I0J762000D01*
G01*
X51181000Y-115335050D02*
G75*
G02*
X51181000Y-113811050I0J762000D01*
G01*
D13*
X48487000Y-105556050D02*
G75*
G02*
X48287000Y-105556050I-100000J0D01*
G01*
X48287000Y-105556050D02*
G75*
G02*
X48487000Y-105556050I100000J0D01*
G01*
X50519000Y-105556050D02*
G75*
G02*
X50319000Y-105556050I-100000J0D01*
G01*
X50319000Y-105556050D02*
G75*
G02*
X50519000Y-105556050I100000J0D01*
G01*
D11*
%TO.C,R3*%
X83270836Y-84078400D02*
X84724964Y-84078400D01*
X83270836Y-85898400D02*
X84724964Y-85898400D01*
%TO.C,C8*%
X106809400Y-164871800D02*
X106809400Y-165937800D01*
X106769400Y-164636800D02*
X106769400Y-166172800D01*
X106729400Y-164456800D02*
X106729400Y-166352800D01*
X106689400Y-164306800D02*
X106689400Y-166502800D01*
X106649400Y-164175800D02*
X106649400Y-166633800D01*
X106609400Y-164058800D02*
X106609400Y-166750800D01*
X106569400Y-163951800D02*
X106569400Y-166857800D01*
X106529400Y-163852800D02*
X106529400Y-166956800D01*
X106489400Y-163759800D02*
X106489400Y-167049800D01*
X106449400Y-163673800D02*
X106449400Y-167135800D01*
X106409400Y-163591800D02*
X106409400Y-167217800D01*
X106369400Y-163514800D02*
X106369400Y-167294800D01*
X106329400Y-163440800D02*
X106329400Y-167368800D01*
X106289400Y-163370800D02*
X106289400Y-167438800D01*
X106249400Y-166444800D02*
X106249400Y-167506800D01*
X106249400Y-163302800D02*
X106249400Y-164364800D01*
X106209400Y-166444800D02*
X106209400Y-167570800D01*
X106209400Y-163238800D02*
X106209400Y-164364800D01*
X106169400Y-166444800D02*
X106169400Y-167632800D01*
X106169400Y-163176800D02*
X106169400Y-164364800D01*
X106129400Y-166444800D02*
X106129400Y-167691800D01*
X106129400Y-163117800D02*
X106129400Y-164364800D01*
X106089400Y-166444800D02*
X106089400Y-167749800D01*
X106089400Y-163059800D02*
X106089400Y-164364800D01*
X106049400Y-166444800D02*
X106049400Y-167804800D01*
X106049400Y-163004800D02*
X106049400Y-164364800D01*
X106009400Y-166444800D02*
X106009400Y-167858800D01*
X106009400Y-162950800D02*
X106009400Y-164364800D01*
X105969400Y-166444800D02*
X105969400Y-167909800D01*
X105969400Y-162899800D02*
X105969400Y-164364800D01*
X105929400Y-166444800D02*
X105929400Y-167960800D01*
X105929400Y-162848800D02*
X105929400Y-164364800D01*
X105889400Y-166444800D02*
X105889400Y-168008800D01*
X105889400Y-162800800D02*
X105889400Y-164364800D01*
X105849400Y-166444800D02*
X105849400Y-168055800D01*
X105849400Y-162753800D02*
X105849400Y-164364800D01*
X105809400Y-166444800D02*
X105809400Y-168101800D01*
X105809400Y-162707800D02*
X105809400Y-164364800D01*
X105769400Y-166444800D02*
X105769400Y-168145800D01*
X105769400Y-162663800D02*
X105769400Y-164364800D01*
X105729400Y-166444800D02*
X105729400Y-168188800D01*
X105729400Y-162620800D02*
X105729400Y-164364800D01*
X105689400Y-166444800D02*
X105689400Y-168230800D01*
X105689400Y-162578800D02*
X105689400Y-164364800D01*
X105649400Y-166444800D02*
X105649400Y-168271800D01*
X105649400Y-162537800D02*
X105649400Y-164364800D01*
X105609400Y-166444800D02*
X105609400Y-168311800D01*
X105609400Y-162497800D02*
X105609400Y-164364800D01*
X105569400Y-166444800D02*
X105569400Y-168349800D01*
X105569400Y-162459800D02*
X105569400Y-164364800D01*
X105529400Y-166444800D02*
X105529400Y-168387800D01*
X105529400Y-162421800D02*
X105529400Y-164364800D01*
X105489400Y-166444800D02*
X105489400Y-168423800D01*
X105489400Y-162385800D02*
X105489400Y-164364800D01*
X105449400Y-166444800D02*
X105449400Y-168459800D01*
X105449400Y-162349800D02*
X105449400Y-164364800D01*
X105409400Y-166444800D02*
X105409400Y-168494800D01*
X105409400Y-162314800D02*
X105409400Y-164364800D01*
X105369400Y-166444800D02*
X105369400Y-168528800D01*
X105369400Y-162280800D02*
X105369400Y-164364800D01*
X105329400Y-166444800D02*
X105329400Y-168560800D01*
X105329400Y-162248800D02*
X105329400Y-164364800D01*
X105289400Y-166444800D02*
X105289400Y-168593800D01*
X105289400Y-162215800D02*
X105289400Y-164364800D01*
X105249400Y-166444800D02*
X105249400Y-168624800D01*
X105249400Y-162184800D02*
X105249400Y-164364800D01*
X105209400Y-166444800D02*
X105209400Y-168654800D01*
X105209400Y-162154800D02*
X105209400Y-164364800D01*
X105169400Y-166444800D02*
X105169400Y-168684800D01*
X105169400Y-162124800D02*
X105169400Y-164364800D01*
X105129400Y-166444800D02*
X105129400Y-168713800D01*
X105129400Y-162095800D02*
X105129400Y-164364800D01*
X105089400Y-166444800D02*
X105089400Y-168742800D01*
X105089400Y-162066800D02*
X105089400Y-164364800D01*
X105049400Y-166444800D02*
X105049400Y-168769800D01*
X105049400Y-162039800D02*
X105049400Y-164364800D01*
X105009400Y-166444800D02*
X105009400Y-168796800D01*
X105009400Y-162012800D02*
X105009400Y-164364800D01*
X104969400Y-166444800D02*
X104969400Y-168822800D01*
X104969400Y-161986800D02*
X104969400Y-164364800D01*
X104929400Y-166444800D02*
X104929400Y-168848800D01*
X104929400Y-161960800D02*
X104929400Y-164364800D01*
X104889400Y-166444800D02*
X104889400Y-168873800D01*
X104889400Y-161935800D02*
X104889400Y-164364800D01*
X104849400Y-166444800D02*
X104849400Y-168897800D01*
X104849400Y-161911800D02*
X104849400Y-164364800D01*
X104809400Y-166444800D02*
X104809400Y-168921800D01*
X104809400Y-161887800D02*
X104809400Y-164364800D01*
X104769400Y-166444800D02*
X104769400Y-168944800D01*
X104769400Y-161864800D02*
X104769400Y-164364800D01*
X104729400Y-166444800D02*
X104729400Y-168966800D01*
X104729400Y-161842800D02*
X104729400Y-164364800D01*
X104689400Y-166444800D02*
X104689400Y-168988800D01*
X104689400Y-161820800D02*
X104689400Y-164364800D01*
X104649400Y-166444800D02*
X104649400Y-169010800D01*
X104649400Y-161798800D02*
X104649400Y-164364800D01*
X104609400Y-166444800D02*
X104609400Y-169031800D01*
X104609400Y-161777800D02*
X104609400Y-164364800D01*
X104569400Y-166444800D02*
X104569400Y-169051800D01*
X104569400Y-161757800D02*
X104569400Y-164364800D01*
X104529400Y-166444800D02*
X104529400Y-169070800D01*
X104529400Y-161738800D02*
X104529400Y-164364800D01*
X104489400Y-166444800D02*
X104489400Y-169090800D01*
X104489400Y-161718800D02*
X104489400Y-164364800D01*
X104449400Y-166444800D02*
X104449400Y-169108800D01*
X104449400Y-161700800D02*
X104449400Y-164364800D01*
X104409400Y-166444800D02*
X104409400Y-169126800D01*
X104409400Y-161682800D02*
X104409400Y-164364800D01*
X104369400Y-166444800D02*
X104369400Y-169144800D01*
X104369400Y-161664800D02*
X104369400Y-164364800D01*
X104329400Y-166444800D02*
X104329400Y-169161800D01*
X104329400Y-161647800D02*
X104329400Y-164364800D01*
X104289400Y-166444800D02*
X104289400Y-169178800D01*
X104289400Y-161630800D02*
X104289400Y-164364800D01*
X104249400Y-166444800D02*
X104249400Y-169194800D01*
X104249400Y-161614800D02*
X104249400Y-164364800D01*
X104209400Y-166444800D02*
X104209400Y-169209800D01*
X104209400Y-161599800D02*
X104209400Y-164364800D01*
X104169400Y-161583800D02*
X104169400Y-169225800D01*
X104129400Y-161569800D02*
X104129400Y-169239800D01*
X104089400Y-161554800D02*
X104089400Y-169254800D01*
X104049400Y-161541800D02*
X104049400Y-169267800D01*
X104009400Y-161527800D02*
X104009400Y-169281800D01*
X103969400Y-161515800D02*
X103969400Y-169293800D01*
X103929400Y-161502800D02*
X103929400Y-169306800D01*
X103889400Y-161490800D02*
X103889400Y-169318800D01*
X103849400Y-161479800D02*
X103849400Y-169329800D01*
X103809400Y-161468800D02*
X103809400Y-169340800D01*
X103769400Y-161457800D02*
X103769400Y-169351800D01*
X103729400Y-161447800D02*
X103729400Y-169361800D01*
X103689400Y-161437800D02*
X103689400Y-169371800D01*
X103649400Y-161428800D02*
X103649400Y-169380800D01*
X103609400Y-161419800D02*
X103609400Y-169389800D01*
X103569400Y-161410800D02*
X103569400Y-169398800D01*
X103529400Y-161402800D02*
X103529400Y-169406800D01*
X103489400Y-161394800D02*
X103489400Y-169414800D01*
X103449400Y-161387800D02*
X103449400Y-169421800D01*
X103408400Y-161380800D02*
X103408400Y-169428800D01*
X103368400Y-161374800D02*
X103368400Y-169434800D01*
X103328400Y-161367800D02*
X103328400Y-169441800D01*
X103288400Y-161362800D02*
X103288400Y-169446800D01*
X103248400Y-161356800D02*
X103248400Y-169452800D01*
X103208400Y-161352800D02*
X103208400Y-169456800D01*
X103168400Y-161347800D02*
X103168400Y-169461800D01*
X103128400Y-161343800D02*
X103128400Y-169465800D01*
X103088400Y-161339800D02*
X103088400Y-169469800D01*
X103048400Y-161336800D02*
X103048400Y-169472800D01*
X103008400Y-161333800D02*
X103008400Y-169475800D01*
X102968400Y-161330800D02*
X102968400Y-169478800D01*
X102928400Y-161328800D02*
X102928400Y-169480800D01*
X102888400Y-161327800D02*
X102888400Y-169481800D01*
X102848400Y-161325800D02*
X102848400Y-169483800D01*
X102808400Y-161324800D02*
X102808400Y-169484800D01*
X102768400Y-161324800D02*
X102768400Y-169484800D01*
X102728400Y-161324800D02*
X102728400Y-169484800D01*
X98718702Y-162689800D02*
X98718702Y-163489800D01*
X98318702Y-163089800D02*
X99118702Y-163089800D01*
X106848400Y-165404800D02*
G75*
G02*
X98608400Y-165404800I-4120000J0D01*
G01*
X98608400Y-165404800D02*
G75*
G02*
X106848400Y-165404800I4120000J0D01*
G01*
%TO.C,D2*%
X78607500Y-86550600D02*
X78607500Y-88150600D01*
X78607500Y-88150600D02*
X81607500Y-88150600D01*
X81607500Y-86550600D02*
X78607500Y-86550600D01*
X81607500Y-88150600D02*
X81607500Y-86550600D01*
D12*
X79707500Y-86550600D02*
X79307500Y-86550600D01*
X79307500Y-86350600D01*
X79707500Y-86350600D01*
X79707500Y-86550600D01*
G36*
X79707500Y-86550600D02*
G01*
X79307500Y-86550600D01*
X79307500Y-86350600D01*
X79707500Y-86350600D01*
X79707500Y-86550600D01*
G37*
X79707500Y-88350600D02*
X79307500Y-88350600D01*
X79307500Y-88150600D01*
X79707500Y-88150600D01*
X79707500Y-88350600D01*
G36*
X79707500Y-88350600D02*
G01*
X79307500Y-88350600D01*
X79307500Y-88150600D01*
X79707500Y-88150600D01*
X79707500Y-88350600D01*
G37*
D11*
%TO.C,R6*%
X83281436Y-81741600D02*
X84735564Y-81741600D01*
X83281436Y-83561600D02*
X84735564Y-83561600D01*
%TO.C,U1*%
X40942400Y-80657000D02*
X47692400Y-80657000D01*
X40942400Y-98657000D02*
X40942400Y-80657000D01*
X40942400Y-98657000D02*
X47692400Y-98657000D01*
X46882400Y-80657000D02*
X46882400Y-98657000D01*
X65692400Y-80657000D02*
X66442400Y-80657000D01*
X65692400Y-98657000D02*
X66442400Y-98657000D01*
X66442400Y-80657000D02*
X66442400Y-81407000D01*
X66442400Y-81407000D02*
X66442400Y-83157000D01*
X66442400Y-97907000D02*
X66442400Y-96157000D01*
X66442400Y-98657000D02*
X66442400Y-97907000D01*
%TO.C,J3*%
X74800800Y-169006000D02*
X74800800Y-169746000D01*
X74800800Y-169746000D02*
X75300800Y-169746000D01*
X75040800Y-159585000D02*
X75040800Y-169506000D01*
X75040800Y-159585000D02*
X85160800Y-159585000D01*
X75040800Y-162545000D02*
X85160800Y-162545000D01*
X75040800Y-167446000D02*
X85160800Y-167446000D01*
X75040800Y-168946000D02*
X85160800Y-168946000D01*
X75040800Y-169506000D02*
X85160800Y-169506000D01*
X81373800Y-165869000D02*
X81326800Y-165915000D01*
X81566800Y-166085000D02*
X81531800Y-166120000D01*
X83670800Y-163571000D02*
X83635800Y-163607000D01*
X83875800Y-163777000D02*
X83828800Y-163823000D01*
X85160800Y-159585000D02*
X85160800Y-169506000D01*
X76065373Y-165529042D02*
G75*
G02*
X76065800Y-164162000I1535420J683041D01*
G01*
X76917758Y-163310573D02*
G75*
G02*
X78284800Y-163311000I683041J-1535420D01*
G01*
X77629605Y-166526253D02*
G75*
G02*
X76916800Y-166381000I-28806J1680254D01*
G01*
X78284118Y-166380756D02*
G75*
G02*
X77600800Y-166526000I-683318J1534756D01*
G01*
X79136227Y-164162958D02*
G75*
G02*
X79135800Y-165530000I-1535427J-683042D01*
G01*
X84280800Y-164846000D02*
G75*
G02*
X80920800Y-164846000I-1680000J0D01*
G01*
X80920800Y-164846000D02*
G75*
G02*
X84280800Y-164846000I1680000J0D01*
G01*
%TO.C,J2*%
X63370800Y-169006000D02*
X63370800Y-169746000D01*
X63370800Y-169746000D02*
X63870800Y-169746000D01*
X63610800Y-159585000D02*
X63610800Y-169506000D01*
X63610800Y-159585000D02*
X73730800Y-159585000D01*
X63610800Y-162545000D02*
X73730800Y-162545000D01*
X63610800Y-167446000D02*
X73730800Y-167446000D01*
X63610800Y-168946000D02*
X73730800Y-168946000D01*
X63610800Y-169506000D02*
X73730800Y-169506000D01*
X69943800Y-165869000D02*
X69896800Y-165915000D01*
X70136800Y-166085000D02*
X70101800Y-166120000D01*
X72240800Y-163571000D02*
X72205800Y-163607000D01*
X72445800Y-163777000D02*
X72398800Y-163823000D01*
X73730800Y-159585000D02*
X73730800Y-169506000D01*
X64635373Y-165529042D02*
G75*
G02*
X64635800Y-164162000I1535420J683041D01*
G01*
X65487758Y-163310573D02*
G75*
G02*
X66854800Y-163311000I683041J-1535420D01*
G01*
X66199605Y-166526253D02*
G75*
G02*
X65486800Y-166381000I-28806J1680254D01*
G01*
X66854118Y-166380756D02*
G75*
G02*
X66170800Y-166526000I-683318J1534756D01*
G01*
X67706227Y-164162958D02*
G75*
G02*
X67705800Y-165530000I-1535427J-683042D01*
G01*
X72850800Y-164846000D02*
G75*
G02*
X69490800Y-164846000I-1680000J0D01*
G01*
X69490800Y-164846000D02*
G75*
G02*
X72850800Y-164846000I1680000J0D01*
G01*
%TO.C,F1*%
X40606800Y-144331200D02*
X40606800Y-121611200D01*
X43766800Y-121611200D02*
X40606800Y-121611200D01*
X43766800Y-144331200D02*
X40606800Y-144331200D01*
X50426800Y-121611200D02*
X47266800Y-121611200D01*
X50426800Y-144331200D02*
X47266800Y-144331200D01*
X50426800Y-144331200D02*
X50426800Y-121611200D01*
%TO.C,SW1*%
X70148000Y-95052200D02*
X70148000Y-92552200D01*
X70598000Y-92102200D02*
X70148000Y-92552200D01*
X70598000Y-95502200D02*
X70148000Y-95052200D01*
X71898000Y-91052200D02*
X73898000Y-91052200D01*
X71898000Y-96552200D02*
X73898000Y-96552200D01*
X75198000Y-92102200D02*
X75648000Y-92552200D01*
X75198000Y-95502200D02*
X75648000Y-95052200D01*
X75648000Y-95052200D02*
X75648000Y-92552200D01*
%TO.C,F2*%
X61638000Y-156320000D02*
X61638000Y-133600000D01*
X64798000Y-133600000D02*
X61638000Y-133600000D01*
X64798000Y-156320000D02*
X61638000Y-156320000D01*
X71458000Y-133600000D02*
X68298000Y-133600000D01*
X71458000Y-156320000D02*
X68298000Y-156320000D01*
X71458000Y-156320000D02*
X71458000Y-133600000D01*
D14*
%TO.C,K2*%
X72360800Y-133342800D02*
X72360800Y-157842800D01*
X72360800Y-157842800D02*
X77860800Y-157842800D01*
X77860800Y-133342800D02*
X72360800Y-133342800D01*
X77860800Y-157842800D02*
X77860800Y-133342800D01*
D15*
X73940800Y-158546800D02*
G75*
G02*
X73740800Y-158546800I-100000J0D01*
G01*
X73740800Y-158546800D02*
G75*
G02*
X73940800Y-158546800I100000J0D01*
G01*
D11*
%TO.C,J4*%
X86150800Y-169006000D02*
X86150800Y-169746000D01*
X86150800Y-169746000D02*
X86650800Y-169746000D01*
X86390800Y-159585000D02*
X86390800Y-169506000D01*
X86390800Y-159585000D02*
X96510800Y-159585000D01*
X86390800Y-162545000D02*
X96510800Y-162545000D01*
X86390800Y-167446000D02*
X96510800Y-167446000D01*
X86390800Y-168946000D02*
X96510800Y-168946000D01*
X86390800Y-169506000D02*
X96510800Y-169506000D01*
X92723800Y-165869000D02*
X92676800Y-165915000D01*
X92916800Y-166085000D02*
X92881800Y-166120000D01*
X95020800Y-163571000D02*
X94985800Y-163607000D01*
X95225800Y-163777000D02*
X95178800Y-163823000D01*
X96510800Y-159585000D02*
X96510800Y-169506000D01*
X87415373Y-165529042D02*
G75*
G02*
X87415800Y-164162000I1535420J683041D01*
G01*
X88267758Y-163310573D02*
G75*
G02*
X89634800Y-163311000I683041J-1535420D01*
G01*
X88979605Y-166526253D02*
G75*
G02*
X88266800Y-166381000I-28806J1680254D01*
G01*
X89634118Y-166380756D02*
G75*
G02*
X88950800Y-166526000I-683318J1534756D01*
G01*
X90486227Y-164162958D02*
G75*
G02*
X90485800Y-165530000I-1535427J-683042D01*
G01*
X95630800Y-164846000D02*
G75*
G02*
X92270800Y-164846000I-1680000J0D01*
G01*
X92270800Y-164846000D02*
G75*
G02*
X95630800Y-164846000I1680000J0D01*
G01*
D10*
%TO.C,RVe1*%
X41116800Y-159067800D02*
X41116800Y-163867800D01*
X41116800Y-159067800D02*
X62616800Y-159067800D01*
X41116800Y-163867800D02*
X62616800Y-163867800D01*
X62616800Y-159067800D02*
X62616800Y-163867800D01*
D14*
%TO.C,K1*%
X55165000Y-133165000D02*
X55165000Y-157665000D01*
X55165000Y-157665000D02*
X60665000Y-157665000D01*
X60665000Y-133165000D02*
X55165000Y-133165000D01*
X60665000Y-157665000D02*
X60665000Y-133165000D01*
D15*
X56745000Y-158369000D02*
G75*
G02*
X56545000Y-158369000I-100000J0D01*
G01*
X56545000Y-158369000D02*
G75*
G02*
X56745000Y-158369000I100000J0D01*
G01*
D11*
%TO.C,F4*%
X95826400Y-156574000D02*
X95826400Y-133854000D01*
X98986400Y-133854000D02*
X95826400Y-133854000D01*
X98986400Y-156574000D02*
X95826400Y-156574000D01*
X105646400Y-133854000D02*
X102486400Y-133854000D01*
X105646400Y-156574000D02*
X102486400Y-156574000D01*
X105646400Y-156574000D02*
X105646400Y-133854000D01*
%TO.C,C7*%
X49412400Y-164639000D02*
X49412400Y-169879000D01*
X49412400Y-164639000D02*
X62652400Y-164639000D01*
X49412400Y-169879000D02*
X62652400Y-169879000D01*
X62652400Y-164639000D02*
X62652400Y-169879000D01*
%TO.C,J1*%
X40692800Y-147100000D02*
X40692800Y-147600000D01*
X40932800Y-147340000D02*
X40932800Y-157460000D01*
X41432800Y-147100000D02*
X40692800Y-147100000D01*
X41492800Y-147340000D02*
X41492800Y-157460000D01*
X42992800Y-147340000D02*
X42992800Y-157460000D01*
X44353800Y-153866000D02*
X44318800Y-153831000D01*
X44569800Y-153673000D02*
X44523800Y-153626000D01*
X46661800Y-156175000D02*
X46615800Y-156128000D01*
X46867800Y-155970000D02*
X46831800Y-155935000D01*
X47893800Y-147340000D02*
X47893800Y-157460000D01*
X50853800Y-147340000D02*
X40932800Y-147340000D01*
X50853800Y-147340000D02*
X50853800Y-157460000D01*
X50853800Y-157460000D02*
X40932800Y-157460000D01*
X43912547Y-149928805D02*
G75*
G02*
X44057800Y-149216000I1680254J28806D01*
G01*
X44058044Y-150583318D02*
G75*
G02*
X43912800Y-149900000I1534756J683318D01*
G01*
X44909758Y-148364573D02*
G75*
G02*
X46276800Y-148365000I683041J-1535420D01*
G01*
X46275842Y-151435427D02*
G75*
G02*
X44908800Y-151435000I-683042J1535427D01*
G01*
X47128227Y-149216958D02*
G75*
G02*
X47127800Y-150584000I-1535420J-683041D01*
G01*
X47272800Y-154900000D02*
G75*
G02*
X43912800Y-154900000I-1680000J0D01*
G01*
X43912800Y-154900000D02*
G75*
G02*
X47272800Y-154900000I1680000J0D01*
G01*
%TO.C,J_I2C1*%
X89856000Y-99501000D02*
X89856000Y-98171000D01*
X91186000Y-99501000D02*
X89856000Y-99501000D01*
X92456000Y-96841000D02*
X100136000Y-96841000D01*
X92456000Y-99501000D02*
X92456000Y-96841000D01*
X92456000Y-99501000D02*
X100136000Y-99501000D01*
X100136000Y-99501000D02*
X100136000Y-96841000D01*
%TO.C,D4*%
X78588600Y-81871600D02*
X78588600Y-83471600D01*
X78588600Y-83471600D02*
X81588600Y-83471600D01*
X81588600Y-81871600D02*
X78588600Y-81871600D01*
X81588600Y-83471600D02*
X81588600Y-81871600D01*
D12*
X79688600Y-81871600D02*
X79288600Y-81871600D01*
X79288600Y-81671600D01*
X79688600Y-81671600D01*
X79688600Y-81871600D01*
G36*
X79688600Y-81871600D02*
G01*
X79288600Y-81871600D01*
X79288600Y-81671600D01*
X79688600Y-81671600D01*
X79688600Y-81871600D01*
G37*
X79688600Y-83671600D02*
X79288600Y-83671600D01*
X79288600Y-83471600D01*
X79688600Y-83471600D01*
X79688600Y-83671600D01*
G36*
X79688600Y-83671600D02*
G01*
X79288600Y-83671600D01*
X79288600Y-83471600D01*
X79688600Y-83471600D01*
X79688600Y-83671600D01*
G37*
D11*
%TO.C,D3*%
X78596900Y-88938200D02*
X78596900Y-90538200D01*
X78596900Y-90538200D02*
X81596900Y-90538200D01*
X81596900Y-88938200D02*
X78596900Y-88938200D01*
X81596900Y-90538200D02*
X81596900Y-88938200D01*
D12*
X79696900Y-88938200D02*
X79296900Y-88938200D01*
X79296900Y-88738200D01*
X79696900Y-88738200D01*
X79696900Y-88938200D01*
G36*
X79696900Y-88938200D02*
G01*
X79296900Y-88938200D01*
X79296900Y-88738200D01*
X79696900Y-88738200D01*
X79696900Y-88938200D01*
G37*
X79696900Y-90738200D02*
X79296900Y-90738200D01*
X79296900Y-90538200D01*
X79696900Y-90538200D01*
X79696900Y-90738200D01*
G36*
X79696900Y-90738200D02*
G01*
X79296900Y-90738200D01*
X79296900Y-90538200D01*
X79696900Y-90538200D01*
X79696900Y-90738200D01*
G37*
D11*
%TO.C,J_UART1*%
X77435400Y-99501000D02*
X77435400Y-98171000D01*
X78765400Y-99501000D02*
X77435400Y-99501000D01*
X80035400Y-96841000D02*
X87715400Y-96841000D01*
X80035400Y-99501000D02*
X80035400Y-96841000D01*
X80035400Y-99501000D02*
X87715400Y-99501000D01*
X87715400Y-99501000D02*
X87715400Y-96841000D01*
%TO.C,R5*%
X83256036Y-88752000D02*
X84710164Y-88752000D01*
X83256036Y-90572000D02*
X84710164Y-90572000D01*
%TO.C,R4*%
X83256036Y-86440600D02*
X84710164Y-86440600D01*
X83256036Y-88260600D02*
X84710164Y-88260600D01*
D14*
%TO.C,K3*%
X89480400Y-133444400D02*
X89480400Y-157944400D01*
X89480400Y-157944400D02*
X94980400Y-157944400D01*
X94980400Y-133444400D02*
X89480400Y-133444400D01*
X94980400Y-157944400D02*
X94980400Y-133444400D01*
D15*
X91060400Y-158648400D02*
G75*
G02*
X90860400Y-158648400I-100000J0D01*
G01*
X90860400Y-158648400D02*
G75*
G02*
X91060400Y-158648400I100000J0D01*
G01*
%TD*%
D16*
X38100000Y-76200000D02*
X109220000Y-76200000D01*
X109220000Y-172720000D01*
X38100000Y-172720000D01*
X38100000Y-76200000D01*
M02*
