%TF.GenerationSoftware,KiCad,Pcbnew,8.0.3-8.0.3-0~ubuntu23.10.1*%
%TF.CreationDate,2024-07-30T14:16:20+05:00*%
%TF.ProjectId,IOTV,494f5456-2e6b-4696-9361-645f70636258,3*%
%TF.SameCoordinates,Original*%
%TF.FileFunction,Legend,Bot*%
%TF.FilePolarity,Positive*%
%FSLAX46Y46*%
G04 Gerber Fmt 4.6, Leading zero omitted, Abs format (unit mm)*
G04 Created by KiCad (PCBNEW 8.0.3-8.0.3-0~ubuntu23.10.1) date 2024-07-30 14:16:20*
%MOMM*%
%LPD*%
G01*
G04 APERTURE LIST*
%ADD10C,0.300000*%
%ADD11C,0.375000*%
%ADD12C,0.150000*%
%ADD13C,0.000000*%
%TA.AperFunction,Profile*%
%ADD14C,0.150000*%
%TD*%
G04 APERTURE END LIST*
D10*
X158585489Y-67096828D02*
X158585489Y-66096828D01*
X158585489Y-66382542D02*
X158514060Y-66239685D01*
X158514060Y-66239685D02*
X158442632Y-66168257D01*
X158442632Y-66168257D02*
X158299774Y-66096828D01*
X158299774Y-66096828D02*
X158156917Y-66096828D01*
X157085489Y-67025400D02*
X157228346Y-67096828D01*
X157228346Y-67096828D02*
X157514061Y-67096828D01*
X157514061Y-67096828D02*
X157656918Y-67025400D01*
X157656918Y-67025400D02*
X157728346Y-66882542D01*
X157728346Y-66882542D02*
X157728346Y-66311114D01*
X157728346Y-66311114D02*
X157656918Y-66168257D01*
X157656918Y-66168257D02*
X157514061Y-66096828D01*
X157514061Y-66096828D02*
X157228346Y-66096828D01*
X157228346Y-66096828D02*
X157085489Y-66168257D01*
X157085489Y-66168257D02*
X157014061Y-66311114D01*
X157014061Y-66311114D02*
X157014061Y-66453971D01*
X157014061Y-66453971D02*
X157728346Y-66596828D01*
X156514061Y-66096828D02*
X156156918Y-67096828D01*
X156156918Y-67096828D02*
X155799775Y-66096828D01*
X155228347Y-66953971D02*
X155156918Y-67025400D01*
X155156918Y-67025400D02*
X155228347Y-67096828D01*
X155228347Y-67096828D02*
X155299775Y-67025400D01*
X155299775Y-67025400D02*
X155228347Y-66953971D01*
X155228347Y-66953971D02*
X155228347Y-67096828D01*
X152585489Y-67096828D02*
X153442632Y-67096828D01*
X153014061Y-67096828D02*
X153014061Y-65596828D01*
X153014061Y-65596828D02*
X153156918Y-65811114D01*
X153156918Y-65811114D02*
X153299775Y-65953971D01*
X153299775Y-65953971D02*
X153442632Y-66025400D01*
X151942633Y-66953971D02*
X151871204Y-67025400D01*
X151871204Y-67025400D02*
X151942633Y-67096828D01*
X151942633Y-67096828D02*
X152014061Y-67025400D01*
X152014061Y-67025400D02*
X151942633Y-66953971D01*
X151942633Y-66953971D02*
X151942633Y-67096828D01*
X150942632Y-65596828D02*
X150799775Y-65596828D01*
X150799775Y-65596828D02*
X150656918Y-65668257D01*
X150656918Y-65668257D02*
X150585490Y-65739685D01*
X150585490Y-65739685D02*
X150514061Y-65882542D01*
X150514061Y-65882542D02*
X150442632Y-66168257D01*
X150442632Y-66168257D02*
X150442632Y-66525400D01*
X150442632Y-66525400D02*
X150514061Y-66811114D01*
X150514061Y-66811114D02*
X150585490Y-66953971D01*
X150585490Y-66953971D02*
X150656918Y-67025400D01*
X150656918Y-67025400D02*
X150799775Y-67096828D01*
X150799775Y-67096828D02*
X150942632Y-67096828D01*
X150942632Y-67096828D02*
X151085490Y-67025400D01*
X151085490Y-67025400D02*
X151156918Y-66953971D01*
X151156918Y-66953971D02*
X151228347Y-66811114D01*
X151228347Y-66811114D02*
X151299775Y-66525400D01*
X151299775Y-66525400D02*
X151299775Y-66168257D01*
X151299775Y-66168257D02*
X151228347Y-65882542D01*
X151228347Y-65882542D02*
X151156918Y-65739685D01*
X151156918Y-65739685D02*
X151085490Y-65668257D01*
X151085490Y-65668257D02*
X150942632Y-65596828D01*
D11*
X158551428Y-64552928D02*
X158551428Y-63052928D01*
X157551427Y-63052928D02*
X157265713Y-63052928D01*
X157265713Y-63052928D02*
X157122856Y-63124357D01*
X157122856Y-63124357D02*
X156979999Y-63267214D01*
X156979999Y-63267214D02*
X156908570Y-63552928D01*
X156908570Y-63552928D02*
X156908570Y-64052928D01*
X156908570Y-64052928D02*
X156979999Y-64338642D01*
X156979999Y-64338642D02*
X157122856Y-64481500D01*
X157122856Y-64481500D02*
X157265713Y-64552928D01*
X157265713Y-64552928D02*
X157551427Y-64552928D01*
X157551427Y-64552928D02*
X157694285Y-64481500D01*
X157694285Y-64481500D02*
X157837142Y-64338642D01*
X157837142Y-64338642D02*
X157908570Y-64052928D01*
X157908570Y-64052928D02*
X157908570Y-63552928D01*
X157908570Y-63552928D02*
X157837142Y-63267214D01*
X157837142Y-63267214D02*
X157694285Y-63124357D01*
X157694285Y-63124357D02*
X157551427Y-63052928D01*
X156479998Y-63052928D02*
X155622856Y-63052928D01*
X156051427Y-64552928D02*
X156051427Y-63052928D01*
X155337141Y-63052928D02*
X154837141Y-64552928D01*
X154837141Y-64552928D02*
X154337141Y-63052928D01*
X152694285Y-64552928D02*
X152694285Y-63052928D01*
X151979999Y-64552928D02*
X151979999Y-63052928D01*
X151979999Y-63052928D02*
X151622856Y-63052928D01*
X151622856Y-63052928D02*
X151408570Y-63124357D01*
X151408570Y-63124357D02*
X151265713Y-63267214D01*
X151265713Y-63267214D02*
X151194284Y-63410071D01*
X151194284Y-63410071D02*
X151122856Y-63695785D01*
X151122856Y-63695785D02*
X151122856Y-63910071D01*
X151122856Y-63910071D02*
X151194284Y-64195785D01*
X151194284Y-64195785D02*
X151265713Y-64338642D01*
X151265713Y-64338642D02*
X151408570Y-64481500D01*
X151408570Y-64481500D02*
X151622856Y-64552928D01*
X151622856Y-64552928D02*
X151979999Y-64552928D01*
X150479999Y-63981500D02*
X149337142Y-63981500D01*
X147837141Y-64552928D02*
X148694284Y-64552928D01*
X148265713Y-64552928D02*
X148265713Y-63052928D01*
X148265713Y-63052928D02*
X148408570Y-63267214D01*
X148408570Y-63267214D02*
X148551427Y-63410071D01*
X148551427Y-63410071D02*
X148694284Y-63481500D01*
X145622856Y-65124357D02*
X145694285Y-65052928D01*
X145694285Y-65052928D02*
X145837142Y-64838642D01*
X145837142Y-64838642D02*
X145908571Y-64695785D01*
X145908571Y-64695785D02*
X145979999Y-64481500D01*
X145979999Y-64481500D02*
X146051428Y-64124357D01*
X146051428Y-64124357D02*
X146051428Y-63838642D01*
X146051428Y-63838642D02*
X145979999Y-63481500D01*
X145979999Y-63481500D02*
X145908571Y-63267214D01*
X145908571Y-63267214D02*
X145837142Y-63124357D01*
X145837142Y-63124357D02*
X145694285Y-62910071D01*
X145694285Y-62910071D02*
X145622856Y-62838642D01*
X145194285Y-63052928D02*
X144265713Y-63052928D01*
X144265713Y-63052928D02*
X144765713Y-63624357D01*
X144765713Y-63624357D02*
X144551428Y-63624357D01*
X144551428Y-63624357D02*
X144408571Y-63695785D01*
X144408571Y-63695785D02*
X144337142Y-63767214D01*
X144337142Y-63767214D02*
X144265713Y-63910071D01*
X144265713Y-63910071D02*
X144265713Y-64267214D01*
X144265713Y-64267214D02*
X144337142Y-64410071D01*
X144337142Y-64410071D02*
X144408571Y-64481500D01*
X144408571Y-64481500D02*
X144551428Y-64552928D01*
X144551428Y-64552928D02*
X144979999Y-64552928D01*
X144979999Y-64552928D02*
X145122856Y-64481500D01*
X145122856Y-64481500D02*
X145194285Y-64410071D01*
X143765714Y-64552928D02*
X142980000Y-63552928D01*
X143765714Y-63552928D02*
X142980000Y-64552928D01*
X142479999Y-63195785D02*
X142408571Y-63124357D01*
X142408571Y-63124357D02*
X142265714Y-63052928D01*
X142265714Y-63052928D02*
X141908571Y-63052928D01*
X141908571Y-63052928D02*
X141765714Y-63124357D01*
X141765714Y-63124357D02*
X141694285Y-63195785D01*
X141694285Y-63195785D02*
X141622856Y-63338642D01*
X141622856Y-63338642D02*
X141622856Y-63481500D01*
X141622856Y-63481500D02*
X141694285Y-63695785D01*
X141694285Y-63695785D02*
X142551428Y-64552928D01*
X142551428Y-64552928D02*
X141622856Y-64552928D01*
X141051428Y-64124357D02*
X140337143Y-64124357D01*
X141194285Y-64552928D02*
X140694285Y-63052928D01*
X140694285Y-63052928D02*
X140194285Y-64552928D01*
X139837143Y-65124357D02*
X139765714Y-65052928D01*
X139765714Y-65052928D02*
X139622857Y-64838642D01*
X139622857Y-64838642D02*
X139551429Y-64695785D01*
X139551429Y-64695785D02*
X139480000Y-64481500D01*
X139480000Y-64481500D02*
X139408571Y-64124357D01*
X139408571Y-64124357D02*
X139408571Y-63838642D01*
X139408571Y-63838642D02*
X139480000Y-63481500D01*
X139480000Y-63481500D02*
X139551429Y-63267214D01*
X139551429Y-63267214D02*
X139622857Y-63124357D01*
X139622857Y-63124357D02*
X139765714Y-62910071D01*
X139765714Y-62910071D02*
X139837143Y-62838642D01*
D12*
X162357057Y-94607361D02*
X162309438Y-94512123D01*
X162309438Y-94512123D02*
X162214200Y-94416885D01*
X162214200Y-94416885D02*
X162071342Y-94274028D01*
X162071342Y-94274028D02*
X162023723Y-94178790D01*
X162023723Y-94178790D02*
X162023723Y-94083552D01*
X162261819Y-94131171D02*
X162214200Y-94035933D01*
X162214200Y-94035933D02*
X162118961Y-93940695D01*
X162118961Y-93940695D02*
X161928485Y-93893076D01*
X161928485Y-93893076D02*
X161595152Y-93893076D01*
X161595152Y-93893076D02*
X161404676Y-93940695D01*
X161404676Y-93940695D02*
X161309438Y-94035933D01*
X161309438Y-94035933D02*
X161261819Y-94131171D01*
X161261819Y-94131171D02*
X161261819Y-94321647D01*
X161261819Y-94321647D02*
X161309438Y-94416885D01*
X161309438Y-94416885D02*
X161404676Y-94512123D01*
X161404676Y-94512123D02*
X161595152Y-94559742D01*
X161595152Y-94559742D02*
X161928485Y-94559742D01*
X161928485Y-94559742D02*
X162118961Y-94512123D01*
X162118961Y-94512123D02*
X162214200Y-94416885D01*
X162214200Y-94416885D02*
X162261819Y-94321647D01*
X162261819Y-94321647D02*
X162261819Y-94131171D01*
X161261819Y-94893076D02*
X161261819Y-95512123D01*
X161261819Y-95512123D02*
X161642771Y-95178790D01*
X161642771Y-95178790D02*
X161642771Y-95321647D01*
X161642771Y-95321647D02*
X161690390Y-95416885D01*
X161690390Y-95416885D02*
X161738009Y-95464504D01*
X161738009Y-95464504D02*
X161833247Y-95512123D01*
X161833247Y-95512123D02*
X162071342Y-95512123D01*
X162071342Y-95512123D02*
X162166580Y-95464504D01*
X162166580Y-95464504D02*
X162214200Y-95416885D01*
X162214200Y-95416885D02*
X162261819Y-95321647D01*
X162261819Y-95321647D02*
X162261819Y-95035933D01*
X162261819Y-95035933D02*
X162214200Y-94940695D01*
X162214200Y-94940695D02*
X162166580Y-94893076D01*
X152713704Y-82418419D02*
X152713704Y-83227942D01*
X152713704Y-83227942D02*
X152666085Y-83323180D01*
X152666085Y-83323180D02*
X152618466Y-83370800D01*
X152618466Y-83370800D02*
X152523228Y-83418419D01*
X152523228Y-83418419D02*
X152332752Y-83418419D01*
X152332752Y-83418419D02*
X152237514Y-83370800D01*
X152237514Y-83370800D02*
X152189895Y-83323180D01*
X152189895Y-83323180D02*
X152142276Y-83227942D01*
X152142276Y-83227942D02*
X152142276Y-82418419D01*
X151713704Y-82513657D02*
X151666085Y-82466038D01*
X151666085Y-82466038D02*
X151570847Y-82418419D01*
X151570847Y-82418419D02*
X151332752Y-82418419D01*
X151332752Y-82418419D02*
X151237514Y-82466038D01*
X151237514Y-82466038D02*
X151189895Y-82513657D01*
X151189895Y-82513657D02*
X151142276Y-82608895D01*
X151142276Y-82608895D02*
X151142276Y-82704133D01*
X151142276Y-82704133D02*
X151189895Y-82846990D01*
X151189895Y-82846990D02*
X151761323Y-83418419D01*
X151761323Y-83418419D02*
X151142276Y-83418419D01*
X125956466Y-55493180D02*
X126004085Y-55540800D01*
X126004085Y-55540800D02*
X126146942Y-55588419D01*
X126146942Y-55588419D02*
X126242180Y-55588419D01*
X126242180Y-55588419D02*
X126385037Y-55540800D01*
X126385037Y-55540800D02*
X126480275Y-55445561D01*
X126480275Y-55445561D02*
X126527894Y-55350323D01*
X126527894Y-55350323D02*
X126575513Y-55159847D01*
X126575513Y-55159847D02*
X126575513Y-55016990D01*
X126575513Y-55016990D02*
X126527894Y-54826514D01*
X126527894Y-54826514D02*
X126480275Y-54731276D01*
X126480275Y-54731276D02*
X126385037Y-54636038D01*
X126385037Y-54636038D02*
X126242180Y-54588419D01*
X126242180Y-54588419D02*
X126146942Y-54588419D01*
X126146942Y-54588419D02*
X126004085Y-54636038D01*
X126004085Y-54636038D02*
X125956466Y-54683657D01*
X125004085Y-55588419D02*
X125575513Y-55588419D01*
X125289799Y-55588419D02*
X125289799Y-54588419D01*
X125289799Y-54588419D02*
X125385037Y-54731276D01*
X125385037Y-54731276D02*
X125480275Y-54826514D01*
X125480275Y-54826514D02*
X125575513Y-54874133D01*
X125958266Y-59353980D02*
X126005885Y-59401600D01*
X126005885Y-59401600D02*
X126148742Y-59449219D01*
X126148742Y-59449219D02*
X126243980Y-59449219D01*
X126243980Y-59449219D02*
X126386837Y-59401600D01*
X126386837Y-59401600D02*
X126482075Y-59306361D01*
X126482075Y-59306361D02*
X126529694Y-59211123D01*
X126529694Y-59211123D02*
X126577313Y-59020647D01*
X126577313Y-59020647D02*
X126577313Y-58877790D01*
X126577313Y-58877790D02*
X126529694Y-58687314D01*
X126529694Y-58687314D02*
X126482075Y-58592076D01*
X126482075Y-58592076D02*
X126386837Y-58496838D01*
X126386837Y-58496838D02*
X126243980Y-58449219D01*
X126243980Y-58449219D02*
X126148742Y-58449219D01*
X126148742Y-58449219D02*
X126005885Y-58496838D01*
X126005885Y-58496838D02*
X125958266Y-58544457D01*
X125577313Y-58544457D02*
X125529694Y-58496838D01*
X125529694Y-58496838D02*
X125434456Y-58449219D01*
X125434456Y-58449219D02*
X125196361Y-58449219D01*
X125196361Y-58449219D02*
X125101123Y-58496838D01*
X125101123Y-58496838D02*
X125053504Y-58544457D01*
X125053504Y-58544457D02*
X125005885Y-58639695D01*
X125005885Y-58639695D02*
X125005885Y-58734933D01*
X125005885Y-58734933D02*
X125053504Y-58877790D01*
X125053504Y-58877790D02*
X125624932Y-59449219D01*
X125624932Y-59449219D02*
X125005885Y-59449219D01*
X157378657Y-94581961D02*
X157331038Y-94486723D01*
X157331038Y-94486723D02*
X157235800Y-94391485D01*
X157235800Y-94391485D02*
X157092942Y-94248628D01*
X157092942Y-94248628D02*
X157045323Y-94153390D01*
X157045323Y-94153390D02*
X157045323Y-94058152D01*
X157283419Y-94105771D02*
X157235800Y-94010533D01*
X157235800Y-94010533D02*
X157140561Y-93915295D01*
X157140561Y-93915295D02*
X156950085Y-93867676D01*
X156950085Y-93867676D02*
X156616752Y-93867676D01*
X156616752Y-93867676D02*
X156426276Y-93915295D01*
X156426276Y-93915295D02*
X156331038Y-94010533D01*
X156331038Y-94010533D02*
X156283419Y-94105771D01*
X156283419Y-94105771D02*
X156283419Y-94296247D01*
X156283419Y-94296247D02*
X156331038Y-94391485D01*
X156331038Y-94391485D02*
X156426276Y-94486723D01*
X156426276Y-94486723D02*
X156616752Y-94534342D01*
X156616752Y-94534342D02*
X156950085Y-94534342D01*
X156950085Y-94534342D02*
X157140561Y-94486723D01*
X157140561Y-94486723D02*
X157235800Y-94391485D01*
X157235800Y-94391485D02*
X157283419Y-94296247D01*
X157283419Y-94296247D02*
X157283419Y-94105771D01*
X156378657Y-94915295D02*
X156331038Y-94962914D01*
X156331038Y-94962914D02*
X156283419Y-95058152D01*
X156283419Y-95058152D02*
X156283419Y-95296247D01*
X156283419Y-95296247D02*
X156331038Y-95391485D01*
X156331038Y-95391485D02*
X156378657Y-95439104D01*
X156378657Y-95439104D02*
X156473895Y-95486723D01*
X156473895Y-95486723D02*
X156569133Y-95486723D01*
X156569133Y-95486723D02*
X156711990Y-95439104D01*
X156711990Y-95439104D02*
X157283419Y-94867676D01*
X157283419Y-94867676D02*
X157283419Y-95486723D01*
X152349457Y-94607361D02*
X152301838Y-94512123D01*
X152301838Y-94512123D02*
X152206600Y-94416885D01*
X152206600Y-94416885D02*
X152063742Y-94274028D01*
X152063742Y-94274028D02*
X152016123Y-94178790D01*
X152016123Y-94178790D02*
X152016123Y-94083552D01*
X152254219Y-94131171D02*
X152206600Y-94035933D01*
X152206600Y-94035933D02*
X152111361Y-93940695D01*
X152111361Y-93940695D02*
X151920885Y-93893076D01*
X151920885Y-93893076D02*
X151587552Y-93893076D01*
X151587552Y-93893076D02*
X151397076Y-93940695D01*
X151397076Y-93940695D02*
X151301838Y-94035933D01*
X151301838Y-94035933D02*
X151254219Y-94131171D01*
X151254219Y-94131171D02*
X151254219Y-94321647D01*
X151254219Y-94321647D02*
X151301838Y-94416885D01*
X151301838Y-94416885D02*
X151397076Y-94512123D01*
X151397076Y-94512123D02*
X151587552Y-94559742D01*
X151587552Y-94559742D02*
X151920885Y-94559742D01*
X151920885Y-94559742D02*
X152111361Y-94512123D01*
X152111361Y-94512123D02*
X152206600Y-94416885D01*
X152206600Y-94416885D02*
X152254219Y-94321647D01*
X152254219Y-94321647D02*
X152254219Y-94131171D01*
X152254219Y-95512123D02*
X152254219Y-94940695D01*
X152254219Y-95226409D02*
X151254219Y-95226409D01*
X151254219Y-95226409D02*
X151397076Y-95131171D01*
X151397076Y-95131171D02*
X151492314Y-95035933D01*
X151492314Y-95035933D02*
X151539933Y-94940695D01*
X130833266Y-55584219D02*
X131166599Y-55108028D01*
X131404694Y-55584219D02*
X131404694Y-54584219D01*
X131404694Y-54584219D02*
X131023742Y-54584219D01*
X131023742Y-54584219D02*
X130928504Y-54631838D01*
X130928504Y-54631838D02*
X130880885Y-54679457D01*
X130880885Y-54679457D02*
X130833266Y-54774695D01*
X130833266Y-54774695D02*
X130833266Y-54917552D01*
X130833266Y-54917552D02*
X130880885Y-55012790D01*
X130880885Y-55012790D02*
X130928504Y-55060409D01*
X130928504Y-55060409D02*
X131023742Y-55108028D01*
X131023742Y-55108028D02*
X131404694Y-55108028D01*
X129880885Y-55584219D02*
X130452313Y-55584219D01*
X130166599Y-55584219D02*
X130166599Y-54584219D01*
X130166599Y-54584219D02*
X130261837Y-54727076D01*
X130261837Y-54727076D02*
X130357075Y-54822314D01*
X130357075Y-54822314D02*
X130452313Y-54869933D01*
X135456066Y-55618419D02*
X135789399Y-55142228D01*
X136027494Y-55618419D02*
X136027494Y-54618419D01*
X136027494Y-54618419D02*
X135646542Y-54618419D01*
X135646542Y-54618419D02*
X135551304Y-54666038D01*
X135551304Y-54666038D02*
X135503685Y-54713657D01*
X135503685Y-54713657D02*
X135456066Y-54808895D01*
X135456066Y-54808895D02*
X135456066Y-54951752D01*
X135456066Y-54951752D02*
X135503685Y-55046990D01*
X135503685Y-55046990D02*
X135551304Y-55094609D01*
X135551304Y-55094609D02*
X135646542Y-55142228D01*
X135646542Y-55142228D02*
X136027494Y-55142228D01*
X135075113Y-54713657D02*
X135027494Y-54666038D01*
X135027494Y-54666038D02*
X134932256Y-54618419D01*
X134932256Y-54618419D02*
X134694161Y-54618419D01*
X134694161Y-54618419D02*
X134598923Y-54666038D01*
X134598923Y-54666038D02*
X134551304Y-54713657D01*
X134551304Y-54713657D02*
X134503685Y-54808895D01*
X134503685Y-54808895D02*
X134503685Y-54904133D01*
X134503685Y-54904133D02*
X134551304Y-55046990D01*
X134551304Y-55046990D02*
X135122732Y-55618419D01*
X135122732Y-55618419D02*
X134503685Y-55618419D01*
X163294466Y-90312380D02*
X163342085Y-90360000D01*
X163342085Y-90360000D02*
X163484942Y-90407619D01*
X163484942Y-90407619D02*
X163580180Y-90407619D01*
X163580180Y-90407619D02*
X163723037Y-90360000D01*
X163723037Y-90360000D02*
X163818275Y-90264761D01*
X163818275Y-90264761D02*
X163865894Y-90169523D01*
X163865894Y-90169523D02*
X163913513Y-89979047D01*
X163913513Y-89979047D02*
X163913513Y-89836190D01*
X163913513Y-89836190D02*
X163865894Y-89645714D01*
X163865894Y-89645714D02*
X163818275Y-89550476D01*
X163818275Y-89550476D02*
X163723037Y-89455238D01*
X163723037Y-89455238D02*
X163580180Y-89407619D01*
X163580180Y-89407619D02*
X163484942Y-89407619D01*
X163484942Y-89407619D02*
X163342085Y-89455238D01*
X163342085Y-89455238D02*
X163294466Y-89502857D01*
X162389704Y-89407619D02*
X162865894Y-89407619D01*
X162865894Y-89407619D02*
X162913513Y-89883809D01*
X162913513Y-89883809D02*
X162865894Y-89836190D01*
X162865894Y-89836190D02*
X162770656Y-89788571D01*
X162770656Y-89788571D02*
X162532561Y-89788571D01*
X162532561Y-89788571D02*
X162437323Y-89836190D01*
X162437323Y-89836190D02*
X162389704Y-89883809D01*
X162389704Y-89883809D02*
X162342085Y-89979047D01*
X162342085Y-89979047D02*
X162342085Y-90217142D01*
X162342085Y-90217142D02*
X162389704Y-90312380D01*
X162389704Y-90312380D02*
X162437323Y-90360000D01*
X162437323Y-90360000D02*
X162532561Y-90407619D01*
X162532561Y-90407619D02*
X162770656Y-90407619D01*
X162770656Y-90407619D02*
X162865894Y-90360000D01*
X162865894Y-90360000D02*
X162913513Y-90312380D01*
X163091266Y-87823180D02*
X163138885Y-87870800D01*
X163138885Y-87870800D02*
X163281742Y-87918419D01*
X163281742Y-87918419D02*
X163376980Y-87918419D01*
X163376980Y-87918419D02*
X163519837Y-87870800D01*
X163519837Y-87870800D02*
X163615075Y-87775561D01*
X163615075Y-87775561D02*
X163662694Y-87680323D01*
X163662694Y-87680323D02*
X163710313Y-87489847D01*
X163710313Y-87489847D02*
X163710313Y-87346990D01*
X163710313Y-87346990D02*
X163662694Y-87156514D01*
X163662694Y-87156514D02*
X163615075Y-87061276D01*
X163615075Y-87061276D02*
X163519837Y-86966038D01*
X163519837Y-86966038D02*
X163376980Y-86918419D01*
X163376980Y-86918419D02*
X163281742Y-86918419D01*
X163281742Y-86918419D02*
X163138885Y-86966038D01*
X163138885Y-86966038D02*
X163091266Y-87013657D01*
X162234123Y-86918419D02*
X162424599Y-86918419D01*
X162424599Y-86918419D02*
X162519837Y-86966038D01*
X162519837Y-86966038D02*
X162567456Y-87013657D01*
X162567456Y-87013657D02*
X162662694Y-87156514D01*
X162662694Y-87156514D02*
X162710313Y-87346990D01*
X162710313Y-87346990D02*
X162710313Y-87727942D01*
X162710313Y-87727942D02*
X162662694Y-87823180D01*
X162662694Y-87823180D02*
X162615075Y-87870800D01*
X162615075Y-87870800D02*
X162519837Y-87918419D01*
X162519837Y-87918419D02*
X162329361Y-87918419D01*
X162329361Y-87918419D02*
X162234123Y-87870800D01*
X162234123Y-87870800D02*
X162186504Y-87823180D01*
X162186504Y-87823180D02*
X162138885Y-87727942D01*
X162138885Y-87727942D02*
X162138885Y-87489847D01*
X162138885Y-87489847D02*
X162186504Y-87394609D01*
X162186504Y-87394609D02*
X162234123Y-87346990D01*
X162234123Y-87346990D02*
X162329361Y-87299371D01*
X162329361Y-87299371D02*
X162519837Y-87299371D01*
X162519837Y-87299371D02*
X162615075Y-87346990D01*
X162615075Y-87346990D02*
X162662694Y-87394609D01*
X162662694Y-87394609D02*
X162710313Y-87489847D01*
X135405266Y-59298980D02*
X135452885Y-59346600D01*
X135452885Y-59346600D02*
X135595742Y-59394219D01*
X135595742Y-59394219D02*
X135690980Y-59394219D01*
X135690980Y-59394219D02*
X135833837Y-59346600D01*
X135833837Y-59346600D02*
X135929075Y-59251361D01*
X135929075Y-59251361D02*
X135976694Y-59156123D01*
X135976694Y-59156123D02*
X136024313Y-58965647D01*
X136024313Y-58965647D02*
X136024313Y-58822790D01*
X136024313Y-58822790D02*
X135976694Y-58632314D01*
X135976694Y-58632314D02*
X135929075Y-58537076D01*
X135929075Y-58537076D02*
X135833837Y-58441838D01*
X135833837Y-58441838D02*
X135690980Y-58394219D01*
X135690980Y-58394219D02*
X135595742Y-58394219D01*
X135595742Y-58394219D02*
X135452885Y-58441838D01*
X135452885Y-58441838D02*
X135405266Y-58489457D01*
X135071932Y-58394219D02*
X134452885Y-58394219D01*
X134452885Y-58394219D02*
X134786218Y-58775171D01*
X134786218Y-58775171D02*
X134643361Y-58775171D01*
X134643361Y-58775171D02*
X134548123Y-58822790D01*
X134548123Y-58822790D02*
X134500504Y-58870409D01*
X134500504Y-58870409D02*
X134452885Y-58965647D01*
X134452885Y-58965647D02*
X134452885Y-59203742D01*
X134452885Y-59203742D02*
X134500504Y-59298980D01*
X134500504Y-59298980D02*
X134548123Y-59346600D01*
X134548123Y-59346600D02*
X134643361Y-59394219D01*
X134643361Y-59394219D02*
X134929075Y-59394219D01*
X134929075Y-59394219D02*
X135024313Y-59346600D01*
X135024313Y-59346600D02*
X135071932Y-59298980D01*
X135456066Y-63388380D02*
X135503685Y-63436000D01*
X135503685Y-63436000D02*
X135646542Y-63483619D01*
X135646542Y-63483619D02*
X135741780Y-63483619D01*
X135741780Y-63483619D02*
X135884637Y-63436000D01*
X135884637Y-63436000D02*
X135979875Y-63340761D01*
X135979875Y-63340761D02*
X136027494Y-63245523D01*
X136027494Y-63245523D02*
X136075113Y-63055047D01*
X136075113Y-63055047D02*
X136075113Y-62912190D01*
X136075113Y-62912190D02*
X136027494Y-62721714D01*
X136027494Y-62721714D02*
X135979875Y-62626476D01*
X135979875Y-62626476D02*
X135884637Y-62531238D01*
X135884637Y-62531238D02*
X135741780Y-62483619D01*
X135741780Y-62483619D02*
X135646542Y-62483619D01*
X135646542Y-62483619D02*
X135503685Y-62531238D01*
X135503685Y-62531238D02*
X135456066Y-62578857D01*
X134598923Y-62816952D02*
X134598923Y-63483619D01*
X134837018Y-62436000D02*
X135075113Y-63150285D01*
X135075113Y-63150285D02*
X134456066Y-63150285D01*
%TO.C,Q3*%
X161147600Y-98469600D02*
X160817600Y-98229600D01*
X161147600Y-97989600D01*
X161147600Y-98469600D01*
G36*
X161147600Y-98469600D02*
G01*
X160817600Y-98229600D01*
X161147600Y-97989600D01*
X161147600Y-98469600D01*
G37*
X160867600Y-97717100D02*
X160867600Y-97067100D01*
X160867600Y-96417100D02*
X160867600Y-97067100D01*
X157747600Y-97717100D02*
X157747600Y-97067100D01*
X157747600Y-96417100D02*
X157747600Y-97067100D01*
%TO.C,U2*%
X155081800Y-84153600D02*
X154841800Y-83823600D01*
X155321800Y-83823600D01*
X155081800Y-84153600D01*
G36*
X155081800Y-84153600D02*
G01*
X154841800Y-83823600D01*
X155321800Y-83823600D01*
X155081800Y-84153600D01*
G37*
X150041800Y-90873600D02*
X153801800Y-90873600D01*
X150041800Y-89613600D02*
X150041800Y-90873600D01*
X150041800Y-85313600D02*
X150041800Y-84053600D01*
X150041800Y-84053600D02*
X153801800Y-84053600D01*
%TO.C,C1*%
X125078548Y-57893600D02*
X126501052Y-57893600D01*
X125078548Y-56073600D02*
X126501052Y-56073600D01*
D13*
%TO.C,G\u002A\u002A\u002A*%
G36*
X158831836Y-55587792D02*
G01*
X158763666Y-55691461D01*
X158716406Y-55757471D01*
X158652011Y-55837032D01*
X158596910Y-55888549D01*
X158546153Y-55916314D01*
X158494796Y-55924615D01*
X158468751Y-55916119D01*
X158416479Y-55889173D01*
X158347496Y-55848166D01*
X158269806Y-55797615D01*
X158199509Y-55750372D01*
X158136616Y-55708968D01*
X158092518Y-55680930D01*
X158073938Y-55670615D01*
X158072878Y-55689401D01*
X158071846Y-55744944D01*
X158070862Y-55834908D01*
X158069932Y-55956952D01*
X158069065Y-56108737D01*
X158068269Y-56287923D01*
X158067553Y-56492170D01*
X158066925Y-56719139D01*
X158066527Y-56903874D01*
X158066392Y-56966490D01*
X158065964Y-57231884D01*
X158065648Y-57512980D01*
X158065452Y-57807440D01*
X158065385Y-58112923D01*
X158065385Y-60555230D01*
X157539346Y-60555230D01*
X157013306Y-60555230D01*
X156953192Y-60504647D01*
X156893077Y-60454064D01*
X156893077Y-59901326D01*
X156893077Y-59348587D01*
X156950722Y-59324709D01*
X156965994Y-59317367D01*
X157020670Y-59281854D01*
X157074421Y-59236682D01*
X157078393Y-59232784D01*
X157159581Y-59128016D01*
X157207503Y-59012833D01*
X157224148Y-58892914D01*
X157211504Y-58773937D01*
X157171560Y-58661579D01*
X157106305Y-58561519D01*
X157017727Y-58479436D01*
X156907816Y-58421006D01*
X156778558Y-58391910D01*
X156733310Y-58389671D01*
X156598138Y-58406215D01*
X156477271Y-58455301D01*
X156375314Y-58532728D01*
X156296872Y-58634296D01*
X156246552Y-58755806D01*
X156228960Y-58893057D01*
X156240042Y-58979500D01*
X156279543Y-59087543D01*
X156341277Y-59188212D01*
X156418518Y-59270958D01*
X156504537Y-59325231D01*
X156560923Y-59348587D01*
X156560923Y-59872793D01*
X156561205Y-59966186D01*
X156562943Y-60117611D01*
X156566105Y-60251817D01*
X156570503Y-60363342D01*
X156575950Y-60446722D01*
X156582261Y-60496493D01*
X156587879Y-60519464D01*
X156639403Y-60636372D01*
X156723459Y-60738296D01*
X156835157Y-60819000D01*
X156941923Y-60877615D01*
X157505774Y-60877615D01*
X158069624Y-60877615D01*
X158061602Y-61046170D01*
X158056629Y-61121469D01*
X158045184Y-61198889D01*
X158024426Y-61267174D01*
X157990277Y-61343311D01*
X157915197Y-61463917D01*
X157804422Y-61575661D01*
X157669564Y-61657338D01*
X157513039Y-61707105D01*
X157508007Y-61707684D01*
X157467498Y-61709392D01*
X157390626Y-61711014D01*
X157279432Y-61712542D01*
X157135958Y-61713968D01*
X156962246Y-61715284D01*
X156760337Y-61716483D01*
X156532272Y-61717556D01*
X156280094Y-61718496D01*
X156005843Y-61719294D01*
X155711562Y-61719944D01*
X155399292Y-61720436D01*
X155071074Y-61720763D01*
X154728951Y-61720917D01*
X154374964Y-61720890D01*
X154011154Y-61720674D01*
X150591923Y-61717769D01*
X150480784Y-61672855D01*
X150342753Y-61597709D01*
X150227985Y-61493516D01*
X150140937Y-61364358D01*
X150083715Y-61213371D01*
X150058424Y-61043692D01*
X150050377Y-60877615D01*
X150614227Y-60877615D01*
X151178077Y-60877615D01*
X151284844Y-60819000D01*
X151307561Y-60805837D01*
X151414471Y-60720700D01*
X151492828Y-60615507D01*
X151537740Y-60496493D01*
X151541488Y-60472089D01*
X151547321Y-60402194D01*
X151552184Y-60301853D01*
X151555889Y-60176531D01*
X151558249Y-60031690D01*
X151559077Y-59872793D01*
X151559077Y-59348587D01*
X151615464Y-59325231D01*
X151686243Y-59283295D01*
X151765588Y-59204958D01*
X151830653Y-59106773D01*
X151874713Y-58999289D01*
X151891040Y-58893057D01*
X151889274Y-58847948D01*
X151860772Y-58715248D01*
X151801008Y-58599626D01*
X151714587Y-58505281D01*
X151606115Y-58436414D01*
X151480198Y-58397223D01*
X151341442Y-58391910D01*
X151271292Y-58403283D01*
X151147853Y-58450723D01*
X151043940Y-58527542D01*
X150964095Y-58628737D01*
X150912858Y-58749302D01*
X150894770Y-58884233D01*
X150895018Y-58898635D01*
X150916431Y-59021879D01*
X150968375Y-59137695D01*
X151045187Y-59236341D01*
X151141201Y-59308072D01*
X151226923Y-59353548D01*
X151226923Y-59903806D01*
X151226923Y-60454064D01*
X151166809Y-60504647D01*
X151106694Y-60555230D01*
X150580655Y-60555230D01*
X150054616Y-60555230D01*
X150054616Y-58112923D01*
X150054539Y-57810329D01*
X150054313Y-57515752D01*
X150053947Y-57234516D01*
X150053451Y-56968960D01*
X150053140Y-56844278D01*
X150731433Y-56844278D01*
X150740487Y-56973338D01*
X150785205Y-57104144D01*
X150787492Y-57108764D01*
X150864514Y-57222289D01*
X150965345Y-57305612D01*
X151086898Y-57356846D01*
X151226087Y-57374098D01*
X151267338Y-57372614D01*
X151338879Y-57364474D01*
X151391889Y-57351655D01*
X151403002Y-57347618D01*
X151419032Y-57344565D01*
X151436955Y-57347586D01*
X151459988Y-57359377D01*
X151491349Y-57382631D01*
X151534255Y-57420044D01*
X151591924Y-57474309D01*
X151667573Y-57548121D01*
X151764420Y-57644175D01*
X151885682Y-57765164D01*
X151995396Y-57875696D01*
X152110702Y-57994405D01*
X152207309Y-58096856D01*
X152282782Y-58180412D01*
X152334690Y-58242434D01*
X152360601Y-58280284D01*
X152364599Y-58288769D01*
X152370901Y-58304462D01*
X152376389Y-58323461D01*
X152381119Y-58348321D01*
X152385147Y-58381598D01*
X152388529Y-58425846D01*
X152391323Y-58483620D01*
X152393583Y-58557476D01*
X152395366Y-58649969D01*
X152396729Y-58763652D01*
X152397728Y-58901083D01*
X152398419Y-59064815D01*
X152398859Y-59257404D01*
X152399103Y-59481404D01*
X152399209Y-59739372D01*
X152399231Y-60033861D01*
X152399231Y-61708000D01*
X152555539Y-61708000D01*
X152711846Y-61708000D01*
X152711846Y-59999117D01*
X152711846Y-59974440D01*
X152711830Y-59679926D01*
X152711743Y-59421714D01*
X152711527Y-59197230D01*
X152711123Y-59003900D01*
X152710471Y-58839150D01*
X152709513Y-58700408D01*
X152708190Y-58585099D01*
X152706442Y-58490649D01*
X152704212Y-58414485D01*
X152701440Y-58354034D01*
X152698066Y-58306721D01*
X152694033Y-58269973D01*
X152689282Y-58241216D01*
X152683752Y-58217877D01*
X152677386Y-58197381D01*
X152670124Y-58177156D01*
X152668909Y-58173889D01*
X152655316Y-58141380D01*
X152637669Y-58108522D01*
X152613003Y-58071923D01*
X152578355Y-58028190D01*
X152530758Y-57973931D01*
X152467248Y-57905752D01*
X152384861Y-57820261D01*
X152280631Y-57714066D01*
X152151594Y-57583773D01*
X152042410Y-57473692D01*
X151936617Y-57366524D01*
X151853658Y-57281435D01*
X151790947Y-57215401D01*
X151745898Y-57165399D01*
X151715925Y-57128408D01*
X151698444Y-57101402D01*
X151690867Y-57081361D01*
X151690610Y-57065260D01*
X151695086Y-57050078D01*
X151701726Y-57028927D01*
X151713626Y-56945744D01*
X151713288Y-56848060D01*
X151701445Y-56752682D01*
X151678827Y-56676412D01*
X151666151Y-56650598D01*
X151588171Y-56542631D01*
X151484926Y-56460389D01*
X151362912Y-56408010D01*
X151228622Y-56389630D01*
X151111200Y-56402322D01*
X150989047Y-56446727D01*
X150886852Y-56518187D01*
X150807758Y-56611640D01*
X150754904Y-56722024D01*
X150731433Y-56844278D01*
X150053140Y-56844278D01*
X150052833Y-56721425D01*
X150052104Y-56494248D01*
X150051273Y-56289771D01*
X150050350Y-56110333D01*
X150049344Y-55958274D01*
X150048264Y-55835933D01*
X150047121Y-55745649D01*
X150045923Y-55689764D01*
X150044680Y-55670615D01*
X150027839Y-55679612D01*
X149984937Y-55706681D01*
X149922973Y-55747481D01*
X149848732Y-55797615D01*
X149780035Y-55842828D01*
X149709961Y-55885232D01*
X149655655Y-55914011D01*
X149625126Y-55924615D01*
X149592747Y-55921480D01*
X149542347Y-55901506D01*
X149489439Y-55859369D01*
X149429082Y-55790783D01*
X149356335Y-55691461D01*
X149292091Y-55593735D01*
X149247150Y-55509971D01*
X149242974Y-55496705D01*
X151737230Y-55496705D01*
X151738143Y-55613855D01*
X151765961Y-55727977D01*
X151821314Y-55833401D01*
X151904832Y-55924455D01*
X152017145Y-55995467D01*
X152116110Y-56028510D01*
X152249257Y-56041444D01*
X152379672Y-56022313D01*
X152447777Y-56002781D01*
X152892458Y-56447146D01*
X152949827Y-56504743D01*
X153055945Y-56612744D01*
X153152186Y-56712565D01*
X153234953Y-56800364D01*
X153300646Y-56872300D01*
X153345666Y-56924528D01*
X153366416Y-56953208D01*
X153367878Y-56956643D01*
X153372176Y-56972014D01*
X153376018Y-56995853D01*
X153379427Y-57030201D01*
X153382428Y-57077097D01*
X153385047Y-57138583D01*
X153387308Y-57216699D01*
X153389236Y-57313486D01*
X153390856Y-57430984D01*
X153392192Y-57571234D01*
X153393270Y-57736277D01*
X153394113Y-57928153D01*
X153394748Y-58148903D01*
X153395199Y-58400567D01*
X153395490Y-58685186D01*
X153395646Y-59004801D01*
X153395693Y-59361452D01*
X153395693Y-59974440D01*
X153395693Y-61708000D01*
X153561770Y-61708000D01*
X153727846Y-61708000D01*
X153727846Y-59377259D01*
X153727851Y-59247911D01*
X153727876Y-58899352D01*
X154392132Y-58899352D01*
X154392132Y-59015684D01*
X154392154Y-59377259D01*
X154392154Y-61708000D01*
X154558231Y-61708000D01*
X154724308Y-61708000D01*
X154724308Y-59999117D01*
X155408154Y-59999117D01*
X155408154Y-61708000D01*
X155564462Y-61708000D01*
X155720770Y-61708000D01*
X155720770Y-60033861D01*
X155720776Y-59860591D01*
X155720839Y-59587330D01*
X155721017Y-59349128D01*
X155721366Y-59143429D01*
X155721943Y-58967679D01*
X155722803Y-58819323D01*
X155724004Y-58695805D01*
X155725601Y-58594570D01*
X155727650Y-58513063D01*
X155730209Y-58448730D01*
X155733333Y-58399014D01*
X155737078Y-58361362D01*
X155741501Y-58333218D01*
X155746658Y-58312027D01*
X155752606Y-58295234D01*
X155759400Y-58280284D01*
X155779402Y-58250120D01*
X155827348Y-58191757D01*
X155899244Y-58111442D01*
X155992660Y-58011813D01*
X156105162Y-57895507D01*
X156234319Y-57765164D01*
X156317295Y-57682336D01*
X156422073Y-57578115D01*
X156504561Y-57497051D01*
X156567976Y-57436449D01*
X156615535Y-57393615D01*
X156650456Y-57365854D01*
X156675957Y-57350472D01*
X156695255Y-57344775D01*
X156711567Y-57346067D01*
X156728111Y-57351655D01*
X156802767Y-57368645D01*
X156899448Y-57373025D01*
X156997352Y-57364154D01*
X157078477Y-57342503D01*
X157124275Y-57320846D01*
X157234407Y-57242806D01*
X157317260Y-57143331D01*
X157370653Y-57028371D01*
X157392406Y-56903874D01*
X157380338Y-56775792D01*
X157332268Y-56650073D01*
X157257304Y-56543546D01*
X157154926Y-56458670D01*
X157032415Y-56407049D01*
X156891379Y-56389630D01*
X156862195Y-56390482D01*
X156729966Y-56416418D01*
X156611389Y-56475476D01*
X156512960Y-56563520D01*
X156441174Y-56676412D01*
X156432668Y-56698125D01*
X156413479Y-56782464D01*
X156405303Y-56880439D01*
X156408872Y-56975245D01*
X156424915Y-57050078D01*
X156428944Y-57062932D01*
X156429586Y-57078693D01*
X156423309Y-57097928D01*
X156407526Y-57123661D01*
X156379651Y-57158913D01*
X156337099Y-57206708D01*
X156277285Y-57270068D01*
X156197622Y-57352017D01*
X156095524Y-57455578D01*
X155968406Y-57583773D01*
X155954698Y-57597584D01*
X155828202Y-57725387D01*
X155726224Y-57829422D01*
X155645801Y-57913082D01*
X155583968Y-57979759D01*
X155537759Y-58032847D01*
X155504211Y-58075737D01*
X155480357Y-58111824D01*
X155463234Y-58144499D01*
X155449876Y-58177156D01*
X155449274Y-58178790D01*
X155442084Y-58198943D01*
X155435786Y-58219569D01*
X155430319Y-58243240D01*
X155425626Y-58272529D01*
X155421647Y-58310012D01*
X155418323Y-58358261D01*
X155415595Y-58419851D01*
X155413405Y-58497354D01*
X155411693Y-58593344D01*
X155410400Y-58710396D01*
X155409469Y-58851083D01*
X155408838Y-59017978D01*
X155408451Y-59213655D01*
X155408247Y-59440688D01*
X155408167Y-59701651D01*
X155408154Y-59999117D01*
X154724308Y-59999117D01*
X154724308Y-59361452D01*
X154724312Y-59244230D01*
X154724391Y-58899543D01*
X154724588Y-58591246D01*
X154724927Y-58317297D01*
X154725433Y-58075656D01*
X154726131Y-57864283D01*
X154727046Y-57681136D01*
X154728203Y-57524175D01*
X154729626Y-57391360D01*
X154731341Y-57280650D01*
X154733372Y-57190005D01*
X154735744Y-57117383D01*
X154738481Y-57060744D01*
X154741609Y-57018048D01*
X154745153Y-56987254D01*
X154749137Y-56966321D01*
X154753585Y-56953208D01*
X154761441Y-56941046D01*
X154795611Y-56899323D01*
X154852144Y-56836082D01*
X154927454Y-56755152D01*
X155017956Y-56660360D01*
X155120063Y-56555534D01*
X155230190Y-56444501D01*
X155677517Y-55997491D01*
X155741136Y-56019668D01*
X155805695Y-56036062D01*
X155929758Y-56039891D01*
X156054381Y-56012941D01*
X156169023Y-55958071D01*
X156263146Y-55878138D01*
X156264735Y-55876322D01*
X156334665Y-55777118D01*
X156373243Y-55670897D01*
X156385077Y-55545065D01*
X156377666Y-55457668D01*
X156339567Y-55335588D01*
X156273906Y-55231598D01*
X156186115Y-55148490D01*
X156081627Y-55089060D01*
X155965875Y-55056102D01*
X155844291Y-55052411D01*
X155722308Y-55080780D01*
X155605358Y-55144005D01*
X155545540Y-55194896D01*
X155465138Y-55298502D01*
X155421945Y-55399045D01*
X155414354Y-55416715D01*
X155396029Y-55541829D01*
X155413001Y-55666134D01*
X155441782Y-55764316D01*
X155014022Y-56191273D01*
X154978162Y-56227173D01*
X154869640Y-56337101D01*
X154768443Y-56441454D01*
X154678684Y-56535873D01*
X154604476Y-56615997D01*
X154549930Y-56677467D01*
X154519159Y-56715923D01*
X154512525Y-56725503D01*
X154494647Y-56751027D01*
X154478630Y-56774988D01*
X154464372Y-56799523D01*
X154451770Y-56826772D01*
X154440723Y-56858874D01*
X154431129Y-56897968D01*
X154422885Y-56946192D01*
X154415889Y-57005686D01*
X154410039Y-57078589D01*
X154405234Y-57167040D01*
X154401371Y-57273178D01*
X154398348Y-57399141D01*
X154396062Y-57547070D01*
X154394413Y-57719102D01*
X154393298Y-57917377D01*
X154392614Y-58144033D01*
X154392260Y-58401211D01*
X154392133Y-58691048D01*
X154392132Y-58899352D01*
X153727876Y-58899352D01*
X153727843Y-58586992D01*
X153727650Y-58308690D01*
X153727193Y-58062309D01*
X153726371Y-57845709D01*
X153725083Y-57656751D01*
X153723225Y-57493297D01*
X153720696Y-57353206D01*
X153717394Y-57234340D01*
X153713217Y-57134561D01*
X153708062Y-57051729D01*
X153701828Y-56983705D01*
X153694412Y-56928349D01*
X153685712Y-56883525D01*
X153675627Y-56847091D01*
X153664054Y-56816909D01*
X153650891Y-56790840D01*
X153636036Y-56766746D01*
X153619387Y-56742486D01*
X153600841Y-56715923D01*
X153593772Y-56706308D01*
X153554889Y-56659958D01*
X153493556Y-56592000D01*
X153413887Y-56506792D01*
X153319993Y-56408696D01*
X153215986Y-56302069D01*
X153105978Y-56191273D01*
X152678219Y-55764316D01*
X152707000Y-55666134D01*
X152712210Y-55646786D01*
X152724576Y-55522448D01*
X152703605Y-55405912D01*
X153566536Y-55405912D01*
X153590936Y-55530977D01*
X153643901Y-55646403D01*
X153722567Y-55744208D01*
X153824072Y-55816410D01*
X153854154Y-55830319D01*
X153962502Y-55863839D01*
X154073463Y-55877111D01*
X154170745Y-55867723D01*
X154172424Y-55867294D01*
X154296260Y-55817035D01*
X154399234Y-55738875D01*
X154478499Y-55639019D01*
X154531207Y-55523673D01*
X154554512Y-55399045D01*
X154545565Y-55271338D01*
X154501521Y-55146760D01*
X154493919Y-55133661D01*
X154449049Y-55076665D01*
X154387206Y-55014694D01*
X154321266Y-54959821D01*
X154264105Y-54924120D01*
X154216308Y-54902343D01*
X154216308Y-53949202D01*
X154216308Y-52996062D01*
X154172884Y-52965646D01*
X154157028Y-52956315D01*
X154087517Y-52937741D01*
X154010953Y-52940851D01*
X153947117Y-52965646D01*
X153903693Y-52996062D01*
X153903693Y-53949968D01*
X153903693Y-54903874D01*
X153848012Y-54926938D01*
X153831289Y-54935025D01*
X153766693Y-54981287D01*
X153699164Y-55047278D01*
X153639831Y-55121159D01*
X153599818Y-55191087D01*
X153573561Y-55279189D01*
X153566536Y-55405912D01*
X152703605Y-55405912D01*
X152703144Y-55403352D01*
X152652484Y-55294205D01*
X152577170Y-55199715D01*
X152481773Y-55124591D01*
X152370866Y-55073541D01*
X152249020Y-55051273D01*
X152120808Y-55062495D01*
X152114178Y-55064046D01*
X151990020Y-55111261D01*
X151889617Y-55183805D01*
X151813597Y-55276009D01*
X151762591Y-55382199D01*
X151737230Y-55496705D01*
X149242974Y-55496705D01*
X149226585Y-55444646D01*
X149228887Y-55392787D01*
X149252548Y-55349425D01*
X149255778Y-55346519D01*
X149285951Y-55323786D01*
X149345372Y-55280940D01*
X149431853Y-55219496D01*
X149543205Y-55140970D01*
X149677239Y-55046876D01*
X149831768Y-54938729D01*
X150004603Y-54818044D01*
X150193556Y-54686335D01*
X150396438Y-54545117D01*
X150611062Y-54395906D01*
X150835238Y-54240215D01*
X151066779Y-54079560D01*
X151303497Y-53915455D01*
X151543202Y-53749416D01*
X151783707Y-53582956D01*
X152022824Y-53417591D01*
X152258364Y-53254836D01*
X152488138Y-53096205D01*
X152709959Y-52943214D01*
X152921638Y-52797376D01*
X153120987Y-52660207D01*
X153305818Y-52533222D01*
X153473942Y-52417935D01*
X153623170Y-52315861D01*
X153751316Y-52228515D01*
X153856190Y-52157411D01*
X153935604Y-52104066D01*
X153987369Y-52069992D01*
X154009298Y-52056705D01*
X154038299Y-52049003D01*
X154108912Y-52056025D01*
X154110442Y-52056761D01*
X154137447Y-52073670D01*
X154193955Y-52111103D01*
X154277768Y-52167541D01*
X154386691Y-52241466D01*
X154518528Y-52331359D01*
X154671081Y-52435702D01*
X154842154Y-52552976D01*
X155029551Y-52681663D01*
X155231076Y-52820245D01*
X155444533Y-52967201D01*
X155667724Y-53121015D01*
X155898454Y-53280167D01*
X156134525Y-53443140D01*
X156373743Y-53608414D01*
X156613909Y-53774471D01*
X156852829Y-53939792D01*
X157088305Y-54102859D01*
X157318142Y-54262154D01*
X157540142Y-54416158D01*
X157752109Y-54563351D01*
X157951848Y-54702217D01*
X158137161Y-54831236D01*
X158305852Y-54948889D01*
X158455726Y-55053659D01*
X158584584Y-55144027D01*
X158690232Y-55218473D01*
X158770473Y-55275481D01*
X158823110Y-55313530D01*
X158845947Y-55331103D01*
X158863730Y-55349747D01*
X158889368Y-55393739D01*
X158893434Y-55444419D01*
X158874675Y-55507273D01*
X158854568Y-55545065D01*
X158831836Y-55587792D01*
G37*
D12*
%TO.C,C2*%
X125080348Y-61754400D02*
X126502852Y-61754400D01*
X125080348Y-59934400D02*
X126502852Y-59934400D01*
%TO.C,Q2*%
X156169200Y-98471900D02*
X155839200Y-98231900D01*
X156169200Y-97991900D01*
X156169200Y-98471900D01*
G36*
X156169200Y-98471900D02*
G01*
X155839200Y-98231900D01*
X156169200Y-97991900D01*
X156169200Y-98471900D01*
G37*
X155889200Y-97719400D02*
X155889200Y-97069400D01*
X155889200Y-96419400D02*
X155889200Y-97069400D01*
X152769200Y-97719400D02*
X152769200Y-97069400D01*
X152769200Y-96419400D02*
X152769200Y-97069400D01*
%TO.C,Q1*%
X151150200Y-98492700D02*
X150820200Y-98252700D01*
X151150200Y-98012700D01*
X151150200Y-98492700D01*
G36*
X151150200Y-98492700D02*
G01*
X150820200Y-98252700D01*
X151150200Y-98012700D01*
X151150200Y-98492700D01*
G37*
X150870200Y-97740200D02*
X150870200Y-97090200D01*
X150870200Y-96440200D02*
X150870200Y-97090200D01*
X147750200Y-97740200D02*
X147750200Y-97090200D01*
X147750200Y-96440200D02*
X147750200Y-97090200D01*
%TO.C,R1*%
X131393664Y-57893600D02*
X129939536Y-57893600D01*
X131393664Y-56073600D02*
X129939536Y-56073600D01*
%TO.C,R2*%
X134562336Y-57893600D02*
X136016464Y-57893600D01*
X134562336Y-56073600D02*
X136016464Y-56073600D01*
%TO.C,C5*%
X159951052Y-90837400D02*
X158528548Y-90837400D01*
X159951052Y-89017400D02*
X158528548Y-89017400D01*
%TO.C,C6*%
X159952852Y-88348200D02*
X158530348Y-88348200D01*
X159952852Y-86528200D02*
X158530348Y-86528200D01*
%TO.C,C3*%
X136024252Y-61678200D02*
X134601748Y-61678200D01*
X136024252Y-59858200D02*
X134601748Y-59858200D01*
%TO.C,C4*%
X136026052Y-65615200D02*
X134603548Y-65615200D01*
X136026052Y-63795200D02*
X134603548Y-63795200D01*
%TD*%
D14*
X112150000Y-46750000D02*
X184150000Y-46750000D01*
X184150000Y-143750000D01*
X112150000Y-143750000D01*
X112150000Y-46750000D01*
M02*
