%TF.GenerationSoftware,KiCad,Pcbnew,8.0.3-8.0.3-0~ubuntu23.10.1*%
%TF.CreationDate,2024-07-30T14:16:21+05:00*%
%TF.ProjectId,IOTV,494f5456-2e6b-4696-9361-645f70636258,3*%
%TF.SameCoordinates,Original*%
%TF.FileFunction,Soldermask,Bot*%
%TF.FilePolarity,Negative*%
%FSLAX46Y46*%
G04 Gerber Fmt 4.6, Leading zero omitted, Abs format (unit mm)*
G04 Created by KiCad (PCBNEW 8.0.3-8.0.3-0~ubuntu23.10.1) date 2024-07-30 14:16:21*
%MOMM*%
%LPD*%
G01*
G04 APERTURE LIST*
G04 Aperture macros list*
%AMRoundRect*
0 Rectangle with rounded corners*
0 $1 Rounding radius*
0 $2 $3 $4 $5 $6 $7 $8 $9 X,Y pos of 4 corners*
0 Add a 4 corners polygon primitive as box body*
4,1,4,$2,$3,$4,$5,$6,$7,$8,$9,$2,$3,0*
0 Add four circle primitives for the rounded corners*
1,1,$1+$1,$2,$3*
1,1,$1+$1,$4,$5*
1,1,$1+$1,$6,$7*
1,1,$1+$1,$8,$9*
0 Add four rect primitives between the rounded corners*
20,1,$1+$1,$2,$3,$4,$5,0*
20,1,$1+$1,$4,$5,$6,$7,0*
20,1,$1+$1,$6,$7,$8,$9,0*
20,1,$1+$1,$8,$9,$2,$3,0*%
G04 Aperture macros list end*
%ADD10C,5.000000*%
%ADD11O,1.700000X1.700000*%
%ADD12R,1.700000X1.700000*%
%ADD13O,1.700000X2.000000*%
%ADD14R,1.700000X2.000000*%
%ADD15C,3.000000*%
%ADD16C,1.600000*%
%ADD17R,1.600000X1.600000*%
%ADD18R,3.000000X3.000000*%
%ADD19C,2.600000*%
%ADD20R,2.600000X2.600000*%
%ADD21C,1.712000*%
%ADD22RoundRect,0.102000X0.754000X-0.754000X0.754000X0.754000X-0.754000X0.754000X-0.754000X-0.754000X0*%
%ADD23C,2.000000*%
%ADD24RoundRect,0.150000X0.150000X-0.587500X0.150000X0.587500X-0.150000X0.587500X-0.150000X-0.587500X0*%
%ADD25RoundRect,0.375000X0.625000X0.375000X-0.625000X0.375000X-0.625000X-0.375000X0.625000X-0.375000X0*%
%ADD26RoundRect,0.500000X0.500000X1.400000X-0.500000X1.400000X-0.500000X-1.400000X0.500000X-1.400000X0*%
%ADD27RoundRect,0.250000X0.325000X0.650000X-0.325000X0.650000X-0.325000X-0.650000X0.325000X-0.650000X0*%
%ADD28RoundRect,0.250000X-0.312500X-0.625000X0.312500X-0.625000X0.312500X0.625000X-0.312500X0.625000X0*%
%ADD29RoundRect,0.250000X0.312500X0.625000X-0.312500X0.625000X-0.312500X-0.625000X0.312500X-0.625000X0*%
%ADD30RoundRect,0.250000X-0.325000X-0.650000X0.325000X-0.650000X0.325000X0.650000X-0.325000X0.650000X0*%
%TA.AperFunction,Profile*%
%ADD31C,0.150000*%
%TD*%
G04 APERTURE END LIST*
D10*
%TO.C,REF\u002A\u002A*%
X119566800Y-104001200D03*
%TD*%
%TO.C,REF\u002A\u002A*%
X174786400Y-116244000D03*
%TD*%
D11*
%TO.C,J6*%
X171845000Y-57136000D03*
D12*
X169305000Y-57136000D03*
%TD*%
D13*
%TO.C,PS1*%
X171658000Y-97934000D03*
X171658000Y-79934000D03*
X138058000Y-91934000D03*
D14*
X138058000Y-85934000D03*
%TD*%
D11*
%TO.C,J5*%
X171845000Y-53326000D03*
D12*
X169305000Y-53326000D03*
%TD*%
D15*
%TO.C,F3*%
X157590600Y-104917800D03*
X157590600Y-127417800D03*
%TD*%
D16*
%TO.C,C8*%
X179278400Y-136434800D03*
D17*
X174278400Y-136434800D03*
%TD*%
D15*
%TO.C,FL1*%
X129803000Y-77043250D03*
X129803000Y-86949250D03*
X116849000Y-86949250D03*
D18*
X116849000Y-77043250D03*
%TD*%
D19*
%TO.C,J3*%
X156650800Y-135876000D03*
D20*
X151650800Y-135876000D03*
%TD*%
D19*
%TO.C,J2*%
X145220800Y-135876000D03*
D20*
X140220800Y-135876000D03*
%TD*%
D15*
%TO.C,F1*%
X119566800Y-92751200D03*
X119566800Y-115251200D03*
%TD*%
%TO.C,F2*%
X140598000Y-104740000D03*
X140598000Y-127240000D03*
%TD*%
D21*
%TO.C,K2*%
X147760800Y-106462800D03*
X147760800Y-109002800D03*
X147760800Y-119162800D03*
D22*
X147760800Y-126782800D03*
%TD*%
D19*
%TO.C,J4*%
X168000800Y-135876000D03*
D20*
X163000800Y-135876000D03*
%TD*%
D23*
%TO.C,RVe1*%
X130916800Y-133472800D03*
X120916800Y-131522800D03*
%TD*%
D21*
%TO.C,K1*%
X130565000Y-106285000D03*
X130565000Y-108825000D03*
X130565000Y-118985000D03*
D22*
X130565000Y-126605000D03*
%TD*%
D15*
%TO.C,F4*%
X174786400Y-104994000D03*
X174786400Y-127494000D03*
%TD*%
D23*
%TO.C,C7*%
X135082400Y-138289000D03*
X125082400Y-138289000D03*
%TD*%
D19*
%TO.C,J1*%
X119642800Y-125930000D03*
D20*
X119642800Y-120930000D03*
%TD*%
D11*
%TO.C,J_I2C1*%
X176163000Y-69328000D03*
X173623000Y-69328000D03*
X171083000Y-69328000D03*
X168543000Y-69328000D03*
D12*
X166003000Y-69328000D03*
%TD*%
D11*
%TO.C,J_UART1*%
X162188000Y-69328000D03*
X159648000Y-69328000D03*
X157108000Y-69328000D03*
X154568000Y-69328000D03*
D12*
X152028000Y-69328000D03*
%TD*%
D11*
%TO.C,J7*%
X171840000Y-60946000D03*
D12*
X169300000Y-60946000D03*
%TD*%
D21*
%TO.C,K3*%
X164880400Y-106564400D03*
X164880400Y-109104400D03*
X164880400Y-119264400D03*
D22*
X164880400Y-126884400D03*
%TD*%
D24*
%TO.C,Q3*%
X159307600Y-96129600D03*
X158357600Y-98004600D03*
X160257600Y-98004600D03*
%TD*%
D25*
%TO.C,U2*%
X155101800Y-89763600D03*
D26*
X148801800Y-87463600D03*
D25*
X155101800Y-87463600D03*
X155101800Y-85163600D03*
%TD*%
D27*
%TO.C,C1*%
X124314800Y-56983600D03*
X127264800Y-56983600D03*
%TD*%
%TO.C,C2*%
X124316600Y-60844400D03*
X127266600Y-60844400D03*
%TD*%
D24*
%TO.C,Q2*%
X154329200Y-96131900D03*
X153379200Y-98006900D03*
X155279200Y-98006900D03*
%TD*%
%TO.C,Q1*%
X149310200Y-96152700D03*
X148360200Y-98027700D03*
X150260200Y-98027700D03*
%TD*%
D28*
%TO.C,R1*%
X132129100Y-56983600D03*
X129204100Y-56983600D03*
%TD*%
D29*
%TO.C,R2*%
X133826900Y-56983600D03*
X136751900Y-56983600D03*
%TD*%
D30*
%TO.C,C5*%
X160714800Y-89927400D03*
X157764800Y-89927400D03*
%TD*%
%TO.C,C6*%
X160716600Y-87438200D03*
X157766600Y-87438200D03*
%TD*%
%TO.C,C3*%
X136788000Y-60768200D03*
X133838000Y-60768200D03*
%TD*%
%TO.C,C4*%
X136789800Y-64705200D03*
X133839800Y-64705200D03*
%TD*%
D31*
X112150000Y-46750000D02*
X184150000Y-46750000D01*
X184150000Y-143750000D01*
X112150000Y-143750000D01*
X112150000Y-46750000D01*
M02*
