%TF.GenerationSoftware,KiCad,Pcbnew,8.0.3-8.0.3-0~ubuntu23.10.1*%
%TF.CreationDate,2024-07-30T14:16:20+05:00*%
%TF.ProjectId,IOTV,494f5456-2e6b-4696-9361-645f70636258,3*%
%TF.SameCoordinates,Original*%
%TF.FileFunction,Copper,L2,Bot*%
%TF.FilePolarity,Positive*%
%FSLAX46Y46*%
G04 Gerber Fmt 4.6, Leading zero omitted, Abs format (unit mm)*
G04 Created by KiCad (PCBNEW 8.0.3-8.0.3-0~ubuntu23.10.1) date 2024-07-30 14:16:20*
%MOMM*%
%LPD*%
G01*
G04 APERTURE LIST*
G04 Aperture macros list*
%AMRoundRect*
0 Rectangle with rounded corners*
0 $1 Rounding radius*
0 $2 $3 $4 $5 $6 $7 $8 $9 X,Y pos of 4 corners*
0 Add a 4 corners polygon primitive as box body*
4,1,4,$2,$3,$4,$5,$6,$7,$8,$9,$2,$3,0*
0 Add four circle primitives for the rounded corners*
1,1,$1+$1,$2,$3*
1,1,$1+$1,$4,$5*
1,1,$1+$1,$6,$7*
1,1,$1+$1,$8,$9*
0 Add four rect primitives between the rounded corners*
20,1,$1+$1,$2,$3,$4,$5,0*
20,1,$1+$1,$4,$5,$6,$7,0*
20,1,$1+$1,$6,$7,$8,$9,0*
20,1,$1+$1,$8,$9,$2,$3,0*%
G04 Aperture macros list end*
%TA.AperFunction,ComponentPad*%
%ADD10C,5.000000*%
%TD*%
%TA.AperFunction,ComponentPad*%
%ADD11O,1.700000X1.700000*%
%TD*%
%TA.AperFunction,ComponentPad*%
%ADD12R,1.700000X1.700000*%
%TD*%
%TA.AperFunction,ComponentPad*%
%ADD13O,1.700000X2.000000*%
%TD*%
%TA.AperFunction,ComponentPad*%
%ADD14R,1.700000X2.000000*%
%TD*%
%TA.AperFunction,ComponentPad*%
%ADD15C,3.000000*%
%TD*%
%TA.AperFunction,ComponentPad*%
%ADD16C,1.600000*%
%TD*%
%TA.AperFunction,ComponentPad*%
%ADD17R,1.600000X1.600000*%
%TD*%
%TA.AperFunction,ComponentPad*%
%ADD18R,3.000000X3.000000*%
%TD*%
%TA.AperFunction,ComponentPad*%
%ADD19C,2.600000*%
%TD*%
%TA.AperFunction,ComponentPad*%
%ADD20R,2.600000X2.600000*%
%TD*%
%TA.AperFunction,ComponentPad*%
%ADD21C,1.508000*%
%TD*%
%TA.AperFunction,ComponentPad*%
%ADD22R,1.508000X1.508000*%
%TD*%
%TA.AperFunction,ComponentPad*%
%ADD23C,2.000000*%
%TD*%
%TA.AperFunction,SMDPad,CuDef*%
%ADD24RoundRect,0.150000X0.150000X-0.587500X0.150000X0.587500X-0.150000X0.587500X-0.150000X-0.587500X0*%
%TD*%
%TA.AperFunction,SMDPad,CuDef*%
%ADD25RoundRect,0.375000X0.625000X0.375000X-0.625000X0.375000X-0.625000X-0.375000X0.625000X-0.375000X0*%
%TD*%
%TA.AperFunction,SMDPad,CuDef*%
%ADD26RoundRect,0.500000X0.500000X1.400000X-0.500000X1.400000X-0.500000X-1.400000X0.500000X-1.400000X0*%
%TD*%
%TA.AperFunction,SMDPad,CuDef*%
%ADD27RoundRect,0.250000X0.325000X0.650000X-0.325000X0.650000X-0.325000X-0.650000X0.325000X-0.650000X0*%
%TD*%
%TA.AperFunction,SMDPad,CuDef*%
%ADD28RoundRect,0.250000X-0.312500X-0.625000X0.312500X-0.625000X0.312500X0.625000X-0.312500X0.625000X0*%
%TD*%
%TA.AperFunction,SMDPad,CuDef*%
%ADD29RoundRect,0.250000X0.312500X0.625000X-0.312500X0.625000X-0.312500X-0.625000X0.312500X-0.625000X0*%
%TD*%
%TA.AperFunction,SMDPad,CuDef*%
%ADD30RoundRect,0.250000X-0.325000X-0.650000X0.325000X-0.650000X0.325000X0.650000X-0.325000X0.650000X0*%
%TD*%
%TA.AperFunction,ViaPad*%
%ADD31C,0.800000*%
%TD*%
%TA.AperFunction,Conductor*%
%ADD32C,0.300000*%
%TD*%
%TA.AperFunction,Conductor*%
%ADD33C,3.600000*%
%TD*%
%TA.AperFunction,Conductor*%
%ADD34C,0.800000*%
%TD*%
%TA.AperFunction,Profile*%
%ADD35C,0.150000*%
%TD*%
G04 APERTURE END LIST*
D10*
%TO.P,REF\u002A\u002A,1*%
%TO.N,N/C*%
X119566800Y-104001200D03*
%TD*%
%TO.P,REF\u002A\u002A,1*%
%TO.N,N/C*%
X174786400Y-116244000D03*
%TD*%
D11*
%TO.P,J6,2*%
%TO.N,GND*%
X171845000Y-57136000D03*
D12*
%TO.P,J6,1*%
%TO.N,GPIO14*%
X169305000Y-57136000D03*
%TD*%
D13*
%TO.P,PS1,4,+VO*%
%TO.N,+5V*%
X171658000Y-97934000D03*
%TO.P,PS1,3,-VO*%
%TO.N,GND*%
X171658000Y-79934000D03*
%TO.P,PS1,2,AC2*%
%TO.N,FL1-PS1(AC2)*%
X138058000Y-91934000D03*
D14*
%TO.P,PS1,1,AC1*%
%TO.N,FL1-PS1(AC1)*%
X138058000Y-85934000D03*
%TD*%
D11*
%TO.P,J5,2*%
%TO.N,GND*%
X171845000Y-53326000D03*
D12*
%TO.P,J5,1*%
%TO.N,GPIO12*%
X169305000Y-53326000D03*
%TD*%
D15*
%TO.P,F3,2*%
%TO.N,Net-(K2-L1)*%
X157590600Y-104917800D03*
%TO.P,F3,1*%
%TO.N,~220V_COM_2*%
X157590600Y-127417800D03*
%TD*%
D16*
%TO.P,C8,2*%
%TO.N,GND*%
X179278400Y-136434800D03*
D17*
%TO.P,C8,1*%
%TO.N,+5V*%
X174278400Y-136434800D03*
%TD*%
D15*
%TO.P,FL1,4,4*%
%TO.N,FL1-PS1(AC2)*%
X129803000Y-77043250D03*
%TO.P,FL1,3,3*%
%TO.N,~220V_NC*%
X129803000Y-86949250D03*
%TO.P,FL1,2,2*%
%TO.N,J1-FL1(2)*%
X116849000Y-86949250D03*
D18*
%TO.P,FL1,1,1*%
%TO.N,FL1-PS1(AC1)*%
X116849000Y-77043250D03*
%TD*%
D19*
%TO.P,J3,2,Pin_2*%
%TO.N,~220V_COM_2*%
X156650800Y-135876000D03*
D20*
%TO.P,J3,1,Pin_1*%
%TO.N,~220V_NC*%
X151650800Y-135876000D03*
%TD*%
D19*
%TO.P,J2,2,Pin_2*%
%TO.N,~220V_COM_1*%
X145220800Y-135876000D03*
D20*
%TO.P,J2,1,Pin_1*%
%TO.N,~220V_NC*%
X140220800Y-135876000D03*
%TD*%
D15*
%TO.P,F1,2*%
%TO.N,J1-FL1(2)*%
X119566800Y-92751200D03*
%TO.P,F1,1*%
%TO.N,J1{slash}F1{slash}Relay*%
X119566800Y-115251200D03*
%TD*%
%TO.P,F2,2*%
%TO.N,Net-(K1-L1)*%
X140598000Y-104740000D03*
%TO.P,F2,1*%
%TO.N,~220V_COM_1*%
X140598000Y-127240000D03*
%TD*%
D21*
%TO.P,K2,4,-*%
%TO.N,GND*%
X147760800Y-106462800D03*
%TO.P,K2,3,+*%
%TO.N,Net-(K2-+)*%
X147760800Y-109002800D03*
%TO.P,K2,2,L2*%
%TO.N,J1{slash}F1{slash}Relay*%
X147760800Y-119162800D03*
D22*
%TO.P,K2,1,L1*%
%TO.N,Net-(K2-L1)*%
X147760800Y-126782800D03*
%TD*%
D19*
%TO.P,J4,2,Pin_2*%
%TO.N,~220V_COM_3*%
X168000800Y-135876000D03*
D20*
%TO.P,J4,1,Pin_1*%
%TO.N,~220V_NC*%
X163000800Y-135876000D03*
%TD*%
D23*
%TO.P,RVe1,2*%
%TO.N,~220V_NC*%
X130916800Y-133472800D03*
%TO.P,RVe1,1*%
%TO.N,J1-FL1(2)*%
X120916800Y-131522800D03*
%TD*%
D21*
%TO.P,K1,4,-*%
%TO.N,GND*%
X130565000Y-106285000D03*
%TO.P,K1,3,+*%
%TO.N,Net-(K1-+)*%
X130565000Y-108825000D03*
%TO.P,K1,2,L2*%
%TO.N,J1{slash}F1{slash}Relay*%
X130565000Y-118985000D03*
D22*
%TO.P,K1,1,L1*%
%TO.N,Net-(K1-L1)*%
X130565000Y-126605000D03*
%TD*%
D15*
%TO.P,F4,2*%
%TO.N,Net-(K3-L1)*%
X174786400Y-104994000D03*
%TO.P,F4,1*%
%TO.N,~220V_COM_3*%
X174786400Y-127494000D03*
%TD*%
D23*
%TO.P,C7,2*%
%TO.N,~220V_NC*%
X135082400Y-138289000D03*
%TO.P,C7,1*%
%TO.N,J1-FL1(2)*%
X125082400Y-138289000D03*
%TD*%
D19*
%TO.P,J1,2,Pin_2*%
%TO.N,~220V_NC*%
X119642800Y-125930000D03*
D20*
%TO.P,J1,1,Pin_1*%
%TO.N,J1{slash}F1{slash}Relay*%
X119642800Y-120930000D03*
%TD*%
D11*
%TO.P,J_I2C1,5,Pin_5*%
%TO.N,+5V*%
X176163000Y-69328000D03*
%TO.P,J_I2C1,4,Pin_4*%
%TO.N,SCL*%
X173623000Y-69328000D03*
%TO.P,J_I2C1,3,Pin_3*%
%TO.N,SDA*%
X171083000Y-69328000D03*
%TO.P,J_I2C1,2,Pin_2*%
%TO.N,+3.3V*%
X168543000Y-69328000D03*
D12*
%TO.P,J_I2C1,1,Pin_1*%
%TO.N,GND*%
X166003000Y-69328000D03*
%TD*%
D11*
%TO.P,J_UART1,5,Pin_5*%
%TO.N,+5V*%
X162188000Y-69328000D03*
%TO.P,J_UART1,4,Pin_4*%
%TO.N,+3.3V*%
X159648000Y-69328000D03*
%TO.P,J_UART1,3,Pin_3*%
%TO.N,U0RX*%
X157108000Y-69328000D03*
%TO.P,J_UART1,2,Pin_2*%
%TO.N,U0TX*%
X154568000Y-69328000D03*
D12*
%TO.P,J_UART1,1,Pin_1*%
%TO.N,GND*%
X152028000Y-69328000D03*
%TD*%
D11*
%TO.P,J7,2*%
%TO.N,GND*%
X171840000Y-60946000D03*
D12*
%TO.P,J7,1*%
%TO.N,GPIO27*%
X169300000Y-60946000D03*
%TD*%
D21*
%TO.P,K3,4,-*%
%TO.N,GND*%
X164880400Y-106564400D03*
%TO.P,K3,3,+*%
%TO.N,Net-(K3-+)*%
X164880400Y-109104400D03*
%TO.P,K3,2,L2*%
%TO.N,J1{slash}F1{slash}Relay*%
X164880400Y-119264400D03*
D22*
%TO.P,K3,1,L1*%
%TO.N,Net-(K3-L1)*%
X164880400Y-126884400D03*
%TD*%
D24*
%TO.P,Q3,3,C*%
%TO.N,+5V*%
X159307600Y-96129600D03*
%TO.P,Q3,2,E*%
%TO.N,Net-(K3-+)*%
X158357600Y-98004600D03*
%TO.P,Q3,1,B*%
%TO.N,GPIO25*%
X160257600Y-98004600D03*
%TD*%
D25*
%TO.P,U2,3,VI*%
%TO.N,+5V*%
X155101800Y-89763600D03*
D26*
%TO.P,U2,2,VO*%
%TO.N,+3.3V*%
X148801800Y-87463600D03*
D25*
X155101800Y-87463600D03*
%TO.P,U2,1,GND*%
%TO.N,GND*%
X155101800Y-85163600D03*
%TD*%
D27*
%TO.P,C1,2*%
%TO.N,GND*%
X124314800Y-56983600D03*
%TO.P,C1,1*%
%TO.N,+3.3V*%
X127264800Y-56983600D03*
%TD*%
%TO.P,C2,2*%
%TO.N,GND*%
X124316600Y-60844400D03*
%TO.P,C2,1*%
%TO.N,+3.3V*%
X127266600Y-60844400D03*
%TD*%
D24*
%TO.P,Q2,3,C*%
%TO.N,+5V*%
X154329200Y-96131900D03*
%TO.P,Q2,2,E*%
%TO.N,Net-(K2-+)*%
X153379200Y-98006900D03*
%TO.P,Q2,1,B*%
%TO.N,GPIO33*%
X155279200Y-98006900D03*
%TD*%
%TO.P,Q1,3,C*%
%TO.N,+5V*%
X149310200Y-96152700D03*
%TO.P,Q1,2,E*%
%TO.N,Net-(K1-+)*%
X148360200Y-98027700D03*
%TO.P,Q1,1,B*%
%TO.N,GPIO32*%
X150260200Y-98027700D03*
%TD*%
D28*
%TO.P,R1,2*%
%TO.N,EN*%
X132129100Y-56983600D03*
%TO.P,R1,1*%
%TO.N,+3.3V*%
X129204100Y-56983600D03*
%TD*%
D29*
%TO.P,R2,2*%
%TO.N,EN*%
X133826900Y-56983600D03*
%TO.P,R2,1*%
%TO.N,Net-(C4-Pad1)*%
X136751900Y-56983600D03*
%TD*%
D30*
%TO.P,C5,2*%
%TO.N,GND*%
X160714800Y-89927400D03*
%TO.P,C5,1*%
%TO.N,+5V*%
X157764800Y-89927400D03*
%TD*%
%TO.P,C6,2*%
%TO.N,GND*%
X160716600Y-87438200D03*
%TO.P,C6,1*%
%TO.N,+3.3V*%
X157766600Y-87438200D03*
%TD*%
%TO.P,C3,2*%
%TO.N,GND*%
X136788000Y-60768200D03*
%TO.P,C3,1*%
%TO.N,EN*%
X133838000Y-60768200D03*
%TD*%
%TO.P,C4,2*%
%TO.N,GND*%
X136789800Y-64705200D03*
%TO.P,C4,1*%
%TO.N,Net-(C4-Pad1)*%
X133839800Y-64705200D03*
%TD*%
D31*
%TO.N,+3.3V*%
X123783200Y-66991200D03*
%TO.N,GND*%
X136813400Y-66584800D03*
X124316600Y-63232000D03*
%TO.N,EN*%
X125688200Y-66991200D03*
%TO.N,Net-(C4-Pad1)*%
X133892400Y-66584800D03*
%TO.N,SDA*%
X128837800Y-53732400D03*
%TO.N,SCL*%
X130057000Y-53707000D03*
%TO.N,U0RX*%
X127567800Y-53732400D03*
%TO.N,U0TX*%
X126297800Y-53732400D03*
%TO.N,Net-(K1-+)*%
X148370400Y-94423200D03*
%TO.N,Net-(K2-+)*%
X151799400Y-97649000D03*
%TO.N,Net-(K3-+)*%
X156879400Y-97598200D03*
%TO.N,GPIO32*%
X150275400Y-101078000D03*
%TO.N,GPIO27*%
X143646000Y-73900000D03*
%TO.N,GPIO33*%
X155279200Y-101078000D03*
%TO.N,GPIO25*%
X160257600Y-101078000D03*
%TD*%
D32*
%TO.N,+3.3V*%
X155101800Y-87463600D02*
X157741200Y-87463600D01*
X157741200Y-87463600D02*
X157766600Y-87438200D01*
X127266600Y-63507800D02*
X127266600Y-60844400D01*
X123783200Y-66991200D02*
X127266600Y-63507800D01*
X127266600Y-60844400D02*
X127266600Y-56985400D01*
X127266600Y-56985400D02*
X127264800Y-56983600D01*
X129204100Y-56983600D02*
X127264800Y-56983600D01*
X148801800Y-87463600D02*
X155101800Y-87463600D01*
%TO.N,GND*%
X124316600Y-60844400D02*
X124316600Y-63232000D01*
X136813400Y-66584800D02*
X136813400Y-64728800D01*
X124314800Y-56983600D02*
X124314800Y-60842600D01*
X159735600Y-85163600D02*
X160716600Y-86144600D01*
X155101800Y-85163600D02*
X166428400Y-85163600D01*
X155101800Y-85163600D02*
X159735600Y-85163600D01*
X136788000Y-60768200D02*
X136788000Y-64703400D01*
X160714800Y-87440000D02*
X160716600Y-87438200D01*
X166428400Y-85163600D02*
X171658000Y-79934000D01*
X124314800Y-60842600D02*
X124316600Y-60844400D01*
X179278400Y-87554400D02*
X171658000Y-79934000D01*
X179278400Y-136434800D02*
X179278400Y-87554400D01*
X160714800Y-89927400D02*
X160714800Y-87440000D01*
X136788000Y-64703400D02*
X136789800Y-64705200D01*
X136813400Y-64728800D02*
X136789800Y-64705200D01*
X160716600Y-86144600D02*
X160716600Y-87438200D01*
%TO.N,EN*%
X133826900Y-56983600D02*
X133826900Y-60757100D01*
X131911200Y-60768200D02*
X133838000Y-60768200D01*
X133826900Y-60757100D02*
X133838000Y-60768200D01*
X125688200Y-66991200D02*
X131911200Y-60768200D01*
X132129100Y-56983600D02*
X133826900Y-56983600D01*
%TO.N,Net-(C4-Pad1)*%
X133839800Y-66532200D02*
X133892400Y-66584800D01*
X133839800Y-64705200D02*
X135365600Y-63179400D01*
X135924400Y-56983600D02*
X136751900Y-56983600D01*
X135365600Y-63179400D02*
X135365600Y-57542400D01*
X133839800Y-64705200D02*
X133839800Y-66532200D01*
X135365600Y-57542400D02*
X135924400Y-56983600D01*
%TO.N,+5V*%
X157764800Y-89927400D02*
X155265600Y-89927400D01*
X171658000Y-97934000D02*
X170103100Y-96379100D01*
X155265600Y-89927400D02*
X155101800Y-89763600D01*
X159091500Y-96131900D02*
X154329200Y-96131900D01*
X170103100Y-96379100D02*
X159557100Y-96379100D01*
X154235500Y-96152700D02*
X149310200Y-96152700D01*
X178698000Y-104974000D02*
X171658000Y-97934000D01*
X159093800Y-96129600D02*
X159091500Y-96131900D01*
X159557100Y-96379100D02*
X159307600Y-96129600D01*
X159307600Y-96129600D02*
X159093800Y-96129600D01*
X154256300Y-96131900D02*
X154235500Y-96152700D01*
X178698000Y-132015200D02*
X178698000Y-104974000D01*
X174278400Y-136434800D02*
X178698000Y-132015200D01*
X154329200Y-93315800D02*
X155101800Y-92543200D01*
X154329200Y-96131900D02*
X154329200Y-93315800D01*
X154329200Y-96131900D02*
X154256300Y-96131900D01*
X155101800Y-92543200D02*
X155101800Y-89763600D01*
D33*
%TO.N,~220V_NC*%
X140220800Y-135876000D02*
X137495400Y-135876000D01*
X154658000Y-139776000D02*
X151650800Y-136768800D01*
X130916800Y-133472800D02*
X123374000Y-125930000D01*
X151650800Y-136768800D02*
X151650800Y-135876000D01*
X137495400Y-135876000D02*
X135082400Y-138289000D01*
X130916800Y-133472800D02*
X130916800Y-134123400D01*
X140220800Y-136391433D02*
X143605367Y-139776000D01*
X130916800Y-134123400D02*
X135082400Y-138289000D01*
X163000800Y-135876000D02*
X159100800Y-139776000D01*
X147750800Y-139776000D02*
X151650800Y-135876000D01*
X159100800Y-139776000D02*
X154658000Y-139776000D01*
X143605367Y-139776000D02*
X147750800Y-139776000D01*
X123374000Y-125930000D02*
X119866800Y-125930000D01*
X140220800Y-135876000D02*
X140220800Y-136391433D01*
D32*
%TO.N,SDA*%
X155013107Y-66526000D02*
X168281000Y-66526000D01*
X128837800Y-53732400D02*
X129709400Y-54604000D01*
X168281000Y-66526000D02*
X171083000Y-69328000D01*
X143091107Y-54604000D02*
X155013107Y-66526000D01*
X129709400Y-54604000D02*
X143091107Y-54604000D01*
%TO.N,SCL*%
X170321000Y-66026000D02*
X155220213Y-66026000D01*
X142901213Y-53707000D02*
X130057000Y-53707000D01*
X155220213Y-66026000D02*
X142901213Y-53707000D01*
X173623000Y-69328000D02*
X170321000Y-66026000D01*
%TO.N,U0RX*%
X127567800Y-54380100D02*
X127567800Y-53732400D01*
X128299700Y-55112000D02*
X127567800Y-54380100D01*
X141043107Y-55112000D02*
X128299700Y-55112000D01*
X141051107Y-55104000D02*
X141043107Y-55112000D01*
X157108000Y-69328000D02*
X142884000Y-55104000D01*
X142884000Y-55104000D02*
X141051107Y-55104000D01*
%TO.N,U0TX*%
X154568000Y-67495106D02*
X142684894Y-55612000D01*
X142684894Y-55612000D02*
X127644000Y-55612000D01*
X154568000Y-69328000D02*
X154568000Y-67495106D01*
X126297800Y-54265800D02*
X126297800Y-53732400D01*
X127644000Y-55612000D02*
X126297800Y-54265800D01*
%TO.N,Net-(K1-+)*%
X148360200Y-94433400D02*
X148370400Y-94423200D01*
X148360200Y-98027700D02*
X148360200Y-99594096D01*
X148360200Y-98027700D02*
X148360200Y-94433400D01*
X148360200Y-99594096D02*
X139129296Y-108825000D01*
X139129296Y-108825000D02*
X130565000Y-108825000D01*
%TO.N,Net-(K2-+)*%
X153379200Y-103384400D02*
X153379200Y-98006900D01*
X152157300Y-98006900D02*
X151799400Y-97649000D01*
X147760800Y-109002800D02*
X153379200Y-103384400D01*
X153379200Y-98006900D02*
X152157300Y-98006900D01*
%TO.N,Net-(K3-+)*%
X158357600Y-102581600D02*
X158357600Y-98004600D01*
X164880400Y-109104400D02*
X158357600Y-102581600D01*
X158357600Y-98004600D02*
X157285800Y-98004600D01*
X157285800Y-98004600D02*
X156879400Y-97598200D01*
%TO.N,GPIO32*%
X150260200Y-101062800D02*
X150260200Y-98027700D01*
X150275400Y-101078000D02*
X150260200Y-101062800D01*
%TO.N,GPIO27*%
X143646000Y-73900000D02*
X173288057Y-73900000D01*
X174888000Y-72300057D02*
X174888000Y-68058000D01*
X174888000Y-68058000D02*
X169300000Y-62470000D01*
X169300000Y-62470000D02*
X169300000Y-60946000D01*
X173288057Y-73900000D02*
X174888000Y-72300057D01*
%TO.N,GPIO33*%
X155279200Y-98006900D02*
X155279200Y-101078000D01*
D34*
%TO.N,FL1-PS1(AC1)*%
X135713400Y-82129600D02*
X121935350Y-82129600D01*
X138058000Y-85934000D02*
X138058000Y-84474200D01*
X138058000Y-84474200D02*
X135713400Y-82129600D01*
X121935350Y-82129600D02*
X116849000Y-77043250D01*
X116849000Y-77043250D02*
X116849000Y-76967050D01*
%TO.N,J1-FL1(2)*%
X120916800Y-134123400D02*
X120916800Y-131522800D01*
X125082400Y-138289000D02*
X120916800Y-134123400D01*
X115248800Y-125854800D02*
X120916800Y-131522800D01*
X119566800Y-92751200D02*
X119566800Y-90968800D01*
X119566800Y-90968800D02*
X116849000Y-88251000D01*
X119566800Y-92751200D02*
X115248800Y-97069200D01*
X115248800Y-97069200D02*
X115248800Y-125854800D01*
X116849000Y-88251000D02*
X116849000Y-86873050D01*
D33*
%TO.N,J1{slash}F1{slash}Relay*%
X128620000Y-120930000D02*
X130565000Y-118985000D01*
X131319000Y-119739000D02*
X147184600Y-119739000D01*
X119642800Y-120930000D02*
X128620000Y-120930000D01*
X119566800Y-120854000D02*
X119642800Y-120930000D01*
X164228000Y-119916800D02*
X164880400Y-119264400D01*
X130565000Y-118985000D02*
X131319000Y-119739000D01*
X147760800Y-119162800D02*
X148514800Y-119916800D01*
X147184600Y-119739000D02*
X147760800Y-119162800D01*
X119566800Y-115251200D02*
X119566800Y-120854000D01*
X148514800Y-119916800D02*
X164228000Y-119916800D01*
D32*
%TO.N,GPIO25*%
X160257600Y-101078000D02*
X160257600Y-98004600D01*
%TD*%
%TA.AperFunction,Conductor*%
%TO.N,+3.3V*%
G36*
X179381138Y-49586174D02*
G01*
X179435699Y-49640688D01*
X179455694Y-49715179D01*
X179455694Y-49715316D01*
X179437714Y-86716965D01*
X179417716Y-86791456D01*
X179363151Y-86845967D01*
X179288642Y-86865893D01*
X179214151Y-86845895D01*
X179183355Y-86822252D01*
X172824876Y-80463773D01*
X172786312Y-80396978D01*
X172783069Y-80335110D01*
X172808500Y-80174546D01*
X172808500Y-79693454D01*
X172780171Y-79514591D01*
X172724211Y-79342361D01*
X172641996Y-79181006D01*
X172535553Y-79034499D01*
X172407501Y-78906447D01*
X172260994Y-78800004D01*
X172099639Y-78717789D01*
X171927409Y-78661829D01*
X171748546Y-78633500D01*
X171567454Y-78633500D01*
X171388591Y-78661829D01*
X171216360Y-78717789D01*
X171055004Y-78800005D01*
X171055003Y-78800005D01*
X170908500Y-78906446D01*
X170908497Y-78906448D01*
X170780448Y-79034497D01*
X170780446Y-79034500D01*
X170674005Y-79181003D01*
X170674005Y-79181004D01*
X170591789Y-79342360D01*
X170591789Y-79342361D01*
X170535829Y-79514591D01*
X170507500Y-79693454D01*
X170507500Y-80174546D01*
X170532930Y-80335105D01*
X170524867Y-80411810D01*
X170491123Y-80463772D01*
X166285438Y-84669459D01*
X166218643Y-84708023D01*
X166180079Y-84713100D01*
X156520446Y-84713100D01*
X156445946Y-84693138D01*
X156391408Y-84638600D01*
X156378193Y-84608428D01*
X156347313Y-84509334D01*
X156347313Y-84509333D01*
X156347312Y-84509332D01*
X156347312Y-84509330D01*
X156262448Y-84368947D01*
X156146453Y-84252952D01*
X156006070Y-84168088D01*
X156006068Y-84168087D01*
X156006066Y-84168086D01*
X155849461Y-84119285D01*
X155822231Y-84116811D01*
X155781394Y-84113100D01*
X154422206Y-84113100D01*
X154385080Y-84116473D01*
X154354138Y-84119285D01*
X154197534Y-84168086D01*
X154197533Y-84168086D01*
X154057146Y-84252952D01*
X153941152Y-84368946D01*
X153856286Y-84509333D01*
X153856286Y-84509334D01*
X153807485Y-84665938D01*
X153807485Y-84665943D01*
X153801300Y-84734006D01*
X153801300Y-85593194D01*
X153803200Y-85614099D01*
X153807485Y-85661261D01*
X153856286Y-85817865D01*
X153856286Y-85817866D01*
X153856287Y-85817868D01*
X153856288Y-85817870D01*
X153941152Y-85958253D01*
X154057147Y-86074248D01*
X154057149Y-86074249D01*
X154063193Y-86078984D01*
X154109531Y-86140642D01*
X154118831Y-86217207D01*
X154088603Y-86288164D01*
X154037513Y-86329763D01*
X154002771Y-86346993D01*
X153854436Y-86466229D01*
X153854429Y-86466236D01*
X153735193Y-86614572D01*
X153650630Y-86785078D01*
X153604696Y-86969781D01*
X153601800Y-87012509D01*
X153601800Y-87213600D01*
X155202800Y-87213600D01*
X155277300Y-87233562D01*
X155331838Y-87288100D01*
X155351800Y-87362600D01*
X155351800Y-87564600D01*
X155331838Y-87639100D01*
X155277300Y-87693638D01*
X155202800Y-87713600D01*
X153601800Y-87713600D01*
X153601800Y-87914690D01*
X153604696Y-87957418D01*
X153650630Y-88142121D01*
X153735193Y-88312627D01*
X153854429Y-88460963D01*
X153854436Y-88460970D01*
X154002772Y-88580207D01*
X154037510Y-88597435D01*
X154095383Y-88648419D01*
X154120011Y-88721510D01*
X154104793Y-88797122D01*
X154063199Y-88848210D01*
X154057149Y-88852949D01*
X153941152Y-88968946D01*
X153856286Y-89109333D01*
X153856286Y-89109334D01*
X153807485Y-89265938D01*
X153807485Y-89265943D01*
X153801300Y-89334006D01*
X153801300Y-90193194D01*
X153805011Y-90234031D01*
X153807485Y-90261261D01*
X153856286Y-90417865D01*
X153856286Y-90417866D01*
X153856287Y-90417868D01*
X153856288Y-90417870D01*
X153941152Y-90558253D01*
X154057147Y-90674248D01*
X154197530Y-90759112D01*
X154197532Y-90759112D01*
X154197533Y-90759113D01*
X154354138Y-90807914D01*
X154354140Y-90807914D01*
X154354143Y-90807915D01*
X154422206Y-90814100D01*
X154502300Y-90814100D01*
X154576800Y-90834062D01*
X154631338Y-90888600D01*
X154651300Y-90963100D01*
X154651300Y-92294879D01*
X154631338Y-92369379D01*
X154607659Y-92400238D01*
X153968708Y-93039189D01*
X153909401Y-93141911D01*
X153909402Y-93141911D01*
X153909401Y-93141913D01*
X153909401Y-93141914D01*
X153899167Y-93180106D01*
X153878700Y-93256489D01*
X153878700Y-95143885D01*
X153858738Y-95218385D01*
X153849585Y-95232364D01*
X153776407Y-95331516D01*
X153731553Y-95459704D01*
X153728700Y-95490124D01*
X153728700Y-95553200D01*
X153708738Y-95627700D01*
X153654200Y-95682238D01*
X153579700Y-95702200D01*
X150059700Y-95702200D01*
X149985200Y-95682238D01*
X149930662Y-95627700D01*
X149910700Y-95553200D01*
X149910700Y-95510941D01*
X149910699Y-95510924D01*
X149908534Y-95487841D01*
X149907846Y-95480501D01*
X149862993Y-95352318D01*
X149782350Y-95243050D01*
X149782348Y-95243048D01*
X149673083Y-95162407D01*
X149607066Y-95139307D01*
X149544899Y-95117554D01*
X149544897Y-95117553D01*
X149544895Y-95117553D01*
X149514475Y-95114700D01*
X149514466Y-95114700D01*
X149105934Y-95114700D01*
X149105924Y-95114700D01*
X149075504Y-95117553D01*
X149075497Y-95117554D01*
X149067750Y-95120265D01*
X148990837Y-95126025D01*
X148921349Y-95092557D01*
X148877905Y-95028828D01*
X148872145Y-94951915D01*
X148895922Y-94894981D01*
X148898577Y-94891133D01*
X148898583Y-94891129D01*
X148995218Y-94751130D01*
X149055540Y-94592072D01*
X149076045Y-94423200D01*
X149055540Y-94254328D01*
X148995218Y-94095270D01*
X148898583Y-93955271D01*
X148898580Y-93955268D01*
X148898579Y-93955267D01*
X148771253Y-93842467D01*
X148771254Y-93842467D01*
X148620624Y-93763409D01*
X148455456Y-93722700D01*
X148285344Y-93722700D01*
X148120175Y-93763409D01*
X147969545Y-93842467D01*
X147842220Y-93955267D01*
X147842217Y-93955271D01*
X147745581Y-94095270D01*
X147685260Y-94254325D01*
X147664755Y-94423200D01*
X147685260Y-94592074D01*
X147744306Y-94747766D01*
X147745582Y-94751130D01*
X147842217Y-94891129D01*
X147859506Y-94906445D01*
X147902032Y-94970789D01*
X147909700Y-95017973D01*
X147909700Y-97039685D01*
X147889738Y-97114185D01*
X147880585Y-97128164D01*
X147807407Y-97227316D01*
X147762553Y-97355504D01*
X147759700Y-97385924D01*
X147759700Y-98669475D01*
X147762553Y-98699895D01*
X147807407Y-98828083D01*
X147880585Y-98927235D01*
X147908763Y-98999031D01*
X147909700Y-99015714D01*
X147909700Y-99345774D01*
X147889738Y-99420274D01*
X147866059Y-99451133D01*
X145520833Y-101796359D01*
X145454038Y-101834923D01*
X145415474Y-101840000D01*
X142139108Y-101840000D01*
X142064608Y-101820038D01*
X142010070Y-101765500D01*
X141990109Y-101691661D01*
X141933455Y-88921598D01*
X147301800Y-88921598D01*
X147312410Y-89040933D01*
X147368358Y-89236464D01*
X147462521Y-89416729D01*
X147591047Y-89574352D01*
X147748670Y-89702878D01*
X147928935Y-89797041D01*
X148124466Y-89852989D01*
X148243802Y-89863600D01*
X148551800Y-89863600D01*
X149051800Y-89863600D01*
X149359798Y-89863600D01*
X149479133Y-89852989D01*
X149674664Y-89797041D01*
X149854929Y-89702878D01*
X150012552Y-89574352D01*
X150141078Y-89416729D01*
X150235241Y-89236464D01*
X150291189Y-89040933D01*
X150301800Y-88921598D01*
X150301800Y-87713600D01*
X149051800Y-87713600D01*
X149051800Y-89863600D01*
X148551800Y-89863600D01*
X148551800Y-87713600D01*
X147301800Y-87713600D01*
X147301800Y-88921598D01*
X141933455Y-88921598D01*
X141920518Y-86005601D01*
X147301800Y-86005601D01*
X147301800Y-87213600D01*
X148551800Y-87213600D01*
X149051800Y-87213600D01*
X150301800Y-87213600D01*
X150301800Y-86005601D01*
X150291189Y-85886266D01*
X150235241Y-85690735D01*
X150141078Y-85510470D01*
X150012552Y-85352847D01*
X149854929Y-85224321D01*
X149674664Y-85130158D01*
X149479133Y-85074210D01*
X149359798Y-85063600D01*
X149051800Y-85063600D01*
X149051800Y-87213600D01*
X148551800Y-87213600D01*
X148551800Y-85063600D01*
X148243802Y-85063600D01*
X148124466Y-85074210D01*
X147928935Y-85130158D01*
X147748670Y-85224321D01*
X147591047Y-85352847D01*
X147462521Y-85510470D01*
X147368358Y-85690735D01*
X147312410Y-85886266D01*
X147301800Y-86005601D01*
X141920518Y-86005601D01*
X141863767Y-73213580D01*
X121057444Y-73213580D01*
X120982944Y-73193618D01*
X120928406Y-73139080D01*
X120908444Y-73064903D01*
X120907385Y-72576667D01*
X120901340Y-69790097D01*
X120921141Y-69715557D01*
X120942400Y-69687789D01*
X120942400Y-66991200D01*
X124982555Y-66991200D01*
X125003060Y-67160074D01*
X125063381Y-67319129D01*
X125063382Y-67319130D01*
X125160017Y-67459129D01*
X125160019Y-67459130D01*
X125160020Y-67459132D01*
X125287346Y-67571932D01*
X125287348Y-67571934D01*
X125437975Y-67650990D01*
X125603144Y-67691700D01*
X125773256Y-67691700D01*
X125938425Y-67650990D01*
X126089052Y-67571934D01*
X126216383Y-67459129D01*
X126313018Y-67319130D01*
X126373340Y-67160072D01*
X126393845Y-66991200D01*
X126393845Y-66991196D01*
X126393845Y-66984375D01*
X126413807Y-66909875D01*
X126437486Y-66879016D01*
X132054162Y-61262341D01*
X132120957Y-61223777D01*
X132159521Y-61218700D01*
X132813500Y-61218700D01*
X132888000Y-61238662D01*
X132942538Y-61293200D01*
X132962500Y-61367700D01*
X132962500Y-61461305D01*
X132973122Y-61549763D01*
X133028638Y-61690541D01*
X133120076Y-61811120D01*
X133120079Y-61811123D01*
X133143547Y-61828919D01*
X133240658Y-61902561D01*
X133381436Y-61958077D01*
X133469898Y-61968700D01*
X133469899Y-61968700D01*
X134206101Y-61968700D01*
X134206102Y-61968700D01*
X134294564Y-61958077D01*
X134435342Y-61902561D01*
X134555922Y-61811122D01*
X134647361Y-61690542D01*
X134647362Y-61690539D01*
X134647376Y-61690521D01*
X134708297Y-61643221D01*
X134784707Y-61632718D01*
X134856131Y-61661828D01*
X134903431Y-61722749D01*
X134915100Y-61780552D01*
X134915100Y-62931078D01*
X134895138Y-63005578D01*
X134871459Y-63036437D01*
X134432995Y-63474900D01*
X134366200Y-63513464D01*
X134306157Y-63513895D01*
X134305849Y-63516462D01*
X134207905Y-63504700D01*
X134207902Y-63504700D01*
X133471698Y-63504700D01*
X133471694Y-63504700D01*
X133383236Y-63515322D01*
X133242458Y-63570838D01*
X133242458Y-63570839D01*
X133121879Y-63662276D01*
X133121876Y-63662279D01*
X133030439Y-63782858D01*
X133030438Y-63782858D01*
X132974922Y-63923636D01*
X132964300Y-64012094D01*
X132964300Y-65398305D01*
X132974922Y-65486763D01*
X133030438Y-65627541D01*
X133030439Y-65627542D01*
X133121878Y-65748122D01*
X133242458Y-65839561D01*
X133294962Y-65860266D01*
X133356944Y-65906167D01*
X133387672Y-65976910D01*
X133389300Y-65998877D01*
X133389300Y-66034101D01*
X133369338Y-66108601D01*
X133362925Y-66118742D01*
X133267581Y-66256871D01*
X133207260Y-66415925D01*
X133186755Y-66584800D01*
X133207260Y-66753674D01*
X133267581Y-66912729D01*
X133267582Y-66912730D01*
X133364217Y-67052729D01*
X133364219Y-67052730D01*
X133364220Y-67052732D01*
X133491546Y-67165532D01*
X133491548Y-67165534D01*
X133642175Y-67244590D01*
X133807344Y-67285300D01*
X133977456Y-67285300D01*
X134142625Y-67244590D01*
X134293252Y-67165534D01*
X134420583Y-67052729D01*
X134517218Y-66912730D01*
X134577540Y-66753672D01*
X134598045Y-66584800D01*
X134577540Y-66415928D01*
X134517218Y-66256870D01*
X134420583Y-66116871D01*
X134420580Y-66116868D01*
X134420579Y-66116867D01*
X134390863Y-66090541D01*
X134348336Y-66026197D01*
X134343679Y-65949209D01*
X134378140Y-65880208D01*
X134428489Y-65844967D01*
X134428258Y-65844556D01*
X134432422Y-65842214D01*
X134435015Y-65840399D01*
X134437142Y-65839561D01*
X134557722Y-65748122D01*
X134649161Y-65627542D01*
X134704677Y-65486764D01*
X134715300Y-65398302D01*
X134715300Y-64528520D01*
X134735262Y-64454020D01*
X134758937Y-64423165D01*
X135726089Y-63456014D01*
X135785399Y-63353287D01*
X135786083Y-63350730D01*
X135791885Y-63329079D01*
X135791886Y-63329075D01*
X135800334Y-63297544D01*
X135816100Y-63238709D01*
X135816100Y-61916862D01*
X135836062Y-61842362D01*
X135890600Y-61787824D01*
X135965100Y-61767862D01*
X136039600Y-61787824D01*
X136061949Y-61804973D01*
X136061957Y-61804964D01*
X136096638Y-61831263D01*
X136190658Y-61902561D01*
X136243162Y-61923266D01*
X136305144Y-61969167D01*
X136335872Y-62039910D01*
X136337500Y-62061877D01*
X136337500Y-63412232D01*
X136317538Y-63486732D01*
X136263000Y-63541270D01*
X136243163Y-63550843D01*
X136192458Y-63570839D01*
X136192457Y-63570839D01*
X136192456Y-63570840D01*
X136071879Y-63662276D01*
X136071876Y-63662279D01*
X135980439Y-63782858D01*
X135980438Y-63782858D01*
X135924922Y-63923636D01*
X135914300Y-64012094D01*
X135914300Y-65398305D01*
X135924922Y-65486763D01*
X135980438Y-65627541D01*
X135980439Y-65627542D01*
X136071878Y-65748122D01*
X136192458Y-65839561D01*
X136192459Y-65839561D01*
X136192460Y-65839562D01*
X136247320Y-65861196D01*
X136309303Y-65907097D01*
X136340031Y-65977839D01*
X136331270Y-66054468D01*
X136291470Y-66111330D01*
X136285221Y-66116865D01*
X136285217Y-66116871D01*
X136188581Y-66256870D01*
X136128260Y-66415925D01*
X136107755Y-66584800D01*
X136128260Y-66753674D01*
X136188581Y-66912729D01*
X136188582Y-66912730D01*
X136285217Y-67052729D01*
X136285219Y-67052730D01*
X136285220Y-67052732D01*
X136412546Y-67165532D01*
X136412548Y-67165534D01*
X136563175Y-67244590D01*
X136728344Y-67285300D01*
X136898456Y-67285300D01*
X137063625Y-67244590D01*
X137214252Y-67165534D01*
X137341583Y-67052729D01*
X137438218Y-66912730D01*
X137498540Y-66753672D01*
X137519045Y-66584800D01*
X137498540Y-66415928D01*
X137438218Y-66256870D01*
X137341583Y-66116871D01*
X137341580Y-66116868D01*
X137341579Y-66116867D01*
X137320796Y-66098455D01*
X137278269Y-66034111D01*
X137273612Y-65957123D01*
X137308073Y-65888122D01*
X137364941Y-65848315D01*
X137387142Y-65839561D01*
X137507722Y-65748122D01*
X137599161Y-65627542D01*
X137654677Y-65486764D01*
X137665300Y-65398302D01*
X137665300Y-64012098D01*
X137654677Y-63923636D01*
X137599161Y-63782858D01*
X137507722Y-63662278D01*
X137507720Y-63662276D01*
X137460782Y-63626682D01*
X137387142Y-63570839D01*
X137387140Y-63570838D01*
X137332838Y-63549424D01*
X137270856Y-63503523D01*
X137240128Y-63432780D01*
X137238500Y-63410813D01*
X137238500Y-62061877D01*
X137258462Y-61987377D01*
X137313000Y-61932839D01*
X137332838Y-61923266D01*
X137349077Y-61916862D01*
X137385342Y-61902561D01*
X137505922Y-61811122D01*
X137597361Y-61690542D01*
X137652877Y-61549764D01*
X137663500Y-61461302D01*
X137663500Y-60075098D01*
X137652877Y-59986636D01*
X137597361Y-59845858D01*
X137563707Y-59801479D01*
X137505923Y-59725279D01*
X137505920Y-59725276D01*
X137417337Y-59658102D01*
X137385342Y-59633839D01*
X137385341Y-59633838D01*
X137244563Y-59578322D01*
X137156105Y-59567700D01*
X137156102Y-59567700D01*
X136419898Y-59567700D01*
X136419894Y-59567700D01*
X136331436Y-59578322D01*
X136190658Y-59633838D01*
X136190658Y-59633839D01*
X136061957Y-59731436D01*
X136061097Y-59730302D01*
X136003664Y-59763461D01*
X135926536Y-59763461D01*
X135859741Y-59724897D01*
X135821177Y-59658102D01*
X135816100Y-59619538D01*
X135816100Y-58126808D01*
X135836062Y-58052308D01*
X135890600Y-57997770D01*
X135965100Y-57977808D01*
X136039600Y-57997770D01*
X136055131Y-58008084D01*
X136167058Y-58092961D01*
X136307836Y-58148477D01*
X136396298Y-58159100D01*
X136396299Y-58159100D01*
X137107501Y-58159100D01*
X137107502Y-58159100D01*
X137195964Y-58148477D01*
X137336742Y-58092961D01*
X137457322Y-58001522D01*
X137548761Y-57880942D01*
X137604277Y-57740164D01*
X137614900Y-57651702D01*
X137614900Y-56315498D01*
X137604545Y-56229265D01*
X137615482Y-56152916D01*
X137663129Y-56092265D01*
X137734717Y-56063563D01*
X137752482Y-56062500D01*
X142436573Y-56062500D01*
X142511073Y-56082462D01*
X142541932Y-56106141D01*
X154073859Y-67638068D01*
X154112423Y-67704863D01*
X154117500Y-67743427D01*
X154117500Y-68170760D01*
X154097538Y-68245260D01*
X154046939Y-68297442D01*
X153871698Y-68405947D01*
X153871697Y-68405948D01*
X153714127Y-68549593D01*
X153585636Y-68719740D01*
X153490594Y-68910612D01*
X153470811Y-68980143D01*
X153431222Y-69046335D01*
X153363841Y-69083866D01*
X153286722Y-69082678D01*
X153220530Y-69043089D01*
X153182999Y-68975708D01*
X153178499Y-68939366D01*
X153178499Y-68433133D01*
X153175585Y-68408010D01*
X153175584Y-68408008D01*
X153130206Y-68305235D01*
X153050765Y-68225794D01*
X153050764Y-68225793D01*
X152947994Y-68180416D01*
X152947991Y-68180415D01*
X152947982Y-68180414D01*
X152922865Y-68177500D01*
X152922859Y-68177500D01*
X151133133Y-68177500D01*
X151108010Y-68180414D01*
X151108007Y-68180415D01*
X151005235Y-68225793D01*
X150925793Y-68305235D01*
X150880416Y-68408005D01*
X150880415Y-68408008D01*
X150880415Y-68408009D01*
X150877500Y-68433135D01*
X150877500Y-68433136D01*
X150877500Y-68433140D01*
X150877500Y-70222866D01*
X150880414Y-70247989D01*
X150880415Y-70247992D01*
X150925793Y-70350764D01*
X150925794Y-70350765D01*
X151005235Y-70430206D01*
X151108009Y-70475585D01*
X151133135Y-70478500D01*
X152922864Y-70478499D01*
X152922866Y-70478499D01*
X152935427Y-70477042D01*
X152947991Y-70475585D01*
X153050765Y-70430206D01*
X153130206Y-70350765D01*
X153175585Y-70247991D01*
X153178500Y-70222865D01*
X153178499Y-69716632D01*
X153198461Y-69642135D01*
X153252999Y-69587597D01*
X153327499Y-69567635D01*
X153401999Y-69587597D01*
X153456537Y-69642135D01*
X153470811Y-69675858D01*
X153490594Y-69745387D01*
X153585636Y-69936259D01*
X153714127Y-70106406D01*
X153714128Y-70106407D01*
X153869441Y-70247994D01*
X153871697Y-70250051D01*
X153871698Y-70250052D01*
X154052977Y-70362296D01*
X154052983Y-70362299D01*
X154140189Y-70396082D01*
X154251802Y-70439321D01*
X154461390Y-70478500D01*
X154461393Y-70478500D01*
X154674607Y-70478500D01*
X154674610Y-70478500D01*
X154884198Y-70439321D01*
X155083019Y-70362298D01*
X155264302Y-70250052D01*
X155421872Y-70106407D01*
X155550366Y-69936255D01*
X155645405Y-69745389D01*
X155694688Y-69572177D01*
X155734276Y-69505986D01*
X155801657Y-69468455D01*
X155878776Y-69469643D01*
X155944969Y-69509231D01*
X155981312Y-69572179D01*
X156030593Y-69745385D01*
X156030594Y-69745387D01*
X156125636Y-69936259D01*
X156254127Y-70106406D01*
X156254128Y-70106407D01*
X156409441Y-70247994D01*
X156411697Y-70250051D01*
X156411698Y-70250052D01*
X156592977Y-70362296D01*
X156592983Y-70362299D01*
X156680189Y-70396082D01*
X156791802Y-70439321D01*
X157001390Y-70478500D01*
X157001393Y-70478500D01*
X157214607Y-70478500D01*
X157214610Y-70478500D01*
X157424198Y-70439321D01*
X157623019Y-70362298D01*
X157804302Y-70250052D01*
X157961872Y-70106407D01*
X158090366Y-69936255D01*
X158134206Y-69848210D01*
X158185282Y-69790420D01*
X158258411Y-69765909D01*
X158333999Y-69781246D01*
X158391791Y-69832323D01*
X158402625Y-69851656D01*
X158474400Y-70005579D01*
X158474406Y-70005588D01*
X158609888Y-70199076D01*
X158776923Y-70366111D01*
X158970411Y-70501593D01*
X158970420Y-70501599D01*
X159184508Y-70601430D01*
X159184513Y-70601432D01*
X159398000Y-70658634D01*
X159398000Y-69761012D01*
X159455007Y-69793925D01*
X159582174Y-69828000D01*
X159713826Y-69828000D01*
X159840993Y-69793925D01*
X159898000Y-69761012D01*
X159898000Y-70658633D01*
X160111486Y-70601432D01*
X160111491Y-70601430D01*
X160325579Y-70501599D01*
X160325588Y-70501593D01*
X160519076Y-70366111D01*
X160686111Y-70199076D01*
X160821593Y-70005588D01*
X160821599Y-70005579D01*
X160893374Y-69851656D01*
X160942951Y-69792573D01*
X161015427Y-69766193D01*
X161091384Y-69779586D01*
X161150467Y-69829163D01*
X161161793Y-69848211D01*
X161205633Y-69936254D01*
X161205636Y-69936258D01*
X161334127Y-70106406D01*
X161334128Y-70106407D01*
X161489441Y-70247994D01*
X161491697Y-70250051D01*
X161491698Y-70250052D01*
X161672977Y-70362296D01*
X161672983Y-70362299D01*
X161760189Y-70396082D01*
X161871802Y-70439321D01*
X162081390Y-70478500D01*
X162081393Y-70478500D01*
X162294607Y-70478500D01*
X162294610Y-70478500D01*
X162504198Y-70439321D01*
X162703019Y-70362298D01*
X162884302Y-70250052D01*
X163041872Y-70106407D01*
X163170366Y-69936255D01*
X163265405Y-69745389D01*
X163323756Y-69540310D01*
X163334685Y-69422360D01*
X163343429Y-69328004D01*
X163343429Y-69327995D01*
X163323756Y-69115694D01*
X163323756Y-69115690D01*
X163265405Y-68910611D01*
X163170366Y-68719745D01*
X163170363Y-68719741D01*
X163170363Y-68719740D01*
X163041872Y-68549593D01*
X162884302Y-68405948D01*
X162884301Y-68405947D01*
X162703022Y-68293703D01*
X162703016Y-68293700D01*
X162504204Y-68216681D01*
X162504200Y-68216680D01*
X162504198Y-68216679D01*
X162462280Y-68208843D01*
X162294614Y-68177500D01*
X162294610Y-68177500D01*
X162081390Y-68177500D01*
X162081385Y-68177500D01*
X161871802Y-68216679D01*
X161871795Y-68216681D01*
X161672983Y-68293700D01*
X161672977Y-68293703D01*
X161491698Y-68405947D01*
X161491697Y-68405948D01*
X161334127Y-68549593D01*
X161205636Y-68719741D01*
X161161793Y-68807789D01*
X161110716Y-68865580D01*
X161037586Y-68890090D01*
X160961998Y-68874752D01*
X160904207Y-68823675D01*
X160893374Y-68804343D01*
X160821599Y-68650421D01*
X160821598Y-68650420D01*
X160686108Y-68456920D01*
X160519076Y-68289888D01*
X160325588Y-68154406D01*
X160325579Y-68154400D01*
X160111491Y-68054569D01*
X160111489Y-68054568D01*
X159898000Y-67997364D01*
X159898000Y-68894988D01*
X159840993Y-68862075D01*
X159713826Y-68828000D01*
X159582174Y-68828000D01*
X159455007Y-68862075D01*
X159398000Y-68894988D01*
X159398000Y-67997364D01*
X159397999Y-67997364D01*
X159184512Y-68054568D01*
X158970419Y-68154402D01*
X158776920Y-68289891D01*
X158609891Y-68456920D01*
X158474402Y-68650419D01*
X158402625Y-68804344D01*
X158353047Y-68863427D01*
X158280570Y-68889806D01*
X158204614Y-68876413D01*
X158145531Y-68826835D01*
X158134205Y-68807787D01*
X158132490Y-68804343D01*
X158090366Y-68719745D01*
X158090363Y-68719741D01*
X158090363Y-68719740D01*
X157961872Y-68549593D01*
X157804302Y-68405948D01*
X157804301Y-68405947D01*
X157623022Y-68293703D01*
X157623016Y-68293700D01*
X157424204Y-68216681D01*
X157424200Y-68216680D01*
X157424198Y-68216679D01*
X157382280Y-68208843D01*
X157214614Y-68177500D01*
X157214610Y-68177500D01*
X157001390Y-68177500D01*
X157001385Y-68177500D01*
X156791802Y-68216679D01*
X156791798Y-68216680D01*
X156768434Y-68225731D01*
X156691754Y-68234027D01*
X156621198Y-68202871D01*
X156609254Y-68192150D01*
X155647963Y-67230859D01*
X155609399Y-67164064D01*
X155609399Y-67086936D01*
X155647963Y-67020141D01*
X155714758Y-66981577D01*
X155753322Y-66976500D01*
X168032679Y-66976500D01*
X168107179Y-66996462D01*
X168138038Y-67020141D01*
X168855204Y-67737307D01*
X168893768Y-67804102D01*
X168893768Y-67881230D01*
X168855204Y-67948025D01*
X168840551Y-67960875D01*
X168793000Y-67997362D01*
X168793000Y-68894988D01*
X168735993Y-68862075D01*
X168608826Y-68828000D01*
X168477174Y-68828000D01*
X168350007Y-68862075D01*
X168293000Y-68894988D01*
X168293000Y-67997364D01*
X168292999Y-67997364D01*
X168079512Y-68054568D01*
X167865419Y-68154402D01*
X167671920Y-68289891D01*
X167504888Y-68456923D01*
X167424552Y-68571655D01*
X167365469Y-68621232D01*
X167289512Y-68634625D01*
X167217036Y-68608245D01*
X167167459Y-68549162D01*
X167153499Y-68486192D01*
X167153499Y-68433133D01*
X167150585Y-68408010D01*
X167150584Y-68408008D01*
X167105206Y-68305235D01*
X167025765Y-68225794D01*
X167025764Y-68225793D01*
X166922994Y-68180416D01*
X166922991Y-68180415D01*
X166922982Y-68180414D01*
X166897865Y-68177500D01*
X166897859Y-68177500D01*
X165108133Y-68177500D01*
X165083010Y-68180414D01*
X165083007Y-68180415D01*
X164980235Y-68225793D01*
X164900793Y-68305235D01*
X164855416Y-68408005D01*
X164855415Y-68408008D01*
X164855415Y-68408009D01*
X164852500Y-68433135D01*
X164852500Y-68433136D01*
X164852500Y-68433140D01*
X164852500Y-70222866D01*
X164855414Y-70247989D01*
X164855415Y-70247992D01*
X164900793Y-70350764D01*
X164900794Y-70350765D01*
X164980235Y-70430206D01*
X165083009Y-70475585D01*
X165108135Y-70478500D01*
X166897864Y-70478499D01*
X166897866Y-70478499D01*
X166910427Y-70477042D01*
X166922991Y-70475585D01*
X167025765Y-70430206D01*
X167105206Y-70350765D01*
X167150585Y-70247991D01*
X167153500Y-70222865D01*
X167153499Y-70169808D01*
X167173460Y-70095311D01*
X167227997Y-70040773D01*
X167302496Y-70020809D01*
X167376997Y-70040770D01*
X167424552Y-70084345D01*
X167504890Y-70199078D01*
X167671923Y-70366111D01*
X167865411Y-70501593D01*
X167865420Y-70501599D01*
X168079508Y-70601430D01*
X168079513Y-70601432D01*
X168293000Y-70658634D01*
X168293000Y-69761012D01*
X168350007Y-69793925D01*
X168477174Y-69828000D01*
X168608826Y-69828000D01*
X168735993Y-69793925D01*
X168793000Y-69761012D01*
X168793000Y-70658633D01*
X169006486Y-70601432D01*
X169006491Y-70601430D01*
X169220579Y-70501599D01*
X169220588Y-70501593D01*
X169414076Y-70366111D01*
X169581111Y-70199076D01*
X169716593Y-70005588D01*
X169716599Y-70005579D01*
X169788374Y-69851656D01*
X169837951Y-69792573D01*
X169910427Y-69766193D01*
X169986384Y-69779586D01*
X170045467Y-69829163D01*
X170056793Y-69848211D01*
X170100633Y-69936254D01*
X170100636Y-69936258D01*
X170229127Y-70106406D01*
X170229128Y-70106407D01*
X170384441Y-70247994D01*
X170386697Y-70250051D01*
X170386698Y-70250052D01*
X170567977Y-70362296D01*
X170567983Y-70362299D01*
X170655189Y-70396082D01*
X170766802Y-70439321D01*
X170976390Y-70478500D01*
X170976393Y-70478500D01*
X171189607Y-70478500D01*
X171189610Y-70478500D01*
X171399198Y-70439321D01*
X171598019Y-70362298D01*
X171779302Y-70250052D01*
X171936872Y-70106407D01*
X172065366Y-69936255D01*
X172160405Y-69745389D01*
X172209688Y-69572177D01*
X172249276Y-69505986D01*
X172316657Y-69468455D01*
X172393776Y-69469643D01*
X172459969Y-69509231D01*
X172496312Y-69572179D01*
X172545593Y-69745385D01*
X172545594Y-69745387D01*
X172640636Y-69936259D01*
X172769127Y-70106406D01*
X172769128Y-70106407D01*
X172924441Y-70247994D01*
X172926697Y-70250051D01*
X172926698Y-70250052D01*
X173107977Y-70362296D01*
X173107983Y-70362299D01*
X173195189Y-70396082D01*
X173306802Y-70439321D01*
X173516390Y-70478500D01*
X173516393Y-70478500D01*
X173729607Y-70478500D01*
X173729610Y-70478500D01*
X173939198Y-70439321D01*
X174138019Y-70362298D01*
X174210063Y-70317690D01*
X174283910Y-70295444D01*
X174358990Y-70313102D01*
X174415182Y-70365933D01*
X174437429Y-70439783D01*
X174437500Y-70444373D01*
X174437500Y-72051736D01*
X174417538Y-72126236D01*
X174393859Y-72157095D01*
X173145095Y-73405859D01*
X173078300Y-73444423D01*
X173039736Y-73449500D01*
X144250364Y-73449500D01*
X144175864Y-73429538D01*
X144151559Y-73412028D01*
X144046853Y-73319267D01*
X144046854Y-73319267D01*
X143896224Y-73240209D01*
X143731056Y-73199500D01*
X143560944Y-73199500D01*
X143395775Y-73240209D01*
X143245145Y-73319267D01*
X143117820Y-73432067D01*
X143117817Y-73432071D01*
X143021181Y-73572070D01*
X142960860Y-73731125D01*
X142940355Y-73900000D01*
X142960860Y-74068874D01*
X143021181Y-74227929D01*
X143021182Y-74227930D01*
X143117817Y-74367929D01*
X143117819Y-74367930D01*
X143117820Y-74367932D01*
X143245146Y-74480732D01*
X143245148Y-74480734D01*
X143395775Y-74559790D01*
X143560944Y-74600500D01*
X143731056Y-74600500D01*
X143896225Y-74559790D01*
X144046852Y-74480734D01*
X144151559Y-74387971D01*
X144220560Y-74353511D01*
X144250364Y-74350500D01*
X173347363Y-74350500D01*
X173347366Y-74350500D01*
X173437730Y-74326286D01*
X173461944Y-74319799D01*
X173564671Y-74260489D01*
X175248489Y-72576671D01*
X175307799Y-72473944D01*
X175308483Y-72471387D01*
X175314285Y-72449736D01*
X175314286Y-72449732D01*
X175322734Y-72418201D01*
X175338500Y-72359366D01*
X175338500Y-70438182D01*
X175358462Y-70363682D01*
X175413000Y-70309144D01*
X175487500Y-70289182D01*
X175562000Y-70309144D01*
X175565939Y-70311500D01*
X175647976Y-70362295D01*
X175647983Y-70362299D01*
X175735189Y-70396082D01*
X175846802Y-70439321D01*
X176056390Y-70478500D01*
X176056393Y-70478500D01*
X176269607Y-70478500D01*
X176269610Y-70478500D01*
X176479198Y-70439321D01*
X176678019Y-70362298D01*
X176859302Y-70250052D01*
X177016872Y-70106407D01*
X177145366Y-69936255D01*
X177240405Y-69745389D01*
X177298756Y-69540310D01*
X177309685Y-69422360D01*
X177318429Y-69328004D01*
X177318429Y-69327995D01*
X177298756Y-69115694D01*
X177298756Y-69115690D01*
X177240405Y-68910611D01*
X177145366Y-68719745D01*
X177145363Y-68719741D01*
X177145363Y-68719740D01*
X177016872Y-68549593D01*
X176859302Y-68405948D01*
X176859301Y-68405947D01*
X176678022Y-68293703D01*
X176678016Y-68293700D01*
X176479204Y-68216681D01*
X176479200Y-68216680D01*
X176479198Y-68216679D01*
X176437280Y-68208843D01*
X176269614Y-68177500D01*
X176269610Y-68177500D01*
X176056390Y-68177500D01*
X176056385Y-68177500D01*
X175846802Y-68216679D01*
X175846795Y-68216681D01*
X175647983Y-68293700D01*
X175647976Y-68293704D01*
X175565939Y-68344500D01*
X175492089Y-68366747D01*
X175417009Y-68349089D01*
X175360818Y-68296257D01*
X175338571Y-68222407D01*
X175338500Y-68217818D01*
X175338500Y-67998691D01*
X175338499Y-67998689D01*
X175338144Y-67997364D01*
X175307799Y-67884114D01*
X175282731Y-67840696D01*
X175248489Y-67781386D01*
X169817961Y-62350858D01*
X169779397Y-62284063D01*
X169779397Y-62206935D01*
X169817961Y-62140140D01*
X169884756Y-62101576D01*
X169923320Y-62096499D01*
X170194867Y-62096499D01*
X170209940Y-62094750D01*
X170219991Y-62093585D01*
X170322765Y-62048206D01*
X170402206Y-61968765D01*
X170447585Y-61865991D01*
X170450500Y-61840865D01*
X170450499Y-61334632D01*
X170470461Y-61260135D01*
X170524999Y-61205597D01*
X170599499Y-61185635D01*
X170673999Y-61205597D01*
X170728537Y-61260135D01*
X170742811Y-61293858D01*
X170762594Y-61363387D01*
X170857636Y-61554259D01*
X170938870Y-61661828D01*
X170986128Y-61724407D01*
X171141441Y-61865994D01*
X171143697Y-61868051D01*
X171143698Y-61868052D01*
X171324977Y-61980296D01*
X171324983Y-61980299D01*
X171399171Y-62009039D01*
X171523802Y-62057321D01*
X171733390Y-62096500D01*
X171733393Y-62096500D01*
X171946607Y-62096500D01*
X171946610Y-62096500D01*
X172156198Y-62057321D01*
X172355019Y-61980298D01*
X172536302Y-61868052D01*
X172693872Y-61724407D01*
X172822366Y-61554255D01*
X172917405Y-61363389D01*
X172975756Y-61158310D01*
X172995429Y-60946000D01*
X172975756Y-60733690D01*
X172917405Y-60528611D01*
X172822366Y-60337745D01*
X172822364Y-60337743D01*
X172822363Y-60337740D01*
X172693872Y-60167593D01*
X172536302Y-60023948D01*
X172536301Y-60023947D01*
X172355022Y-59911703D01*
X172355016Y-59911700D01*
X172156204Y-59834681D01*
X172156200Y-59834680D01*
X172156198Y-59834679D01*
X172114280Y-59826843D01*
X171946614Y-59795500D01*
X171946610Y-59795500D01*
X171733390Y-59795500D01*
X171733385Y-59795500D01*
X171523802Y-59834679D01*
X171523795Y-59834681D01*
X171324983Y-59911700D01*
X171324977Y-59911703D01*
X171143698Y-60023947D01*
X171143697Y-60023948D01*
X170986127Y-60167593D01*
X170857636Y-60337740D01*
X170762594Y-60528612D01*
X170742811Y-60598143D01*
X170703222Y-60664335D01*
X170635841Y-60701866D01*
X170558722Y-60700678D01*
X170492530Y-60661089D01*
X170454999Y-60593708D01*
X170450499Y-60557366D01*
X170450499Y-60051133D01*
X170447585Y-60026010D01*
X170447584Y-60026008D01*
X170402206Y-59923235D01*
X170322765Y-59843794D01*
X170322764Y-59843793D01*
X170219994Y-59798416D01*
X170219991Y-59798415D01*
X170219982Y-59798414D01*
X170194865Y-59795500D01*
X170194859Y-59795500D01*
X168405133Y-59795500D01*
X168380010Y-59798414D01*
X168380007Y-59798415D01*
X168277235Y-59843793D01*
X168197793Y-59923235D01*
X168152416Y-60026005D01*
X168152415Y-60026008D01*
X168152415Y-60026009D01*
X168149500Y-60051135D01*
X168149500Y-60051136D01*
X168149500Y-60051140D01*
X168149500Y-61840866D01*
X168152414Y-61865989D01*
X168152415Y-61865992D01*
X168197793Y-61968764D01*
X168197794Y-61968765D01*
X168277235Y-62048206D01*
X168380009Y-62093585D01*
X168405135Y-62096500D01*
X168700501Y-62096499D01*
X168775000Y-62116461D01*
X168829538Y-62170999D01*
X168849500Y-62245499D01*
X168849500Y-62529310D01*
X168873713Y-62619672D01*
X168880202Y-62643891D01*
X168939506Y-62746607D01*
X168939509Y-62746611D01*
X168939511Y-62746614D01*
X171591197Y-65398300D01*
X174207583Y-68014686D01*
X174246147Y-68081481D01*
X174246147Y-68158609D01*
X174207583Y-68225404D01*
X174140788Y-68263968D01*
X174063660Y-68263968D01*
X174048410Y-68258987D01*
X173953984Y-68222407D01*
X173939196Y-68216678D01*
X173729614Y-68177500D01*
X173729610Y-68177500D01*
X173516390Y-68177500D01*
X173516385Y-68177500D01*
X173306802Y-68216679D01*
X173306793Y-68216681D01*
X173283432Y-68225731D01*
X173206751Y-68234027D01*
X173136196Y-68202870D01*
X173124253Y-68192150D01*
X171862182Y-66930079D01*
X170597614Y-65665511D01*
X170597611Y-65665509D01*
X170597607Y-65665506D01*
X170494890Y-65606202D01*
X170494887Y-65606201D01*
X170470673Y-65599713D01*
X170380309Y-65575500D01*
X155468534Y-65575500D01*
X155394034Y-65555538D01*
X155363175Y-65531859D01*
X149275716Y-59444400D01*
X146072451Y-56241135D01*
X168154500Y-56241135D01*
X168154500Y-56241136D01*
X168154500Y-56241140D01*
X168154500Y-58030866D01*
X168157414Y-58055989D01*
X168157415Y-58055992D01*
X168202793Y-58158764D01*
X168202794Y-58158765D01*
X168282235Y-58238206D01*
X168385009Y-58283585D01*
X168410135Y-58286500D01*
X170199864Y-58286499D01*
X170199866Y-58286499D01*
X170212427Y-58285042D01*
X170224991Y-58283585D01*
X170327765Y-58238206D01*
X170407206Y-58158765D01*
X170452585Y-58055991D01*
X170455500Y-58030865D01*
X170455499Y-57524632D01*
X170475461Y-57450135D01*
X170529999Y-57395597D01*
X170604499Y-57375635D01*
X170678999Y-57395597D01*
X170733537Y-57450135D01*
X170747811Y-57483858D01*
X170767594Y-57553387D01*
X170862636Y-57744259D01*
X170991127Y-57914406D01*
X170991128Y-57914407D01*
X171146441Y-58055994D01*
X171148697Y-58058051D01*
X171148698Y-58058052D01*
X171329977Y-58170296D01*
X171329983Y-58170299D01*
X171340066Y-58174205D01*
X171528802Y-58247321D01*
X171738390Y-58286500D01*
X171738393Y-58286500D01*
X171951607Y-58286500D01*
X171951610Y-58286500D01*
X172161198Y-58247321D01*
X172360019Y-58170298D01*
X172541302Y-58058052D01*
X172698872Y-57914407D01*
X172827366Y-57744255D01*
X172922405Y-57553389D01*
X172980756Y-57348310D01*
X173000429Y-57136000D01*
X172980756Y-56923690D01*
X172922405Y-56718611D01*
X172827366Y-56527745D01*
X172827364Y-56527743D01*
X172827363Y-56527740D01*
X172698872Y-56357593D01*
X172541302Y-56213948D01*
X172541301Y-56213947D01*
X172360022Y-56101703D01*
X172360016Y-56101700D01*
X172161204Y-56024681D01*
X172161200Y-56024680D01*
X172161198Y-56024679D01*
X172106628Y-56014478D01*
X171951614Y-55985500D01*
X171951610Y-55985500D01*
X171738390Y-55985500D01*
X171738385Y-55985500D01*
X171528802Y-56024679D01*
X171528795Y-56024681D01*
X171329983Y-56101700D01*
X171329977Y-56101703D01*
X171148698Y-56213947D01*
X171148697Y-56213948D01*
X170991127Y-56357593D01*
X170862636Y-56527740D01*
X170767594Y-56718612D01*
X170747811Y-56788143D01*
X170708222Y-56854335D01*
X170640841Y-56891866D01*
X170563722Y-56890678D01*
X170497530Y-56851089D01*
X170459999Y-56783708D01*
X170455499Y-56747366D01*
X170455499Y-56241133D01*
X170452585Y-56216010D01*
X170452584Y-56216008D01*
X170407206Y-56113235D01*
X170327765Y-56033794D01*
X170327764Y-56033793D01*
X170224994Y-55988416D01*
X170224991Y-55988415D01*
X170224982Y-55988414D01*
X170199865Y-55985500D01*
X170199859Y-55985500D01*
X168410133Y-55985500D01*
X168385010Y-55988414D01*
X168385007Y-55988415D01*
X168282235Y-56033793D01*
X168202793Y-56113235D01*
X168157416Y-56216005D01*
X168157415Y-56216008D01*
X168157415Y-56216009D01*
X168154500Y-56241135D01*
X146072451Y-56241135D01*
X143177827Y-53346511D01*
X143177824Y-53346509D01*
X143177820Y-53346506D01*
X143075103Y-53287202D01*
X143075100Y-53287201D01*
X143050886Y-53280713D01*
X142960522Y-53256500D01*
X130661364Y-53256500D01*
X130586864Y-53236538D01*
X130562559Y-53219028D01*
X130457853Y-53126267D01*
X130457854Y-53126267D01*
X130307224Y-53047209D01*
X130142056Y-53006500D01*
X129971944Y-53006500D01*
X129806775Y-53047209D01*
X129656148Y-53126265D01*
X129531869Y-53236367D01*
X129462867Y-53270827D01*
X129385880Y-53266170D01*
X129334259Y-53236366D01*
X129238653Y-53151667D01*
X129238654Y-53151667D01*
X129088024Y-53072609D01*
X128922856Y-53031900D01*
X128752744Y-53031900D01*
X128587575Y-53072609D01*
X128436945Y-53151667D01*
X128302871Y-53270447D01*
X128300791Y-53268099D01*
X128249983Y-53301680D01*
X128172995Y-53306337D01*
X128103994Y-53271875D01*
X128101300Y-53269181D01*
X127968653Y-53151667D01*
X127968654Y-53151667D01*
X127818024Y-53072609D01*
X127652856Y-53031900D01*
X127482744Y-53031900D01*
X127317575Y-53072609D01*
X127166945Y-53151667D01*
X127032871Y-53270447D01*
X127030791Y-53268099D01*
X126979983Y-53301680D01*
X126902995Y-53306337D01*
X126833994Y-53271875D01*
X126831300Y-53269181D01*
X126698653Y-53151667D01*
X126698654Y-53151667D01*
X126548024Y-53072609D01*
X126382856Y-53031900D01*
X126212744Y-53031900D01*
X126047575Y-53072609D01*
X125896945Y-53151667D01*
X125769620Y-53264467D01*
X125769617Y-53264471D01*
X125672981Y-53404470D01*
X125612660Y-53563525D01*
X125592155Y-53732400D01*
X125612660Y-53901274D01*
X125672980Y-54060326D01*
X125672982Y-54060330D01*
X125769617Y-54200329D01*
X125781272Y-54210654D01*
X125797303Y-54224857D01*
X125839830Y-54289201D01*
X125846222Y-54316926D01*
X125847299Y-54325106D01*
X125869375Y-54407495D01*
X125869378Y-54407502D01*
X125878001Y-54439687D01*
X125937308Y-54542410D01*
X125937309Y-54542411D01*
X125937311Y-54542414D01*
X126767930Y-55373033D01*
X126806494Y-55439828D01*
X126806494Y-55516956D01*
X126767930Y-55583751D01*
X126709440Y-55619829D01*
X126620677Y-55649242D01*
X126471459Y-55741280D01*
X126347480Y-55865259D01*
X126255442Y-56014478D01*
X126200294Y-56180902D01*
X126200292Y-56180911D01*
X126189800Y-56283610D01*
X126189800Y-56733600D01*
X130266599Y-56733600D01*
X130266599Y-56308626D01*
X130258224Y-56226642D01*
X130270512Y-56150499D01*
X130319225Y-56090701D01*
X130391311Y-56063271D01*
X130406453Y-56062500D01*
X131128518Y-56062500D01*
X131203018Y-56082462D01*
X131257556Y-56137000D01*
X131277518Y-56211500D01*
X131276455Y-56229265D01*
X131266100Y-56315494D01*
X131266100Y-57651705D01*
X131276722Y-57740163D01*
X131332238Y-57880941D01*
X131420832Y-57997770D01*
X131423678Y-58001522D01*
X131544258Y-58092961D01*
X131685036Y-58148477D01*
X131773498Y-58159100D01*
X131773499Y-58159100D01*
X132484701Y-58159100D01*
X132484702Y-58159100D01*
X132573164Y-58148477D01*
X132713942Y-58092961D01*
X132834522Y-58001522D01*
X132859276Y-57968878D01*
X132920197Y-57921579D01*
X132996607Y-57911076D01*
X133068031Y-57940186D01*
X133096724Y-57968879D01*
X133121476Y-58001520D01*
X133121479Y-58001523D01*
X133160171Y-58030864D01*
X133242058Y-58092961D01*
X133282059Y-58108735D01*
X133344042Y-58154635D01*
X133374771Y-58225377D01*
X133376400Y-58247347D01*
X133376400Y-59478900D01*
X133356438Y-59553400D01*
X133301900Y-59607938D01*
X133282067Y-59617508D01*
X133260952Y-59625835D01*
X133240657Y-59633839D01*
X133240654Y-59633841D01*
X133120079Y-59725276D01*
X133120076Y-59725279D01*
X133028639Y-59845858D01*
X133028638Y-59845858D01*
X132973122Y-59986636D01*
X132962500Y-60075094D01*
X132962500Y-60168700D01*
X132942538Y-60243200D01*
X132888000Y-60297738D01*
X132813500Y-60317700D01*
X131851887Y-60317700D01*
X131761526Y-60341912D01*
X131761526Y-60341913D01*
X131737313Y-60348401D01*
X131634589Y-60407708D01*
X125795238Y-66247059D01*
X125728443Y-66285623D01*
X125689879Y-66290700D01*
X125603144Y-66290700D01*
X125437975Y-66331409D01*
X125287345Y-66410467D01*
X125160020Y-66523267D01*
X125160017Y-66523271D01*
X125063381Y-66663270D01*
X125003060Y-66822325D01*
X124982555Y-66991200D01*
X120942400Y-66991200D01*
X120942400Y-56290494D01*
X123439300Y-56290494D01*
X123439300Y-57676705D01*
X123449922Y-57765163D01*
X123505438Y-57905941D01*
X123577920Y-58001523D01*
X123596878Y-58026522D01*
X123717458Y-58117961D01*
X123769962Y-58138666D01*
X123831944Y-58184567D01*
X123862672Y-58255310D01*
X123864300Y-58277277D01*
X123864300Y-59551432D01*
X123844338Y-59625932D01*
X123789800Y-59680470D01*
X123769963Y-59690043D01*
X123719258Y-59710039D01*
X123719257Y-59710039D01*
X123719256Y-59710040D01*
X123598679Y-59801476D01*
X123598676Y-59801479D01*
X123507239Y-59922058D01*
X123507238Y-59922058D01*
X123451722Y-60062836D01*
X123441100Y-60151294D01*
X123441100Y-61537505D01*
X123451722Y-61625963D01*
X123507238Y-61766741D01*
X123582502Y-61865992D01*
X123598678Y-61887322D01*
X123719258Y-61978761D01*
X123771762Y-61999466D01*
X123833744Y-62045367D01*
X123864472Y-62116110D01*
X123866100Y-62138077D01*
X123866100Y-62628190D01*
X123846138Y-62702690D01*
X123815906Y-62739718D01*
X123788417Y-62764071D01*
X123691781Y-62904070D01*
X123631460Y-63063125D01*
X123610955Y-63232000D01*
X123631460Y-63400874D01*
X123691781Y-63559929D01*
X123721713Y-63603293D01*
X123788417Y-63699929D01*
X123788419Y-63699930D01*
X123788420Y-63699932D01*
X123915746Y-63812732D01*
X123915748Y-63812734D01*
X124066375Y-63891790D01*
X124231544Y-63932500D01*
X124401656Y-63932500D01*
X124566825Y-63891790D01*
X124717452Y-63812734D01*
X124844783Y-63699929D01*
X124941418Y-63559930D01*
X125001740Y-63400872D01*
X125022245Y-63232000D01*
X125001740Y-63063128D01*
X124979914Y-63005578D01*
X124941418Y-62904070D01*
X124844783Y-62764071D01*
X124817293Y-62739717D01*
X124774768Y-62675373D01*
X124767100Y-62628190D01*
X124767100Y-62138077D01*
X124787062Y-62063577D01*
X124841600Y-62009039D01*
X124861438Y-61999466D01*
X124892093Y-61987377D01*
X124913942Y-61978761D01*
X125034522Y-61887322D01*
X125125961Y-61766742D01*
X125181477Y-61625964D01*
X125191275Y-61544373D01*
X126191601Y-61544373D01*
X126202094Y-61647096D01*
X126257242Y-61813521D01*
X126349280Y-61962740D01*
X126473259Y-62086719D01*
X126622478Y-62178757D01*
X126788902Y-62233905D01*
X126788911Y-62233907D01*
X126891615Y-62244399D01*
X127016599Y-62244399D01*
X127516600Y-62244399D01*
X127641574Y-62244399D01*
X127744296Y-62233905D01*
X127910721Y-62178757D01*
X128059940Y-62086719D01*
X128183919Y-61962740D01*
X128275957Y-61813521D01*
X128331105Y-61647097D01*
X128331107Y-61647088D01*
X128341599Y-61544389D01*
X128341600Y-61544379D01*
X128341600Y-61094400D01*
X127516600Y-61094400D01*
X127516600Y-62244399D01*
X127016599Y-62244399D01*
X127016600Y-62244398D01*
X127016600Y-61094400D01*
X126191601Y-61094400D01*
X126191601Y-61544373D01*
X125191275Y-61544373D01*
X125192100Y-61537502D01*
X125192100Y-60151298D01*
X125191273Y-60144410D01*
X126191600Y-60144410D01*
X126191600Y-60594400D01*
X127016600Y-60594400D01*
X127516600Y-60594400D01*
X128341599Y-60594400D01*
X128341599Y-60144426D01*
X128331105Y-60041703D01*
X128275957Y-59875278D01*
X128183919Y-59726059D01*
X128059940Y-59602080D01*
X127910721Y-59510042D01*
X127744297Y-59454894D01*
X127744288Y-59454892D01*
X127641589Y-59444400D01*
X127516600Y-59444400D01*
X127516600Y-60594400D01*
X127016600Y-60594400D01*
X127016600Y-59444400D01*
X126891626Y-59444400D01*
X126788903Y-59454894D01*
X126622478Y-59510042D01*
X126473259Y-59602080D01*
X126349280Y-59726059D01*
X126257242Y-59875278D01*
X126202094Y-60041702D01*
X126202092Y-60041711D01*
X126191600Y-60144410D01*
X125191273Y-60144410D01*
X125181477Y-60062836D01*
X125125961Y-59922058D01*
X125097772Y-59884885D01*
X125034523Y-59801479D01*
X125034520Y-59801476D01*
X124974349Y-59755847D01*
X124913942Y-59710039D01*
X124913940Y-59710038D01*
X124859638Y-59688624D01*
X124797656Y-59642723D01*
X124766928Y-59571980D01*
X124765300Y-59550013D01*
X124765300Y-58277277D01*
X124785262Y-58202777D01*
X124839800Y-58148239D01*
X124859638Y-58138666D01*
X124865843Y-58136219D01*
X124912142Y-58117961D01*
X125032722Y-58026522D01*
X125124161Y-57905942D01*
X125179677Y-57765164D01*
X125189475Y-57683573D01*
X126189801Y-57683573D01*
X126200294Y-57786296D01*
X126255442Y-57952721D01*
X126347480Y-58101940D01*
X126471459Y-58225919D01*
X126620678Y-58317957D01*
X126787102Y-58373105D01*
X126787111Y-58373107D01*
X126889815Y-58383599D01*
X127014799Y-58383599D01*
X127514800Y-58383599D01*
X127639774Y-58383599D01*
X127742496Y-58373105D01*
X127908921Y-58317957D01*
X128058140Y-58225919D01*
X128147841Y-58136219D01*
X128214636Y-58097655D01*
X128291764Y-58097655D01*
X128358559Y-58136219D01*
X128423259Y-58200919D01*
X128572478Y-58292957D01*
X128738902Y-58348105D01*
X128738911Y-58348107D01*
X128841615Y-58358599D01*
X129454100Y-58358599D01*
X129566574Y-58358599D01*
X129669296Y-58348105D01*
X129835721Y-58292957D01*
X129984940Y-58200919D01*
X130108919Y-58076940D01*
X130200957Y-57927721D01*
X130256105Y-57761297D01*
X130256107Y-57761288D01*
X130266599Y-57658589D01*
X130266600Y-57658579D01*
X130266600Y-57233600D01*
X129454100Y-57233600D01*
X129454100Y-58358599D01*
X128841615Y-58358599D01*
X128954099Y-58358598D01*
X128954100Y-58358598D01*
X128954100Y-57233600D01*
X127514800Y-57233600D01*
X127514800Y-58383599D01*
X127014799Y-58383599D01*
X127014800Y-58383598D01*
X127014800Y-57233600D01*
X126189801Y-57233600D01*
X126189801Y-57683573D01*
X125189475Y-57683573D01*
X125190300Y-57676702D01*
X125190300Y-56290498D01*
X125179677Y-56202036D01*
X125124161Y-56061258D01*
X125103334Y-56033793D01*
X125032723Y-55940679D01*
X125032720Y-55940676D01*
X124933267Y-55865259D01*
X124912142Y-55849239D01*
X124912141Y-55849238D01*
X124771363Y-55793722D01*
X124682905Y-55783100D01*
X124682902Y-55783100D01*
X123946698Y-55783100D01*
X123946694Y-55783100D01*
X123858236Y-55793722D01*
X123717458Y-55849238D01*
X123717458Y-55849239D01*
X123596879Y-55940676D01*
X123596876Y-55940679D01*
X123505439Y-56061258D01*
X123505438Y-56061258D01*
X123449922Y-56202036D01*
X123439300Y-56290494D01*
X120942400Y-56290494D01*
X120942400Y-52431135D01*
X168154500Y-52431135D01*
X168154500Y-52431136D01*
X168154500Y-52431140D01*
X168154500Y-54220866D01*
X168157414Y-54245989D01*
X168157415Y-54245992D01*
X168202793Y-54348764D01*
X168202794Y-54348765D01*
X168282235Y-54428206D01*
X168385009Y-54473585D01*
X168410135Y-54476500D01*
X170199864Y-54476499D01*
X170199866Y-54476499D01*
X170212427Y-54475042D01*
X170224991Y-54473585D01*
X170327765Y-54428206D01*
X170407206Y-54348765D01*
X170452585Y-54245991D01*
X170455500Y-54220865D01*
X170455499Y-53714632D01*
X170475461Y-53640135D01*
X170529999Y-53585597D01*
X170604499Y-53565635D01*
X170678999Y-53585597D01*
X170733537Y-53640135D01*
X170747811Y-53673858D01*
X170767594Y-53743387D01*
X170862636Y-53934259D01*
X170957839Y-54060326D01*
X170991128Y-54104407D01*
X171146441Y-54245994D01*
X171148697Y-54248051D01*
X171148698Y-54248052D01*
X171329977Y-54360296D01*
X171329983Y-54360299D01*
X171412304Y-54392190D01*
X171528802Y-54437321D01*
X171738390Y-54476500D01*
X171738393Y-54476500D01*
X171951607Y-54476500D01*
X171951610Y-54476500D01*
X172161198Y-54437321D01*
X172360019Y-54360298D01*
X172541302Y-54248052D01*
X172698872Y-54104407D01*
X172827366Y-53934255D01*
X172922405Y-53743389D01*
X172980756Y-53538310D01*
X172996378Y-53369723D01*
X173000429Y-53326004D01*
X173000429Y-53325995D01*
X172980756Y-53113694D01*
X172980756Y-53113690D01*
X172922405Y-52908611D01*
X172827366Y-52717745D01*
X172827364Y-52717743D01*
X172827363Y-52717740D01*
X172698872Y-52547593D01*
X172541302Y-52403948D01*
X172541301Y-52403947D01*
X172360022Y-52291703D01*
X172360016Y-52291700D01*
X172161204Y-52214681D01*
X172161200Y-52214680D01*
X172161198Y-52214679D01*
X172119280Y-52206843D01*
X171951614Y-52175500D01*
X171951610Y-52175500D01*
X171738390Y-52175500D01*
X171738385Y-52175500D01*
X171528802Y-52214679D01*
X171528795Y-52214681D01*
X171329983Y-52291700D01*
X171329977Y-52291703D01*
X171148698Y-52403947D01*
X171148697Y-52403948D01*
X170991127Y-52547593D01*
X170862636Y-52717740D01*
X170767594Y-52908612D01*
X170747811Y-52978143D01*
X170708222Y-53044335D01*
X170640841Y-53081866D01*
X170563722Y-53080678D01*
X170497530Y-53041089D01*
X170459999Y-52973708D01*
X170455499Y-52937366D01*
X170455499Y-52431133D01*
X170452585Y-52406010D01*
X170452584Y-52406008D01*
X170407206Y-52303235D01*
X170327765Y-52223794D01*
X170327764Y-52223793D01*
X170224994Y-52178416D01*
X170224991Y-52178415D01*
X170224982Y-52178414D01*
X170199865Y-52175500D01*
X170199859Y-52175500D01*
X168410133Y-52175500D01*
X168385010Y-52178414D01*
X168385007Y-52178415D01*
X168282235Y-52223793D01*
X168202793Y-52303235D01*
X168157416Y-52406005D01*
X168157415Y-52406008D01*
X168157415Y-52406009D01*
X168154500Y-52431135D01*
X120942400Y-52431135D01*
X120942400Y-51687000D01*
X120905404Y-51650004D01*
X120866840Y-51583209D01*
X120861763Y-51544971D01*
X120857967Y-49794780D01*
X120857967Y-49740515D01*
X120877929Y-49666015D01*
X120932467Y-49611477D01*
X121006900Y-49591515D01*
X179306631Y-49566244D01*
X179381138Y-49586174D01*
G37*
%TD.AperFunction*%
%TA.AperFunction,Conductor*%
G36*
X172252582Y-81167489D02*
G01*
X172267242Y-81180345D01*
X178784259Y-87697362D01*
X178822823Y-87764157D01*
X178827900Y-87802721D01*
X178827900Y-101691000D01*
X178807938Y-101765500D01*
X178753400Y-101820038D01*
X178678900Y-101840000D01*
X176262821Y-101840000D01*
X176188321Y-101820038D01*
X176157462Y-101796359D01*
X172824876Y-98463773D01*
X172786312Y-98396978D01*
X172783069Y-98335110D01*
X172808500Y-98174546D01*
X172808500Y-97693454D01*
X172780171Y-97514591D01*
X172724211Y-97342361D01*
X172641996Y-97181006D01*
X172630182Y-97164746D01*
X172596256Y-97118050D01*
X172535553Y-97034499D01*
X172407501Y-96906447D01*
X172260994Y-96800004D01*
X172099639Y-96717789D01*
X171927409Y-96661829D01*
X171748546Y-96633500D01*
X171567454Y-96633500D01*
X171419712Y-96656900D01*
X171388591Y-96661829D01*
X171216360Y-96717788D01*
X171211139Y-96719952D01*
X171134671Y-96730021D01*
X171063413Y-96700506D01*
X171048757Y-96687654D01*
X170943503Y-96582400D01*
X170379714Y-96018611D01*
X170379711Y-96018609D01*
X170379707Y-96018606D01*
X170276990Y-95959302D01*
X170276987Y-95959301D01*
X170252773Y-95952813D01*
X170162409Y-95928600D01*
X160057100Y-95928600D01*
X159982600Y-95908638D01*
X159928062Y-95854100D01*
X159908100Y-95779600D01*
X159908100Y-95487841D01*
X159908099Y-95487824D01*
X159905246Y-95457401D01*
X159860393Y-95329218D01*
X159824148Y-95280108D01*
X159779751Y-95219951D01*
X159779748Y-95219948D01*
X159670483Y-95139307D01*
X159600159Y-95114700D01*
X159542299Y-95094454D01*
X159542297Y-95094453D01*
X159542295Y-95094453D01*
X159511875Y-95091600D01*
X159511866Y-95091600D01*
X159103334Y-95091600D01*
X159103324Y-95091600D01*
X159072904Y-95094453D01*
X158944716Y-95139307D01*
X158835451Y-95219948D01*
X158835448Y-95219951D01*
X158754807Y-95329216D01*
X158709953Y-95457404D01*
X158707100Y-95487824D01*
X158707100Y-95532400D01*
X158687138Y-95606900D01*
X158632600Y-95661438D01*
X158558100Y-95681400D01*
X155078700Y-95681400D01*
X155004200Y-95661438D01*
X154949662Y-95606900D01*
X154929700Y-95532400D01*
X154929700Y-95490141D01*
X154929699Y-95490124D01*
X154928797Y-95480504D01*
X154926846Y-95459701D01*
X154881993Y-95331518D01*
X154880296Y-95329218D01*
X154808815Y-95232364D01*
X154780637Y-95160567D01*
X154779700Y-95143885D01*
X154779700Y-93564121D01*
X154799662Y-93489621D01*
X154823341Y-93458762D01*
X155140192Y-93141911D01*
X155462289Y-92819814D01*
X155521598Y-92717087D01*
X155521599Y-92717086D01*
X155552300Y-92602509D01*
X155552300Y-90963100D01*
X155572262Y-90888600D01*
X155626800Y-90834062D01*
X155701300Y-90814100D01*
X155781388Y-90814100D01*
X155781394Y-90814100D01*
X155849457Y-90807915D01*
X155849459Y-90807914D01*
X155849461Y-90807914D01*
X155897434Y-90792964D01*
X156006070Y-90759112D01*
X156146453Y-90674248D01*
X156262448Y-90558253D01*
X156328000Y-90449815D01*
X156383624Y-90396388D01*
X156455511Y-90377900D01*
X156740300Y-90377900D01*
X156814800Y-90397862D01*
X156869338Y-90452400D01*
X156889300Y-90526900D01*
X156889300Y-90620505D01*
X156899922Y-90708963D01*
X156955438Y-90849741D01*
X157010366Y-90922175D01*
X157046878Y-90970322D01*
X157167458Y-91061761D01*
X157308236Y-91117277D01*
X157396698Y-91127900D01*
X157396699Y-91127900D01*
X158132901Y-91127900D01*
X158132902Y-91127900D01*
X158221364Y-91117277D01*
X158362142Y-91061761D01*
X158482722Y-90970322D01*
X158574161Y-90849742D01*
X158629677Y-90708964D01*
X158640300Y-90620502D01*
X158640300Y-89234298D01*
X158629677Y-89145836D01*
X158574161Y-89005058D01*
X158501082Y-88908689D01*
X158471972Y-88837265D01*
X158482475Y-88760855D01*
X158529775Y-88699934D01*
X158541586Y-88691841D01*
X158559937Y-88680522D01*
X158683919Y-88556540D01*
X158775957Y-88407321D01*
X158831105Y-88240897D01*
X158831107Y-88240888D01*
X158841599Y-88138189D01*
X158841600Y-88138179D01*
X158841600Y-87688200D01*
X157665600Y-87688200D01*
X157591100Y-87668238D01*
X157536562Y-87613700D01*
X157516600Y-87539200D01*
X157516600Y-87188200D01*
X158016600Y-87188200D01*
X158841599Y-87188200D01*
X158841599Y-86738226D01*
X158831105Y-86635503D01*
X158775957Y-86469078D01*
X158683919Y-86319859D01*
X158559940Y-86195880D01*
X158410721Y-86103842D01*
X158244297Y-86048694D01*
X158244288Y-86048692D01*
X158141589Y-86038200D01*
X158016600Y-86038200D01*
X158016600Y-87188200D01*
X157516600Y-87188200D01*
X157516600Y-86038200D01*
X157391626Y-86038200D01*
X157288903Y-86048694D01*
X157122478Y-86103842D01*
X156973259Y-86195880D01*
X156849280Y-86319859D01*
X156757242Y-86469078D01*
X156724883Y-86566731D01*
X156682500Y-86631170D01*
X156613575Y-86665785D01*
X156536578Y-86661300D01*
X156472139Y-86618917D01*
X156467314Y-86613213D01*
X156349170Y-86466236D01*
X156349163Y-86466229D01*
X156200828Y-86346994D01*
X156166088Y-86329764D01*
X156108215Y-86278778D01*
X156083588Y-86205688D01*
X156098806Y-86130076D01*
X156140410Y-86078981D01*
X156146444Y-86074252D01*
X156146453Y-86074248D01*
X156262448Y-85958253D01*
X156347312Y-85817870D01*
X156362845Y-85768021D01*
X156378193Y-85718772D01*
X156419415Y-85653584D01*
X156487709Y-85617741D01*
X156520446Y-85614100D01*
X159487279Y-85614100D01*
X159561779Y-85634062D01*
X159592638Y-85657741D01*
X160066377Y-86131480D01*
X160104941Y-86198275D01*
X160104941Y-86275403D01*
X160066377Y-86342198D01*
X160051050Y-86355563D01*
X159998676Y-86395279D01*
X159907239Y-86515858D01*
X159907238Y-86515858D01*
X159851722Y-86656636D01*
X159841100Y-86745094D01*
X159841100Y-88131305D01*
X159851722Y-88219763D01*
X159907238Y-88360541D01*
X159983390Y-88460963D01*
X159998678Y-88481122D01*
X160107170Y-88563394D01*
X160154469Y-88624314D01*
X160164972Y-88700724D01*
X160135862Y-88772148D01*
X160107169Y-88800841D01*
X159996879Y-88884476D01*
X159996876Y-88884479D01*
X159905439Y-89005058D01*
X159905438Y-89005058D01*
X159849922Y-89145836D01*
X159839300Y-89234294D01*
X159839300Y-90620505D01*
X159849922Y-90708963D01*
X159905438Y-90849741D01*
X159960366Y-90922175D01*
X159996878Y-90970322D01*
X160117458Y-91061761D01*
X160258236Y-91117277D01*
X160346698Y-91127900D01*
X160346699Y-91127900D01*
X161082901Y-91127900D01*
X161082902Y-91127900D01*
X161171364Y-91117277D01*
X161312142Y-91061761D01*
X161432722Y-90970322D01*
X161524161Y-90849742D01*
X161579677Y-90708964D01*
X161590300Y-90620502D01*
X161590300Y-89234298D01*
X161579677Y-89145836D01*
X161524161Y-89005058D01*
X161451082Y-88908689D01*
X161432723Y-88884479D01*
X161432720Y-88884476D01*
X161324230Y-88802206D01*
X161276930Y-88741285D01*
X161266427Y-88664875D01*
X161295537Y-88593451D01*
X161324224Y-88564763D01*
X161434522Y-88481122D01*
X161525961Y-88360542D01*
X161581477Y-88219764D01*
X161592100Y-88131302D01*
X161592100Y-86745098D01*
X161581477Y-86656636D01*
X161525961Y-86515858D01*
X161434523Y-86395279D01*
X161434520Y-86395276D01*
X161370849Y-86346993D01*
X161313942Y-86303839D01*
X161313941Y-86303838D01*
X161261438Y-86283134D01*
X161199456Y-86237233D01*
X161168728Y-86166490D01*
X161167100Y-86144523D01*
X161167100Y-86085291D01*
X161167099Y-86085289D01*
X161165409Y-86078981D01*
X161136399Y-85970714D01*
X161118185Y-85939167D01*
X161077090Y-85867987D01*
X161077089Y-85867986D01*
X161077088Y-85867984D01*
X161071144Y-85860237D01*
X161072302Y-85859348D01*
X161038998Y-85801664D01*
X161038998Y-85724536D01*
X161077562Y-85657741D01*
X161144357Y-85619177D01*
X161182921Y-85614100D01*
X166487706Y-85614100D01*
X166487709Y-85614100D01*
X166578073Y-85589886D01*
X166602287Y-85583399D01*
X166705014Y-85524089D01*
X171048758Y-81180343D01*
X171115551Y-81141781D01*
X171192679Y-81141781D01*
X171211144Y-81148050D01*
X171216358Y-81150210D01*
X171216360Y-81150210D01*
X171216361Y-81150211D01*
X171388591Y-81206171D01*
X171567454Y-81234500D01*
X171567458Y-81234500D01*
X171748542Y-81234500D01*
X171748546Y-81234500D01*
X171927409Y-81206171D01*
X171927410Y-81206170D01*
X171927414Y-81206170D01*
X172050521Y-81166170D01*
X172099639Y-81150211D01*
X172099650Y-81150204D01*
X172104856Y-81148049D01*
X172181323Y-81137978D01*
X172252582Y-81167489D01*
G37*
%TD.AperFunction*%
%TD*%
D35*
X112150000Y-46750000D02*
X184150000Y-46750000D01*
X184150000Y-143750000D01*
X112150000Y-143750000D01*
X112150000Y-46750000D01*
M02*
