%TF.GenerationSoftware,KiCad,Pcbnew,8.0.3-8.0.3-0~ubuntu23.10.1*%
%TF.CreationDate,2024-07-29T17:43:26+05:00*%
%TF.ProjectId,IOTV,494f5456-2e6b-4696-9361-645f70636258,3*%
%TF.SameCoordinates,Original*%
%TF.FileFunction,Legend,Bot*%
%TF.FilePolarity,Positive*%
%FSLAX46Y46*%
G04 Gerber Fmt 4.6, Leading zero omitted, Abs format (unit mm)*
G04 Created by KiCad (PCBNEW 8.0.3-8.0.3-0~ubuntu23.10.1) date 2024-07-29 17:43:26*
%MOMM*%
%LPD*%
G01*
G04 APERTURE LIST*
%ADD10C,0.150000*%
%ADD11C,0.120000*%
%TA.AperFunction,Profile*%
%ADD12C,0.100000*%
%TD*%
G04 APERTURE END LIST*
D10*
X88307057Y-123577361D02*
X88259438Y-123482123D01*
X88259438Y-123482123D02*
X88164200Y-123386885D01*
X88164200Y-123386885D02*
X88021342Y-123244028D01*
X88021342Y-123244028D02*
X87973723Y-123148790D01*
X87973723Y-123148790D02*
X87973723Y-123053552D01*
X88211819Y-123101171D02*
X88164200Y-123005933D01*
X88164200Y-123005933D02*
X88068961Y-122910695D01*
X88068961Y-122910695D02*
X87878485Y-122863076D01*
X87878485Y-122863076D02*
X87545152Y-122863076D01*
X87545152Y-122863076D02*
X87354676Y-122910695D01*
X87354676Y-122910695D02*
X87259438Y-123005933D01*
X87259438Y-123005933D02*
X87211819Y-123101171D01*
X87211819Y-123101171D02*
X87211819Y-123291647D01*
X87211819Y-123291647D02*
X87259438Y-123386885D01*
X87259438Y-123386885D02*
X87354676Y-123482123D01*
X87354676Y-123482123D02*
X87545152Y-123529742D01*
X87545152Y-123529742D02*
X87878485Y-123529742D01*
X87878485Y-123529742D02*
X88068961Y-123482123D01*
X88068961Y-123482123D02*
X88164200Y-123386885D01*
X88164200Y-123386885D02*
X88211819Y-123291647D01*
X88211819Y-123291647D02*
X88211819Y-123101171D01*
X87211819Y-123863076D02*
X87211819Y-124482123D01*
X87211819Y-124482123D02*
X87592771Y-124148790D01*
X87592771Y-124148790D02*
X87592771Y-124291647D01*
X87592771Y-124291647D02*
X87640390Y-124386885D01*
X87640390Y-124386885D02*
X87688009Y-124434504D01*
X87688009Y-124434504D02*
X87783247Y-124482123D01*
X87783247Y-124482123D02*
X88021342Y-124482123D01*
X88021342Y-124482123D02*
X88116580Y-124434504D01*
X88116580Y-124434504D02*
X88164200Y-124386885D01*
X88164200Y-124386885D02*
X88211819Y-124291647D01*
X88211819Y-124291647D02*
X88211819Y-124005933D01*
X88211819Y-124005933D02*
X88164200Y-123910695D01*
X88164200Y-123910695D02*
X88116580Y-123863076D01*
X78663704Y-111388419D02*
X78663704Y-112197942D01*
X78663704Y-112197942D02*
X78616085Y-112293180D01*
X78616085Y-112293180D02*
X78568466Y-112340800D01*
X78568466Y-112340800D02*
X78473228Y-112388419D01*
X78473228Y-112388419D02*
X78282752Y-112388419D01*
X78282752Y-112388419D02*
X78187514Y-112340800D01*
X78187514Y-112340800D02*
X78139895Y-112293180D01*
X78139895Y-112293180D02*
X78092276Y-112197942D01*
X78092276Y-112197942D02*
X78092276Y-111388419D01*
X77663704Y-111483657D02*
X77616085Y-111436038D01*
X77616085Y-111436038D02*
X77520847Y-111388419D01*
X77520847Y-111388419D02*
X77282752Y-111388419D01*
X77282752Y-111388419D02*
X77187514Y-111436038D01*
X77187514Y-111436038D02*
X77139895Y-111483657D01*
X77139895Y-111483657D02*
X77092276Y-111578895D01*
X77092276Y-111578895D02*
X77092276Y-111674133D01*
X77092276Y-111674133D02*
X77139895Y-111816990D01*
X77139895Y-111816990D02*
X77711323Y-112388419D01*
X77711323Y-112388419D02*
X77092276Y-112388419D01*
X51906466Y-84463180D02*
X51954085Y-84510800D01*
X51954085Y-84510800D02*
X52096942Y-84558419D01*
X52096942Y-84558419D02*
X52192180Y-84558419D01*
X52192180Y-84558419D02*
X52335037Y-84510800D01*
X52335037Y-84510800D02*
X52430275Y-84415561D01*
X52430275Y-84415561D02*
X52477894Y-84320323D01*
X52477894Y-84320323D02*
X52525513Y-84129847D01*
X52525513Y-84129847D02*
X52525513Y-83986990D01*
X52525513Y-83986990D02*
X52477894Y-83796514D01*
X52477894Y-83796514D02*
X52430275Y-83701276D01*
X52430275Y-83701276D02*
X52335037Y-83606038D01*
X52335037Y-83606038D02*
X52192180Y-83558419D01*
X52192180Y-83558419D02*
X52096942Y-83558419D01*
X52096942Y-83558419D02*
X51954085Y-83606038D01*
X51954085Y-83606038D02*
X51906466Y-83653657D01*
X50954085Y-84558419D02*
X51525513Y-84558419D01*
X51239799Y-84558419D02*
X51239799Y-83558419D01*
X51239799Y-83558419D02*
X51335037Y-83701276D01*
X51335037Y-83701276D02*
X51430275Y-83796514D01*
X51430275Y-83796514D02*
X51525513Y-83844133D01*
X51908266Y-88323980D02*
X51955885Y-88371600D01*
X51955885Y-88371600D02*
X52098742Y-88419219D01*
X52098742Y-88419219D02*
X52193980Y-88419219D01*
X52193980Y-88419219D02*
X52336837Y-88371600D01*
X52336837Y-88371600D02*
X52432075Y-88276361D01*
X52432075Y-88276361D02*
X52479694Y-88181123D01*
X52479694Y-88181123D02*
X52527313Y-87990647D01*
X52527313Y-87990647D02*
X52527313Y-87847790D01*
X52527313Y-87847790D02*
X52479694Y-87657314D01*
X52479694Y-87657314D02*
X52432075Y-87562076D01*
X52432075Y-87562076D02*
X52336837Y-87466838D01*
X52336837Y-87466838D02*
X52193980Y-87419219D01*
X52193980Y-87419219D02*
X52098742Y-87419219D01*
X52098742Y-87419219D02*
X51955885Y-87466838D01*
X51955885Y-87466838D02*
X51908266Y-87514457D01*
X51527313Y-87514457D02*
X51479694Y-87466838D01*
X51479694Y-87466838D02*
X51384456Y-87419219D01*
X51384456Y-87419219D02*
X51146361Y-87419219D01*
X51146361Y-87419219D02*
X51051123Y-87466838D01*
X51051123Y-87466838D02*
X51003504Y-87514457D01*
X51003504Y-87514457D02*
X50955885Y-87609695D01*
X50955885Y-87609695D02*
X50955885Y-87704933D01*
X50955885Y-87704933D02*
X51003504Y-87847790D01*
X51003504Y-87847790D02*
X51574932Y-88419219D01*
X51574932Y-88419219D02*
X50955885Y-88419219D01*
X83328657Y-123551961D02*
X83281038Y-123456723D01*
X83281038Y-123456723D02*
X83185800Y-123361485D01*
X83185800Y-123361485D02*
X83042942Y-123218628D01*
X83042942Y-123218628D02*
X82995323Y-123123390D01*
X82995323Y-123123390D02*
X82995323Y-123028152D01*
X83233419Y-123075771D02*
X83185800Y-122980533D01*
X83185800Y-122980533D02*
X83090561Y-122885295D01*
X83090561Y-122885295D02*
X82900085Y-122837676D01*
X82900085Y-122837676D02*
X82566752Y-122837676D01*
X82566752Y-122837676D02*
X82376276Y-122885295D01*
X82376276Y-122885295D02*
X82281038Y-122980533D01*
X82281038Y-122980533D02*
X82233419Y-123075771D01*
X82233419Y-123075771D02*
X82233419Y-123266247D01*
X82233419Y-123266247D02*
X82281038Y-123361485D01*
X82281038Y-123361485D02*
X82376276Y-123456723D01*
X82376276Y-123456723D02*
X82566752Y-123504342D01*
X82566752Y-123504342D02*
X82900085Y-123504342D01*
X82900085Y-123504342D02*
X83090561Y-123456723D01*
X83090561Y-123456723D02*
X83185800Y-123361485D01*
X83185800Y-123361485D02*
X83233419Y-123266247D01*
X83233419Y-123266247D02*
X83233419Y-123075771D01*
X82328657Y-123885295D02*
X82281038Y-123932914D01*
X82281038Y-123932914D02*
X82233419Y-124028152D01*
X82233419Y-124028152D02*
X82233419Y-124266247D01*
X82233419Y-124266247D02*
X82281038Y-124361485D01*
X82281038Y-124361485D02*
X82328657Y-124409104D01*
X82328657Y-124409104D02*
X82423895Y-124456723D01*
X82423895Y-124456723D02*
X82519133Y-124456723D01*
X82519133Y-124456723D02*
X82661990Y-124409104D01*
X82661990Y-124409104D02*
X83233419Y-123837676D01*
X83233419Y-123837676D02*
X83233419Y-124456723D01*
X78299457Y-123577361D02*
X78251838Y-123482123D01*
X78251838Y-123482123D02*
X78156600Y-123386885D01*
X78156600Y-123386885D02*
X78013742Y-123244028D01*
X78013742Y-123244028D02*
X77966123Y-123148790D01*
X77966123Y-123148790D02*
X77966123Y-123053552D01*
X78204219Y-123101171D02*
X78156600Y-123005933D01*
X78156600Y-123005933D02*
X78061361Y-122910695D01*
X78061361Y-122910695D02*
X77870885Y-122863076D01*
X77870885Y-122863076D02*
X77537552Y-122863076D01*
X77537552Y-122863076D02*
X77347076Y-122910695D01*
X77347076Y-122910695D02*
X77251838Y-123005933D01*
X77251838Y-123005933D02*
X77204219Y-123101171D01*
X77204219Y-123101171D02*
X77204219Y-123291647D01*
X77204219Y-123291647D02*
X77251838Y-123386885D01*
X77251838Y-123386885D02*
X77347076Y-123482123D01*
X77347076Y-123482123D02*
X77537552Y-123529742D01*
X77537552Y-123529742D02*
X77870885Y-123529742D01*
X77870885Y-123529742D02*
X78061361Y-123482123D01*
X78061361Y-123482123D02*
X78156600Y-123386885D01*
X78156600Y-123386885D02*
X78204219Y-123291647D01*
X78204219Y-123291647D02*
X78204219Y-123101171D01*
X78204219Y-124482123D02*
X78204219Y-123910695D01*
X78204219Y-124196409D02*
X77204219Y-124196409D01*
X77204219Y-124196409D02*
X77347076Y-124101171D01*
X77347076Y-124101171D02*
X77442314Y-124005933D01*
X77442314Y-124005933D02*
X77489933Y-123910695D01*
X56783266Y-84554219D02*
X57116599Y-84078028D01*
X57354694Y-84554219D02*
X57354694Y-83554219D01*
X57354694Y-83554219D02*
X56973742Y-83554219D01*
X56973742Y-83554219D02*
X56878504Y-83601838D01*
X56878504Y-83601838D02*
X56830885Y-83649457D01*
X56830885Y-83649457D02*
X56783266Y-83744695D01*
X56783266Y-83744695D02*
X56783266Y-83887552D01*
X56783266Y-83887552D02*
X56830885Y-83982790D01*
X56830885Y-83982790D02*
X56878504Y-84030409D01*
X56878504Y-84030409D02*
X56973742Y-84078028D01*
X56973742Y-84078028D02*
X57354694Y-84078028D01*
X55830885Y-84554219D02*
X56402313Y-84554219D01*
X56116599Y-84554219D02*
X56116599Y-83554219D01*
X56116599Y-83554219D02*
X56211837Y-83697076D01*
X56211837Y-83697076D02*
X56307075Y-83792314D01*
X56307075Y-83792314D02*
X56402313Y-83839933D01*
X61406066Y-84588419D02*
X61739399Y-84112228D01*
X61977494Y-84588419D02*
X61977494Y-83588419D01*
X61977494Y-83588419D02*
X61596542Y-83588419D01*
X61596542Y-83588419D02*
X61501304Y-83636038D01*
X61501304Y-83636038D02*
X61453685Y-83683657D01*
X61453685Y-83683657D02*
X61406066Y-83778895D01*
X61406066Y-83778895D02*
X61406066Y-83921752D01*
X61406066Y-83921752D02*
X61453685Y-84016990D01*
X61453685Y-84016990D02*
X61501304Y-84064609D01*
X61501304Y-84064609D02*
X61596542Y-84112228D01*
X61596542Y-84112228D02*
X61977494Y-84112228D01*
X61025113Y-83683657D02*
X60977494Y-83636038D01*
X60977494Y-83636038D02*
X60882256Y-83588419D01*
X60882256Y-83588419D02*
X60644161Y-83588419D01*
X60644161Y-83588419D02*
X60548923Y-83636038D01*
X60548923Y-83636038D02*
X60501304Y-83683657D01*
X60501304Y-83683657D02*
X60453685Y-83778895D01*
X60453685Y-83778895D02*
X60453685Y-83874133D01*
X60453685Y-83874133D02*
X60501304Y-84016990D01*
X60501304Y-84016990D02*
X61072732Y-84588419D01*
X61072732Y-84588419D02*
X60453685Y-84588419D01*
X89244466Y-119282380D02*
X89292085Y-119330000D01*
X89292085Y-119330000D02*
X89434942Y-119377619D01*
X89434942Y-119377619D02*
X89530180Y-119377619D01*
X89530180Y-119377619D02*
X89673037Y-119330000D01*
X89673037Y-119330000D02*
X89768275Y-119234761D01*
X89768275Y-119234761D02*
X89815894Y-119139523D01*
X89815894Y-119139523D02*
X89863513Y-118949047D01*
X89863513Y-118949047D02*
X89863513Y-118806190D01*
X89863513Y-118806190D02*
X89815894Y-118615714D01*
X89815894Y-118615714D02*
X89768275Y-118520476D01*
X89768275Y-118520476D02*
X89673037Y-118425238D01*
X89673037Y-118425238D02*
X89530180Y-118377619D01*
X89530180Y-118377619D02*
X89434942Y-118377619D01*
X89434942Y-118377619D02*
X89292085Y-118425238D01*
X89292085Y-118425238D02*
X89244466Y-118472857D01*
X88339704Y-118377619D02*
X88815894Y-118377619D01*
X88815894Y-118377619D02*
X88863513Y-118853809D01*
X88863513Y-118853809D02*
X88815894Y-118806190D01*
X88815894Y-118806190D02*
X88720656Y-118758571D01*
X88720656Y-118758571D02*
X88482561Y-118758571D01*
X88482561Y-118758571D02*
X88387323Y-118806190D01*
X88387323Y-118806190D02*
X88339704Y-118853809D01*
X88339704Y-118853809D02*
X88292085Y-118949047D01*
X88292085Y-118949047D02*
X88292085Y-119187142D01*
X88292085Y-119187142D02*
X88339704Y-119282380D01*
X88339704Y-119282380D02*
X88387323Y-119330000D01*
X88387323Y-119330000D02*
X88482561Y-119377619D01*
X88482561Y-119377619D02*
X88720656Y-119377619D01*
X88720656Y-119377619D02*
X88815894Y-119330000D01*
X88815894Y-119330000D02*
X88863513Y-119282380D01*
X89041266Y-116793180D02*
X89088885Y-116840800D01*
X89088885Y-116840800D02*
X89231742Y-116888419D01*
X89231742Y-116888419D02*
X89326980Y-116888419D01*
X89326980Y-116888419D02*
X89469837Y-116840800D01*
X89469837Y-116840800D02*
X89565075Y-116745561D01*
X89565075Y-116745561D02*
X89612694Y-116650323D01*
X89612694Y-116650323D02*
X89660313Y-116459847D01*
X89660313Y-116459847D02*
X89660313Y-116316990D01*
X89660313Y-116316990D02*
X89612694Y-116126514D01*
X89612694Y-116126514D02*
X89565075Y-116031276D01*
X89565075Y-116031276D02*
X89469837Y-115936038D01*
X89469837Y-115936038D02*
X89326980Y-115888419D01*
X89326980Y-115888419D02*
X89231742Y-115888419D01*
X89231742Y-115888419D02*
X89088885Y-115936038D01*
X89088885Y-115936038D02*
X89041266Y-115983657D01*
X88184123Y-115888419D02*
X88374599Y-115888419D01*
X88374599Y-115888419D02*
X88469837Y-115936038D01*
X88469837Y-115936038D02*
X88517456Y-115983657D01*
X88517456Y-115983657D02*
X88612694Y-116126514D01*
X88612694Y-116126514D02*
X88660313Y-116316990D01*
X88660313Y-116316990D02*
X88660313Y-116697942D01*
X88660313Y-116697942D02*
X88612694Y-116793180D01*
X88612694Y-116793180D02*
X88565075Y-116840800D01*
X88565075Y-116840800D02*
X88469837Y-116888419D01*
X88469837Y-116888419D02*
X88279361Y-116888419D01*
X88279361Y-116888419D02*
X88184123Y-116840800D01*
X88184123Y-116840800D02*
X88136504Y-116793180D01*
X88136504Y-116793180D02*
X88088885Y-116697942D01*
X88088885Y-116697942D02*
X88088885Y-116459847D01*
X88088885Y-116459847D02*
X88136504Y-116364609D01*
X88136504Y-116364609D02*
X88184123Y-116316990D01*
X88184123Y-116316990D02*
X88279361Y-116269371D01*
X88279361Y-116269371D02*
X88469837Y-116269371D01*
X88469837Y-116269371D02*
X88565075Y-116316990D01*
X88565075Y-116316990D02*
X88612694Y-116364609D01*
X88612694Y-116364609D02*
X88660313Y-116459847D01*
X61355266Y-88268980D02*
X61402885Y-88316600D01*
X61402885Y-88316600D02*
X61545742Y-88364219D01*
X61545742Y-88364219D02*
X61640980Y-88364219D01*
X61640980Y-88364219D02*
X61783837Y-88316600D01*
X61783837Y-88316600D02*
X61879075Y-88221361D01*
X61879075Y-88221361D02*
X61926694Y-88126123D01*
X61926694Y-88126123D02*
X61974313Y-87935647D01*
X61974313Y-87935647D02*
X61974313Y-87792790D01*
X61974313Y-87792790D02*
X61926694Y-87602314D01*
X61926694Y-87602314D02*
X61879075Y-87507076D01*
X61879075Y-87507076D02*
X61783837Y-87411838D01*
X61783837Y-87411838D02*
X61640980Y-87364219D01*
X61640980Y-87364219D02*
X61545742Y-87364219D01*
X61545742Y-87364219D02*
X61402885Y-87411838D01*
X61402885Y-87411838D02*
X61355266Y-87459457D01*
X61021932Y-87364219D02*
X60402885Y-87364219D01*
X60402885Y-87364219D02*
X60736218Y-87745171D01*
X60736218Y-87745171D02*
X60593361Y-87745171D01*
X60593361Y-87745171D02*
X60498123Y-87792790D01*
X60498123Y-87792790D02*
X60450504Y-87840409D01*
X60450504Y-87840409D02*
X60402885Y-87935647D01*
X60402885Y-87935647D02*
X60402885Y-88173742D01*
X60402885Y-88173742D02*
X60450504Y-88268980D01*
X60450504Y-88268980D02*
X60498123Y-88316600D01*
X60498123Y-88316600D02*
X60593361Y-88364219D01*
X60593361Y-88364219D02*
X60879075Y-88364219D01*
X60879075Y-88364219D02*
X60974313Y-88316600D01*
X60974313Y-88316600D02*
X61021932Y-88268980D01*
X61406066Y-92358380D02*
X61453685Y-92406000D01*
X61453685Y-92406000D02*
X61596542Y-92453619D01*
X61596542Y-92453619D02*
X61691780Y-92453619D01*
X61691780Y-92453619D02*
X61834637Y-92406000D01*
X61834637Y-92406000D02*
X61929875Y-92310761D01*
X61929875Y-92310761D02*
X61977494Y-92215523D01*
X61977494Y-92215523D02*
X62025113Y-92025047D01*
X62025113Y-92025047D02*
X62025113Y-91882190D01*
X62025113Y-91882190D02*
X61977494Y-91691714D01*
X61977494Y-91691714D02*
X61929875Y-91596476D01*
X61929875Y-91596476D02*
X61834637Y-91501238D01*
X61834637Y-91501238D02*
X61691780Y-91453619D01*
X61691780Y-91453619D02*
X61596542Y-91453619D01*
X61596542Y-91453619D02*
X61453685Y-91501238D01*
X61453685Y-91501238D02*
X61406066Y-91548857D01*
X60548923Y-91786952D02*
X60548923Y-92453619D01*
X60787018Y-91406000D02*
X61025113Y-92120285D01*
X61025113Y-92120285D02*
X60406066Y-92120285D01*
D11*
%TO.C,Q3*%
X83697600Y-125387100D02*
X83697600Y-126037100D01*
X83697600Y-126687100D02*
X83697600Y-126037100D01*
X86817600Y-125387100D02*
X86817600Y-126037100D01*
X86817600Y-126687100D02*
X86817600Y-126037100D01*
X87097600Y-127439600D02*
X86767600Y-127199600D01*
X87097600Y-126959600D01*
X87097600Y-127439600D01*
G36*
X87097600Y-127439600D02*
G01*
X86767600Y-127199600D01*
X87097600Y-126959600D01*
X87097600Y-127439600D01*
G37*
%TO.C,U2*%
X75991800Y-113023600D02*
X79751800Y-113023600D01*
X75991800Y-114283600D02*
X75991800Y-113023600D01*
X75991800Y-118583600D02*
X75991800Y-119843600D01*
X75991800Y-119843600D02*
X79751800Y-119843600D01*
X81031800Y-113123600D02*
X80791800Y-112793600D01*
X81271800Y-112793600D01*
X81031800Y-113123600D01*
G36*
X81031800Y-113123600D02*
G01*
X80791800Y-112793600D01*
X81271800Y-112793600D01*
X81031800Y-113123600D01*
G37*
%TO.C,C1*%
X51028548Y-85043600D02*
X52451052Y-85043600D01*
X51028548Y-86863600D02*
X52451052Y-86863600D01*
%TO.C,C2*%
X51030348Y-88904400D02*
X52452852Y-88904400D01*
X51030348Y-90724400D02*
X52452852Y-90724400D01*
%TO.C,Q2*%
X78719200Y-125389400D02*
X78719200Y-126039400D01*
X78719200Y-126689400D02*
X78719200Y-126039400D01*
X81839200Y-125389400D02*
X81839200Y-126039400D01*
X81839200Y-126689400D02*
X81839200Y-126039400D01*
X82119200Y-127441900D02*
X81789200Y-127201900D01*
X82119200Y-126961900D01*
X82119200Y-127441900D01*
G36*
X82119200Y-127441900D02*
G01*
X81789200Y-127201900D01*
X82119200Y-126961900D01*
X82119200Y-127441900D01*
G37*
%TO.C,Q1*%
X73700200Y-125410200D02*
X73700200Y-126060200D01*
X73700200Y-126710200D02*
X73700200Y-126060200D01*
X76820200Y-125410200D02*
X76820200Y-126060200D01*
X76820200Y-126710200D02*
X76820200Y-126060200D01*
X77100200Y-127462700D02*
X76770200Y-127222700D01*
X77100200Y-126982700D01*
X77100200Y-127462700D01*
G36*
X77100200Y-127462700D02*
G01*
X76770200Y-127222700D01*
X77100200Y-126982700D01*
X77100200Y-127462700D01*
G37*
%TO.C,R1*%
X57343664Y-85043600D02*
X55889536Y-85043600D01*
X57343664Y-86863600D02*
X55889536Y-86863600D01*
%TO.C,R2*%
X60512336Y-85043600D02*
X61966464Y-85043600D01*
X60512336Y-86863600D02*
X61966464Y-86863600D01*
%TO.C,C5*%
X85901052Y-117987400D02*
X84478548Y-117987400D01*
X85901052Y-119807400D02*
X84478548Y-119807400D01*
%TO.C,C6*%
X85902852Y-115498200D02*
X84480348Y-115498200D01*
X85902852Y-117318200D02*
X84480348Y-117318200D01*
%TO.C,C3*%
X61974252Y-88828200D02*
X60551748Y-88828200D01*
X61974252Y-90648200D02*
X60551748Y-90648200D01*
%TO.C,C4*%
X61976052Y-94585200D02*
X60553548Y-94585200D01*
X61976052Y-92765200D02*
X60553548Y-92765200D01*
%TD*%
D12*
X38100000Y-76200000D02*
X109220000Y-76200000D01*
X109220000Y-172720000D01*
X38100000Y-172720000D01*
X38100000Y-76200000D01*
M02*
