%TF.GenerationSoftware,KiCad,Pcbnew,8.0.3-8.0.3-0~ubuntu23.10.1*%
%TF.CreationDate,2024-07-30T14:16:20+05:00*%
%TF.ProjectId,IOTV,494f5456-2e6b-4696-9361-645f70636258,3*%
%TF.SameCoordinates,Original*%
%TF.FileFunction,Soldermask,Top*%
%TF.FilePolarity,Negative*%
%FSLAX46Y46*%
G04 Gerber Fmt 4.6, Leading zero omitted, Abs format (unit mm)*
G04 Created by KiCad (PCBNEW 8.0.3-8.0.3-0~ubuntu23.10.1) date 2024-07-30 14:16:20*
%MOMM*%
%LPD*%
G01*
G04 APERTURE LIST*
G04 Aperture macros list*
%AMRoundRect*
0 Rectangle with rounded corners*
0 $1 Rounding radius*
0 $2 $3 $4 $5 $6 $7 $8 $9 X,Y pos of 4 corners*
0 Add a 4 corners polygon primitive as box body*
4,1,4,$2,$3,$4,$5,$6,$7,$8,$9,$2,$3,0*
0 Add four circle primitives for the rounded corners*
1,1,$1+$1,$2,$3*
1,1,$1+$1,$4,$5*
1,1,$1+$1,$6,$7*
1,1,$1+$1,$8,$9*
0 Add four rect primitives between the rounded corners*
20,1,$1+$1,$2,$3,$4,$5,0*
20,1,$1+$1,$4,$5,$6,$7,0*
20,1,$1+$1,$6,$7,$8,$9,0*
20,1,$1+$1,$8,$9,$2,$3,0*%
G04 Aperture macros list end*
%ADD10C,5.000000*%
%ADD11O,1.700000X1.700000*%
%ADD12R,1.700000X1.700000*%
%ADD13O,1.700000X2.000000*%
%ADD14R,1.700000X2.000000*%
%ADD15R,1.000000X1.700000*%
%ADD16C,3.000000*%
%ADD17RoundRect,0.218750X-0.218750X-0.256250X0.218750X-0.256250X0.218750X0.256250X-0.218750X0.256250X0*%
%ADD18RoundRect,0.250000X-0.312500X-0.625000X0.312500X-0.625000X0.312500X0.625000X-0.312500X0.625000X0*%
%ADD19C,1.600000*%
%ADD20R,1.600000X1.600000*%
%ADD21R,3.000000X3.000000*%
%ADD22R,0.900000X0.900000*%
%ADD23R,0.900000X1.500000*%
%ADD24R,1.500000X0.900000*%
%ADD25C,2.600000*%
%ADD26R,2.600000X2.600000*%
%ADD27C,1.712000*%
%ADD28RoundRect,0.102000X0.754000X-0.754000X0.754000X0.754000X-0.754000X0.754000X-0.754000X-0.754000X0*%
%ADD29C,2.000000*%
%TA.AperFunction,Profile*%
%ADD30C,0.150000*%
%TD*%
G04 APERTURE END LIST*
D10*
%TO.C,REF\u002A\u002A*%
X119566800Y-104001200D03*
%TD*%
%TO.C,REF\u002A\u002A*%
X174786400Y-116244000D03*
%TD*%
D11*
%TO.C,J6*%
X171845000Y-57136000D03*
D12*
X169305000Y-57136000D03*
%TD*%
D13*
%TO.C,PS1*%
X171658000Y-97934000D03*
X171658000Y-79934000D03*
X138058000Y-91934000D03*
D14*
X138058000Y-85934000D03*
%TD*%
D11*
%TO.C,J5*%
X171845000Y-53326000D03*
D12*
X169305000Y-53326000D03*
%TD*%
D15*
%TO.C,SW2*%
X148848000Y-52995400D03*
X148848000Y-59295400D03*
X145048000Y-52995400D03*
X145048000Y-59295400D03*
%TD*%
D16*
%TO.C,F3*%
X157590600Y-104917800D03*
X157590600Y-127417800D03*
%TD*%
D17*
%TO.C,D1*%
X154974500Y-56120000D03*
X153399500Y-56120000D03*
%TD*%
D18*
%TO.C,R3*%
X159510400Y-56018400D03*
X156585400Y-56018400D03*
%TD*%
D19*
%TO.C,C8*%
X179278400Y-136434800D03*
D20*
X174278400Y-136434800D03*
%TD*%
D17*
%TO.C,D2*%
X154945000Y-58380600D03*
X153370000Y-58380600D03*
%TD*%
D16*
%TO.C,FL1*%
X129803000Y-77043250D03*
X129803000Y-86949250D03*
X116849000Y-86949250D03*
D21*
X116849000Y-77043250D03*
%TD*%
D18*
%TO.C,R6*%
X159521000Y-53681600D03*
X156596000Y-53681600D03*
%TD*%
D22*
%TO.C,U1*%
X131602400Y-60787000D03*
X130202400Y-60787000D03*
X128802400Y-60787000D03*
X131602400Y-62187000D03*
X131602400Y-62187000D03*
X130202400Y-62187000D03*
X128802400Y-62187000D03*
X131602400Y-63587000D03*
X131602400Y-63587000D03*
X130202400Y-63587000D03*
X128802400Y-63587000D03*
X128802400Y-63587000D03*
D23*
X122482400Y-51937000D03*
X123752400Y-51937000D03*
X125022400Y-51937000D03*
X126292400Y-51937000D03*
X127562400Y-51937000D03*
X128832400Y-51937000D03*
X130102400Y-51937000D03*
X131372400Y-51937000D03*
X132642400Y-51937000D03*
X133912400Y-51937000D03*
X135182400Y-51937000D03*
X136452400Y-51937000D03*
X137722400Y-51937000D03*
X138992400Y-51937000D03*
D24*
X140242400Y-54977000D03*
X140242400Y-56247000D03*
X140242400Y-57517000D03*
X140242400Y-58787000D03*
X140242400Y-60057000D03*
X140242400Y-61327000D03*
X140242400Y-62597000D03*
X140242400Y-63867000D03*
X140242400Y-65137000D03*
X140242400Y-66407000D03*
D23*
X138992400Y-69437000D03*
X137722400Y-69437000D03*
X136452400Y-69437000D03*
X135182400Y-69437000D03*
X133912400Y-69437000D03*
X132642400Y-69437000D03*
X131372400Y-69437000D03*
X130102400Y-69437000D03*
X128832400Y-69437000D03*
X127562400Y-69437000D03*
X126292400Y-69437000D03*
X125022400Y-69437000D03*
X123752400Y-69437000D03*
X122482400Y-69437000D03*
%TD*%
D25*
%TO.C,J3*%
X156650800Y-135876000D03*
D26*
X151650800Y-135876000D03*
%TD*%
D25*
%TO.C,J2*%
X145220800Y-135876000D03*
D26*
X140220800Y-135876000D03*
%TD*%
D16*
%TO.C,F1*%
X119566800Y-92751200D03*
X119566800Y-115251200D03*
%TD*%
D15*
%TO.C,SW1*%
X148848000Y-61682200D03*
X148848000Y-67982200D03*
X145048000Y-61682200D03*
X145048000Y-67982200D03*
%TD*%
D16*
%TO.C,F2*%
X140598000Y-104740000D03*
X140598000Y-127240000D03*
%TD*%
D27*
%TO.C,K2*%
X147760800Y-106462800D03*
X147760800Y-109002800D03*
X147760800Y-119162800D03*
D28*
X147760800Y-126782800D03*
%TD*%
D25*
%TO.C,J4*%
X168000800Y-135876000D03*
D26*
X163000800Y-135876000D03*
%TD*%
D29*
%TO.C,RVe1*%
X130916800Y-133472800D03*
X120916800Y-131522800D03*
%TD*%
D27*
%TO.C,K1*%
X130565000Y-106285000D03*
X130565000Y-108825000D03*
X130565000Y-118985000D03*
D28*
X130565000Y-126605000D03*
%TD*%
D16*
%TO.C,F4*%
X174786400Y-104994000D03*
X174786400Y-127494000D03*
%TD*%
D29*
%TO.C,C7*%
X135082400Y-138289000D03*
X125082400Y-138289000D03*
%TD*%
D25*
%TO.C,J1*%
X119642800Y-125930000D03*
D26*
X119642800Y-120930000D03*
%TD*%
D11*
%TO.C,J_I2C1*%
X176163000Y-69328000D03*
X173623000Y-69328000D03*
X171083000Y-69328000D03*
X168543000Y-69328000D03*
D12*
X166003000Y-69328000D03*
%TD*%
D17*
%TO.C,D4*%
X154926100Y-53701600D03*
X153351100Y-53701600D03*
%TD*%
%TO.C,D3*%
X154934400Y-60768200D03*
X153359400Y-60768200D03*
%TD*%
D11*
%TO.C,J_UART1*%
X162188000Y-69328000D03*
X159648000Y-69328000D03*
X157108000Y-69328000D03*
X154568000Y-69328000D03*
D12*
X152028000Y-69328000D03*
%TD*%
D18*
%TO.C,R5*%
X159495600Y-60692000D03*
X156570600Y-60692000D03*
%TD*%
D11*
%TO.C,J7*%
X171840000Y-60946000D03*
D12*
X169300000Y-60946000D03*
%TD*%
D18*
%TO.C,R4*%
X159495600Y-58380600D03*
X156570600Y-58380600D03*
%TD*%
D27*
%TO.C,K3*%
X164880400Y-106564400D03*
X164880400Y-109104400D03*
X164880400Y-119264400D03*
D28*
X164880400Y-126884400D03*
%TD*%
D30*
X112150000Y-46750000D02*
X184150000Y-46750000D01*
X184150000Y-143750000D01*
X112150000Y-143750000D01*
X112150000Y-46750000D01*
M02*
