%TF.GenerationSoftware,KiCad,Pcbnew,8.0.3-8.0.3-0~ubuntu23.10.1*%
%TF.CreationDate,2024-07-29T17:43:26+05:00*%
%TF.ProjectId,IOTV,494f5456-2e6b-4696-9361-645f70636258,3*%
%TF.SameCoordinates,Original*%
%TF.FileFunction,Paste,Top*%
%TF.FilePolarity,Positive*%
%FSLAX46Y46*%
G04 Gerber Fmt 4.6, Leading zero omitted, Abs format (unit mm)*
G04 Created by KiCad (PCBNEW 8.0.3-8.0.3-0~ubuntu23.10.1) date 2024-07-29 17:43:26*
%MOMM*%
%LPD*%
G01*
G04 APERTURE LIST*
G04 Aperture macros list*
%AMRoundRect*
0 Rectangle with rounded corners*
0 $1 Rounding radius*
0 $2 $3 $4 $5 $6 $7 $8 $9 X,Y pos of 4 corners*
0 Add a 4 corners polygon primitive as box body*
4,1,4,$2,$3,$4,$5,$6,$7,$8,$9,$2,$3,0*
0 Add four circle primitives for the rounded corners*
1,1,$1+$1,$2,$3*
1,1,$1+$1,$4,$5*
1,1,$1+$1,$6,$7*
1,1,$1+$1,$8,$9*
0 Add four rect primitives between the rounded corners*
20,1,$1+$1,$2,$3,$4,$5,0*
20,1,$1+$1,$4,$5,$6,$7,0*
20,1,$1+$1,$6,$7,$8,$9,0*
20,1,$1+$1,$8,$9,$2,$3,0*%
G04 Aperture macros list end*
%ADD10R,1.000000X1.700000*%
%ADD11RoundRect,0.218750X-0.218750X-0.256250X0.218750X-0.256250X0.218750X0.256250X-0.218750X0.256250X0*%
%ADD12RoundRect,0.250000X-0.312500X-0.625000X0.312500X-0.625000X0.312500X0.625000X-0.312500X0.625000X0*%
%ADD13R,0.900000X1.500000*%
%ADD14R,1.500000X0.900000*%
%ADD15R,0.900000X0.900000*%
%TA.AperFunction,Profile*%
%ADD16C,0.100000*%
%TD*%
G04 APERTURE END LIST*
D10*
%TO.C,SW2*%
X70998000Y-88265400D03*
X70998000Y-81965400D03*
X74798000Y-88265400D03*
X74798000Y-81965400D03*
%TD*%
D11*
%TO.C,D1*%
X79349500Y-85090000D03*
X80924500Y-85090000D03*
%TD*%
D12*
%TO.C,R3*%
X82535400Y-84988400D03*
X85460400Y-84988400D03*
%TD*%
D11*
%TO.C,D2*%
X79320000Y-87350600D03*
X80895000Y-87350600D03*
%TD*%
D12*
%TO.C,R6*%
X82546000Y-82651600D03*
X85471000Y-82651600D03*
%TD*%
D13*
%TO.C,U1*%
X48432400Y-98407000D03*
X49702400Y-98407000D03*
X50972400Y-98407000D03*
X52242400Y-98407000D03*
X53512400Y-98407000D03*
X54782400Y-98407000D03*
X56052400Y-98407000D03*
X57322400Y-98407000D03*
X58592400Y-98407000D03*
X59862400Y-98407000D03*
X61132400Y-98407000D03*
X62402400Y-98407000D03*
X63672400Y-98407000D03*
X64942400Y-98407000D03*
D14*
X66192400Y-95377000D03*
X66192400Y-94107000D03*
X66192400Y-92837000D03*
X66192400Y-91567000D03*
X66192400Y-90297000D03*
X66192400Y-89027000D03*
X66192400Y-87757000D03*
X66192400Y-86487000D03*
X66192400Y-85217000D03*
X66192400Y-83947000D03*
D13*
X64942400Y-80907000D03*
X63672400Y-80907000D03*
X62402400Y-80907000D03*
X61132400Y-80907000D03*
X59862400Y-80907000D03*
X58592400Y-80907000D03*
X57322400Y-80907000D03*
X56052400Y-80907000D03*
X54782400Y-80907000D03*
X53512400Y-80907000D03*
X52242400Y-80907000D03*
X50972400Y-80907000D03*
X49702400Y-80907000D03*
X48432400Y-80907000D03*
D15*
X54752400Y-92557000D03*
X54752400Y-92557000D03*
X56152400Y-92557000D03*
X57552400Y-92557000D03*
X57552400Y-92557000D03*
X54752400Y-91157000D03*
X56152400Y-91157000D03*
X57552400Y-91157000D03*
X57552400Y-91157000D03*
X54752400Y-89757000D03*
X56152400Y-89757000D03*
X57552400Y-89757000D03*
%TD*%
D10*
%TO.C,SW1*%
X70998000Y-96952200D03*
X70998000Y-90652200D03*
X74798000Y-96952200D03*
X74798000Y-90652200D03*
%TD*%
D11*
%TO.C,D4*%
X79301100Y-82671600D03*
X80876100Y-82671600D03*
%TD*%
%TO.C,D3*%
X79309400Y-89738200D03*
X80884400Y-89738200D03*
%TD*%
D12*
%TO.C,R5*%
X82520600Y-89662000D03*
X85445600Y-89662000D03*
%TD*%
%TO.C,R4*%
X82520600Y-87350600D03*
X85445600Y-87350600D03*
%TD*%
D16*
X38100000Y-76200000D02*
X109220000Y-76200000D01*
X109220000Y-172720000D01*
X38100000Y-172720000D01*
X38100000Y-76200000D01*
M02*
