M48
; DRILL file {KiCad 8.0.3-8.0.3-0~ubuntu23.10.1} date 2024-07-30T14:16:22+0500
; FORMAT={-:-/ absolute / metric / decimal}
; #@! TF.CreationDate,2024-07-30T14:16:22+05:00
; #@! TF.GenerationSoftware,Kicad,Pcbnew,8.0.3-8.0.3-0~ubuntu23.10.1
; #@! TF.FileFunction,Plated,1,2,PTH
FMAT,2
METRIC
; #@! TA.AperFunction,Plated,PTH,ViaDrill
T1C0.400
; #@! TA.AperFunction,Plated,PTH,ComponentDrill
T2C0.800
; #@! TA.AperFunction,Plated,PTH,ComponentDrill
T3C1.000
; #@! TA.AperFunction,Plated,PTH,ComponentDrill
T4C1.300
; #@! TA.AperFunction,Plated,PTH,ComponentDrill
T5C1.500
; #@! TA.AperFunction,Plated,PTH,ComponentDrill
T6C2.500
%
G90
G05
T1
X123.783Y-66.991
X124.317Y-63.232
X125.688Y-66.991
X126.298Y-53.732
X127.568Y-53.732
X128.838Y-53.732
X130.057Y-53.707
X133.892Y-66.585
X136.813Y-66.585
X143.646Y-73.9
X148.37Y-94.423
X150.275Y-101.078
X151.799Y-97.649
X155.279Y-101.078
X156.879Y-97.598
X160.258Y-101.078
T2
X174.278Y-136.435
X179.278Y-136.435
T3
X120.917Y-131.523
X125.082Y-138.289
X130.565Y-106.285
X130.565Y-108.825
X130.565Y-118.985
X130.565Y-126.605
X130.917Y-133.473
X135.082Y-138.289
X138.058Y-85.934
X138.058Y-91.934
X147.761Y-106.463
X147.761Y-109.003
X147.761Y-119.163
X147.761Y-126.783
X152.028Y-69.328
X154.568Y-69.328
X157.108Y-69.328
X159.648Y-69.328
X162.188Y-69.328
X164.88Y-106.564
X164.88Y-109.104
X164.88Y-119.264
X164.88Y-126.884
X166.003Y-69.328
X168.543Y-69.328
X169.3Y-60.946
X169.305Y-53.326
X169.305Y-57.136
X171.083Y-69.328
X171.658Y-79.934
X171.658Y-97.934
X171.84Y-60.946
X171.845Y-53.326
X171.845Y-57.136
X173.623Y-69.328
X176.163Y-69.328
T4
X119.567Y-92.751
X119.567Y-115.251
X119.643Y-120.93
X119.643Y-125.93
X140.221Y-135.876
X140.598Y-104.74
X140.598Y-127.24
X145.221Y-135.876
X151.651Y-135.876
X156.651Y-135.876
X157.591Y-104.918
X157.591Y-127.418
X163.001Y-135.876
X168.001Y-135.876
X174.786Y-104.994
X174.786Y-127.494
T5
X116.849Y-77.043
X116.849Y-86.949
X129.803Y-77.043
X129.803Y-86.949
T6
X119.567Y-104.001
X174.786Y-116.244
M30
